<?xml version="1.0" encoding="iso-8859-1"?>
<!-- Generator: Adobe Illustrator 25.2.0, SVG Export Plug-In . SVG Version: 6.00 Build 0)  -->
<svg version="1.1" xmlns="http://www.w3.org/2000/svg" xmlns:xlink="http://www.w3.org/1999/xlink" x="0px" y="0px"
	 viewBox="0 0 492 492" style="enable-background:new 0 0 492 492;" xml:space="preserve">
<g id="Master_Layer_2">
</g>
<g id="Layer_1">
	<g>
		<g>
			<polygon style="fill-rule:evenodd;clip-rule:evenodd;fill:#D5E0E2;" points="402.317,63.865 405.218,89.227 430.58,92.128 
				401.544,121.163 376.182,118.263 373.282,92.901 			"/>
		</g>
		<g>
			<g>
				
					<ellipse transform="matrix(0.7071 -0.7071 0.7071 0.7071 -116.5107 239.6857)" style="fill-rule:evenodd;clip-rule:evenodd;fill:#ED6B6B;" cx="231.071" cy="260.484" rx="169.13" ry="169.13"/>
			</g>
		</g>
		<g>
			<g>
				
					<ellipse transform="matrix(0.7071 -0.7071 0.7071 0.7071 -116.5108 239.6857)" style="fill-rule:evenodd;clip-rule:evenodd;fill:#D5E0E2;" cx="231.071" cy="260.484" rx="124.029" ry="124.029"/>
			</g>
		</g>
		<g>
			<g>
				
					<ellipse transform="matrix(0.9732 -0.2298 0.2298 0.9732 -53.6656 60.0575)" style="fill-rule:evenodd;clip-rule:evenodd;fill:#ED6B6B;" cx="231.071" cy="260.484" rx="78.928" ry="78.927"/>
			</g>
		</g>
		<g>
			<g>
				
					<ellipse transform="matrix(0.9796 -0.2011 0.2011 0.9796 -47.6555 51.7803)" style="fill-rule:evenodd;clip-rule:evenodd;fill:#D5E0E2;" cx="231.071" cy="260.484" rx="33.826" ry="33.826"/>
			</g>
		</g>
		<g>
			<g>
				<path style="fill-rule:evenodd;clip-rule:evenodd;fill:#A0A7AA;" d="M231.973,265.473c-1.349,0-2.697-0.52-3.718-1.558
					c-2.019-2.053-1.991-5.354,0.062-7.373L382.8,104.619l27.295-26.842c2.053-2.019,5.354-1.991,7.373,0.062
					c2.019,2.053,1.992,5.354-0.062,7.373l-27.295,26.842L235.629,263.977C234.613,264.975,233.293,265.473,231.973,265.473z"/>
			</g>
		</g>
	</g>
</g>
</svg>
