<?xml version="1.0" encoding="iso-8859-1"?>
<!-- Generator: Adobe Illustrator 25.2.0, SVG Export Plug-In . SVG Version: 6.00 Build 0)  -->
<svg version="1.1" xmlns="http://www.w3.org/2000/svg" xmlns:xlink="http://www.w3.org/1999/xlink" x="0px" y="0px"
	 viewBox="0 0 492 492" style="enable-background:new 0 0 492 492;" xml:space="preserve">
<g id="Master_Layer_2">
</g>
<g id="Layer_1">
	<g>
		<g>
			
				<ellipse transform="matrix(0.7071 -0.7071 0.7071 0.7071 -102.3435 246.4007)" style="fill-rule:evenodd;clip-rule:evenodd;fill:#D5E0E2;" cx="246.26" cy="246.74" rx="184.32" ry="184.32"/>
			<polygon style="fill-rule:evenodd;clip-rule:evenodd;fill:#A0A7AA;" points="228.364,344.102 246.26,227.168 264.157,344.102 			
				"/>
			<path style="fill-rule:evenodd;clip-rule:evenodd;fill:#ED6B6B;" d="M391.979,251.339h-50.633
				c0-26.666-10.766-50.795-28.15-68.191l35.807-36.157C375.546,173.645,391.979,210.554,391.979,251.339z"/>
			<path style="fill-rule:evenodd;clip-rule:evenodd;fill:#E8BE60;" d="M100.588,251.339h50.633
				c0-26.666,10.766-50.795,28.15-68.191l-35.807-36.157C117.021,173.645,100.588,210.554,100.588,251.339z"/>
			<path style="fill-rule:evenodd;clip-rule:evenodd;fill:#61E574;" d="M349.002,146.991
				c-26.336-26.44-62.626-42.784-102.696-42.797v0c-0.008,0-0.016,0-0.023,0c-0.008,0-0.016,0-0.023,0v0
				c-40.07,0.013-76.36,16.357-102.696,42.797l35.807,36.157c17.177-17.199,40.816-27.819,66.912-27.826
				c26.097,0.006,49.735,10.627,66.912,27.826L349.002,146.991z"/>
			
				<ellipse transform="matrix(0.7071 -0.7071 0.7071 0.7071 -185.49 280.8411)" style="fill-rule:evenodd;clip-rule:evenodd;fill:#BBC2C4;" cx="246.26" cy="364.327" rx="28.245" ry="28.245"/>
		</g>
	</g>
</g>
</svg>
