<?xml version="1.0" encoding="iso-8859-1"?>
<!-- Generator: Adobe Illustrator 25.2.0, SVG Export Plug-In . SVG Version: 6.00 Build 0)  -->
<svg version="1.1" xmlns="http://www.w3.org/2000/svg" xmlns:xlink="http://www.w3.org/1999/xlink" x="0px" y="0px"
	 viewBox="0 0 492 492" style="enable-background:new 0 0 492 492;" xml:space="preserve">
<g id="Master_Layer_2">
</g>
<g id="Layer_1">
	<g>
		<g>
			<g>
				<g>
					<path style="fill-rule:evenodd;clip-rule:evenodd;fill:#D5E0E2;" d="M292.619,172.512c-1.009,0-2.031-0.257-2.967-0.797
						c-2.844-1.642-3.818-5.278-2.176-8.122l29.893-51.778c1.642-2.844,5.278-3.818,8.122-2.176
						c2.844,1.642,3.818,5.278,2.176,8.122l-29.893,51.778C296.673,171.446,294.674,172.512,292.619,172.512z"/>
				</g>
			</g>
			<g>
				<g>
					<path style="fill-rule:evenodd;clip-rule:evenodd;fill:#D5E0E2;" d="M172.912,379.851c-1.009,0-2.031-0.257-2.967-0.797
						c-2.844-1.642-3.818-5.278-2.176-8.122l24.744-42.859c1.642-2.844,5.278-3.818,8.122-2.176
						c2.844,1.642,3.818,5.278,2.176,8.122l-24.744,42.859C176.966,378.785,174.967,379.851,172.912,379.851z"/>
				</g>
			</g>
			<g>
				<g>
					<path style="fill-rule:evenodd;clip-rule:evenodd;fill:#D5E0E2;" d="M321.236,382.081c-2.055,0-4.054-1.066-5.155-2.974
						l-27.319-47.319c-1.642-2.844-0.667-6.48,2.176-8.122c2.844-1.642,6.48-0.667,8.122,2.176l27.319,47.319
						c1.642,2.844,0.667,6.48-2.176,8.122C323.267,381.824,322.245,382.081,321.236,382.081z"/>
				</g>
			</g>
			<g>
				<g>
					<path style="fill-rule:evenodd;clip-rule:evenodd;fill:#D5E0E2;" d="M199.24,170.778c-2.055,0-4.054-1.066-5.155-2.974
						l-27.891-48.31c-1.642-2.844-0.668-6.48,2.176-8.122c2.843-1.642,6.48-0.668,8.122,2.176l27.891,48.309
						c1.642,2.844,0.667,6.48-2.177,8.122C201.271,170.521,200.249,170.778,199.24,170.778z"/>
				</g>
			</g>
			<g>
				<g>
					<path style="fill-rule:evenodd;clip-rule:evenodd;fill:#D5E0E2;" d="M396.336,252.521h-55.247
						c-3.284,0-5.946-2.662-5.946-5.945c0-3.284,2.662-5.946,5.946-5.946h55.247c3.284,0,5.946,2.662,5.946,5.946
						C402.281,249.859,399.619,252.521,396.336,252.521z"/>
				</g>
			</g>
			<g>
				<g>
					<path style="fill-rule:evenodd;clip-rule:evenodd;fill:#D5E0E2;" d="M151.524,252.521H96.773c-3.284,0-5.946-2.662-5.946-5.945
						c0-3.284,2.662-5.946,5.946-5.946h54.751c3.284,0,5.946,2.662,5.946,5.946C157.47,249.859,154.808,252.521,151.524,252.521z"/>
				</g>
			</g>
			<g>
				<g>
					<polygon style="fill-rule:evenodd;clip-rule:evenodd;fill:#7AEA8A;" points="347.662,246.576 297.046,334.244 195.815,334.244 
						145.199,246.576 195.815,158.908 297.046,158.908 					"/>
				</g>
			</g>
			<g>
				
					<rect x="307.806" y="84.59" transform="matrix(0.5 -0.866 0.866 0.5 73.2163 336.5768)" style="fill-rule:evenodd;clip-rule:evenodd;fill:#EDC472;" width="40.58" height="40.58"/>
			</g>
			<g>
				<g>
					
						<rect x="143.775" y="367.982" transform="matrix(0.5 -0.866 0.866 0.5 -254.2207 336.217)" style="fill-rule:evenodd;clip-rule:evenodd;fill:#EA7D7D;" width="40.58" height="40.58"/>
				</g>
			</g>
			<g>
				<rect x="61.94" y="226.115" style="fill-rule:evenodd;clip-rule:evenodd;fill:#EDC472;" width="40.581" height="40.58"/>
			</g>
			<g>
				<g>
					<rect x="389.999" y="226.115" style="fill-rule:evenodd;clip-rule:evenodd;fill:#EA7D7D;" width="40.581" height="40.58"/>
				</g>
			</g>
			<g>
				
					<rect x="308.147" y="368.309" transform="matrix(0.866 -0.5 0.5 0.866 -150.2998 216.287)" style="fill-rule:evenodd;clip-rule:evenodd;fill:#EDC472;" width="40.58" height="40.58"/>
			</g>
			<g>
				<g>
					
						<rect x="144.122" y="84.59" transform="matrix(0.866 -0.5 0.5 0.866 -30.4131 96.2583)" style="fill-rule:evenodd;clip-rule:evenodd;fill:#EA7D7D;" width="40.58" height="40.58"/>
				</g>
			</g>
			<g>
				<g>
					<polygon style="fill-rule:evenodd;clip-rule:evenodd;fill:#4EE56B;" points="269.171,207.188 223.69,207.188 200.95,246.576 
						223.69,285.963 269.171,285.963 291.911,246.576 					"/>
				</g>
			</g>
		</g>
	</g>
</g>
</svg>
