<?xml version="1.0" encoding="iso-8859-1"?>
<!-- Generator: Adobe Illustrator 25.2.0, SVG Export Plug-In . SVG Version: 6.00 Build 0)  -->
<svg version="1.1" xmlns="http://www.w3.org/2000/svg" xmlns:xlink="http://www.w3.org/1999/xlink" x="0px" y="0px"
	 viewBox="0 0 492 492" style="enable-background:new 0 0 492 492;" xml:space="preserve">
<g id="Master_Layer_2">
</g>
<g id="Layer_1">
	<g>
		<g>
			<rect x="208.961" y="342.005" style="fill-rule:evenodd;clip-rule:evenodd;fill:#CCD4D6;" width="74.6" height="44.708"/>
			<path style="fill-rule:evenodd;clip-rule:evenodd;fill:#D5E0E2;" d="M293.67,125.044H68.476c-3.595,0-6.535,2.941-6.535,6.533
				V337.95c0,3.592,2.941,6.533,6.535,6.533l140.484,0h74.599h140.484c3.595,0,6.536-2.941,6.536-6.533V131.577
				c0-3.592-2.941-6.533-6.536-6.533h-28.487H293.67z"/>
			<path style="fill-rule:evenodd;clip-rule:evenodd;fill:#C2CACC;" d="M312.692,394.577H179.828c-3.284,0-5.946-2.662-5.946-5.946
				c0-3.284,2.662-5.946,5.946-5.946l132.863,0c3.284,0,5.946,2.662,5.946,5.946C318.638,391.915,315.976,394.577,312.692,394.577z"
				/>
			<path style="fill-rule:evenodd;clip-rule:evenodd;fill:#E8BE60;" d="M162.476,243.92v61.745c-17.051,0-32.486-6.91-43.66-18.085
				c-11.174-11.174-18.085-26.609-18.085-43.66c0-17.051,6.911-32.486,18.085-43.66L162.476,243.92z"/>
			<path style="fill-rule:evenodd;clip-rule:evenodd;fill:#61E574;" d="M170.808,170.402v57.506l-40.663-40.663
				C140.552,176.838,154.927,170.402,170.808,170.402z"/>
			<path style="fill-rule:evenodd;clip-rule:evenodd;fill:#E8BE60;" d="M246.782,216.326h-54.993v-54.994
				c15.187,0,28.934,6.155,38.886,16.107C240.627,187.392,246.782,201.14,246.782,216.326z"/>
			<path style="fill-rule:evenodd;clip-rule:evenodd;fill:#61E574;" d="M223.451,288.485
				c-11.136,11.136-26.519,18.024-43.512,18.024v-61.536L223.451,288.485z"/>
			<path style="fill-rule:evenodd;clip-rule:evenodd;fill:#E8BE60;" d="M255.247,236.249c0,16.242-6.583,30.945-17.227,41.589
				l-41.589-41.589H255.247z"/>
			<path style="fill-rule:evenodd;clip-rule:evenodd;fill:#A0A7AA;" d="M391.79,286.071H297.4c-3.284,0-5.946-2.662-5.946-5.946
				c0-3.284,2.662-5.946,5.946-5.946l94.389,0c3.284,0,5.946,2.662,5.946,5.946C397.736,283.408,395.074,286.071,391.79,286.071z"/>
			<path style="fill-rule:evenodd;clip-rule:evenodd;fill:#A0A7AA;" d="M391.79,206.917H297.4c-3.284,0-5.946-2.662-5.946-5.946
				c0-3.284,2.662-5.946,5.946-5.946h94.389c3.284,0,5.946,2.662,5.946,5.946C397.736,204.255,395.074,206.917,391.79,206.917z"/>
			<path style="fill-rule:evenodd;clip-rule:evenodd;fill:#A0A7AA;" d="M391.79,233.301H297.4c-3.284,0-5.946-2.662-5.946-5.946
				c0-3.284,2.662-5.946,5.946-5.946h94.389c3.284,0,5.946,2.662,5.946,5.946C397.736,230.639,395.074,233.301,391.79,233.301z"/>
			<path style="fill-rule:evenodd;clip-rule:evenodd;fill:#A0A7AA;" d="M391.79,259.686H297.4c-3.284,0-5.946-2.662-5.946-5.946
				c0-3.284,2.662-5.946,5.946-5.946l94.389,0c3.284,0,5.946,2.662,5.946,5.946C397.736,257.024,395.074,259.686,391.79,259.686z"/>
			<path style="fill-rule:evenodd;clip-rule:evenodd;fill:#A0A7AA;" d="M391.79,312.455H297.4c-3.284,0-5.946-2.662-5.946-5.946
				c0-3.284,2.662-5.946,5.946-5.946l94.389,0c3.284,0,5.946,2.662,5.946,5.946C397.736,309.793,395.074,312.455,391.79,312.455z"/>
			<g>
				<path style="fill-rule:evenodd;clip-rule:evenodd;fill:#C7CFD1;" d="M291.839,125.063c14.332,16.329,32.793,26.16,52.941,26.16
					c20.148,0,38.609-9.83,52.941-26.16H291.839z M291.839,125.063L291.839,125.063L291.839,125.063z"/>
			</g>
			<g>
				<path style="fill-rule:evenodd;clip-rule:evenodd;fill:#C7CFD1;" d="M397.721,125.063c-14.332-16.329-32.793-26.16-52.941-26.16
					s-38.609,9.831-52.941,26.16H397.721z M397.721,125.063L397.721,125.063L397.721,125.063z"/>
			</g>
			<path style="fill-rule:evenodd;clip-rule:evenodd;fill:#A0A7AA;" d="M360.9,125.163c0-8.97-7.316-16.287-16.287-16.287
				s-16.287,7.316-16.287,16.287s7.316,16.287,16.287,16.287S360.9,134.133,360.9,125.163z"/>
		</g>
	</g>
</g>
</svg>
