<?xml version="1.0" encoding="utf-8"?>
<!-- Generator: Adobe Illustrator 23.0.2, SVG Export Plug-In . SVG Version: 6.00 Build 0)  -->
<svg version="1.1" id="Layer_1" xmlns="http://www.w3.org/2000/svg" xmlns:xlink="http://www.w3.org/1999/xlink" x="0px" y="0px"
	 viewBox="0 0 2048 2048" style="enable-background:new 0 0 2048 2048;" xml:space="preserve">
<style type="text/css">
	.st0{fill:#D7E5F5;}
	.st1{fill:#85C6F2;}
	.st2{fill:#DD636E;}
	.st3{fill:#477B9E;}
	.st4{fill:#A2BCCC;}
	.st5{fill:#355E7C;}
</style>
<g>
	<path class="st0" d="M279.94,610.71h1297v905.28c0,22.79-18.47,41.26-41.26,41.26H321.19c-22.79,0-41.26-18.47-41.26-41.26V610.71z
		"/>
	<path class="st1" d="M563.93,905.01H412.88c-5.7,0-10.31-4.62-10.31-10.31V743.64c0-5.7,4.62-10.31,10.31-10.31h151.05
		c5.7,0,10.31,4.62,10.31,10.31v151.05C574.24,900.39,569.62,905.01,563.93,905.01z"/>
	<path class="st1" d="M857.29,905.01H706.24c-5.7,0-10.31-4.62-10.31-10.31V743.64c0-5.7,4.62-10.31,10.31-10.31h151.05
		c5.7,0,10.31,4.62,10.31,10.31v151.05C867.6,900.39,862.98,905.01,857.29,905.01z"/>
	<path class="st1" d="M1150.65,905.01H999.6c-5.7,0-10.31-4.62-10.31-10.31V743.64c0-5.7,4.62-10.31,10.31-10.31h151.05
		c5.7,0,10.31,4.62,10.31,10.31v151.05C1160.96,900.39,1156.34,905.01,1150.65,905.01z"/>
	<path class="st1" d="M1444.01,905.01h-151.05c-5.7,0-10.31-4.62-10.31-10.31V743.64c0-5.7,4.62-10.31,10.31-10.31h151.05
		c5.7,0,10.31,4.62,10.31,10.31v151.05C1454.32,900.39,1449.7,905.01,1444.01,905.01z"/>
	<path class="st1" d="M563.93,1169.81H412.88c-5.7,0-10.31-4.62-10.31-10.31v-151.05c0-5.7,4.62-10.31,10.31-10.31h151.05
		c5.7,0,10.31,4.62,10.31,10.31v151.05C574.24,1165.2,569.62,1169.81,563.93,1169.81z"/>
	<path class="st1" d="M857.29,1169.81H706.24c-5.7,0-10.31-4.62-10.31-10.31v-151.05c0-5.7,4.62-10.31,10.31-10.31h151.05
		c5.7,0,10.31,4.62,10.31,10.31v151.05C867.6,1165.2,862.98,1169.81,857.29,1169.81z"/>
	<path class="st1" d="M563.93,1434.62H412.88c-5.7,0-10.31-4.62-10.31-10.31v-151.05c0-5.7,4.62-10.31,10.31-10.31h151.05
		c5.7,0,10.31,4.62,10.31,10.31v151.05C574.24,1430,569.62,1434.62,563.93,1434.62z"/>
	<path class="st1" d="M857.29,1434.62H706.24c-5.7,0-10.31-4.62-10.31-10.31v-151.05c0-5.7,4.62-10.31,10.31-10.31h151.05
		c5.7,0,10.31,4.62,10.31,10.31v151.05C867.6,1430,862.98,1434.62,857.29,1434.62z"/>
	<g>
		<g>
			<path class="st2" d="M336.53,378.4c-31.26,0-56.6,25.34-56.6,56.6v175.7h1297.01V435c0-31.26-25.34-56.6-56.6-56.6H336.53z"/>
		</g>
	</g>
	<g>
		<path class="st1" d="M519.12,500.8L519.12,500.8c-28.33,0-51.29-22.96-51.29-51.29V307.29c0-28.33,22.96-51.29,51.29-51.29h0
			c28.33,0,51.29,22.96,51.29,51.29v142.22C570.41,477.84,547.44,500.8,519.12,500.8z"/>
		<path class="st1" d="M1337.77,500.8L1337.77,500.8c-28.33,0-51.29-22.96-51.29-51.29V307.29c0-28.33,22.96-51.29,51.29-51.29h0
			c28.33,0,51.29,22.96,51.29,51.29v142.22C1389.06,477.84,1366.09,500.8,1337.77,500.8z"/>
	</g>
	<g>
		<path class="st2" d="M1361.17,1792c-54.9,0-108.19-10.77-158.41-32.01c-48.46-20.5-91.97-49.83-129.31-87.17
			c-37.34-37.34-66.67-80.85-87.17-129.31c-21.24-50.21-32.01-103.51-32.01-158.41s10.77-108.19,32.01-158.41
			c20.5-48.46,49.83-91.97,87.17-129.31c37.34-37.34,80.85-66.67,129.31-87.17c50.21-21.24,103.51-32.01,158.41-32.01
			c54.9,0,108.19,10.77,158.41,32.01c48.46,20.5,91.97,49.83,129.31,87.17c37.34,37.34,66.67,80.85,87.17,129.31
			c21.24,50.21,32.01,103.51,32.01,158.41s-10.77,108.19-32.01,158.41c-20.5,48.46-49.83,91.97-87.17,129.31
			c-37.34,37.34-80.85,66.67-129.31,87.17C1469.36,1781.23,1416.06,1792,1361.17,1792z"/>
		<path class="st0" d="M1689.02,1385.11c0,4.71-0.1,9.4-0.3,14.05c-3.37,79.94-35.37,152.48-86,207.62
			c-6.34,6.91-12.97,13.53-19.88,19.87c-55.15,50.65-127.68,82.64-207.62,86.01c-4.65,0.2-9.34,0.3-14.05,0.3
			c-4.71,0-9.4-0.1-14.05-0.3c-79.93-3.36-152.47-35.36-207.61-86.01c-6.9-6.32-13.53-12.95-19.88-19.87
			c-50.63-55.15-82.63-127.68-86-207.62c-0.2-4.65-0.3-9.34-0.3-14.05c0-4.71,0.1-9.4,0.3-14.05c3.37-79.95,35.37-152.48,86-207.63
			c6.35-6.91,12.98-13.54,19.88-19.87c55.15-50.65,127.68-82.64,207.61-86.01c4.65-0.2,9.34-0.3,14.05-0.3c4.71,0,9.4,0.1,14.05,0.3
			c79.94,3.37,152.48,35.36,207.62,86.01c6.9,6.33,13.53,12.96,19.88,19.87c50.63,55.15,82.63,127.68,86,207.63
			C1688.92,1375.71,1689.02,1380.4,1689.02,1385.11z"/>
		<g>
			<g>
				<path class="st3" d="M1512.53,1399.15h-151.36c-7.76,0-14.05-6.29-14.05-14.05c0-7.76,6.29-14.05,14.05-14.05h151.36
					c7.76,0,14.05,6.29,14.05,14.05C1526.58,1392.86,1520.29,1399.15,1512.53,1399.15z"/>
			</g>
			<g>
				<path class="st3" d="M1361.17,1399.15c-7.76,0-14.05-6.29-14.05-14.05v-174.37c0-7.76,6.29-14.05,14.05-14.05
					c7.76,0,14.05,6.29,14.05,14.05v174.37C1375.22,1392.86,1368.93,1399.15,1361.17,1399.15z"/>
			</g>
		</g>
		<g>
			<g>
				<path class="st4" d="M1375.22,1057.55v56.9c0,7.76-6.29,14.05-14.05,14.05c-7.76,0-14.05-6.3-14.05-14.05v-56.9
					c4.65-0.2,9.34-0.3,14.05-0.3C1365.88,1057.25,1370.57,1057.35,1375.22,1057.55z"/>
			</g>
			<g>
				<path class="st4" d="M1179.72,1203.66c-2.74,2.74-6.34,4.12-9.93,4.12c-3.59,0-7.19-1.38-9.93-4.12l-40.23-40.23
					c6.35-6.91,12.98-13.54,19.88-19.87l40.22,40.22C1185.21,1189.27,1185.21,1198.17,1179.72,1203.66z"/>
			</g>
			<g>
				<path class="st4" d="M1104.56,1385.11c0,7.76-6.29,14.05-14.05,14.05h-56.89c-0.2-4.65-0.3-9.34-0.3-14.05
					c0-4.71,0.1-9.4,0.3-14.05h56.89C1098.28,1371.06,1104.56,1377.34,1104.56,1385.11z"/>
			</g>
			<g>
				<path class="st4" d="M1179.72,1586.42l-40.22,40.22c-6.9-6.32-13.53-12.95-19.88-19.87l40.23-40.23
					c5.48-5.49,14.39-5.49,19.87,0C1185.21,1572.04,1185.21,1580.93,1179.72,1586.42z"/>
			</g>
			<g>
				<path class="st4" d="M1375.22,1655.76v56.89c-4.65,0.2-9.34,0.3-14.05,0.3c-4.71,0-9.4-0.1-14.05-0.3v-56.89
					c0-7.76,6.29-14.05,14.05-14.05C1368.93,1641.71,1375.22,1648,1375.22,1655.76z"/>
			</g>
			<g>
				<path class="st4" d="M1602.72,1606.78c-6.34,6.91-12.97,13.53-19.88,19.87l-40.22-40.22c-5.49-5.49-5.49-14.39,0-19.88
					c5.49-5.49,14.39-5.49,19.87,0L1602.72,1606.78z"/>
			</g>
			<g>
				<path class="st4" d="M1689.02,1385.11c0,4.71-0.1,9.4-0.3,14.05h-56.89c-7.76,0-14.05-6.3-14.05-14.05
					c0-7.76,6.3-14.05,14.05-14.05h56.89C1688.92,1375.71,1689.02,1380.4,1689.02,1385.11z"/>
			</g>
			<g>
				<path class="st4" d="M1602.72,1163.42l-40.23,40.23c-2.74,2.74-6.33,4.12-9.93,4.12c-3.6,0-7.19-1.38-9.93-4.12
					c-5.49-5.49-5.49-14.39,0-19.88l40.22-40.22C1589.75,1149.89,1596.38,1156.52,1602.72,1163.42z"/>
			</g>
		</g>
		<circle class="st5" cx="1361.17" cy="1385.1" r="40.77"/>
	</g>
</g>
</svg>
