<?xml version="1.0" encoding="utf-8"?>
<!-- Generator: Adobe Illustrator 23.0.2, SVG Export Plug-In . SVG Version: 6.00 Build 0)  -->
<svg version="1.1" id="Layer_1" xmlns="http://www.w3.org/2000/svg" xmlns:xlink="http://www.w3.org/1999/xlink" x="0px" y="0px"
	 viewBox="0 0 2048 2048" style="enable-background:new 0 0 2048 2048;" xml:space="preserve">
<style type="text/css">
	.st0{fill:#465A65;}
	.st1{fill:#BBECFF;}
	.st2{fill:#EBB39E;}
	.st3{fill:#85C6F2;}
	.st4{fill:#7BB8E0;}
	.st5{fill:#784132;}
	.st6{fill:#F4BAA6;}
	.st7{fill:#33444D;}
	.st8{fill:#263238;}
	.st9{fill:#DD636E;}
	.st10{fill:#BD555E;}
	.st11{fill:#FEDD61;}
	.st12{fill:#DEC155;}
</style>
<g>
	<path class="st0" d="M361.22,805.78c0-22.8,18.49-41.29,41.29-41.29h1242.98c22.8,0,41.29,18.49,41.29,41.29v727.82H361.22V805.78z
		"/>
	<rect x="454.12" y="857.39" class="st1" width="1139.76" height="583.3"/>
	<g>
		<g>
			<path class="st2" d="M1110.36,982.42V849.21H930.88v126.27c2.66,11.75,5.31,19.24,4.93,36.27c-0.61,27.52-8.19,54.07-16.03,73.37
				v150.11h206.8v-149.93c-9.11-20.5-17.85-47.86-18.52-77.82C1107.81,996.32,1108.86,989.27,1110.36,982.42L1110.36,982.42
				L1110.36,982.42z"/>
		</g>
		<path class="st3" d="M1359.07,1440.69H688.93c0.63-53.71,4.4-165.84,25.08-239.67c6.15-21.95,13.27-38.63,22.4-53.9
			c5.13-8.58,27.57-44.65,71.41-69.32c40.73-22.93,78.48-23.94,96.61-23.1l20.88,15.23l6.84,5l88.76,64.73l93.26-64.6l6.43-4.46
			l22.95-15.9c18.13-0.84,55.88,0.18,96.61,23.1c43.84,24.67,66.28,60.74,71.41,69.32c9.13,15.28,16.25,31.96,22.4,53.9
			C1354.67,1274.85,1358.44,1386.98,1359.07,1440.69z"/>
		<g>
			<g>
				<path class="st4" d="M839.79,1277.75v162.94h-19.47v-162.94c0-5.37,4.36-9.72,9.73-9.72
					C835.43,1268.03,839.79,1272.38,839.79,1277.75z"/>
			</g>
			<g>
				<path class="st4" d="M1227.67,1277.75v162.94h-19.46v-162.94c0-5.37,4.36-9.72,9.72-9.72
					C1223.32,1268.03,1227.67,1272.38,1227.67,1277.75z"/>
			</g>
		</g>
		<path class="st5" d="M870.68,785.74c-6.9-15.96-8.11-34.1-9.21-51.75c-0.95-15.18-1.83-30.91,1.72-45.79
			c3.76-15.78,14.83-31.67,24.55-43.54c2.13-2.61,4.34-5.13,6.63-7.57c32.43-34.7,85.86-52.88,113.03-59.12
			c22.01-5.06,45.28-7.63,68.01-5.88c12.67,0.98,25.95,2.76,38.28,6.22c10.13,2.84,20.16,8.21,26.25,17.61
			c6.55,10.13,8.14,22.93,15.98,32.21c8.56,10.13,20.24,16.17,29,26.06c11.72,13.23,23.38,34.05,25.07,52.71
			c1.52,16.81-5.13,32.68-12.8,46.69c-1.31,2.39-14.94,29.34-18.01,32.15H870.68z"/>
		<path class="st6" d="M1179.18,785.74v72.16c0,94.31-69.06,170.77-154.25,170.77h0c-85.19,0-154.25-76.46-154.25-170.77v-72.16
			c0,0,35.94-12.43,56.58-35.28c0,0,81.92,64.74,213.36,2.81C1140.61,753.27,1160.35,774.11,1179.18,785.74z"/>
	</g>
	<path class="st7" d="M1771.35,1533.59H276.65c-11.4,0-20.65,9.24-20.65,20.65v13.16c0,68.5,55.53,124.03,124.03,124.03h1287.94
		c68.5,0,124.03-55.53,124.03-124.03v-13.16C1792,1542.83,1782.76,1533.59,1771.35,1533.59z"/>
	<g>
		<path class="st8" d="M1113.67,1629.03H934.33c-9.12,0-16.52-7.39-16.52-16.52c0-9.12,7.39-16.52,16.52-16.52h179.35
			c9.12,0,16.52,7.39,16.52,16.52C1130.19,1621.63,1122.8,1629.03,1113.67,1629.03z"/>
	</g>
	<g>
		<g>
			<path class="st9" d="M1653.68,643.83h-364.51c-11.4,0-20.65-9.24-20.65-20.65v-206.2c0-11.4,9.24-20.65,20.65-20.65h364.51
				c11.4,0,20.65,9.24,20.65,20.65v206.2C1674.32,634.58,1665.08,643.83,1653.68,643.83z"/>
			<g>
				<g>
					<path class="st10" d="M1592.57,496.83h-242.29c-9.12,0-16.52-7.39-16.52-16.52s7.39-16.52,16.52-16.52h242.29
						c9.12,0,16.52,7.39,16.52,16.52S1601.69,496.83,1592.57,496.83z"/>
				</g>
				<g>
					<path class="st10" d="M1592.57,576.36h-242.29c-9.12,0-16.52-7.39-16.52-16.52c0-9.12,7.39-16.52,16.52-16.52h242.29
						c9.12,0,16.52,7.39,16.52,16.52C1609.08,568.96,1601.69,576.36,1592.57,576.36z"/>
				</g>
			</g>
		</g>
		<g>
			<path class="st11" d="M758.83,604.06H394.32c-11.4,0-20.65-9.24-20.65-20.65v-206.2c0-11.4,9.24-20.65,20.65-20.65h364.51
				c11.4,0,20.65,9.24,20.65,20.65v206.2C779.48,594.82,770.24,604.06,758.83,604.06z"/>
			<g>
				<g>
					<path class="st12" d="M697.72,457.07H455.43c-9.12,0-16.52-7.39-16.52-16.52c0-9.12,7.39-16.52,16.52-16.52h242.29
						c9.12,0,16.52,7.39,16.52,16.52C714.24,449.67,706.85,457.07,697.72,457.07z"/>
				</g>
				<g>
					<path class="st12" d="M697.72,536.59H455.43c-9.12,0-16.52-7.39-16.52-16.52s7.39-16.52,16.52-16.52h242.29
						c9.12,0,16.52,7.39,16.52,16.52S706.85,536.59,697.72,536.59z"/>
				</g>
			</g>
		</g>
	</g>
</g>
</svg>
