<?xml version="1.0" encoding="utf-8"?>
<!-- Generator: Adobe Illustrator 23.0.2, SVG Export Plug-In . SVG Version: 6.00 Build 0)  -->
<svg version="1.1" id="Layer_1" xmlns="http://www.w3.org/2000/svg" xmlns:xlink="http://www.w3.org/1999/xlink" x="0px" y="0px"
	 viewBox="0 0 2048 2048" style="enable-background:new 0 0 2048 2048;" xml:space="preserve">
<style type="text/css">
	.st0{fill:#465A65;}
	.st1{fill:#33444D;}
	.st2{fill:#BBECFF;}
	.st3{fill:#60B7FF;}
	.st4{fill:#F4BAA6;}
	.st5{fill:#DD636E;}
</style>
<g>
	<g>
		<g>
			<g>
				<g>
					<g>
						<polygon class="st0" points="1141.14,1576.52 1099.85,1406.08 948.15,1406.08 906.86,1576.52 						"/>
					</g>
				</g>
				<path class="st1" d="M1348.34,1694.21H699.66v0c0-68.29,55.36-123.65,123.65-123.65h401.37
					C1292.98,1570.56,1348.34,1625.92,1348.34,1694.21L1348.34,1694.21z"/>
				<path class="st2" d="M1750.71,353.79c22.8,0,41.29,18.49,41.29,41.29v849.91v125.75c0,22.81-18.49,41.29-41.29,41.29h-650.86
					h-151.7H297.29c-22.8,0-41.29-18.48-41.29-41.29v-125.75V395.08c0-22.8,18.49-41.29,41.29-41.29H1750.71z"/>
				<path class="st1" d="M1792,1370.73c0,22.81-18.49,41.29-41.29,41.29h-650.86h-151.7H297.29c-22.8,0-41.29-18.48-41.29-41.29
					v-125.75h1536V1370.73z"/>
			</g>
		</g>
	</g>
	<g>
		<path class="st3" d="M595.23,792.05l-44.03-67.41c-75.25,0-136.25,61-136.25,136.25v93.23h360.56v-93.23
			c0-75.25-61-136.25-136.25-136.25L595.23,792.05z"/>
		<circle class="st4" cx="595.23" cy="594.73" r="102.19"/>
		<g>
			<g>
				<path class="st5" d="M1633.05,1111.85H414.95c-9.12,0-16.52-7.39-16.52-16.52c0-9.12,7.39-16.52,16.52-16.52h1218.09
					c9.12,0,16.52,7.39,16.52,16.52C1649.56,1104.45,1642.17,1111.85,1633.05,1111.85z"/>
			</g>
			<g>
				<path class="st5" d="M502.6,1147.52c-9.12,0-16.52-7.39-16.52-16.52v-71.35c0-9.12,7.39-16.52,16.52-16.52
					c9.12,0,16.52,7.39,16.52,16.52v71.35C519.12,1140.13,511.72,1147.52,502.6,1147.52z"/>
			</g>
		</g>
		<g>
			<g>
				<path class="st3" d="M1592.91,531.91H976.04c-9.12,0-16.52-7.39-16.52-16.52c0-9.12,7.39-16.52,16.52-16.52h616.88
					c9.12,0,16.52,7.39,16.52,16.52C1609.43,524.51,1602.04,531.91,1592.91,531.91z"/>
			</g>
			<g>
				<path class="st3" d="M1187.11,656.77H976.04c-9.12,0-16.52-7.39-16.52-16.52s7.39-16.52,16.52-16.52h211.08
					c9.12,0,16.52,7.39,16.52,16.52S1196.23,656.77,1187.11,656.77z"/>
			</g>
			<g>
				<path class="st3" d="M1592.91,656.77h-321.07c-9.12,0-16.52-7.39-16.52-16.52s7.39-16.52,16.52-16.52h321.07
					c9.12,0,16.52,7.39,16.52,16.52S1602.04,656.77,1592.91,656.77z"/>
			</g>
			<g>
				<path class="st3" d="M1592.91,781.63H976.04c-9.12,0-16.52-7.39-16.52-16.52s7.39-16.52,16.52-16.52h616.88
					c9.12,0,16.52,7.39,16.52,16.52S1602.04,781.63,1592.91,781.63z"/>
			</g>
			<g>
				<path class="st3" d="M1592.91,906.49h-208.1c-9.12,0-16.52-7.39-16.52-16.52c0-9.12,7.39-16.52,16.52-16.52h208.1
					c9.12,0,16.52,7.39,16.52,16.52C1609.43,899.1,1602.04,906.49,1592.91,906.49z"/>
			</g>
			<g>
				<path class="st3" d="M1302.93,906.49h-326.9c-9.12,0-16.52-7.39-16.52-16.52c0-9.12,7.39-16.52,16.52-16.52h326.9
					c9.12,0,16.52,7.39,16.52,16.52C1319.45,899.1,1312.05,906.49,1302.93,906.49z"/>
			</g>
		</g>
	</g>
</g>
</svg>
