<?xml version="1.0" encoding="utf-8"?>
<!-- Generator: Adobe Illustrator 23.0.2, SVG Export Plug-In . SVG Version: 6.00 Build 0)  -->
<svg version="1.1" id="Layer_1" xmlns="http://www.w3.org/2000/svg" xmlns:xlink="http://www.w3.org/1999/xlink" x="0px" y="0px"
	 viewBox="0 0 2048 2048" style="enable-background:new 0 0 2048 2048;" xml:space="preserve">
<style type="text/css">
	.st0{fill:#FFE07D;}
	.st1{fill-rule:evenodd;clip-rule:evenodd;fill:#355E7C;}
	.st2{fill-rule:evenodd;clip-rule:evenodd;fill:#477B9E;}
	.st3{fill-rule:evenodd;clip-rule:evenodd;fill:#FFE07D;}
	.st4{fill:#DD636E;}
	.st5{fill:#FFC4B0;}
	.st6{fill:#355E7C;}
</style>
<g>
	<g>
		<g>
			<path class="st0" d="M1024.34,445.53c-13.47,0-24.38-10.92-24.38-24.38V280.38c0-13.47,10.92-24.38,24.38-24.38
				c13.46,0,24.38,10.92,24.38,24.38v140.77C1048.72,434.61,1037.81,445.53,1024.34,445.53z"/>
		</g>
	</g>
	<g>
		<g>
			<path class="st0" d="M608.03,617.69c-6.24,0-12.48-2.38-17.24-7.14l-99.54-99.54c-9.52-9.52-9.52-24.96,0-34.48
				c9.52-9.52,24.96-9.52,34.48,0l99.54,99.54c9.52,9.52,9.52,24.96,0,34.48C620.51,615.31,614.27,617.69,608.03,617.69z"/>
		</g>
	</g>
	<g>
		<g>
			<path class="st0" d="M435.38,1033.8H294.62c-13.47,0-24.38-10.92-24.38-24.38s10.92-24.38,24.38-24.38h140.77
				c13.47,0,24.38,10.92,24.38,24.38S448.85,1033.8,435.38,1033.8z"/>
		</g>
	</g>
	<g>
		<g>
			<path class="st0" d="M1753.38,1034.49h-140.77c-13.47,0-24.38-10.92-24.38-24.38s10.92-24.38,24.38-24.38h140.77
				c13.47,0,24.38,10.92,24.38,24.38S1766.85,1034.49,1753.38,1034.49z"/>
		</g>
	</g>
	<g>
		<g>
			<path class="st0" d="M1440.46,618.17c-6.24,0-12.48-2.38-17.24-7.14c-9.52-9.52-9.52-24.96,0-34.48l99.54-99.54
				c9.52-9.52,24.96-9.52,34.48,0c9.52,9.52,9.52,24.96,0,34.48l-99.54,99.54C1452.94,615.79,1446.7,618.17,1440.46,618.17z"/>
		</g>
	</g>
	<g>
		<g>
			<g>
				<g>
					<path class="st1" d="M1147.76,1569.59v100.79c0,67.18-54.44,121.62-121.6,121.62h-4.32c-67.16,0-121.6-54.44-121.6-121.62
						v-100.79H1147.76z"/>
					<path class="st2" d="M1172.85,1636.8h-297.7c-31.75,0-57.48-25.73-57.48-57.48v-162.17h412.65v162.17
						C1230.32,1611.07,1204.59,1636.8,1172.85,1636.8z"/>
					<path class="st3" d="M1220.47,1460.51c34.48,0,64.93-23.37,72.91-56.93c9.69-40.72,29.63-78.65,58.06-110.28
						c72-80.08,115.04-186.72,112.64-303.44c-4.97-241.27-205.67-434.54-446.96-430.83c-239.92,3.68-433.29,199.31-433.29,440.12
						c0,113.09,42.65,216.2,112.73,294.16c28.43,31.63,48.37,69.56,58.06,110.28c7.98,33.55,38.42,56.93,72.91,56.93H1220.47z"/>
					<g>
						<rect x="932.95" y="1099.64" class="st4" width="182.09" height="360.87"/>
						<polygon class="st5" points="932.95,1099.65 1115.05,1099.65 1024,877.57 						"/>
						<polygon class="st6" points="1065.37,978.5 982.63,978.5 1024,877.56 						"/>
					</g>
				</g>
			</g>
		</g>
	</g>
</g>
</svg>
