<?xml version="1.0" encoding="utf-8"?>
<!-- Generator: Adobe Illustrator 23.0.2, SVG Export Plug-In . SVG Version: 6.00 Build 0)  -->
<svg version="1.1" id="Layer_1" xmlns="http://www.w3.org/2000/svg" xmlns:xlink="http://www.w3.org/1999/xlink" x="0px" y="0px"
	 viewBox="0 0 2048 2048" style="enable-background:new 0 0 2048 2048;" xml:space="preserve">
<style type="text/css">
	.st0{fill:#465A65;}
	.st1{fill:#BBECFF;}
	.st2{fill:#33444D;}
	.st3{fill:#263238;}
</style>
<g>
	<g>
		<path class="st0" d="M361.22,560.53c0-22.8,18.49-41.29,41.29-41.29h1242.98c22.8,0,41.29,18.49,41.29,41.29v810.39H361.22V560.53
			z"/>
		<rect x="454.12" y="612.14" class="st1" width="1139.76" height="665.88"/>
		<path class="st2" d="M1771.35,1370.92H276.65c-11.4,0-20.65,9.24-20.65,20.65v13.16c0,68.5,55.53,124.03,124.03,124.03h1287.94
			c68.5,0,124.03-55.53,124.03-124.03v-13.16C1792,1380.16,1782.76,1370.92,1771.35,1370.92z"/>
		<g>
			<path class="st3" d="M1113.67,1466.36H934.33c-9.12,0-16.52-7.39-16.52-16.52c0-9.12,7.39-16.52,16.52-16.52h179.35
				c9.12,0,16.52,7.39,16.52,16.52C1130.19,1458.96,1122.8,1466.36,1113.67,1466.36z"/>
		</g>
	</g>
</g>
</svg>
