<?xml version="1.0" encoding="utf-8"?>
<!-- Generator: Adobe Illustrator 23.0.2, SVG Export Plug-In . SVG Version: 6.00 Build 0)  -->
<svg version="1.1" id="Layer_1" xmlns="http://www.w3.org/2000/svg" xmlns:xlink="http://www.w3.org/1999/xlink" x="0px" y="0px"
	 viewBox="0 0 2048 2048" style="enable-background:new 0 0 2048 2048;" xml:space="preserve">
<style type="text/css">
	.st0{fill:#477B9E;}
	.st1{fill:#DEEAFF;}
	.st2{fill:#508BB3;}
	.st3{fill:#FA9696;}
	.st4{fill:#98E6B6;}
	.st5{fill:#75C0F2;}
	.st6{fill:#FDD559;}
</style>
<g>
	<g>
		<g>
			<polygon class="st0" points="1141.14,1580.95 1099.85,1401.64 948.15,1401.64 906.86,1580.95 			"/>
		</g>
	</g>
	<path class="st1" d="M256,395.08v975.66c0,22.8,18.49,41.29,41.29,41.29h1453.42c22.8,0,41.29-18.49,41.29-41.29V395.08
		c0-22.8-18.49-41.29-41.29-41.29H297.29C274.49,353.79,256,372.28,256,395.08z"/>
	<path class="st2" d="M1792,1244.99v125.75c0,22.81-18.49,41.29-41.29,41.29H297.29c-22.8,0-41.29-18.48-41.29-41.29v-125.75H1792z"
		/>
	<path class="st2" d="M1348.34,1694.21H699.66v0c0-68.29,55.36-123.65,123.65-123.65h401.37
		C1292.98,1570.56,1348.34,1625.92,1348.34,1694.21L1348.34,1694.21z"/>
	<g>
		<circle class="st3" cx="1469.86" cy="629.6" r="160.54"/>
		<path class="st4" d="M1469.86,469.06c88.66,0,160.54,71.88,160.54,160.54l-160.54,0L1469.86,469.06z"/>
		<g>
			<g>
				<path class="st5" d="M1103.35,539.09H434.12c-9.12,0-16.52-7.39-16.52-16.52c0-9.12,7.39-16.52,16.52-16.52h669.23
					c9.12,0,16.52,7.39,16.52,16.52C1119.86,531.69,1112.47,539.09,1103.35,539.09z"/>
			</g>
			<g>
				<path class="st5" d="M1103.35,646.11H434.12c-9.12,0-16.52-7.39-16.52-16.52s7.39-16.52,16.52-16.52h669.23
					c9.12,0,16.52,7.39,16.52,16.52S1112.47,646.11,1103.35,646.11z"/>
			</g>
			<g>
				<path class="st5" d="M1103.35,753.14H434.12c-9.12,0-16.52-7.39-16.52-16.52c0-9.12,7.39-16.52,16.52-16.52h669.23
					c9.12,0,16.52,7.39,16.52,16.52C1119.86,745.74,1112.47,753.14,1103.35,753.14z"/>
			</g>
		</g>
		<rect x="434.12" y="891.14" class="st5" width="104.02" height="238.58"/>
		<rect x="652.57" y="942.75" class="st3" width="104.02" height="186.96"/>
		<rect x="871.02" y="898.85" class="st6" width="104.02" height="230.87"/>
		<rect x="1089.47" y="963.4" class="st3" width="104.02" height="166.32"/>
		<rect x="1307.92" y="911.79" class="st5" width="104.02" height="217.93"/>
		<rect x="1526.38" y="953.08" class="st6" width="104.02" height="176.64"/>
	</g>
</g>
</svg>
