<?xml version="1.0" encoding="utf-8"?>
<!-- Generator: Adobe Illustrator 23.0.2, SVG Export Plug-In . SVG Version: 6.00 Build 0)  -->
<svg version="1.1" id="Layer_1" xmlns="http://www.w3.org/2000/svg" xmlns:xlink="http://www.w3.org/1999/xlink" x="0px" y="0px"
	 viewBox="0 0 2048 2048" style="enable-background:new 0 0 2048 2048;" xml:space="preserve">
<style type="text/css">
	.st0{fill:#DAE5FA;}
	.st1{fill:#BAC5D6;}
	.st2{fill:#477B9E;}
	.st3{fill:#BBECFF;}
	.st4{fill:#F7E07F;}
	.st5{fill:#EBCD6D;}
</style>
<g>
	<path class="st0" d="M318.19,1509.09V358.32c0-27.88,22.6-50.48,50.48-50.48h911.55c27.88,0,50.48,22.6,50.48,50.48v1150.77
		c0,27.88-22.6,50.48-50.48,50.48H368.66C340.79,1559.56,318.19,1536.96,318.19,1509.09z"/>
	<g>
		<g>
			<g>
				<path class="st1" d="M1192.29,497.47H853.92c-14.38,0-26.03-11.65-26.03-26.03s11.65-26.03,26.03-26.03h338.38
					c14.38,0,26.03,11.65,26.03,26.03S1206.67,497.47,1192.29,497.47z"/>
			</g>
			<g>
				<path class="st1" d="M1192.29,654.98H853.92c-14.38,0-26.03-11.65-26.03-26.03s11.65-26.03,26.03-26.03h338.38
					c14.38,0,26.03,11.65,26.03,26.03S1206.67,654.98,1192.29,654.98z"/>
			</g>
			<g>
				<path class="st1" d="M989.54,812.49H853.92c-14.38,0-26.03-11.65-26.03-26.03s11.65-26.03,26.03-26.03h135.62
					c14.38,0,26.03,11.65,26.03,26.03S1003.91,812.49,989.54,812.49z"/>
			</g>
		</g>
	</g>
	<g>
		<g>
			<g>
				<path class="st1" d="M725.79,646.72l-0.18-0.26c-8.31-12.2-21.17-22.37-38.22-30.24c-11.47-5.21-32.62-11.32-62.83-18.15
					c-35.89-8.12-48.66-14.57-53.06-18.56c-5.98-5.36-8.89-12.02-8.89-20.37c0-9.77,4.3-17.96,13.13-25.04
					c9.1-7.29,24.29-10.99,45.15-10.99c19.95,0,35.06,4.1,44.91,12.18c6.88,5.65,11.82,13.41,14.68,23.05
					c3.03,10.23,12.11,17.1,22.6,17.1c0.61,0,1.22-0.02,1.83-0.07l0.48-0.04c7.17-0.54,13.64-4.23,17.76-10.13
					c4.08-5.84,5.31-13.1,3.37-19.92c-2.45-8.63-6.2-16.83-11.14-24.36c-9.1-13.86-22.24-24.48-39.04-31.56
					c-16.44-6.93-35.6-10.45-56.96-10.45c-19.45,0-37.42,3.35-53.4,9.95c-16.38,6.77-29.05,16.89-37.66,30.07
					c-8.58,13.15-12.93,27.5-12.93,42.66c0,13.87,3.6,26.6,10.7,37.83c7.06,11.17,17.81,20.59,31.97,28.01
					c10.66,5.66,29.24,11.69,55.21,17.93c25.21,6.05,41.68,10.56,48.97,13.39c10.59,4.03,18.18,8.93,22.56,14.57
					c4.24,5.46,6.39,11.97,6.39,19.36c0,7.33-2.29,14.22-6.79,20.47c-4.57,6.33-11.78,11.44-21.45,15.2
					c-10.06,3.9-21.89,5.88-35.18,5.88c-14.98,0-28.6-2.62-40.48-7.79c-11.59-5.04-20.19-11.64-25.55-19.6
					c-3.37-5.01-6.03-11.01-7.91-17.85c-2.86-10.43-12.35-17.71-23.08-17.71c-0.7,0-1.39,0.03-2.08,0.09
					c-6.9,0.6-13.18,4.17-17.24,9.78c-4.09,5.65-5.51,12.8-3.91,19.61c2.63,11.18,7.17,21.74,13.5,31.37
					c10.29,15.68,24.66,27.57,42.7,35.35c17.72,7.64,39.84,11.51,65.76,11.51c20.66,0,39.56-3.86,56.17-11.47
					c16.86-7.73,30.02-18.75,39.09-32.76c9.08-14.03,13.68-29.2,13.68-45.11C738.39,673.57,734.15,659.13,725.79,646.72z"/>
			</g>
			<g>
				<g>
					<path class="st1" d="M622.62,819.11c-14.38,0-26.03-11.65-26.03-26.03v-17.65c0-14.38,11.65-26.03,26.03-26.03
						s26.03,11.65,26.03,26.03v17.65C648.65,807.46,637,819.11,622.62,819.11z"/>
				</g>
				<g>
					<path class="st1" d="M622.62,508.44c-14.38,0-26.03-11.65-26.03-26.03v-17.58c0-14.38,11.65-26.03,26.03-26.03
						s26.03,11.65,26.03,26.03v17.58C648.65,496.78,637,508.44,622.62,508.44z"/>
				</g>
			</g>
		</g>
	</g>
	<path class="st2" d="M988.82,1677.12V797.7c0-34.81,28.22-63.04,63.04-63.04h677.11c34.81,0,63.04,28.22,63.04,63.04v879.42
		c0,34.81-28.22,63.04-63.04,63.04h-677.11C1017.04,1740.16,988.82,1711.94,988.82,1677.12z"/>
	<g>
		
			<rect x="1314.78" y="616.74" transform="matrix(-1.836970e-16 1 -1 -1.836970e-16 2302.6338 -478.1848)" class="st3" width="151.25" height="590.97"/>
		
			<rect x="1093.25" y="1077.8" transform="matrix(-1.836970e-16 1 -1 -1.836970e-16 2304.2673 -17.1203)" class="st0" width="134.88" height="131.54"/>
		
			<rect x="1322.97" y="1077.8" transform="matrix(-1.836970e-16 1 -1 -1.836970e-16 2533.9829 -246.8358)" class="st0" width="134.88" height="131.54"/>
		
			<rect x="1552.68" y="1077.8" transform="matrix(-1.836970e-16 1 -1 -1.836970e-16 2763.6982 -476.5513)" class="st0" width="134.88" height="131.54"/>
		
			<rect x="1093.25" y="1291.41" transform="matrix(-1.836970e-16 1 -1 -1.836970e-16 2517.874 196.4864)" class="st0" width="134.88" height="131.54"/>
		
			<rect x="1322.97" y="1291.41" transform="matrix(-1.836970e-16 1 -1 -1.836970e-16 2747.5896 -33.2291)" class="st0" width="134.88" height="131.54"/>
		
			<rect x="1093.25" y="1505.02" transform="matrix(-1.836970e-16 1 -1 -1.836970e-16 2731.4807 410.093)" class="st0" width="134.88" height="131.54"/>
		
			<rect x="1322.97" y="1505.02" transform="matrix(-1.836970e-16 1 -1 -1.836970e-16 2961.1963 180.3776)" class="st0" width="134.88" height="131.54"/>
		
			<rect x="1445.88" y="1398.21" transform="matrix(-1.836970e-16 1 -1 -1.836970e-16 3084.1084 -156.1412)" class="st0" width="348.49" height="131.54"/>
	</g>
	<path class="st4" d="M790.64,1740.16H319.28c-34.95,0-63.28-28.33-63.28-63.28v-6.25c0-34.95,28.33-63.28,63.28-63.28h471.36
		c34.95,0,63.28,28.33,63.28,63.28v6.25C853.91,1711.83,825.58,1740.16,790.64,1740.16z"/>
	<path class="st5" d="M790.64,1607.35H319.28c-34.95,0-63.28-28.33-63.28-63.28v-6.25c0-34.95,28.33-63.28,63.28-63.28h471.36
		c34.95,0,63.28,28.33,63.28,63.28v6.25C853.91,1579.02,825.58,1607.35,790.64,1607.35z"/>
	<path class="st4" d="M790.64,1474.55H319.28c-34.95,0-63.28-28.33-63.28-63.28v-6.25c0-34.95,28.33-63.28,63.28-63.28h471.36
		c34.95,0,63.28,28.33,63.28,63.28v6.25C853.91,1446.22,825.58,1474.55,790.64,1474.55z"/>
	<g>
		<g>
			<g>
				<g>
					<g>
						<path class="st1" d="M866.51,970.01H456.6c-14.38,0-26.03-11.65-26.03-26.03s11.65-26.03,26.03-26.03h409.91
							c14.38,0,26.03,11.65,26.03,26.03S880.88,970.01,866.51,970.01z"/>
					</g>
				</g>
			</g>
			<g>
				<g>
					<g>
						<g>
							<path class="st1" d="M867.76,1098.55H676.61c-13.68,0-24.77-11.09-24.77-24.77c0-13.68,11.09-24.77,24.77-24.77h191.15
								c13.68,0,24.77,11.09,24.77,24.77C892.54,1087.46,881.44,1098.55,867.76,1098.55z"/>
						</g>
					</g>
				</g>
				<g>
					<g>
						<g>
							<path class="st1" d="M592.87,1098.55H455.34c-13.68,0-24.77-11.09-24.77-24.77c0-13.68,11.09-24.77,24.77-24.77h137.53
								c13.68,0,24.77,11.09,24.77,24.77C617.65,1087.46,606.55,1098.55,592.87,1098.55z"/>
						</g>
					</g>
				</g>
				<g>
					<g>
						<g>
							<path class="st1" d="M867.76,1228.35H455.34c-13.68,0-24.77-11.09-24.77-24.77s11.09-24.77,24.77-24.77h412.42
								c13.68,0,24.77,11.09,24.77,24.77S881.44,1228.35,867.76,1228.35z"/>
						</g>
					</g>
				</g>
			</g>
		</g>
	</g>
</g>
</svg>
