<?xml version="1.0" encoding="utf-8"?>
<!-- Generator: Adobe Illustrator 23.0.2, SVG Export Plug-In . SVG Version: 6.00 Build 0)  -->
<svg version="1.1" id="Layer_1" xmlns="http://www.w3.org/2000/svg" xmlns:xlink="http://www.w3.org/1999/xlink" x="0px" y="0px"
	 viewBox="0 0 2048 2048" style="enable-background:new 0 0 2048 2048;" xml:space="preserve">
<style type="text/css">
	.st0{fill:#E66753;}
	.st1{fill:#FFCC5B;}
	.st2{fill:#EC9922;}
</style>
<g>
	<g>
		<g>
			<polygon class="st0" points="785.01,915.99 551.6,1701.07 765.5,1541.42 857.42,1792 1097.86,983.34 			"/>
		</g>
		<g>
			<polygon class="st0" points="1273.59,951.65 1496.4,1701.07 1282.5,1541.42 1190.58,1792 953.19,993.58 			"/>
		</g>
	</g>
	<path class="st1" d="M1546.68,778.68c0,64.43-104.24,107.66-127.47,163.68c-24.08,58.08,18.14,162.15-25.62,205.91
		c-43.77,43.77-147.84,1.54-205.91,25.62c-56.02,23.23-99.25,127.47-163.68,127.47s-107.66-104.24-163.68-127.47
		c-58.08-24.08-162.15,18.14-205.91-25.62c-43.77-43.77-1.54-147.84-25.62-205.91c-23.23-56.02-127.47-99.25-127.47-163.68
		S605.55,671.03,628.78,615c24.08-58.08-18.14-162.15,25.62-205.91c43.77-43.77,147.84-1.54,205.91-25.62
		C916.34,360.24,959.57,256,1024,256c64.43,0,107.66,104.24,163.68,127.47c58.08,24.08,162.15-18.14,205.91,25.62
		c43.77,43.77,1.54,147.84,25.62,205.91C1442.45,671.03,1546.68,714.26,1546.68,778.68z"/>
	<circle class="st2" cx="1024" cy="778.68" r="296.04"/>
	<polygon class="st1" points="1024,608.09 1072.54,718.47 1192.52,730.53 1102.54,810.8 1128.15,928.63 1024,867.86 919.85,928.63 
		945.46,810.8 855.48,730.53 975.46,718.47 	"/>
</g>
</svg>
