<?xml version="1.0" encoding="utf-8"?>
<!-- Generator: Adobe Illustrator 23.0.2, SVG Export Plug-In . SVG Version: 6.00 Build 0)  -->
<svg version="1.1" id="Layer_1" xmlns="http://www.w3.org/2000/svg" xmlns:xlink="http://www.w3.org/1999/xlink" x="0px" y="0px"
	 viewBox="0 0 2048 2048" style="enable-background:new 0 0 2048 2048;" xml:space="preserve">
<style type="text/css">
	.st0{fill:#E66753;}
	.st1{fill:#E0E9F0;}
</style>
<g>
	<circle class="st0" cx="1024" cy="1024" r="768"/>
	<circle class="st1" cx="1024" cy="1024" r="520.26"/>
	<g>
		<path class="st0" d="M1367.56,1040.52h-148.27c-9.12,0-16.52-7.39-16.52-16.52c0-9.12,7.39-16.52,16.52-16.52h148.27
			c9.12,0,16.52,7.39,16.52,16.52C1384.07,1033.12,1376.68,1040.52,1367.56,1040.52z"/>
	</g>
	<g>
		<path class="st0" d="M1024,845.23c-9.12,0-16.52-7.39-16.52-16.52V680.44c0-9.12,7.39-16.52,16.52-16.52
			c9.12,0,16.52,7.39,16.52,16.52v148.27C1040.52,837.84,1033.12,845.23,1024,845.23z"/>
	</g>
	<g>
		<path class="st0" d="M828.72,1040.52H680.44c-9.12,0-16.52-7.39-16.52-16.52c0-9.12,7.39-16.52,16.52-16.52h148.27
			c9.12,0,16.52,7.39,16.52,16.52C845.23,1033.12,837.84,1040.52,828.72,1040.52z"/>
	</g>
	<g>
		<path class="st0" d="M1024,1384.07c-9.12,0-16.52-7.39-16.52-16.52v-148.27c0-9.12,7.39-16.52,16.52-16.52
			c9.12,0,16.52,7.39,16.52,16.52v148.27C1040.52,1376.68,1033.12,1384.07,1024,1384.07z"/>
	</g>
	<circle class="st0" cx="1024" cy="1024" r="272.52"/>
	<path class="st1" d="M1024,1082.26c-7.79,0-15.3-1.47-22.32-4.38c-7.01-2.91-13.37-7.17-18.88-12.69
		c-5.51-5.51-9.78-11.86-12.69-18.88c-2.91-7.01-4.38-14.52-4.38-22.32c0-7.79,1.47-15.3,4.38-22.32
		c2.91-7.01,7.17-13.37,12.69-18.88c5.51-5.51,11.86-9.78,18.88-12.69c7.02-2.91,14.52-4.38,22.32-4.38c7.79,0,15.3,1.47,22.32,4.38
		c7.02,2.91,13.37,7.17,18.88,12.69c5.51,5.51,9.78,11.86,12.69,18.88c2.91,7.02,4.38,14.52,4.38,22.32c0,7.79-1.47,15.3-4.38,22.32
		c-2.91,7.02-7.17,13.37-12.69,18.88c-5.51,5.51-11.86,9.78-18.88,12.69C1039.3,1080.79,1031.79,1082.26,1024,1082.26z"/>
</g>
</svg>
