<?xml version="1.0" encoding="utf-8"?>
<!-- Generator: Adobe Illustrator 23.0.2, SVG Export Plug-In . SVG Version: 6.00 Build 0)  -->
<svg version="1.1" id="Layer_1" xmlns="http://www.w3.org/2000/svg" xmlns:xlink="http://www.w3.org/1999/xlink" x="0px" y="0px"
	 viewBox="0 0 2048 2048" style="enable-background:new 0 0 2048 2048;" xml:space="preserve">
<style type="text/css">
	.st0{fill:#FF725C;}
	.st1{fill:#DEEAFF;}
	.st2{fill:#98E6B6;}
	.st3{fill:#80DBFF;}
	.st4{fill:#FF84A7;}
	.st5{fill:#FDD559;}
</style>
<g>
	<g>
		<polygon class="st0" points="1792,721.28 1483.31,721.28 1483.31,466.2 1792,466.2 1638.53,593.74 		"/>
		<g>
			<path class="st1" d="M1479.18,1023.22c-9.12,0-16.52-7.39-16.52-16.52V412.98c0-9.12,7.39-16.52,16.52-16.52
				c9.12,0,16.52,7.39,16.52,16.52v593.72C1495.69,1015.82,1488.3,1023.22,1479.18,1023.22z"/>
		</g>
	</g>
	
		<rect x="1383.9" y="922.76" transform="matrix(-1 -2.555124e-11 2.555124e-11 -1 2958.3691 2574.291)" class="st2" width="190.58" height="728.77"/>
	
		<rect x="1007.7" y="1033.46" transform="matrix(-1 -2.551438e-11 2.551438e-11 -1 2206.6729 2684.9917)" class="st3" width="191.28" height="618.07"/>
	
		<rect x="631.85" y="1144.16" transform="matrix(-1 -2.546686e-11 2.546686e-11 -1 1454.9763 2795.6924)" class="st4" width="191.28" height="507.37"/>
	
		<rect x="256" y="1254.86" transform="matrix(-1 -2.556190e-11 2.556190e-11 -1 703.2799 2906.3931)" class="st5" width="191.28" height="396.67"/>
</g>
</svg>
