<?xml version="1.0" encoding="utf-8"?>
<!-- Generator: Adobe Illustrator 23.0.2, SVG Export Plug-In . SVG Version: 6.00 Build 0)  -->
<svg version="1.1" id="Layer_1" xmlns="http://www.w3.org/2000/svg" xmlns:xlink="http://www.w3.org/1999/xlink" x="0px" y="0px"
	 viewBox="0 0 2048 2048" style="enable-background:new 0 0 2048 2048;" xml:space="preserve">
<style type="text/css">
	.st0{fill:#E0E9F0;}
	.st1{fill:#E66753;}
	.st2{fill:#72B8CE;}
	.st3{fill:#8CDFFF;}
	.st4{fill:#BAC5D6;}
	.st5{fill:#508BB3;}
	.st6{fill:#477B9E;}
</style>
<g>
	<g>
		<path class="st0" d="M273.45,1554.59V624.85h1348.74v929.73c0,30.13-24.43,54.56-54.56,54.56H328.01
			C297.88,1609.15,273.45,1584.72,273.45,1554.59z"/>
		<g>
			<path class="st1" d="M332.3,383.28c-32.5,0-58.85,26.35-58.85,58.85v182.71h1348.74V442.14c0-32.5-26.35-58.85-58.85-58.85H332.3
				z"/>
		</g>
		<rect x="400.97" y="752.37" class="st2" width="178.52" height="178.52"/>
		<rect x="706.03" y="752.37" class="st2" width="178.52" height="178.52"/>
		<rect x="1011.09" y="752.37" class="st2" width="178.52" height="178.52"/>
		<rect x="1316.15" y="752.37" class="st2" width="178.52" height="178.52"/>
		<rect x="400.97" y="1027.74" class="st2" width="178.52" height="178.52"/>
		<rect x="706.03" y="1027.74" class="st2" width="178.52" height="178.52"/>
		<rect x="1011.09" y="1027.74" class="st2" width="178.52" height="178.52"/>
		<rect x="1316.15" y="1027.74" class="st2" width="178.52" height="178.52"/>
		<rect x="400.97" y="1303.11" class="st2" width="178.52" height="178.52"/>
		<rect x="706.03" y="1303.11" class="st2" width="178.52" height="178.52"/>
		<rect x="1011.09" y="1303.11" class="st2" width="178.52" height="178.52"/>
		<rect x="1316.15" y="1303.11" class="st2" width="178.52" height="178.52"/>
		<g>
			<g>
				<path class="st0" d="M522.17,510.57L522.17,510.57c-29.46,0-53.34-23.88-53.34-53.34v-147.9c0-29.46,23.88-53.34,53.34-53.34h0
					c29.46,0,53.34,23.88,53.34,53.34v147.9C575.51,486.69,551.63,510.57,522.17,510.57z"/>
				<path class="st0" d="M1373.47,510.57L1373.47,510.57c-29.46,0-53.34-23.88-53.34-53.34v-147.9c0-29.46,23.88-53.34,53.34-53.34
					h0c29.46,0,53.34,23.88,53.34,53.34v147.9C1426.81,486.69,1402.93,510.57,1373.47,510.57z"/>
			</g>
		</g>
	</g>
	<g>
		<circle class="st3" cx="1425.59" cy="1443.04" r="348.96"/>
		<path class="st0" d="M1707.37,1443.04c0,5.36-0.15,10.68-0.45,15.97c-7.98,142.91-122.45,257.39-265.36,265.36
			c-5.29,0.3-10.61,0.45-15.97,0.45c-5.36,0-10.68-0.15-15.97-0.45c-142.9-7.98-257.38-122.45-265.35-265.36
			c-0.3-5.29-0.45-10.61-0.45-15.97c0-5.36,0.15-10.68,0.45-15.97c7.98-142.9,122.45-257.38,265.35-265.35
			c5.29-0.3,10.61-0.45,15.97-0.45c5.36,0,10.68,0.15,15.97,0.45c142.91,7.98,257.39,122.45,265.36,265.35
			C1707.22,1432.36,1707.37,1437.68,1707.37,1443.04z"/>
		<g>
			<g>
				<g>
					<path class="st4" d="M1441.56,1161.71v60.27c0,8.81-7.15,15.97-15.97,15.97c-8.81,0-15.97-7.16-15.97-15.97v-60.27
						c5.29-0.3,10.61-0.45,15.97-0.45C1430.95,1161.26,1436.27,1161.41,1441.56,1161.71z"/>
				</g>
			</g>
			<g>
				<g>
					<path class="st4" d="M1220.51,1443.04c0,8.82-7.16,15.97-15.97,15.97h-60.27c-0.3-5.29-0.45-10.61-0.45-15.97
						c0-5.36,0.15-10.68,0.45-15.97h60.27C1213.35,1427.07,1220.51,1434.22,1220.51,1443.04z"/>
				</g>
			</g>
			<g>
				<g>
					<path class="st4" d="M1441.56,1664.1v60.27c-5.29,0.3-10.61,0.45-15.97,0.45c-5.36,0-10.68-0.15-15.97-0.45v-60.27
						c0-8.81,7.16-15.97,15.97-15.97C1434.41,1648.13,1441.56,1655.29,1441.56,1664.1z"/>
				</g>
			</g>
			<g>
				<g>
					<path class="st4" d="M1707.37,1443.04c0,5.36-0.15,10.68-0.45,15.97h-60.27c-8.81,0-15.97-7.15-15.97-15.97
						c0-8.81,7.16-15.97,15.97-15.97h60.27C1707.22,1432.36,1707.37,1437.68,1707.37,1443.04z"/>
				</g>
			</g>
		</g>
		<g>
			<path class="st5" d="M1560.15,1593.57c-4.09,0-8.17-1.56-11.29-4.68l-134.56-134.55c-6.24-6.24-6.24-16.35,0-22.59
				c6.24-6.24,16.35-6.24,22.59,0l134.56,134.55c6.24,6.24,6.24,16.35,0,22.59C1568.33,1592.01,1564.24,1593.57,1560.15,1593.57z"/>
		</g>
		<g>
			<path class="st5" d="M1425.59,1459.01c-4.09,0-8.17-1.56-11.29-4.68c-6.24-6.24-6.24-16.35,0-22.59l116.96-116.97
				c6.24-6.24,16.35-6.24,22.59,0c6.24,6.24,6.24,16.35,0,22.59l-116.96,116.97C1433.77,1457.45,1429.68,1459.01,1425.59,1459.01z"
				/>
		</g>
		<circle class="st6" cx="1425.59" cy="1443.04" r="40.03"/>
	</g>
</g>
</svg>
