<?xml version="1.0" encoding="utf-8"?>
<!-- Generator: Adobe Illustrator 23.0.2, SVG Export Plug-In . SVG Version: 6.00 Build 0)  -->
<svg version="1.1" id="Layer_1" xmlns="http://www.w3.org/2000/svg" xmlns:xlink="http://www.w3.org/1999/xlink" x="0px" y="0px"
	 viewBox="0 0 2048 2048" style="enable-background:new 0 0 2048 2048;" xml:space="preserve">
<style type="text/css">
	.st0{fill:#BAC5D6;}
	.st1{fill:#E67529;}
	.st2{fill:#EDF6FF;}
	.st3{fill:#D1DCF0;}
	.st4{fill:#B0CCDD;}
	.st5{fill:#5B9ECC;}
	.st6{fill:#80DBFF;}
	.st7{fill:#F9C7B2;}
</style>
<g>
	<path class="st0" d="M1169.13,417.39H878.87v-120.1c0-22.8,18.49-41.29,41.29-41.29h207.67c22.8,0,41.29,18.49,41.29,41.29V417.39z
		"/>
	<rect x="473.9" y="447.73" class="st1" width="1100.19" height="1344.27"/>
	<rect x="582.3" y="556.13" class="st2" width="883.41" height="1127.46"/>
	<path class="st3" d="M1296.49,604.98H751.51v-196.9c0-26.61,21.57-48.17,48.17-48.17h448.63c26.61,0,48.17,21.57,48.17,48.17
		V604.98z"/>
	<g>
		<g>
			<g>
				<g>
					<path class="st4" d="M1360.79,1102.15H866.62c-9.12,0-16.52-7.39-16.52-16.52s7.39-16.52,16.52-16.52h494.17
						c9.12,0,16.52,7.39,16.52,16.52S1369.91,1102.15,1360.79,1102.15z"/>
				</g>
				<g>
					<path class="st4" d="M1360.79,1168.27H866.62c-9.12,0-16.52-7.39-16.52-16.52c0-9.12,7.39-16.52,16.52-16.52h494.17
						c9.12,0,16.52,7.39,16.52,16.52C1377.31,1160.87,1369.91,1168.27,1360.79,1168.27z"/>
				</g>
			</g>
			<g>
				<path class="st4" d="M775.32,1179.27h-88.11c-9.12,0-16.52-7.39-16.52-16.52v-88.11c0-9.12,7.39-16.52,16.52-16.52h88.11
					c9.12,0,16.52,7.39,16.52,16.52v88.11C791.84,1171.87,784.44,1179.27,775.32,1179.27z M703.73,1146.23h55.08v-55.08h-55.08
					V1146.23z"/>
			</g>
		</g>
		<g>
			<g>
				<g>
					<path class="st4" d="M1360.79,1303.2H866.62c-9.12,0-16.52-7.39-16.52-16.52s7.39-16.52,16.52-16.52h494.17
						c9.12,0,16.52,7.39,16.52,16.52S1369.91,1303.2,1360.79,1303.2z"/>
				</g>
				<g>
					<path class="st4" d="M1360.79,1369.31H866.62c-9.12,0-16.52-7.39-16.52-16.52s7.39-16.52,16.52-16.52h494.17
						c9.12,0,16.52,7.39,16.52,16.52S1369.91,1369.31,1360.79,1369.31z"/>
				</g>
			</g>
			<g>
				<path class="st4" d="M775.32,1380.31h-88.11c-9.12,0-16.52-7.39-16.52-16.52v-88.11c0-9.12,7.39-16.52,16.52-16.52h88.11
					c9.12,0,16.52,7.39,16.52,16.52v88.11C791.84,1372.92,784.44,1380.31,775.32,1380.31z M703.73,1347.28h55.08v-55.08h-55.08
					V1347.28z"/>
			</g>
		</g>
		<g>
			<g>
				<g>
					<path class="st4" d="M1360.79,1504.24H866.62c-9.12,0-16.52-7.39-16.52-16.52s7.39-16.52,16.52-16.52h494.17
						c9.12,0,16.52,7.39,16.52,16.52S1369.91,1504.24,1360.79,1504.24z"/>
				</g>
				<g>
					<path class="st4" d="M1360.79,1570.36H866.62c-9.12,0-16.52-7.39-16.52-16.52c0-9.12,7.39-16.52,16.52-16.52h494.17
						c9.12,0,16.52,7.39,16.52,16.52C1377.31,1562.96,1369.91,1570.36,1360.79,1570.36z"/>
				</g>
			</g>
			<g>
				<path class="st4" d="M775.32,1581.36h-88.11c-9.12,0-16.52-7.39-16.52-16.52v-88.11c0-9.12,7.39-16.52,16.52-16.52h88.11
					c9.12,0,16.52,7.39,16.52,16.52v88.11C791.84,1573.96,784.44,1581.36,775.32,1581.36z M703.73,1548.32h55.08v-55.08h-55.08
					V1548.32z"/>
			</g>
		</g>
		<g>
			<circle class="st5" cx="1024" cy="836.34" r="136.67"/>
			<path class="st6" d="M923.84,929.33c24.96,26.87,60.59,43.68,100.16,43.68c39.56,0,75.2-16.81,100.16-43.68l0,0
				c-14.1-39.51-51.84-67.78-96.19-67.78H1024h-3.97C975.68,861.55,937.94,889.83,923.84,929.33L923.84,929.33z"/>
			<circle class="st7" cx="1024" cy="811.99" r="56.2"/>
		</g>
	</g>
</g>
</svg>
