<?xml version="1.0" encoding="utf-8"?>
<!-- Generator: Adobe Illustrator 23.0.2, SVG Export Plug-In . SVG Version: 6.00 Build 0)  -->
<svg version="1.1" id="Layer_1" xmlns="http://www.w3.org/2000/svg" xmlns:xlink="http://www.w3.org/1999/xlink" x="0px" y="0px"
	 viewBox="0 0 2048 2048" style="enable-background:new 0 0 2048 2048;" xml:space="preserve">
<style type="text/css">
	.st0{fill:#7DBD95;}
	.st1{fill:#98E6B6;}
</style>
<g>
	<rect x="256" y="634.26" class="st0" width="1536" height="779.48"/>
	<path class="st1" d="M381.56,900.66c78.33,0,141.83-63.5,141.83-141.83h1001.21c0,78.33,63.5,141.83,141.83,141.83v246.68
		c-78.33,0-141.83,63.5-141.83,141.83H523.39c0-78.33-63.5-141.83-141.83-141.83V900.66z"/>
	<circle class="st0" cx="1024" cy="1024" r="177.92"/>
	<g>
		<g>
			<path class="st1" d="M1098.99,1061.3c0-13.3-3.83-24.18-11.38-32.33c-7.09-7.65-15.72-13.37-25.66-17
				c-9.19-3.36-21.15-6.67-35.55-9.83c-18.86-4.23-26.89-7.73-30.31-9.92c-2.51-1.61-5.39-4.3-5.39-10.9
				c0-6.02,2.38-10.12,7.72-13.29c6.24-3.72,14.68-5.6,25.1-5.6c11.33,0,19.96,2.29,25.65,6.79c3.88,3.07,6.5,7.18,8.01,12.57
				c2.25,8.03,9.99,13.35,18.4,12.68l0.28-0.02c5.22-0.42,9.96-3.11,13-7.37c3.03-4.25,4.03-9.58,2.73-14.63
				c-3.04-11.86-9.44-21.62-19.01-28.99c-12.72-9.81-29.54-14.78-49.99-14.78c-20.08,0-36.31,5.05-48.26,15
				c-12.31,10.26-18.55,23.44-18.55,39.18c0,14.03,5.04,25.62,14.99,34.48c9.46,8.42,24.09,14.68,44.73,19.14
				c18.61,4.02,31.9,8.08,39.52,12.07c6.01,3.15,8.68,7.62,8.68,14.52c0,6.72-2.79,11.71-8.76,15.7
				c-6.67,4.45-15.79,6.71-27.09,6.71c-12.34,0-22.5-2.72-31.05-8.32c-5.9-3.86-9.69-9.36-11.61-16.83
				c-2.05-7.98-9.11-13.42-17.13-13.42c-0.52,0-1.04,0.02-1.57,0.07c-5.11,0.44-9.78,3.07-12.81,7.22
				c-2.98,4.08-4.06,9.23-2.96,14.13c2.93,13.02,9.49,24.18,19.49,33.17c13.18,11.85,32.88,17.85,58.56,17.85
				c20.38,0,37.27-5.44,50.18-16.16C1092.26,1092.14,1098.99,1078.05,1098.99,1061.3z"/>
		</g>
		<g>
			<g>
				<path class="st1" d="M1024.65,957.77c-9.12,0-16.52-7.39-16.52-16.52v-20.32c0-9.12,7.39-16.52,16.52-16.52
					c9.12,0,16.52,7.39,16.52,16.52v20.32C1041.17,950.38,1033.78,957.77,1024.65,957.77z"/>
			</g>
			<g>
				<path class="st1" d="M1024.65,1143.58c-9.12,0-16.52-7.39-16.52-16.52v-20.31c0-9.12,7.39-16.52,16.52-16.52
					c9.12,0,16.52,7.39,16.52,16.52v20.31C1041.17,1136.18,1033.78,1143.58,1024.65,1143.58z"/>
			</g>
		</g>
	</g>
</g>
</svg>
