<?xml version="1.0" encoding="utf-8"?>
<!-- Generator: Adobe Illustrator 23.0.2, SVG Export Plug-In . SVG Version: 6.00 Build 0)  -->
<svg version="1.1" id="Layer_1" xmlns="http://www.w3.org/2000/svg" xmlns:xlink="http://www.w3.org/1999/xlink" x="0px" y="0px"
	 viewBox="0 0 2048 2048" style="enable-background:new 0 0 2048 2048;" xml:space="preserve">
<style type="text/css">
	.st0{fill:#BAC5D6;}
	.st1{fill:#E67529;}
	.st2{fill:#EDF6FF;}
	.st3{fill:#D1DCF0;}
	.st4{fill:#B0CCDD;}
	.st5{fill:#8CDFFF;}
	.st6{fill:#E0E9F0;}
	.st7{fill:#508BB3;}
	.st8{fill:#477B9E;}
</style>
<g>
	<g>
		<path class="st0" d="M1042.1,410.64H763.97V295.57c0-21.85,17.71-39.57,39.57-39.57h199c21.85,0,39.57,17.71,39.57,39.57V410.64z"
			/>
		<rect x="375.92" y="439.72" class="st1" width="1054.23" height="1288.12"/>
		<rect x="479.79" y="543.6" class="st2" width="846.5" height="1080.36"/>
		<path class="st3" d="M1164.14,590.41H641.93V401.73c0-25.49,20.67-46.16,46.16-46.16h429.89c25.49,0,46.16,20.67,46.16,46.16
			V590.41z"/>
		<g>
			<g>
				<g>
					<path class="st4" d="M1179.37,823.78h-348.4c-8.74,0-15.83-7.09-15.83-15.83s7.09-15.83,15.83-15.83h348.4
						c8.74,0,15.83,7.09,15.83,15.83S1188.11,823.78,1179.37,823.78z"/>
				</g>
				<g>
					<path class="st4" d="M659.59,842.83c-4.05,0-8.1-1.55-11.19-4.64l-32.89-32.89c-6.18-6.18-6.18-16.2,0-22.38
						c6.18-6.18,16.2-6.18,22.38,0l21.7,21.7l64.98-64.98c6.18-6.18,16.2-6.18,22.38,0c6.18,6.18,6.18,16.2,0,22.38l-76.17,76.17
						C667.69,841.28,663.64,842.83,659.59,842.83z"/>
				</g>
			</g>
			<g>
				<g>
					<path class="st4" d="M1179.37,1028.05h-348.4c-8.74,0-15.83-7.09-15.83-15.83s7.09-15.83,15.83-15.83h348.4
						c8.74,0,15.83,7.09,15.83,15.83S1188.11,1028.05,1179.37,1028.05z"/>
				</g>
				<g>
					<path class="st4" d="M659.59,1047.09c-4.05,0-8.1-1.55-11.19-4.64l-32.89-32.89c-6.18-6.18-6.18-16.2,0-22.38
						c6.18-6.18,16.2-6.18,22.38,0l21.7,21.7l64.98-64.98c6.18-6.18,16.2-6.18,22.38,0c6.18,6.18,6.18,16.2,0,22.38l-76.17,76.17
						C667.69,1045.55,663.64,1047.09,659.59,1047.09z"/>
				</g>
			</g>
			<g>
				<g>
					<path class="st4" d="M1179.37,1232.32h-348.4c-8.74,0-15.83-7.09-15.83-15.83s7.09-15.83,15.83-15.83h348.4
						c8.74,0,15.83,7.09,15.83,15.83S1188.11,1232.32,1179.37,1232.32z"/>
				</g>
				<g>
					<path class="st4" d="M659.59,1251.36c-4.05,0-8.1-1.54-11.19-4.64l-32.89-32.89c-6.18-6.18-6.18-16.2,0-22.38
						c6.18-6.18,16.2-6.18,22.38,0l21.7,21.7l64.98-64.98c6.18-6.18,16.2-6.18,22.38,0c6.18,6.18,6.18,16.2,0,22.38l-76.17,76.17
						C667.69,1249.82,663.64,1251.36,659.59,1251.36z"/>
				</g>
			</g>
			<g>
				<g>
					<path class="st4" d="M1179.37,1436.59h-348.4c-8.74,0-15.83-7.09-15.83-15.83c0-8.74,7.09-15.83,15.83-15.83h348.4
						c8.74,0,15.83,7.09,15.83,15.83C1195.2,1429.5,1188.11,1436.59,1179.37,1436.59z"/>
				</g>
				<g>
					<path class="st4" d="M659.59,1455.63c-4.05,0-8.1-1.55-11.19-4.64l-32.89-32.89c-6.18-6.18-6.18-16.2,0-22.38
						c6.18-6.18,16.2-6.18,22.38,0l21.7,21.7l64.98-64.98c6.18-6.18,16.2-6.18,22.38,0c6.18,6.18,6.18,16.2,0,22.38L670.78,1451
						C667.69,1454.09,663.64,1455.63,659.59,1455.63z"/>
				</g>
			</g>
		</g>
	</g>
	<g>
		<circle class="st5" cx="1326.29" cy="1446.21" r="345.79"/>
		<path class="st6" d="M1605.51,1446.21c0,5.31-0.15,10.58-0.45,15.83c-7.9,141.61-121.34,255.05-262.95,262.95
			c-5.24,0.3-10.51,0.45-15.83,0.45c-5.31,0-10.58-0.15-15.83-0.45c-141.6-7.9-255.04-121.34-262.94-262.95
			c-0.3-5.24-0.45-10.51-0.45-15.83c0-5.31,0.15-10.58,0.45-15.83c7.9-141.6,121.34-255.04,262.94-262.94
			c5.24-0.3,10.51-0.45,15.83-0.45c5.31,0,10.58,0.15,15.83,0.45c141.61,7.9,255.05,121.34,262.95,262.94
			C1605.36,1435.62,1605.51,1440.9,1605.51,1446.21z"/>
		<g>
			<g>
				<g>
					<path class="st0" d="M1342.11,1167.44v59.72c0,8.73-7.08,15.83-15.83,15.83c-8.73,0-15.83-7.09-15.83-15.83v-59.72
						c5.24-0.3,10.51-0.45,15.83-0.45C1331.6,1166.99,1336.87,1167.14,1342.11,1167.44z"/>
				</g>
			</g>
			<g>
				<g>
					<path class="st0" d="M1123.07,1446.21c0,8.74-7.09,15.83-15.83,15.83h-59.72c-0.3-5.24-0.45-10.51-0.45-15.83
						c0-5.31,0.15-10.58,0.45-15.83h59.72C1115.98,1430.38,1123.07,1437.47,1123.07,1446.21z"/>
				</g>
			</g>
			<g>
				<g>
					<path class="st0" d="M1342.11,1665.26v59.72c-5.24,0.3-10.51,0.45-15.83,0.45c-5.31,0-10.58-0.15-15.83-0.45v-59.72
						c0-8.73,7.09-15.83,15.83-15.83C1335.03,1649.44,1342.11,1656.53,1342.11,1665.26z"/>
				</g>
			</g>
			<g>
				<g>
					<path class="st0" d="M1605.51,1446.21c0,5.31-0.15,10.58-0.45,15.83h-59.72c-8.73,0-15.83-7.08-15.83-15.83
						c0-8.73,7.09-15.83,15.83-15.83h59.72C1605.36,1435.62,1605.51,1440.9,1605.51,1446.21z"/>
				</g>
			</g>
		</g>
		<g>
			<path class="st7" d="M1459.63,1595.37c-4.05,0-8.1-1.54-11.19-4.63L1315.1,1457.4c-6.18-6.18-6.18-16.2,0-22.38
				c6.18-6.18,16.2-6.18,22.38,0l133.34,133.33c6.18,6.18,6.18,16.2,0,22.38C1467.73,1593.82,1463.68,1595.37,1459.63,1595.37z"/>
		</g>
		<g>
			<path class="st7" d="M1326.29,1462.04c-4.05,0-8.1-1.55-11.19-4.64c-6.18-6.18-6.18-16.2,0-22.38l115.9-115.9
				c6.18-6.18,16.2-6.18,22.38,0c6.18,6.18,6.18,16.2,0,22.38l-115.9,115.9C1334.39,1460.49,1330.34,1462.04,1326.29,1462.04z"/>
		</g>
		<circle class="st8" cx="1326.29" cy="1446.21" r="39.67"/>
	</g>
</g>
</svg>
