<?xml version="1.0" encoding="utf-8"?>
<!-- Generator: Adobe Illustrator 23.0.2, SVG Export Plug-In . SVG Version: 6.00 Build 0)  -->
<svg version="1.1" id="Layer_1" xmlns="http://www.w3.org/2000/svg" xmlns:xlink="http://www.w3.org/1999/xlink" x="0px" y="0px"
	 viewBox="0 0 2048 2048" style="enable-background:new 0 0 2048 2048;" xml:space="preserve">
<style type="text/css">
	.st0{fill:#BAC5D6;}
	.st1{fill:#E67529;}
	.st2{fill:#EDF6FF;}
	.st3{fill:#D1DCF0;}
	.st4{fill:#B0CCDD;}
	.st5{fill:#E66753;}
	.st6{fill:#E0E9F0;}
</style>
<g>
	<path class="st0" d="M1161.32,408.71H886.68V295.07c0-21.58,17.49-39.07,39.07-39.07h196.51c21.58,0,39.07,17.49,39.07,39.07
		V408.71z"/>
	<rect x="503.48" y="437.42" class="st1" width="1041.03" height="1271.99"/>
	<rect x="606.05" y="540" class="st2" width="835.9" height="1066.84"/>
	<path class="st3" d="M1281.84,586.22H766.16V399.9c0-25.18,20.41-45.58,45.58-45.58h424.51c25.18,0,45.58,20.41,45.58,45.58V586.22
		z"/>
	<g>
		<g>
			<g>
				<g>
					<path class="st4" d="M1351.67,707.8H919.52c-9.09,0-16.45-7.37-16.45-16.45s7.37-16.45,16.45-16.45h432.14
						c9.09,0,16.45,7.37,16.45,16.45S1360.75,707.8,1351.67,707.8z"/>
				</g>
				<g>
					<path class="st4" d="M1351.67,790.05H919.52c-9.09,0-16.45-7.37-16.45-16.45s7.37-16.45,16.45-16.45h432.14
						c9.09,0,16.45,7.37,16.45,16.45S1360.75,790.05,1351.67,790.05z"/>
				</g>
			</g>
			<g>
				<path class="st4" d="M729.61,787.09c-4.36,0-8.55-1.73-11.64-4.82L684.7,749c-6.43-6.43-6.43-16.84,0-23.27
					c6.43-6.43,16.84-6.43,23.27,0l21.64,21.64l64.7-64.7c6.43-6.43,16.84-6.43,23.27,0c6.43,6.43,6.43,16.84,0,23.27l-76.33,76.33
					C738.16,785.36,733.97,787.09,729.61,787.09z"/>
			</g>
		</g>
		<g>
			<g>
				<g>
					<path class="st4" d="M1351.67,908.32H919.52c-9.09,0-16.45-7.37-16.45-16.45s7.37-16.45,16.45-16.45h432.14
						c9.09,0,16.45,7.37,16.45,16.45S1360.75,908.32,1351.67,908.32z"/>
				</g>
				<g>
					<path class="st4" d="M1351.67,990.57H919.52c-9.09,0-16.45-7.37-16.45-16.45s7.37-16.45,16.45-16.45h432.14
						c9.09,0,16.45,7.37,16.45,16.45S1360.75,990.57,1351.67,990.57z"/>
				</g>
			</g>
			<g>
				<path class="st4" d="M729.61,987.61c-4.36,0-8.55-1.73-11.64-4.82l-33.27-33.27c-6.43-6.43-6.43-16.84,0-23.27
					c6.43-6.43,16.84-6.43,23.27,0l21.64,21.64l64.7-64.7c6.43-6.43,16.84-6.43,23.27,0c6.43,6.43,6.43,16.84,0,23.27l-76.33,76.33
					C738.16,985.88,733.97,987.61,729.61,987.61z"/>
			</g>
		</g>
	</g>
	<g>
		<circle class="st5" cx="1024" cy="1441.76" r="350.24"/>
		<circle class="st6" cx="1024" cy="1441.76" r="237.26"/>
		<g>
			<path class="st5" d="M1180.68,1449.29h-67.62c-4.16,0-7.53-3.37-7.53-7.53c0-4.16,3.37-7.53,7.53-7.53h67.62
				c4.16,0,7.53,3.37,7.53,7.53C1188.21,1445.92,1184.84,1449.29,1180.68,1449.29z"/>
		</g>
		<g>
			<path class="st5" d="M1024,1360.23c-4.16,0-7.53-3.37-7.53-7.53v-67.62c0-4.16,3.37-7.53,7.53-7.53c4.16,0,7.53,3.37,7.53,7.53
				v67.62C1031.53,1356.86,1028.16,1360.23,1024,1360.23z"/>
		</g>
		<g>
			<path class="st5" d="M934.94,1449.29h-67.62c-4.16,0-7.53-3.37-7.53-7.53c0-4.16,3.37-7.53,7.53-7.53h67.62
				c4.16,0,7.53,3.37,7.53,7.53C942.47,1445.92,939.1,1449.29,934.94,1449.29z"/>
		</g>
		<g>
			<path class="st5" d="M1024,1605.97c-4.16,0-7.53-3.37-7.53-7.53v-67.62c0-4.16,3.37-7.53,7.53-7.53c4.16,0,7.53,3.37,7.53,7.53
				v67.62C1031.53,1602.59,1028.16,1605.97,1024,1605.97z"/>
		</g>
		<circle class="st5" cx="1024" cy="1441.76" r="124.28"/>
		<path class="st6" d="M1024,1468.33c-3.55,0-6.98-0.67-10.18-2c-3.2-1.33-6.1-3.27-8.61-5.78c-2.51-2.51-4.46-5.41-5.79-8.61
			c-1.33-3.2-2-6.62-2-10.18s0.67-6.98,2-10.18c1.33-3.2,3.27-6.1,5.79-8.61c2.51-2.51,5.41-4.46,8.61-5.79c3.2-1.33,6.62-2,10.18-2
			c3.55,0,6.98,0.67,10.18,2c3.2,1.33,6.1,3.27,8.61,5.79c2.51,2.51,4.46,5.41,5.79,8.61c1.33,3.2,2,6.62,2,10.18
			s-0.67,6.98-2,10.18c-1.33,3.2-3.27,6.1-5.78,8.61s-5.41,4.46-8.61,5.79C1030.98,1467.65,1027.55,1468.33,1024,1468.33z"/>
	</g>
</g>
</svg>
