<?xml version="1.0" encoding="utf-8"?>
<!-- Generator: Adobe Illustrator 23.0.2, SVG Export Plug-In . SVG Version: 6.00 Build 0)  -->
<svg version="1.1" id="Layer_1" xmlns="http://www.w3.org/2000/svg" xmlns:xlink="http://www.w3.org/1999/xlink" x="0px" y="0px"
	 viewBox="0 0 2048 2048" style="enable-background:new 0 0 2048 2048;" xml:space="preserve">
<style type="text/css">
	.st0{fill:#C8D3E6;}
	.st1{fill:#FDD559;}
	.st2{fill:#FF84A7;}
	.st3{fill:#80DBFF;}
	.st4{fill:#98E6B6;}
	.st5{fill:#FF727E;}
</style>
<g>
	<g>
		<path class="st0" d="M1518.73,576.83c-4.54,0-8.87-1.87-11.99-5.16l-80.24-84.73c-6.27-6.62-5.99-17.08,0.64-23.35
			c6.62-6.27,17.08-5.99,23.35,0.64l68.25,72.07l68.25-72.07c6.27-6.62,16.73-6.91,23.35-0.64c6.62,6.27,6.91,16.73,0.64,23.35
			l-80.24,84.73C1527.6,574.96,1523.27,576.83,1518.73,576.83z"/>
	</g>
	<g>
		<path class="st0" d="M529.27,914.2c-4.54,0-8.87-1.87-11.99-5.16l-80.24-84.73c-6.27-6.62-5.99-17.08,0.64-23.35
			c6.62-6.27,17.08-5.99,23.35,0.64l68.25,72.06l68.25-72.06c6.27-6.62,16.72-6.91,23.35-0.64c6.62,6.27,6.91,16.73,0.64,23.35
			l-80.24,84.73C538.14,912.33,533.81,914.2,529.27,914.2z"/>
	</g>
	<g>
		<path class="st0" d="M1518.73,1251.56c-4.54,0-8.87-1.87-11.99-5.16l-80.24-84.73c-6.27-6.62-5.99-17.08,0.64-23.35
			c6.62-6.27,17.08-5.99,23.35,0.64l68.25,72.07l68.25-72.07c6.27-6.62,16.73-6.91,23.35-0.64c6.62,6.27,6.91,16.73,0.64,23.35
			l-80.24,84.73C1527.6,1249.7,1523.27,1251.56,1518.73,1251.56z"/>
	</g>
	<g>
		<path class="st0" d="M529.27,1588.93c-4.54,0-8.87-1.87-11.99-5.16l-80.24-84.73c-6.27-6.62-5.99-17.08,0.64-23.35
			c6.62-6.27,17.08-5.99,23.35,0.64l68.25,72.06l68.25-72.06c6.27-6.62,16.73-6.91,23.35-0.64c6.62,6.27,6.91,16.73,0.64,23.35
			l-80.24,84.73C538.14,1587.06,533.81,1588.93,529.27,1588.93z"/>
	</g>
	<rect x="827.11" y="256" class="st1" width="393.79" height="186.53"/>
	<rect x="827.11" y="593.37" class="st2" width="393.79" height="186.53"/>
	<rect x="827.11" y="930.73" class="st3" width="393.79" height="186.53"/>
	<rect x="827.11" y="1268.1" class="st4" width="393.79" height="186.53"/>
	<rect x="827.11" y="1605.47" class="st5" width="393.79" height="186.53"/>
	<g>
		<path class="st0" d="M1518.73,703.15h-177.9c-9.12,0-16.52-7.39-16.52-16.52s7.39-16.52,16.52-16.52h161.38V365.78h-161.38
			c-9.12,0-16.52-7.39-16.52-16.52c0-9.12,7.39-16.52,16.52-16.52h177.9c9.12,0,16.52,7.39,16.52,16.52v337.37
			C1535.24,695.75,1527.85,703.15,1518.73,703.15z"/>
	</g>
	<g>
		<path class="st0" d="M1518.73,1377.88h-177.9c-9.12,0-16.52-7.39-16.52-16.52s7.39-16.52,16.52-16.52h161.38v-304.33h-161.38
			c-9.12,0-16.52-7.39-16.52-16.52c0-9.12,7.39-16.52,16.52-16.52h177.9c9.12,0,16.52,7.39,16.52,16.52v337.37
			C1535.24,1370.49,1527.85,1377.88,1518.73,1377.88z"/>
	</g>
	<g>
		<path class="st0" d="M707.17,1040.52h-177.9c-9.12,0-16.52-7.39-16.52-16.52V686.63c0-9.12,7.39-16.52,16.52-16.52h177.9
			c9.12,0,16.52,7.39,16.52,16.52s-7.39,16.52-16.52,16.52H545.79v304.34h161.38c9.12,0,16.52,7.39,16.52,16.52
			C723.68,1033.12,716.29,1040.52,707.17,1040.52z"/>
	</g>
	<g>
		<path class="st0" d="M707.17,1715.25h-177.9c-9.12,0-16.52-7.39-16.52-16.52v-337.37c0-9.12,7.39-16.52,16.52-16.52h177.9
			c9.12,0,16.52,7.39,16.52,16.52s-7.39,16.52-16.52,16.52H545.79v304.34h161.38c9.12,0,16.52,7.39,16.52,16.52
			S716.29,1715.25,707.17,1715.25z"/>
	</g>
</g>
</svg>
