<?xml version="1.0" encoding="utf-8"?>
<!-- Generator: Adobe Illustrator 23.0.2, SVG Export Plug-In . SVG Version: 6.00 Build 0)  -->
<svg version="1.1" id="Layer_1" xmlns="http://www.w3.org/2000/svg" xmlns:xlink="http://www.w3.org/1999/xlink" x="0px" y="0px"
	 viewBox="0 0 2048 2048" style="enable-background:new 0 0 2048 2048;" xml:space="preserve">
<style type="text/css">
	.st0{fill:#67B2E6;}
	.st1{fill:#FF822D;}
	.st2{fill:#E67529;}
	.st3{fill:#F0C0AA;}
	.st4{fill:#8F4C2E;}
	.st5{fill:#F9C7B2;}
	.st6{fill:#85A3FA;}
	.st7{fill:#7792E0;}
	.st8{fill:#EBF4FF;}
	.st9{fill:#FF725C;}
	.st10{fill:#FDD559;}
	.st11{fill:#FFDC70;}
</style>
<g>
	<polygon class="st0" points="1327.62,825.83 1748.4,825.83 1748.4,280.42 1111.65,280.42 1111.65,825.83 1192.05,825.83 
		1192.05,985.76 	"/>
	<path class="st1" d="M1459.31,1108.73c-69.51,73.47-121.14,163.75-149.21,260.91c-10.42,36.06-17.63,74.52-8.61,110.96
		c12.99,52.52,58.53,92.37,109.13,111.51c42.51,16.08,88.41,19.67,134.07,19.51c45.66,0.17,91.57-3.43,134.07-19.51
		c50.6-19.14,96.14-58.99,109.13-111.51c9.02-36.44,1.81-74.9-8.61-110.96c-28.07-97.17-79.7-187.44-149.21-260.91H1459.31z"/>
	<path class="st2" d="M1678.49,973.32l-52.81,135.41h-161.96l-52.81-135.41c33.45,0,33.45,19.99,66.89,19.99
		c33.45,0,33.45-19.99,66.9-19.99c33.45,0,33.45,19.99,66.9,19.99S1645.04,973.32,1678.49,973.32z"/>
	<g>
		<g>
			<path class="st3" d="M594.75,1230.96c9.41-20.09,18.53-47.71,19.27-76.35c0.45-17.73-2.73-25.51-5.92-37.75v-85.07h212.85
				l2.81,92.29v0.01c-1.8,7.12-3.06,14.46-2.77,26.06c0.8,31.18,11.31,59.65,22.26,80.98v139.4h-248.5V1230.96z"/>
		</g>
		<g>
			<path class="st4" d="M507.83,828.85c-9.55-22.1-11.23-47.22-12.75-71.66c-1.31-21.02-2.54-42.79,2.38-63.39
				c5.21-21.85,20.55-43.84,33.99-60.29c2.95-3.61,6.01-7.11,9.18-10.49c44.91-48.05,118.88-73.21,156.51-81.86
				c30.47-7,62.69-10.57,94.18-8.14c17.54,1.35,35.93,3.83,53,8.62c14.02,3.93,27.92,11.37,36.35,24.39
				c9.07,14.02,11.27,31.74,22.13,44.59c11.86,14.02,28.02,22.39,40.16,36.09c16.22,18.31,32.37,47.14,34.71,72.98
				c2.11,23.28-7.11,45.25-17.73,64.65c-1.81,3.31-20.68,40.63-24.94,44.52L507.83,828.85L507.83,828.85z"/>
			<path class="st5" d="M934.99,828.85v99.91c0,130.59-95.62,236.45-213.58,236.45l0,0c-117.96,0-213.58-105.86-213.58-236.45
				v-99.91c0,0,26.07-17.21,54.65-48.84c0,0,137.13,89.64,319.12,3.89C881.6,783.89,908.92,812.76,934.99,828.85z"/>
			<path class="st6" d="M1149.35,1400.75c-8.52-30.4-18.38-53.48-31.03-74.64c-7.09-11.89-38.17-61.81-98.86-95.98
				c-14.54-8.18-28.81-14.36-42.4-18.97c-39.14-13.33-72.75-13.87-91.36-13.03L716.92,1316.5l-162.35-118.38
				c-19.33-0.89-54.79-0.25-95.85,14.6c-12.23,4.42-24.97,10.11-37.92,17.39c-60.71,34.16-91.78,84.09-98.87,95.98
				c-12.64,21.15-22.5,44.25-31.01,74.64c-34.69,123.75-35.02,325.28-34.9,366.84h928.24
				C1184.37,1726.02,1184.04,1524.5,1149.35,1400.75z"/>
			<g>
				<g>
					<g>
						<path class="st7" d="M441.96,1525.86v241.71h-27.84v-241.71c0-7.69,6.23-13.91,13.91-13.91
							C435.72,1511.95,441.96,1518.18,441.96,1525.86z"/>
					</g>
					<g>
						<path class="st7" d="M1026.15,1525.86v241.71h-27.84v-241.71c0-7.69,6.23-13.91,13.91-13.91
							C1019.9,1511.95,1026.15,1518.18,1026.15,1525.86z"/>
					</g>
				</g>
			</g>
		</g>
	</g>
	<g>
		<polygon class="st8" points="1290.56,509.64 1290.56,719.4 1385.23,719.4 1385.23,588.34 1474.83,588.34 1474.83,719.4 
			1569.5,719.4 1569.5,509.64 1430.03,392.36 		"/>
		<g>
			<path class="st9" d="M1613.64,562.13c-3.53,0-7.09-1.19-10.01-3.63l-44.16-36.85l-129.45-108l-138.35,115.43l-35.26,29.42
				c-6.63,5.53-16.49,4.64-22.03-1.99c-5.53-6.63-4.64-16.49,1.99-22.03l44.16-36.85l139.46-116.36c5.8-4.84,14.23-4.84,20.04,0
				l148.36,123.78l35.26,29.42c6.63,5.53,7.52,15.39,1.99,22.03C1622.57,560.21,1618.12,562.13,1613.64,562.13z"/>
		</g>
	</g>
	<path class="st10" d="M1637.05,1123.35h-184.71c-8.07,0-14.62-6.54-14.62-14.62v0c0-8.07,6.54-14.62,14.62-14.62h184.71
		c8.07,0,14.62,6.54,14.62,14.62v0C1651.67,1116.8,1645.12,1123.35,1637.05,1123.35z"/>
	<path class="st11" d="M1549.29,1486.61c-17.22,0-31.89-2.56-43.61-7.61c-11.85-5.11-21.29-12.92-28.05-23.21
		c-4.16-6.33-7.14-13.27-8.87-20.61c-0.98-4.16-0.11-8.53,2.39-11.99c2.47-3.42,6.32-5.6,10.56-5.97c0.35-0.03,0.8-0.05,1.23-0.05
		c6.55,0,12.35,4.45,14.09,10.82c1.3,4.75,3.16,8.93,5.52,12.43c3.76,5.59,9.75,10.2,17.8,13.7c8.18,3.56,17.53,5.36,27.8,5.36
		c9.1,0,17.24-1.37,24.18-4.06c6.76-2.63,11.84-6.23,15.07-10.72c3.21-4.45,4.84-9.36,4.84-14.61c0-5.3-1.55-9.98-4.61-13.91
		c-3.11-4-8.41-7.44-15.76-10.25c-4.97-1.93-16.13-4.98-33.13-9.07c-17.33-4.16-29.28-8.02-36.53-11.8l-0.36-0.18
		c-9.21-4.84-16.22-10.98-20.81-18.25c-4.62-7.31-6.96-15.59-6.96-24.63c0-9.9,2.84-19.27,8.45-27.87
		c5.62-8.61,13.91-15.22,24.64-19.66c10.57-4.36,22.46-6.58,35.33-6.58c14.16,0,26.84,2.32,37.71,6.91
		c11.02,4.65,19.62,11.6,25.58,20.67c3.24,4.93,5.7,10.3,7.31,15.97c1.18,4.16,0.43,8.58-2.06,12.14c-2.51,3.6-6.46,5.85-10.85,6.18
		l-0.24,0.02c-0.44,0.04-0.82,0.05-1.19,0.05c-6.39,0-11.93-4.19-13.78-10.44c-2-6.76-5.48-12.22-10.34-16.21
		c-6.89-5.66-17.36-8.52-31.11-8.52c-14.36,0-24.88,2.6-31.27,7.71c-6.22,4.98-9.37,11.03-9.37,17.97c0,6.05,2.11,10.89,6.45,14.78
		l0.23,0.2c4.82,4.01,17.28,8.35,36.09,12.61c20.52,4.65,34.23,8.6,41.91,12.09c11.23,5.18,19.7,11.88,25.16,19.89l0.17,0.24
		c5.38,7.99,8.12,17.4,8.12,27.89c0,10.4-3.01,20.33-8.95,29.52c-5.96,9.2-14.6,16.42-25.66,21.47
		C1575.45,1484.06,1562.96,1486.61,1549.29,1486.61z"/>
	<path class="st11" d="M1544.7,1512.59c-9.64,0-17.47-7.84-17.47-17.47v-11.06c0-9.64,7.84-17.47,17.47-17.47
		s17.47,7.84,17.47,17.47v11.06C1562.17,1504.75,1554.33,1512.59,1544.7,1512.59z"/>
	<path class="st11" d="M1544.7,1307.88c-9.64,0-17.47-7.84-17.47-17.47v-11.02c0-9.64,7.84-17.47,17.47-17.47
		s17.47,7.84,17.47,17.47v11.02C1562.17,1300.04,1554.33,1307.88,1544.7,1307.88z"/>
</g>
</svg>
