<?xml version="1.0" encoding="utf-8"?>
<!-- Generator: Adobe Illustrator 23.0.2, SVG Export Plug-In . SVG Version: 6.00 Build 0)  -->
<svg version="1.1" id="Layer_1" xmlns="http://www.w3.org/2000/svg" xmlns:xlink="http://www.w3.org/1999/xlink" x="0px" y="0px"
	 viewBox="0 0 2048 2048" style="enable-background:new 0 0 2048 2048;" xml:space="preserve">
<style type="text/css">
	.st0{fill:#E66753;}
	.st1{fill:#DFEBFA;}
	.st2{fill:#FF725C;}
</style>
<g>
	<g>
		<polygon class="st0" points="1320.77,638.92 1320.77,403.1 1493.16,403.1 1493.16,774.63 		"/>
		<g>
			<polygon class="st1" points="1621.05,882.71 1621.05,1704.4 426.95,1704.4 426.95,882.71 1031.7,418.19 			"/>
			<path class="st2" d="M1024,474.95l-684.46,538.47c-22.41,17.63-54.86,13.75-72.48-8.65l0,0c-17.63-22.41-13.75-54.86,8.65-72.48
				L1024,343.6l748.3,588.68c22.41,17.63,26.28,50.08,8.65,72.48v0c-17.63,22.41-50.08,26.28-72.48,8.65L1024,474.95z"/>
		</g>
	</g>
	<path class="st2" d="M1024,1537.03c-107.78-48.5-197.67-139.42-256.57-240.79c-20.09-34.57-36.99-71.43-45.21-110.56
		c-8.22-39.13-7.4-80.8,7.02-118.09c15.19-39.31,45.54-72.55,83.31-91.25c70.75-35.03,160.01-15.44,211.46,43.84
		c51.45-59.29,140.71-78.87,211.46-43.84c37.77,18.7,68.11,51.94,83.31,91.25c14.41,37.3,15.24,78.96,7.02,118.09
		c-8.22,39.13-25.12,75.98-45.21,110.56C1221.67,1397.61,1131.78,1488.53,1024,1537.03z"/>
</g>
</svg>
