<?xml version="1.0" encoding="utf-8"?>
<!-- Generator: Adobe Illustrator 23.0.2, SVG Export Plug-In . SVG Version: 6.00 Build 0)  -->
<svg version="1.1" id="Layer_1" xmlns="http://www.w3.org/2000/svg" xmlns:xlink="http://www.w3.org/1999/xlink" x="0px" y="0px"
	 viewBox="0 0 2048 2048" style="enable-background:new 0 0 2048 2048;" xml:space="preserve">
<style type="text/css">
	.st0{fill:#5593BF;}
	.st1{fill:#D1DDEB;}
	.st2{fill:#DFEBFA;}
	.st3{fill:#67B2E6;}
	.st4{fill:#465A65;}
	.st5{fill:#FF725C;}
	.st6{fill:#CC5B4A;}
	.st7{fill:#F7E07F;}
	.st8{fill:#BBECFE;}
</style>
<g>
	<polygon class="st0" points="1743.86,576.62 1024,256 304.14,576.62 304.14,743.79 1743.86,743.79 	"/>
	<g>
		<rect x="412.18" y="850.46" class="st1" width="1223.64" height="106.68"/>
	</g>
	<g>
		<g>
			<rect x="412.18" y="743.79" class="st2" width="1223.64" height="106.68"/>
		</g>
	</g>
	<rect x="304.14" y="743.79" class="st3" width="108.04" height="1048.21"/>
	<rect x="1635.82" y="743.79" class="st3" width="108.04" height="1048.21"/>
	<g>
		<g>
			<g>
				<path class="st4" d="M701.29,1792h-39.88c-23.45,0-42.47-19.01-42.47-42.47v-101.16h124.81v101.16
					C743.75,1772.99,724.74,1792,701.29,1792z"/>
				<path class="st4" d="M1386.59,1792h-39.88c-23.45,0-42.47-19.01-42.47-42.47v-101.16h124.81v101.16
					C1429.06,1772.99,1410.04,1792,1386.59,1792z"/>
			</g>
		</g>
		<path class="st5" d="M562.39,1426.97l163.5-218.25c30.36-40.53,78.05-64.39,128.69-64.39h338.85c50.64,0,98.32,23.86,128.69,64.39
			l163.5,218.25c10.42,13.91,16.05,30.82,16.05,48.2v166.27c0,28.37-23,51.36-51.36,51.36H597.69c-28.37,0-51.36-23-51.36-51.36
			v-166.27C546.33,1457.79,551.96,1440.88,562.39,1426.97z"/>
		<path class="st6" d="M1158.64,1591.17H889.36c-10.61,0-19.94-7.03-22.86-17.23l-11.19-39.09c-4.35-15.19,7.05-30.32,22.86-30.32
			h291.66c15.8,0,27.21,15.13,22.86,30.32l-11.19,39.09C1178.57,1584.14,1169.25,1591.17,1158.64,1591.17z"/>
		<path class="st7" d="M1387.92,1584.41l-61.92-3.08c-17.84-0.89-31.86-15.62-31.86-33.48l0,0c0-17.87,14.01-32.59,31.86-33.48
			l61.92-3.08c19.15-0.95,35.19,14.31,35.19,33.48v6.17C1423.11,1570.1,1407.07,1585.37,1387.92,1584.41z"/>
		<path class="st7" d="M660.08,1584.41l61.92-3.08c17.84-0.89,31.86-15.62,31.86-33.48l0,0c0-17.87-14.01-32.59-31.86-33.48
			l-61.92-3.08c-19.15-0.95-35.19,14.31-35.19,33.48v6.17C624.89,1570.1,640.93,1585.37,660.08,1584.41z"/>
		<path class="st8" d="M771.08,1373.27c-18.25,0-35.99-3.72-52.71-11.05l-53.04-23.27l84.25-112.46
			c12.15-16.22,28.16-29.59,46.29-38.67c18.13-9.07,38.42-13.87,58.69-13.87h338.85c20.27,0,40.56,4.79,58.69,13.87
			c18.13,9.07,34.13,22.44,46.29,38.66l84.25,112.46l-53.04,23.27c-16.72,7.33-34.45,11.05-52.7,11.05H771.08z"/>
	</g>
</g>
</svg>
