<?xml version="1.0" encoding="utf-8"?>
<!-- Generator: Adobe Illustrator 23.0.2, SVG Export Plug-In . SVG Version: 6.00 Build 0)  -->
<svg version="1.1" id="Layer_1" xmlns="http://www.w3.org/2000/svg" xmlns:xlink="http://www.w3.org/1999/xlink" x="0px" y="0px"
	 viewBox="0 0 2048 2048" style="enable-background:new 0 0 2048 2048;" xml:space="preserve">
<style type="text/css">
	.st0{fill:#FFC4B0;}
	.st1{fill:#F0B8A5;}
	.st2{fill:#F7E07F;}
	.st3{fill:#E6B09E;}
	.st4{fill:#DBA897;}
	.st5{fill:#FF725C;}
	.st6{fill:#9FA8B3;}
	.st7{fill:#DFEBFA;}
</style>
<g>
	<g>
		<path class="st0" d="M1457.62,1556.97c-13.56,17.83-34.15,27.23-55.01,27.23c-6.38,0-12.78-0.88-19.02-2.67
			c-5.31-1.52-10.5-3.7-15.44-6.56c0.41,1.97,0.73,3.97,0.94,5.98c0.27,2.39,0.4,4.8,0.4,7.2c0,14.49-4.8,29.09-14.75,41.22
			c-17.02,20.77-44.31,28.38-68.7,21.24c-3.9-1.13-7.72-2.65-11.41-4.55c0.98,2.56,1.8,5.16,2.44,7.82v0.01
			c1.28,5.16,1.92,10.47,1.92,15.79c0,14.18-4.56,28.46-14.01,40.52c-17.46,22.31-46.44,30.27-71.92,22.09h-0.01
			c-5.03-1.61-9.91-3.86-14.55-6.74c0.18,1.84,0.26,3.69,0.26,5.54v0.22c-0.05,13.28-4.41,26.63-13.36,37.81
			c-19.69,24.6-54.88,30.15-81.16,12.8l-108.44-71.57h-0.01l-91.3-51.49h-0.01l-104.23-58.77l-103.72-58.49l-97.21-54.82h-0.01
			l-1.44-0.82l-85.98-89.89l197.46-331.79l183.24,8.29l97,66.66l419.54,283.47l52.17,35.25
			C1474.18,1480.15,1481.63,1525.41,1457.62,1556.97z"/>
		<path class="st1" d="M1377.81,1043.58c0,0-90.01,4.65-196.17-14.34c-25.43-4.55-50.99-8.28-76.69-10.89
			c-42.97-4.36-104.37-9.03-151.43-6.24c-20.36,1.21-39.31,10.79-52.4,26.42l-28.5,34.03l-159.78,190.79
			c0,0,65.55,63.12,157.81-19.42l98.97-104.71l419.54,283.47l182.29-94.6L1377.81,1043.58z"/>
		<g>
			<polygon class="st2" points="460.07,1450.66 718.64,1016.17 540.07,907.29 281.49,1341.77 			"/>
		</g>
		<g>
			<path class="st3" d="M1274.65,1646.07c0.98,2.56,1.8,5.16,2.44,7.82l-159.6-119.74c-1.77-1.33-2.13-3.84-0.8-5.6
				c1.32-1.77,3.83-2.13,5.6-0.8l163.77,122.87C1282.16,1649.48,1278.34,1647.96,1274.65,1646.07z"/>
		</g>
		<g>
			<path class="st3" d="M1178.52,1725.55c0.18,1.84,0.26,3.69,0.26,5.54v0.22l-117.46-91.47c-1.74-1.36-2.05-3.87-0.69-5.62
				c1.35-1.74,3.87-2.05,5.61-0.7l126.83,98.77C1188.04,1730.68,1183.16,1728.43,1178.52,1725.55z"/>
		</g>
		<path class="st1" d="M856.03,1761.69l-2.96-2.96c-18.9-18.9-18.9-49.54,0-68.44l54.01-54.01c18.9-18.9,49.54-18.9,68.44,0
			l2.96,2.96c18.9,18.9,18.9,49.54,0,68.44l-54.01,54.01C905.57,1780.59,874.93,1780.59,856.03,1761.69z"/>
		<path class="st1" d="M757.48,1707.76l-3.38-3.38c-21.57-21.57-21.57-56.55,0-78.12l71.19-71.19c21.57-21.57,56.55-21.57,78.12,0
			l3.38,3.38c21.57,21.57,21.57,56.55,0,78.12l-71.19,71.19C814.03,1729.33,779.05,1729.33,757.48,1707.76z"/>
		<path class="st1" d="M664.84,1637.78l-3.36-3.36c-21.47-21.47-21.47-56.27,0-77.74l92.6-92.6c21.47-21.47,56.27-21.47,77.74,0
			l3.36,3.36c21.47,21.47,21.47,56.27,0,77.74l-92.6,92.6C721.12,1659.25,686.31,1659.25,664.84,1637.78z"/>
		<path class="st4" d="M991.79,1673.46c0,2.07-0.13,4.14-0.38,6.2c-1.33-10.79-6.13-21.23-14.41-29.5
			c-19.72-19.72-51.69-19.72-71.4,0l-51.05,51.05c-8.28,8.28-13.08,18.73-14.41,29.5c-1.83-14.9,2.97-30.45,14.41-41.89l51.05-51.06
			c19.72-19.72,51.69-19.72,71.4,0C986.86,1647.62,991.79,1660.54,991.79,1673.46z"/>
		<path class="st4" d="M921.97,1597.52c0,2.07-0.11,4.14-0.33,6.2c-1.36-12.63-6.88-24.87-16.55-34.55c-22.51-22.51-59-22.51-81.5,0
			l-67.81,67.81c-9.67,9.68-15.19,21.94-16.55,34.55c-1.8-16.74,3.71-34.11,16.55-46.95l67.81-67.81c22.51-22.51,59-22.51,81.5,0
			C916.34,1568.02,921.97,1582.77,921.97,1597.52z"/>
		<path class="st4" d="M850.3,1506.31c0,2.07-0.11,4.14-0.34,6.2c-1.35-12.55-6.84-24.73-16.46-34.35
			c-22.4-22.41-58.71-22.41-81.1,0l-89.24,89.23c-9.62,9.62-15.11,21.82-16.46,34.36c-1.81-16.67,3.68-33.97,16.46-46.75
			l89.24-89.24c22.4-22.4,58.71-22.4,81.1,0C844.7,1476.95,850.3,1491.63,850.3,1506.31z"/>
		<path class="st1" d="M589.11,1555.1l-3.2-3.2c-20.42-20.42-20.42-53.53,0-73.95l53.27-53.27c20.42-20.42,53.53-20.42,73.95,0
			l3.2,3.2c20.42,20.42,20.42,53.53,0,73.95l-53.27,53.27C642.63,1575.52,609.53,1575.52,589.11,1555.1z"/>
		<path class="st4" d="M730.7,1464.85c0,2.07-0.12,4.14-0.35,6.2c-1.34-11.83-6.55-23.31-15.63-32.38
			c-21.31-21.3-55.85-21.3-77.15,0l-50.07,50.08c-9.07,9.07-14.28,20.55-15.63,32.37c-1.82-15.95,3.39-32.53,15.63-44.77
			l50.07-50.07c21.31-21.31,55.85-21.31,77.15,0C725.39,1436.93,730.7,1450.89,730.7,1464.85z"/>
		<polygon class="st5" points="1342.39,992.67 1593.56,1364.2 1766.51,1260.28 1515.34,888.74 		"/>
		<g>
			<path class="st3" d="M1368.16,1574.98c0.41,1.97,0.73,3.97,0.94,5.98l-224.04-161.42c-1.79-1.29-2.2-3.79-0.9-5.59
				c1.29-1.79,3.79-2.19,5.58-0.9l233.86,168.48C1378.29,1580.02,1373.1,1577.84,1368.16,1574.98z"/>
		</g>
	</g>
	<g>
		<rect x="871.4" y="544.45" class="st6" width="305.21" height="283.87"/>
		<polygon class="st7" points="788.95,474.81 788.95,828.31 948.5,828.31 948.5,607.44 1099.5,607.44 1099.5,828.31 1259.05,828.31 
			1259.05,474.81 1024,280.12 		"/>
		<g>
			<path class="st5" d="M1333.45,559.62c-5.13,0-10.29-1.73-14.54-5.27l-74.42-62.1L1024,308.28L788.5,504.76l-59.42,49.58
				c-9.63,8.04-23.95,6.75-31.99-2.89c-8.04-9.63-6.74-23.95,2.89-31.99l74.42-62.1l235.04-196.1c8.43-7.03,20.67-7.03,29.1,0
				l250.04,208.61l59.42,49.59c9.63,8.04,10.92,22.35,2.89,31.99C1346.41,556.84,1339.95,559.62,1333.45,559.62z"/>
		</g>
	</g>
</g>
</svg>
