<?xml version="1.0" encoding="utf-8"?>
<!-- Generator: Adobe Illustrator 23.0.2, SVG Export Plug-In . SVG Version: 6.00 Build 0)  -->
<svg version="1.1" id="Layer_1" xmlns="http://www.w3.org/2000/svg" xmlns:xlink="http://www.w3.org/1999/xlink" x="0px" y="0px"
	 viewBox="0 0 2048 2048" style="enable-background:new 0 0 2048 2048;" xml:space="preserve">
<style type="text/css">
	.st0{fill:#E66753;}
	.st1{fill:#DFEBFA;}
	.st2{fill:#FF725C;}
	.st3{fill:#67B2E6;}
</style>
<g>
	<g>
		<polygon class="st0" points="1320.77,638.92 1320.77,403.1 1493.16,403.1 1493.16,774.63 		"/>
		<g>
			<polygon class="st1" points="1621.05,882.71 1621.05,1704.4 426.95,1704.4 426.95,882.71 1031.7,418.19 			"/>
			<path class="st2" d="M1024,474.95l-684.46,538.47c-22.41,17.63-54.86,13.75-72.48-8.65l0,0c-17.63-22.41-13.75-54.86,8.65-72.48
				L1024,343.6l748.3,588.68c22.41,17.63,26.28,50.08,8.65,72.48v0c-17.63,22.41-50.08,26.28-72.48,8.65L1024,474.95z"/>
		</g>
	</g>
	<g>
		<g>
			<path class="st3" d="M762.12,1523.64c-6.35,0-12.7-2.43-17.54-7.28c-9.66-9.69-9.64-25.37,0.05-35.04l523.76-522.37
				c9.69-9.66,25.38-9.64,35.04,0.05c9.66,9.69,9.64,25.37-0.05,35.04l-523.76,522.37C774.78,1521.23,768.45,1523.64,762.12,1523.64
				z"/>
		</g>
		<g>
			<circle class="st3" cx="853.79" cy="1066.45" r="122.45"/>
			<circle class="st3" cx="1194.21" cy="1408.91" r="122.45"/>
		</g>
	</g>
</g>
</svg>
