<?xml version="1.0" encoding="utf-8"?>
<!-- Generator: Adobe Illustrator 23.0.2, SVG Export Plug-In . SVG Version: 6.00 Build 0)  -->
<svg version="1.1" id="Layer_1" xmlns="http://www.w3.org/2000/svg" xmlns:xlink="http://www.w3.org/1999/xlink" x="0px" y="0px"
	 viewBox="0 0 2048 2048" style="enable-background:new 0 0 2048 2048;" xml:space="preserve">
<style type="text/css">
	.st0{fill:#FFC4B0;}
	.st1{fill:#FF725C;}
	.st2{fill:#E6B09E;}
	.st3{fill:#9FA8B3;}
	.st4{fill:#DFEBFA;}
</style>
<g>
	<g>
		<g>
			<g>
				<path class="st0" d="M1750.22,1125.66l-550.23,341.95c-86.75,53.87-186.84,82.42-288.95,82.39l-407.7-0.08H333.5v-277.38H470
					c7.94-10.88,16.24-20.59,24.7-29.27c90.26-92.63,231.21-94.43,292.49-93.87h325.24c53.08,0,96.31,43.98,93.83,97.01
					c-0.11,2.48-0.33,4.92-0.64,7.34c-0.25,2-0.56,3.99-0.95,5.95h0.01c1.71-1.07,3.43-2.15,5.13-3.22
					c197.26-124.02,349.41-220.08,447.1-280.92c29.69-18.49,67.48-17.72,96.4,1.94C1806.2,1013.45,1804.56,1091.94,1750.22,1125.66z
					"/>
			</g>
			<rect x="256" y="1149.33" class="st1" width="214" height="483.1"/>
			<g>
				<path class="st2" d="M1128.76,1150.8c17.52,3.39,33.8,12.34,46.24,25.37c16.08,16.86,23.78,48.35,22.7,71.39
					c-0.1,2.21-0.3,4.47-0.58,6.7c-0.22,1.79-0.51,3.61-0.87,5.43c-3.56,16.76-12.18,32.07-24.96,44.01
					c-15.85,14.8-36.96,22.67-58.65,22.67H854.84c-2.28,0-4.13,1.85-4.13,4.13l0,0c0,2.28,1.85,4.13,4.13,4.13h258.91
					c45.11,0,82.67-32.24,90.92-74.94c0.38-1.96,0.7-3.94,0.95-5.94c0.31-2.42,0.52-4.87,0.64-7.34
					C1208.48,1198.93,1174.07,1158.71,1128.76,1150.8z"/>
				<path class="st2" d="M1114.63,1149.42c-0.73-0.02-1.47-0.03-2.2-0.03C1113.17,1149.39,1113.9,1149.4,1114.63,1149.42z"/>
			</g>
		</g>
	</g>
	<g>
		<rect x="872.92" y="701.13" class="st3" width="302.16" height="281.03"/>
		<polygon class="st4" points="791.3,632.19 791.3,982.17 949.26,982.17 949.26,763.5 1098.74,763.5 1098.74,982.17 1256.7,982.17 
			1256.7,632.19 1024,439.44 		"/>
		<g>
			<path class="st1" d="M1330.36,716.15c-5.08,0-10.19-1.71-14.39-5.22l-73.68-61.48L1024,467.33L790.86,661.84l-58.83,49.09
				c-9.53,7.96-23.71,6.68-31.67-2.86c-7.96-9.53-6.68-23.71,2.86-31.67l73.68-61.48l232.69-194.14c8.34-6.96,20.46-6.96,28.8,0
				l247.54,206.53l58.83,49.09c9.53,7.96,10.81,22.13,2.86,31.67C1343.19,713.4,1336.8,716.15,1330.36,716.15z"/>
		</g>
	</g>
</g>
</svg>
