<?xml version="1.0" encoding="utf-8"?>
<!-- Generator: Adobe Illustrator 23.0.2, SVG Export Plug-In . SVG Version: 6.00 Build 0)  -->
<svg version="1.1" id="Layer_1" xmlns="http://www.w3.org/2000/svg" xmlns:xlink="http://www.w3.org/1999/xlink" x="0px" y="0px"
	 viewBox="0 0 2048 2048" style="enable-background:new 0 0 2048 2048;" xml:space="preserve">
<style type="text/css">
	.st0{fill:#E66753;}
	.st1{fill:#DFEBFA;}
	.st2{fill:#FF725C;}
	.st3{fill:#B3E0FF;}
	.st4{fill:#7BC3F5;}
	.st5{fill:#A3DAFF;}
</style>
<g>
	<g>
		<g>
			<g>
				<polygon class="st0" points="1320.77,638.75 1320.77,402.93 1493.16,402.93 1493.16,774.46 				"/>
				<g>
					<polygon class="st1" points="1621.05,882.54 1621.05,1704.23 426.95,1704.23 426.95,882.54 1031.7,418.03 					"/>
					<path class="st2" d="M1024,474.79l-684.46,538.47c-22.41,17.63-54.86,13.75-72.48-8.65l0,0
						c-17.63-22.41-13.75-54.86,8.65-72.48L1024,343.43l748.3,588.68c22.41,17.63,26.28,50.08,8.65,72.48v0
						c-17.63,22.41-50.08,26.28-72.48,8.65L1024,474.79z"/>
				</g>
			</g>
		</g>
	</g>
	<rect x="587.35" y="1128.09" class="st2" width="357.16" height="576.47"/>
	<rect x="1122.06" y="1128.09" class="st3" width="338.58" height="338.58"/>
	<g>
		<path class="st4" d="M1291.35,1479.06c-6.84,0-12.39-5.55-12.39-12.39v-338.58c0-6.84,5.55-12.39,12.39-12.39
			s12.39,5.55,12.39,12.39v338.58C1303.74,1473.51,1298.2,1479.06,1291.35,1479.06z"/>
	</g>
	<g>
		<path class="st4" d="M1460.65,1309.77h-338.58c-6.84,0-12.39-5.55-12.39-12.39s5.55-12.39,12.39-12.39h338.58
			c6.84,0,12.39,5.55,12.39,12.39S1467.49,1309.77,1460.65,1309.77z"/>
	</g>
	<circle class="st5" cx="1024" cy="834.93" r="112.52"/>
	<g>
		<path class="st2" d="M1460.65,1483.19h-338.58c-9.12,0-16.52-7.39-16.52-16.52v-338.58c0-9.12,7.39-16.52,16.52-16.52h338.58
			c9.12,0,16.52,7.39,16.52,16.52v338.58C1477.16,1475.8,1469.77,1483.19,1460.65,1483.19z M1138.58,1450.16h305.55v-305.55h-305.55
			V1450.16z"/>
	</g>
</g>
</svg>
