<?xml version="1.0" encoding="utf-8"?>
<!-- Generator: Adobe Illustrator 23.0.2, SVG Export Plug-In . SVG Version: 6.00 Build 0)  -->
<svg version="1.1" id="Layer_1" xmlns="http://www.w3.org/2000/svg" xmlns:xlink="http://www.w3.org/1999/xlink" x="0px" y="0px"
	 viewBox="0 0 2048 2048" style="enable-background:new 0 0 2048 2048;" xml:space="preserve">
<style type="text/css">
	.st0{fill:#E66753;}
	.st1{fill:#DFEBFA;}
	.st2{fill:#FF725C;}
	.st3{fill:#A3DAFF;}
	.st4{fill:#69B6EB;}
	.st5{fill:#5593BF;}
	.st6{fill:#B3E0FF;}
</style>
<g>
	<g>
		<g>
			<g>
				<g>
					<polygon class="st0" points="1273.53,633.78 1273.53,408.43 1438.27,408.43 1438.27,763.47 					"/>
					<g>
						<polygon class="st1" points="1560.49,866.76 1560.49,1652 419.36,1652 419.36,866.76 997.28,422.85 						"/>
						<path class="st2" d="M989.93,477.09l-654.1,514.58c-21.41,16.84-52.42,13.14-69.27-8.27l0,0
							c-16.84-21.41-13.14-52.42,8.27-69.27l715.1-562.56l715.1,562.56c21.41,16.84,25.11,47.86,8.27,69.27l0,0
							c-16.84,21.41-47.86,25.11-69.27,8.27L989.93,477.09z"/>
					</g>
				</g>
			</g>
		</g>
		<rect x="572.65" y="1101.41" class="st2" width="341.32" height="550.9"/>
		<circle class="st3" cx="989.93" cy="821.26" r="107.52"/>
	</g>
	<g>
		<path class="st4" d="M1537.66,1367.14l238.54,238.54c21.25,21.25,21.15,55.94-0.78,76.49c-10.15,9.51-23.14,14.26-36.13,14.26
			c-13.53,0-27.07-5.16-37.39-15.49l-239.02-239.02L1537.66,1367.14z"/>
		<path class="st5" d="M1677.16,1656.21l24.72,24.72c10.33,10.33,23.87,15.49,37.4,15.49c12.99,0,25.97-4.76,36.13-14.27
			c21.94-20.55,22.04-55.24,0.78-76.49l-24.25-24.25L1677.16,1656.21z"/>
		<circle class="st5" cx="1369.22" cy="1273.49" r="255.77"/>
		<circle class="st6" cx="1369.22" cy="1273.49" r="187.56"/>
	</g>
</g>
</svg>
