<?xml version="1.0" encoding="utf-8"?>
<!-- Generator: Adobe Illustrator 23.0.2, SVG Export Plug-In . SVG Version: 6.00 Build 0)  -->
<svg version="1.1" id="Layer_1" xmlns="http://www.w3.org/2000/svg" xmlns:xlink="http://www.w3.org/1999/xlink" x="0px" y="0px"
	 viewBox="0 0 2048 2048" style="enable-background:new 0 0 2048 2048;" xml:space="preserve">
<style type="text/css">
	.st0{fill:#E66753;}
	.st1{fill:#DFEBFA;}
	.st2{fill:#FF725C;}
	.st3{fill:#69B6EB;}
</style>
<g>
	<g>
		<g>
			<polygon class="st0" points="1320.77,638.92 1320.77,403.1 1493.16,403.1 1493.16,774.63 			"/>
			<g>
				<polygon class="st1" points="1621.05,882.71 1621.05,1704.4 426.95,1704.4 426.95,882.71 1031.7,418.19 				"/>
				<path class="st2" d="M1024,474.95l-684.46,538.47c-22.41,17.63-54.86,13.75-72.48-8.65l0,0c-17.63-22.41-13.75-54.86,8.65-72.48
					L1024,343.6l748.3,588.68c22.41,17.63,26.28,50.08,8.65,72.48v0c-17.63,22.41-50.08,26.28-72.48,8.65L1024,474.95z"/>
			</g>
		</g>
	</g>
	<path class="st3" d="M1383.74,1257.42v-95.28h-93.02c-6.59-39.56-21.77-76.19-43.57-107.94l65.26-65.26l-67.37-67.37l-64.77,64.77
		c-31.68-22.43-68.41-38.2-108.14-45.29v-91.52h-95.28v91.52c-39.63,7.06-76.27,22.77-107.9,45.11l-65.3-65.3l-67.37,67.37
		l65.71,65.71c-21.71,31.55-36.88,67.92-43.57,107.2h-94.17v95.28h94.87c7.18,38.63,22.59,74.36,44.33,105.33l-67.87,67.87
		l67.37,67.37l68.11-68.11c30.87,21.38,66.43,36.49,104.81,43.47v96.67h95.28v-96.32c38.55-6.72,74.29-21.62,105.37-42.84
		l67.83,67.83l67.37-67.36l-67.16-67.16c22.08-31.03,37.75-66.92,45.12-105.75H1383.74z M1024.5,1347.73
		c-77.82,0-140.92-63.09-140.92-140.91c0-77.83,63.1-140.92,140.92-140.92c77.83,0,140.92,63.09,140.92,140.92
		C1165.42,1284.63,1102.33,1347.73,1024.5,1347.73z"/>
</g>
</svg>
