<?xml version="1.0" encoding="utf-8"?>
<!-- Generator: Adobe Illustrator 23.0.2, SVG Export Plug-In . SVG Version: 6.00 Build 0)  -->
<svg version="1.1" id="Layer_1" xmlns="http://www.w3.org/2000/svg" xmlns:xlink="http://www.w3.org/1999/xlink" x="0px" y="0px"
	 viewBox="0 0 2048 2048" style="enable-background:new 0 0 2048 2048;" xml:space="preserve">
<style type="text/css">
	.st0{fill:#E66753;}
	.st1{fill:#DFEBFA;}
	.st2{fill:#FF725C;}
	.st3{fill:#67B2E6;}
</style>
<g>
	<g>
		<g>
			<polygon class="st0" points="1320.77,638.92 1320.77,403.1 1493.16,403.1 1493.16,774.63 			"/>
			<g>
				<polygon class="st1" points="1621.05,882.71 1621.05,1704.4 426.95,1704.4 426.95,882.71 1031.7,418.19 				"/>
				<path class="st2" d="M1024,474.95l-684.46,538.47c-22.41,17.63-54.86,13.75-72.48-8.65l0,0c-17.63-22.41-13.75-54.86,8.65-72.48
					L1024,343.6l748.3,588.68c22.41,17.63,26.28,50.08,8.65,72.48v0c-17.63,22.41-50.08,26.28-72.48,8.65L1024,474.95z"/>
			</g>
		</g>
	</g>
	<path class="st3" d="M1373.49,1351.72l-62.26-62.26l-85.34,85.34l-62.07-62.06l85.34-85.34l-62.25-62.26l-85.34,85.34
		L993.5,1142.41c16.93-30.55,24.11-66.15,20.28-101.12c-4.18-38.31-21.52-74.44-48.83-101.74c-32.14-32.14-74.88-49.85-120.34-49.85
		c-45.46,0-88.2,17.7-120.34,49.85c-66.35,66.35-66.35,174.32,0,240.68c32.14,32.13,74.88,49.84,120.34,49.84
		c29.01,0,57.36-7.34,82.51-21.3l359.49,359.49l66.37-66.37l-64.84-64.84L1373.49,1351.72z M900.58,1115.86
		c-30.91,30.92-81.03,30.92-111.95,0c-30.92-30.91-30.92-81.03,0-111.95c30.92-30.91,81.04-30.91,111.95,0
		C931.5,1034.83,931.5,1084.95,900.58,1115.86z"/>
</g>
</svg>
