<?xml version="1.0" encoding="utf-8"?>
<!-- Generator: Adobe Illustrator 23.0.2, SVG Export Plug-In . SVG Version: 6.00 Build 0)  -->
<svg version="1.1" id="Layer_1" xmlns="http://www.w3.org/2000/svg" xmlns:xlink="http://www.w3.org/1999/xlink" x="0px" y="0px"
	 viewBox="0 0 2048 2048" style="enable-background:new 0 0 2048 2048;" xml:space="preserve">
<style type="text/css">
	.st0{fill:#E66753;}
	.st1{fill:#DFEBFA;}
	.st2{fill:#FF725C;}
	.st3{fill:#F7E07F;}
	.st4{fill:#CCB969;}
</style>
<g>
	<g>
		<g>
			<g>
				<polygon class="st0" points="1320.77,638.92 1320.77,403.1 1493.16,403.1 1493.16,774.63 				"/>
				<g>
					<polygon class="st1" points="1621.05,882.71 1621.05,1704.4 426.95,1704.4 426.95,882.71 1031.7,418.19 					"/>
					<path class="st2" d="M1024,474.95l-684.46,538.47c-22.41,17.63-54.86,13.75-72.48-8.65l0,0
						c-17.63-22.41-13.75-54.86,8.65-72.48L1024,343.6l748.3,588.68c22.41,17.63,26.28,50.08,8.65,72.48v0
						c-17.63,22.41-50.08,26.28-72.48,8.65L1024,474.95z"/>
				</g>
			</g>
		</g>
	</g>
	<g>
		<g>
			<circle class="st3" cx="1024" cy="1217.03" r="328.26"/>
		</g>
		<g>
			<g>
				<g>
					<path class="st4" d="M1141.63,1239.53l-0.14-0.2c-9.4-13.8-24-25.34-43.4-34.29c-13.13-5.95-37.53-12.99-72.54-20.92
						c-42.4-9.59-57.81-17.46-63.27-22.37c-7.65-6.86-11.37-15.39-11.37-26.06c0-12.4,5.39-22.74,16.47-31.62
						c11.18-8.96,29.55-13.5,54.59-13.5c23.99,0,42.27,5.02,54.32,14.91c8.52,6.99,14.61,16.55,18.13,28.4
						c3.14,10.57,12.51,17.68,23.32,17.68c0.6,0,1.25-0.03,2-0.08l0.29-0.02c7.52-0.57,14.26-4.39,18.51-10.47
						c4.22-6.03,5.5-13.53,3.5-20.56c-2.76-9.76-6.99-19.02-12.59-27.52c-10.27-15.63-25.1-27.61-44.1-35.62
						c-18.77-7.92-40.69-11.93-65.15-11.93c-22.25,0-42.79,3.82-61.04,11.36c-18.49,7.64-32.77,19.03-42.45,33.85
						c-9.66,14.8-14.56,30.95-14.56,48c0,15.56,4.03,29.82,11.97,42.39c7.89,12.5,19.99,23.09,35.96,31.5l0.43,0.22
						c12.31,6.45,33.61,13.33,63.3,20.45c29.48,7.09,48.84,12.39,57.54,15.76c12.85,4.9,22.12,10.94,27.57,17.95
						c5.38,6.93,8.11,15.16,8.11,24.48c0,9.22-2.86,17.87-8.51,25.69c-5.68,7.87-14.56,14.2-26.4,18.79
						c-12.11,4.69-26.29,7.07-42.14,7.07c-17.89,0-34.19-3.15-48.44-9.35c-14.06-6.12-24.53-14.18-31.13-23.97
						c-4.13-6.12-7.37-13.42-9.64-21.72c-2.96-10.79-12.77-18.32-23.86-18.32c-0.76,0-1.46,0.03-2.02,0.08
						c-7.22,0.64-13.77,4.32-17.96,10.12c-4.23,5.85-5.71,13.25-4.05,20.29c2.99,12.68,8.13,24.65,15.3,35.56
						c11.66,17.76,27.94,31.22,48.38,40.03c20.26,8.73,45.62,13.16,75.38,13.16c23.62,0,45.19-4.4,64.13-13.06
						c19.09-8.71,33.98-21.17,44.25-37.02c10.24-15.82,15.43-32.93,15.43-50.85C1155.77,1269.7,1151.02,1253.47,1141.63,1239.53z"/>
				</g>
				<g>
					<polygon class="st4" points="948.38,1216.43 948.38,1216.43 948.38,1216.43 					"/>
				</g>
			</g>
			<g>
				<g>
					<g>
						<path class="st4" d="M1024,1431.75c-13.68,0-24.77-11.09-24.77-24.77v-26.81c0-13.68,11.09-24.77,24.77-24.77
							c13.68,0,24.77,11.09,24.77,24.77v26.81C1048.78,1420.66,1037.69,1431.75,1024,1431.75z"/>
					</g>
					<g>
						<path class="st4" d="M1024,1078.6c-13.68,0-24.77-11.09-24.77-24.77v-26.74c0-13.68,11.09-24.77,24.77-24.77
							c13.68,0,24.77,11.09,24.77,24.77v26.74C1048.78,1067.51,1037.69,1078.6,1024,1078.6z"/>
					</g>
				</g>
			</g>
		</g>
	</g>
</g>
</svg>
