<?xml version="1.0" encoding="utf-8"?>
<!-- Generator: Adobe Illustrator 23.0.2, SVG Export Plug-In . SVG Version: 6.00 Build 0)  -->
<svg version="1.1" id="Layer_1" xmlns="http://www.w3.org/2000/svg" xmlns:xlink="http://www.w3.org/1999/xlink" x="0px" y="0px"
	 viewBox="0 0 2048 2048" style="enable-background:new 0 0 2048 2048;" xml:space="preserve">
<style type="text/css">
	.st0{fill:#E66753;}
	.st1{fill:#DFEBFA;}
	.st2{fill:#FF725C;}
	.st3{fill:#67B2E6;}
	.st4{fill:#D8E9F0;}
</style>
<g>
	<g>
		<g>
			<g>
				<polygon class="st0" points="1320.77,638.92 1320.77,403.1 1493.16,403.1 1493.16,774.63 				"/>
				<g>
					<polygon class="st1" points="1621.05,882.71 1621.05,1704.4 426.95,1704.4 426.95,882.71 1031.7,418.19 					"/>
					<path class="st2" d="M1024,474.95l-684.46,538.47c-22.41,17.63-54.86,13.75-72.48-8.65l0,0
						c-17.63-22.41-13.75-54.86,8.65-72.48L1024,343.6l748.3,588.68c22.41,17.63,26.28,50.08,8.65,72.48v0
						c-17.63,22.41-50.08,26.28-72.48,8.65L1024,474.95z"/>
				</g>
			</g>
		</g>
	</g>
	<g>
		<path class="st3" d="M1024,1579.35l-19.4-20.17c-4.36-4.53-8.58-9.15-12.66-13.61c-6.9-7.54-13.41-14.66-20.22-21.05
			c-10.74-10.08-24.29-18.99-41.44-27.22c-8.3-3.99-16.74-7.77-25.67-11.77l-0.14-0.06c-12.91-5.79-26.25-11.77-39.81-18.66
			c-33.77-17.19-60.69-37.24-82.3-61.31c-15.69-17.48-28.68-37.12-38.61-58.37c-10.03-21.48-16.7-44.13-19.83-67.32
			c-1.16-8.6-1.87-17.79-2.19-28.09l-0.01-0.43l0-0.43l0.24-286.24l24.28-2.37c99.12-9.67,191.33-49.32,259.65-111.64l18.14-16.55
			l18.14,16.55c68.29,62.31,160.48,101.96,259.59,111.63l24.28,2.37l0.24,286.67l-0.01,0.43c-0.32,10.31-1.04,19.49-2.19,28.08
			c-3.13,23.2-9.8,45.85-19.83,67.33c-9.92,21.25-22.91,40.89-38.61,58.37c-21.61,24.07-48.53,44.12-82.3,61.31
			c-13.56,6.9-26.91,12.88-39.82,18.67l-0.13,0.06c-8.94,4-17.37,7.78-25.67,11.77c-17.15,8.24-30.71,17.14-41.45,27.23
			c-6.81,6.39-13.32,13.51-20.22,21.05c-4.08,4.46-8.31,9.08-12.67,13.61L1024,1579.35z"/>
		<path class="st4" d="M821.46,1241.79c0.22,6.74,0.68,12.66,1.41,18.07c3.89,28.84,16.96,56.9,36.8,79
			c13.94,15.53,31.72,28.67,54.34,40.19c10.08,5.13,20.46,9.78,30.5,14.28l0.11,0.05c7.22,3.23,14.69,6.58,21.99,10.09
			c18.08,8.68,32.74,18.41,44.81,29.75c4.43,4.16,8.58,8.46,12.58,12.75c4-4.29,8.16-8.6,12.58-12.75
			c12.08-11.34,26.74-21.07,44.82-29.76c7.29-3.5,14.76-6.85,21.99-10.09l0.1-0.05c10.04-4.5,20.42-9.15,30.51-14.29
			c22.62-11.51,40.39-24.66,54.34-40.19c19.84-22.09,32.91-50.15,36.8-79c0.73-5.4,1.19-11.31,1.4-18.06l-0.16-193.66
			c-39.19-5.6-76.9-16.35-112.35-32.04c-33-14.6-63.2-33.09-90.01-55.06c-26.82,21.98-57.03,40.46-90.03,55.07
			c-35.46,15.69-73.18,26.44-112.37,32.04L821.46,1241.79z"/>
		<g>
			<path class="st3" d="M992.79,1283.01c-6.3,0-12.59-2.38-17.42-7.16l-40.53-40.07c-9.73-9.62-9.82-25.31-0.2-35.04
				c9.62-9.73,25.31-9.82,35.04-0.2l23,22.75l85.54-85.61c9.67-9.68,25.36-9.69,35.04-0.01c9.68,9.67,9.69,25.36,0.01,35.04
				l-102.96,103.04C1005.48,1280.58,999.13,1283.01,992.79,1283.01z"/>
		</g>
	</g>
</g>
</svg>
