<?xml version="1.0" encoding="utf-8"?>
<!-- Generator: Adobe Illustrator 23.0.2, SVG Export Plug-In . SVG Version: 6.00 Build 0)  -->
<svg version="1.1" id="Layer_1" xmlns="http://www.w3.org/2000/svg" xmlns:xlink="http://www.w3.org/1999/xlink" x="0px" y="0px"
	 viewBox="0 0 2048 2048" style="enable-background:new 0 0 2048 2048;" xml:space="preserve">
<style type="text/css">
	.st0{fill:#E1EFFF;}
	.st1{fill:#A2BCCC;}
	.st2{fill:#67B2E6;}
	.st3{fill:#FF725C;}
	.st4{fill:#EBF4FF;}
</style>
<g>
	<rect x="370.14" y="256" class="st0" width="1004.85" height="1346.39"/>
	<g>
		<g>
			<path class="st1" d="M1217.41,465.18H946.56c-9.12,0-16.52-7.39-16.52-16.52c0-9.12,7.39-16.52,16.52-16.52h270.85
				c9.12,0,16.52,7.39,16.52,16.52C1233.92,457.79,1226.53,465.18,1217.41,465.18z"/>
		</g>
		<g>
			<path class="st1" d="M1217.41,620.9H946.56c-9.12,0-16.52-7.39-16.52-16.52s7.39-16.52,16.52-16.52h270.85
				c9.12,0,16.52,7.39,16.52,16.52S1226.53,620.9,1217.41,620.9z"/>
		</g>
		<g>
			<path class="st1" d="M1217.41,781.97H946.56c-9.12,0-16.52-7.39-16.52-16.52s7.39-16.52,16.52-16.52h270.85
				c9.12,0,16.52,7.39,16.52,16.52S1226.53,781.97,1217.41,781.97z"/>
		</g>
	</g>
	<g>
		<path class="st1" d="M863.92,943.04H527.73c-9.12,0-16.52-7.39-16.52-16.52c0-9.12,7.39-16.52,16.52-16.52h336.19
			c9.12,0,16.52,7.39,16.52,16.52C880.44,935.65,873.04,943.04,863.92,943.04z"/>
	</g>
	<g>
		<path class="st1" d="M746.65,1104.11H527.73c-9.12,0-16.52-7.39-16.52-16.52s7.39-16.52,16.52-16.52h218.92
			c9.12,0,16.52,7.39,16.52,16.52S755.77,1104.11,746.65,1104.11z"/>
	</g>
	<g>
		<path class="st1" d="M700.5,1265.18H527.73c-9.12,0-16.52-7.39-16.52-16.52s7.39-16.52,16.52-16.52H700.5
			c9.12,0,16.52,7.39,16.52,16.52S709.62,1265.18,700.5,1265.18z"/>
	</g>
	<g>
		<path class="st1" d="M695.82,1426.25h-168.1c-9.12,0-16.52-7.39-16.52-16.52c0-9.12,7.39-16.52,16.52-16.52h168.1
			c9.12,0,16.52,7.39,16.52,16.52C712.34,1418.86,704.94,1426.25,695.82,1426.25z"/>
	</g>
	<g>
		<g>
			<g>
				<path class="st1" d="M771.08,725.57c9.63-14.89,14.52-30.96,14.52-47.77c0-16.92-4.43-32.09-13.16-45.07l-0.13-0.2
					c-8.8-12.93-22.63-23.81-41.08-32.33c-12.75-5.78-36.79-12.7-71.41-20.53c-34.99-7.92-57.14-15.89-65.81-23.68
					c-8.79-7.89-13.25-18.07-13.25-30.28c0-14.23,6.08-26.03,18.6-36.05c12.22-9.79,31.78-14.75,58.14-14.75
					c25.34,0,44.83,5.45,57.92,16.2c9.41,7.73,16.13,18.22,19.97,31.18c2.41,8.14,9.6,13.61,17.88,13.61c0.46,0,0.98-0.02,1.57-0.07
					l0.25-0.02c5.85-0.44,11.06-3.38,14.32-8.06c3.24-4.63,4.22-10.38,2.69-15.76c-2.6-9.2-6.59-17.93-11.87-25.96
					c-9.64-14.67-23.62-25.94-41.56-33.51c-18.06-7.62-39.24-11.48-62.95-11.48c-21.5,0-41.31,3.68-58.87,10.93
					c-17.41,7.19-30.82,17.86-39.87,31.71c-9.05,13.86-13.64,28.97-13.64,44.89c0,14.47,3.73,27.71,11.1,39.35
					c7.35,11.65,18.73,21.57,33.8,29.51l0.36,0.18c11.96,6.26,32.82,12.98,62.05,19.99c29.73,7.15,49.33,12.52,58.27,15.99
					c13.8,5.27,23.91,11.92,30,19.77c6.17,7.95,9.31,17.35,9.31,27.96c0,10.44-3.22,20.2-9.58,29.01
					c-6.33,8.78-16.07,15.76-28.95,20.76c-12.77,4.95-27.64,7.46-44.2,7.46c-18.68,0-35.74-3.31-50.71-9.82
					c-15.07-6.55-26.36-15.3-33.57-26.01c-4.47-6.63-7.97-14.5-10.4-23.39c-2.28-8.33-9.85-14.15-18.39-14.15
					c-0.57,0-1.11,0.02-1.47,0.06c-5.63,0.49-10.68,3.33-13.9,7.79c-3.27,4.52-4.4,10.22-3.12,15.65
					c2.83,12.04,7.72,23.39,14.52,33.75c11.04,16.81,26.48,29.57,45.88,37.93c19.54,8.42,44.15,12.7,73.14,12.7
					c22.79,0,43.57-4.22,61.76-12.55C747.32,752.27,761.4,740.51,771.08,725.57z"/>
			</g>
			<g>
				<polygon class="st1" points="583.88,606.46 583.88,606.46 583.88,606.46 				"/>
			</g>
		</g>
		<g>
			<g>
				<g>
					<path class="st1" d="M659.5,810.52c-9.12,0-16.52-7.39-16.52-16.52v-26.38c0-9.12,7.39-16.52,16.52-16.52
						c9.12,0,16.52,7.39,16.52,16.52V794C676.02,803.12,668.62,810.52,659.5,810.52z"/>
				</g>
				<g>
					<path class="st1" d="M659.5,462.95c-9.12,0-16.52-7.39-16.52-16.52v-26.32c0-9.12,7.39-16.52,16.52-16.52
						c9.12,0,16.52,7.39,16.52,16.52v26.32C676.02,455.56,668.62,462.95,659.5,462.95z"/>
				</g>
			</g>
		</g>
	</g>
	<g>
		<circle class="st2" cx="1246.46" cy="1360.6" r="431.4"/>
		<g>
			<rect x="1151.14" y="1347.01" class="st3" width="190.64" height="227.25"/>
			<polygon class="st4" points="1055.22,1286.64 1055.22,1574.26 1185.03,1574.26 1185.03,1394.55 1307.88,1394.55 1307.88,1574.26 
				1437.69,1574.26 1437.69,1286.64 1246.45,1125.82 			"/>
			<g>
				<path class="st3" d="M1498.23,1358.61c-4.84,0-9.72-1.63-13.73-4.98l-60.55-50.52l-177.5-148.09l-189.7,158.27l-48.35,40.34
					c-9.09,7.59-22.61,6.37-30.2-2.73c-7.59-9.09-6.37-22.61,2.73-30.2l60.55-50.53l191.24-159.55c7.95-6.64,19.52-6.64,27.47,0
					l203.44,169.73l48.35,40.34c9.09,7.59,10.31,21.11,2.73,30.2C1510.47,1355.99,1504.37,1358.61,1498.23,1358.61z"/>
			</g>
		</g>
	</g>
</g>
</svg>
