<?xml version="1.0" encoding="utf-8"?>
<!-- Generator: Adobe Illustrator 23.0.2, SVG Export Plug-In . SVG Version: 6.00 Build 0)  -->
<svg version="1.1" id="Layer_1" xmlns="http://www.w3.org/2000/svg" xmlns:xlink="http://www.w3.org/1999/xlink" x="0px" y="0px"
	 viewBox="0 0 2048 2048" style="enable-background:new 0 0 2048 2048;" xml:space="preserve">
<style type="text/css">
	.st0{fill:#FFC4B0;}
	.st1{fill:#FF725C;}
	.st2{fill:#E6B09E;}
	.st3{fill:#F7E07F;}
	.st4{fill:#CCB969;}
</style>
<g>
	<g>
		<g>
			<g>
				<g>
					<path class="st0" d="M1792,428.47l-2.78,573.41c-0.47,90.39-26.2,178.84-74.29,255.37l-192.03,305.54l-79.97,127.3
						l-207.9-130.6l64.27-102.31c-4.42-11.07-7.79-21.87-10.31-32.3c-26.93-111.27,38.08-217.75,67.36-263.43l153.14-243.78
						c24.99-39.78,78.31-51.47,116.89-24.65c1.8,1.25,3.54,2.57,5.2,3.94c1.38,1.13,2.72,2.3,4.01,3.51l0-0.01c0-1.79,0-3.58,0-5.36
						c-0.07-206.25-0.43-365.51-0.04-467.38c0.12-30.96,18.49-58.92,46.85-71.34C1734.26,333.68,1792.31,371.87,1792,428.47z"/>
				</g>
				<path class="st1" d="M1547.31,1661.23l-57.29,91.2c-12,19.11-37.23,24.87-56.33,12.86l-292.89-183.99
					c-19.11-12-24.87-37.23-12.86-56.33l57.29-91.2c12-19.11,37.23-24.87,56.33-12.86l292.89,183.99
					C1553.55,1616.9,1559.31,1642.12,1547.31,1661.23z"/>
				<g>
					<path class="st2" d="M1518.23,906.11c10.79-11.53,25.16-19.53,40.79-22.72c20.21-4.11,47.44,4.94,64.2,16.6
						c1.61,1.12,3.21,2.33,4.75,3.59c1.24,1.01,2.46,2.08,3.66,3.21c10.89,10.56,18.3,24.23,21.24,39.43
						c3.63,18.85-0.41,38.38-10.62,54.63l-121.39,193.23c-1.07,1.71-0.56,3.97,1.15,5.04l0,0c1.71,1.07,3.97,0.56,5.04-1.15
						l121.91-194.06c21.24-33.81,14.76-77.14-13.36-103.43c-1.29-1.21-2.62-2.38-4-3.51c-1.67-1.37-3.41-2.68-5.2-3.94
						C1591.84,869.02,1545.49,875.87,1518.23,906.11z"/>
					<path class="st2" d="M1510.54,916.04c-0.36,0.54-0.71,1.09-1.06,1.64C1509.83,917.13,1510.19,916.59,1510.54,916.04z"/>
				</g>
			</g>
		</g>
		<g>
			<g>
				<g>
					<path class="st0" d="M256,428.47l2.78,573.41c0.47,90.39,26.2,178.84,74.29,255.37l192.03,305.54l79.97,127.3l207.9-130.6
						l-64.27-102.31c4.42-11.07,7.79-21.87,10.31-32.3c26.93-111.27-38.08-217.75-67.36-263.43L538.51,917.68
						c-24.99-39.78-78.31-51.47-116.89-24.65c-1.8,1.25-3.53,2.57-5.2,3.94c-1.38,1.13-2.72,2.3-4.01,3.51l0-0.01
						c0-1.79,0-3.58,0-5.36c0.07-206.25,0.43-365.51,0.04-467.38c-0.12-30.96-18.49-58.92-46.85-71.34
						C313.74,333.68,255.69,371.87,256,428.47z"/>
				</g>
				<path class="st1" d="M500.69,1661.23l57.29,91.2c12,19.11,37.23,24.87,56.33,12.86l292.89-183.99
					c19.11-12,24.87-37.23,12.86-56.33l-57.29-91.2c-12-19.11-37.23-24.87-56.33-12.86L513.55,1604.9
					C494.45,1616.9,488.69,1642.12,500.69,1661.23z"/>
				<g>
					<path class="st2" d="M529.77,906.11c-10.79-11.53-25.16-19.53-40.79-22.72c-20.21-4.11-47.44,4.94-64.2,16.6
						c-1.61,1.12-3.21,2.33-4.75,3.59c-1.24,1.01-2.46,2.08-3.66,3.21c-10.89,10.56-18.31,24.23-21.24,39.43
						c-3.63,18.85,0.41,38.38,10.62,54.63l121.39,193.23c1.07,1.71,0.56,3.97-1.15,5.04l0,0c-1.71,1.07-3.97,0.56-5.04-1.15
						l-121.91-194.06c-21.24-33.81-14.76-77.14,13.36-103.43c1.29-1.21,2.62-2.38,4-3.51c1.67-1.37,3.41-2.68,5.2-3.94
						C456.16,869.02,502.51,875.87,529.77,906.11z"/>
					<path class="st2" d="M537.46,916.04c0.36,0.54,0.71,1.09,1.06,1.64C538.17,917.13,537.81,916.59,537.46,916.04z"/>
				</g>
			</g>
		</g>
	</g>
	<g>
		<g>
			<circle class="st3" cx="1024" cy="606.02" r="329.58"/>
		</g>
		<g>
			<g>
				<g>
					<path class="st4" d="M1142.11,628.61l-0.14-0.2c-9.44-13.86-24.1-25.44-43.58-34.43c-13.18-5.98-37.68-13.05-72.83-21
						c-42.57-9.63-58.04-17.53-63.52-22.46c-7.68-6.89-11.41-15.45-11.41-26.16c0-12.45,5.41-22.83,16.54-31.75
						c11.23-9,29.67-13.56,54.81-13.56c24.09,0,42.44,5.04,54.54,14.97c8.55,7.02,14.67,16.62,18.2,28.52
						c3.15,10.62,12.56,17.75,23.42,17.75c0.6,0,1.26-0.03,2.01-0.08l0.29-0.02c7.55-0.57,14.32-4.4,18.58-10.51
						c4.24-6.06,5.52-13.58,3.51-20.64c-2.77-9.8-7.02-19.09-12.64-27.63c-10.31-15.69-25.2-27.72-44.28-35.76
						c-18.84-7.95-40.85-11.98-65.42-11.98c-22.34,0-42.96,3.84-61.28,11.41c-18.56,7.67-32.91,19.1-42.63,33.99
						c-9.7,14.86-14.62,31.08-14.62,48.19c0,15.63,4.05,29.94,12.02,42.56c7.92,12.55,20.07,23.18,36.1,31.62l0.43,0.22
						c12.36,6.47,33.75,13.38,63.55,20.53c29.6,7.11,49.03,12.44,57.77,15.82c12.9,4.92,22.21,10.99,27.68,18.03
						c5.4,6.96,8.14,15.23,8.14,24.58c0,9.26-2.87,17.94-8.54,25.79c-5.7,7.91-14.62,14.25-26.51,18.87
						c-12.16,4.71-26.39,7.1-42.31,7.1c-17.96,0-34.33-3.16-48.64-9.39c-14.12-6.14-24.63-14.24-31.25-24.07
						c-4.14-6.14-7.4-13.48-9.68-21.8c-2.97-10.83-12.82-18.4-23.96-18.4c-0.77,0-1.47,0.03-2.02,0.08
						c-7.25,0.64-13.82,4.34-18.03,10.16c-4.25,5.88-5.73,13.3-4.06,20.37c3,12.73,8.17,24.74,15.37,35.71
						c11.71,17.83,28.05,31.35,48.57,40.19c20.34,8.77,45.8,13.21,75.69,13.21c23.71,0,45.37-4.41,64.39-13.12
						c19.17-8.75,34.12-21.25,44.43-37.17c10.28-15.89,15.49-33.07,15.49-51.06C1156.3,658.9,1151.53,642.6,1142.11,628.61z"/>
				</g>
				<g>
					<polygon class="st4" points="948.08,605.42 948.08,605.42 948.08,605.42 					"/>
				</g>
			</g>
			<g>
				<g>
					<g>
						<path class="st4" d="M1024,821.6c-13.74,0-24.87-11.14-24.87-24.87v-26.92c0-13.74,11.14-24.87,24.87-24.87
							c13.74,0,24.87,11.14,24.87,24.87v26.92C1048.88,810.47,1037.74,821.6,1024,821.6z"/>
					</g>
					<g>
						<path class="st4" d="M1024,467.03c-13.74,0-24.87-11.14-24.87-24.87v-26.85c0-13.74,11.14-24.87,24.87-24.87
							c13.74,0,24.87,11.14,24.87,24.87v26.85C1048.88,455.89,1037.74,467.03,1024,467.03z"/>
					</g>
				</g>
			</g>
		</g>
	</g>
</g>
</svg>
