<?xml version="1.0" encoding="utf-8"?>
<!-- Generator: Adobe Illustrator 23.0.2, SVG Export Plug-In . SVG Version: 6.00 Build 0)  -->
<svg version="1.1" id="Layer_1" xmlns="http://www.w3.org/2000/svg" xmlns:xlink="http://www.w3.org/1999/xlink" x="0px" y="0px"
	 viewBox="0 0 2048 2048" style="enable-background:new 0 0 2048 2048;" xml:space="preserve">
<style type="text/css">
	.st0{fill:#DEEAFF;}
	.st1{fill:#FF725C;}
	.st2{fill:#CC5B4A;}
	.st3{fill:#A2BCCC;}
	.st4{fill:#69B6EB;}
	.st5{fill:#5593BF;}
</style>
<g>
	<g>
		<path class="st0" d="M1730.06,1682.18H317.94c-34.21,0-61.94-27.73-61.94-61.94V427.76c0-34.21,27.73-61.94,61.94-61.94h1412.13
			c34.21,0,61.94,27.73,61.94,61.94v1192.48C1792,1654.45,1764.27,1682.18,1730.06,1682.18z"/>
		<path class="st1" d="M1792,427.76v156.41H256V427.76c0-34.21,27.73-61.94,61.94-61.94h1412.13
			C1764.27,365.82,1792,393.55,1792,427.76z"/>
		<g>
			<path class="st2" d="M1652.52,495.64h-616.26c-11.4,0-20.65-9.24-20.65-20.65c0-11.4,9.24-20.65,20.65-20.65h616.26
				c11.4,0,20.65,9.24,20.65,20.65C1673.17,486.4,1663.93,495.64,1652.52,495.64z"/>
		</g>
		<g>
			<circle class="st2" cx="416.37" cy="475" r="32.64"/>
			<circle class="st2" cx="552.96" cy="475" r="32.64"/>
			<circle class="st2" cx="689.56" cy="475" r="32.64"/>
		</g>
	</g>
	<g>
		<rect x="1214.15" y="878.04" class="st3" width="427.69" height="139.32"/>
		<g>
			<path class="st3" d="M1625.32,1162.81h-394.65c-9.12,0-16.52-7.39-16.52-16.52s7.39-16.52,16.52-16.52h394.65
				c9.12,0,16.52,7.39,16.52,16.52S1634.45,1162.81,1625.32,1162.81z"/>
		</g>
		<g>
			<path class="st3" d="M1625.32,1283.82h-394.65c-9.12,0-16.52-7.39-16.52-16.52c0-9.12,7.39-16.52,16.52-16.52h394.65
				c9.12,0,16.52,7.39,16.52,16.52C1641.84,1276.42,1634.45,1283.82,1625.32,1283.82z"/>
		</g>
		<g>
			<path class="st3" d="M1625.32,1404.82h-394.65c-9.12,0-16.52-7.39-16.52-16.52c0-9.12,7.39-16.52,16.52-16.52h394.65
				c9.12,0,16.52,7.39,16.52,16.52C1641.84,1397.43,1634.45,1404.82,1625.32,1404.82z"/>
		</g>
		<g>
			<polygon class="st4" points="512.29,1068.19 512.29,1418.78 670.53,1418.78 670.53,1199.72 820.28,1199.72 820.28,1418.78 
				978.51,1418.78 978.51,1068.19 745.4,872.16 			"/>
			<g>
				<path class="st5" d="M1052.3,1155.91c-5.91,0-11.84-1.99-16.73-6.07l-73.81-61.58L745.4,907.74l-231.24,192.92l-58.93,49.17
					c-11.08,9.25-27.56,7.76-36.81-3.32c-9.25-11.08-7.76-27.57,3.32-36.81l73.81-61.59l233.1-194.48c9.7-8.09,23.79-8.09,33.49,0
					l247.98,206.89l58.93,49.18c11.08,9.25,12.57,25.73,3.32,36.81C1067.22,1152.71,1059.78,1155.91,1052.3,1155.91z"/>
			</g>
		</g>
	</g>
</g>
</svg>
