<?xml version="1.0" encoding="iso-8859-1"?>
<!-- Generator: Adobe Illustrator 25.2.0, SVG Export Plug-In . SVG Version: 6.00 Build 0)  -->
<svg version="1.1" xmlns="http://www.w3.org/2000/svg" xmlns:xlink="http://www.w3.org/1999/xlink" x="0px" y="0px"
	 viewBox="0 0 492 492" style="enable-background:new 0 0 492 492;" xml:space="preserve">
<g id="Master_Layer_2">
</g>
<g id="Layer_1">
	<g>
		<g>
			<path style="fill-rule:evenodd;clip-rule:evenodd;fill:#415A6B;" d="M131.463,431.059c-8.427,0-15.258-6.831-15.258-15.257
				l0-338.125c0-8.427,6.831-15.258,15.258-15.258h229.596c8.427,0,15.258,6.831,15.258,15.258v338.124
				c0,8.426-6.831,15.258-15.258,15.258L131.463,431.059z"/>
			<rect x="140.94" y="189.381" style="fill-rule:evenodd;clip-rule:evenodd;fill:#FAFAFA;" width="33.974" height="33.974"/>
			<rect x="199.829" y="189.381" style="fill-rule:evenodd;clip-rule:evenodd;fill:#FAFAFA;" width="33.974" height="33.974"/>
			<rect x="258.718" y="189.381" style="fill-rule:evenodd;clip-rule:evenodd;fill:#FAFAFA;" width="33.974" height="33.974"/>
			<rect x="317.607" y="189.381" style="fill-rule:evenodd;clip-rule:evenodd;fill:#FAFAFA;" width="33.974" height="33.974"/>
			<rect x="140.94" y="250.157" style="fill-rule:evenodd;clip-rule:evenodd;fill:#FAFAFA;" width="33.974" height="33.974"/>
			<rect x="199.829" y="250.157" style="fill-rule:evenodd;clip-rule:evenodd;fill:#FAFAFA;" width="33.974" height="33.974"/>
			<rect x="258.718" y="250.157" style="fill-rule:evenodd;clip-rule:evenodd;fill:#FAFAFA;" width="33.974" height="33.974"/>
			<rect x="317.607" y="250.157" style="fill-rule:evenodd;clip-rule:evenodd;fill:#FAFAFA;" width="33.974" height="33.974"/>
			<rect x="140.94" y="310.934" style="fill-rule:evenodd;clip-rule:evenodd;fill:#FAFAFA;" width="33.974" height="33.974"/>
			<rect x="199.829" y="310.934" style="fill-rule:evenodd;clip-rule:evenodd;fill:#FAFAFA;" width="33.974" height="33.974"/>
			<rect x="258.718" y="310.934" style="fill-rule:evenodd;clip-rule:evenodd;fill:#FAFAFA;" width="33.974" height="33.974"/>
			<rect x="140.94" y="370.389" style="fill-rule:evenodd;clip-rule:evenodd;fill:#FAFAFA;" width="33.974" height="33.974"/>
			<rect x="199.829" y="370.389" style="fill-rule:evenodd;clip-rule:evenodd;fill:#FAFAFA;" width="33.974" height="33.974"/>
			<rect x="258.718" y="370.389" style="fill-rule:evenodd;clip-rule:evenodd;fill:#FAFAFA;" width="33.974" height="33.974"/>
			<rect x="317.607" y="310.934" style="fill-rule:evenodd;clip-rule:evenodd;fill:#F3705A;" width="33.974" height="93.43"/>
			<rect x="140.94" y="87.154" style="fill-rule:evenodd;clip-rule:evenodd;fill:#81D4FA;" width="210.642" height="75.424"/>
		</g>
	</g>
</g>
</svg>
