<?xml version="1.0" encoding="iso-8859-1"?>
<!-- Generator: Adobe Illustrator 25.2.0, SVG Export Plug-In . SVG Version: 6.00 Build 0)  -->
<svg version="1.1" xmlns="http://www.w3.org/2000/svg" xmlns:xlink="http://www.w3.org/1999/xlink" x="0px" y="0px"
	 viewBox="0 0 492 492" style="enable-background:new 0 0 492 492;" xml:space="preserve">
<g id="Master_Layer_2">
</g>
<g id="Layer_1">
	<g>
		<g>
			<path style="fill-rule:evenodd;clip-rule:evenodd;fill:#61A2F9;" d="M430.58,156.91v179.66c0,8.209-6.655,14.865-14.864,14.865
				l-338.911,0c-8.209,0-14.864-6.655-14.864-14.865l0-179.66c0-8.209,6.655-14.864,14.864-14.864l338.911,0
				C423.925,142.045,430.58,148.7,430.58,156.91z"/>
			<rect x="61.941" y="174.796" style="fill-rule:evenodd;clip-rule:evenodd;fill:#415A6B;" width="368.64" height="25.807"/>
			<g>
				<path style="fill-rule:evenodd;clip-rule:evenodd;fill:#ECF4FF;" d="M387.523,324.184c-3.284,0-5.946-2.662-5.946-5.946V297.3
					c0-3.284,2.662-5.946,5.946-5.946c3.284,0,5.946,2.662,5.946,5.946v20.939C393.469,321.522,390.807,324.184,387.523,324.184z"/>
			</g>
			<g>
				<path style="fill-rule:evenodd;clip-rule:evenodd;fill:#ECF4FF;" d="M347.141,324.184c-3.284,0-5.946-2.662-5.946-5.946V297.3
					c0-3.284,2.662-5.946,5.946-5.946s5.946,2.662,5.946,5.946v20.939C353.086,321.522,350.424,324.184,347.141,324.184z"/>
			</g>
			<g>
				<path style="fill-rule:evenodd;clip-rule:evenodd;fill:#ECF4FF;" d="M306.757,324.184c-3.284,0-5.946-2.662-5.946-5.946V297.3
					c0-3.284,2.662-5.946,5.946-5.946c3.284,0,5.946,2.662,5.946,5.946v20.939C312.703,321.522,310.041,324.184,306.757,324.184z"/>
			</g>
			<g>
				<path style="fill-rule:evenodd;clip-rule:evenodd;fill:#ECF4FF;" d="M266.374,324.184c-3.284,0-5.946-2.662-5.946-5.946V297.3
					c0-3.284,2.662-5.946,5.946-5.946c3.284,0,5.946,2.662,5.946,5.946v20.939C272.32,321.522,269.658,324.184,266.374,324.184z"/>
			</g>
			<g>
				<path style="fill-rule:evenodd;clip-rule:evenodd;fill:#ECF4FF;" d="M225.992,324.184c-3.284,0-5.946-2.662-5.946-5.946V297.3
					c0-3.284,2.662-5.946,5.946-5.946c3.284,0,5.946,2.662,5.946,5.946v20.939C231.938,321.522,229.275,324.184,225.992,324.184z"/>
			</g>
			<g>
				<path style="fill-rule:evenodd;clip-rule:evenodd;fill:#ECF4FF;" d="M185.609,324.184c-3.284,0-5.946-2.662-5.946-5.946V297.3
					c0-3.284,2.662-5.946,5.946-5.946c3.284,0,5.946,2.662,5.946,5.946v20.939C191.554,321.522,188.893,324.184,185.609,324.184z"/>
			</g>
			<g>
				<path style="fill-rule:evenodd;clip-rule:evenodd;fill:#ECF4FF;" d="M145.226,324.184c-3.284,0-5.946-2.662-5.946-5.946V297.3
					c0-3.284,2.662-5.946,5.946-5.946c3.284,0,5.946,2.662,5.946,5.946v20.939C151.172,321.522,148.509,324.184,145.226,324.184z"/>
			</g>
			<g>
				<path style="fill-rule:evenodd;clip-rule:evenodd;fill:#ECF4FF;" d="M104.843,324.184c-3.284,0-5.946-2.662-5.946-5.946V297.3
					c0-3.284,2.662-5.946,5.946-5.946c3.284,0,5.946,2.662,5.946,5.946v20.939C110.789,321.522,108.127,324.184,104.843,324.184z"/>
			</g>
			<path style="fill-rule:evenodd;clip-rule:evenodd;fill:#F7B64C;" d="M112.275,262.603h31.87c4.105,0,7.432-3.328,7.432-7.432
				v-15.983c0-4.105-3.328-7.432-7.432-7.432l-31.87,0c-4.105,0-7.432,3.328-7.432,7.432v15.983
				C104.843,259.276,108.17,262.603,112.275,262.603z"/>
			<g>
				<path style="fill-rule:evenodd;clip-rule:evenodd;fill:#ECF4FF;" d="M387.523,252.978H185.609c-3.284,0-5.946-2.662-5.946-5.946
					c0-3.284,2.662-5.946,5.946-5.946h201.915c3.284,0,5.946,2.662,5.946,5.946C393.469,250.316,390.807,252.978,387.523,252.978z"
					/>
			</g>
		</g>
	</g>
</g>
</svg>
