<?xml version="1.0" encoding="utf-8"?>
<!-- Generator: Adobe Illustrator 23.0.2, SVG Export Plug-In . SVG Version: 6.00 Build 0)  -->
<svg version="1.1" id="Layer_1" xmlns="http://www.w3.org/2000/svg" xmlns:xlink="http://www.w3.org/1999/xlink" x="0px" y="0px"
	 viewBox="0 0 2048 2048" style="enable-background:new 0 0 2048 2048;" xml:space="preserve">
<style type="text/css">
	.st0{fill:#587180;}
	.st1{fill:#E1EAF0;}
</style>
<g>
	<rect x="430.93" y="665.13" class="st0" width="940.34" height="637.55"/>
	<path class="st1" d="M1480.22,776.87H321.98c-36.44,0-65.98-29.54-65.98-65.98V494.74c0-36.44,29.54-65.98,65.98-65.98h1158.24
		c36.44,0,65.98,29.54,65.98,65.98v216.15C1546.2,747.33,1516.66,776.87,1480.22,776.87z"/>
	<path class="st1" d="M1480.22,1157.97H321.98c-36.44,0-65.98-29.54-65.98-65.98V875.83c0-36.44,29.54-65.98,65.98-65.98h1158.24
		c36.44,0,65.98,29.54,65.98,65.98v216.15C1546.2,1128.43,1516.66,1157.97,1480.22,1157.97z"/>
	<path class="st1" d="M1480.22,1539.07H321.98c-36.44,0-65.98-29.54-65.98-65.98v-216.15c0-36.44,29.54-65.98,65.98-65.98h1158.24
		c36.44,0,65.98,29.54,65.98,65.98v216.15C1546.2,1509.53,1516.66,1539.07,1480.22,1539.07z"/>
	<g>
		<g>
			<circle class="st0" cx="1348.32" cy="602.81" r="57.77"/>
			<circle class="st0" cx="1147.89" cy="602.81" r="57.77"/>
			<circle class="st0" cx="947.46" cy="602.81" r="57.77"/>
		</g>
		<g>
			<g>
				<path class="st0" d="M768.69,575.68H396.1c-9.72,0-17.59-7.88-17.59-17.59s7.88-17.59,17.59-17.59h372.59
					c9.72,0,17.59,7.88,17.59,17.59S778.41,575.68,768.69,575.68z"/>
			</g>
			<g>
				<path class="st0" d="M768.69,665.13H396.1c-9.72,0-17.59-7.88-17.59-17.59s7.88-17.59,17.59-17.59h372.59
					c9.72,0,17.59,7.88,17.59,17.59S778.41,665.13,768.69,665.13z"/>
			</g>
		</g>
	</g>
	<g>
		<g>
			<circle class="st0" cx="1147.89" cy="983.91" r="57.77"/>
			<circle class="st0" cx="947.46" cy="983.91" r="57.77"/>
		</g>
		<g>
			<g>
				<path class="st0" d="M768.69,956.78H396.1c-9.72,0-17.59-7.88-17.59-17.59c0-9.72,7.88-17.59,17.59-17.59h372.59
					c9.72,0,17.59,7.88,17.59,17.59C786.29,948.9,778.41,956.78,768.69,956.78z"/>
			</g>
			<g>
				<path class="st0" d="M768.69,1046.23H396.1c-9.72,0-17.59-7.88-17.59-17.59c0-9.72,7.88-17.59,17.59-17.59h372.59
					c9.72,0,17.59,7.88,17.59,17.59C786.29,1038.36,778.41,1046.23,768.69,1046.23z"/>
			</g>
		</g>
	</g>
	<g>
		<g>
			<g>
				<path class="st0" d="M768.69,1337.88H396.1c-9.72,0-17.59-7.88-17.59-17.59c0-9.72,7.88-17.59,17.59-17.59h372.59
					c9.72,0,17.59,7.88,17.59,17.59C786.29,1330,778.41,1337.88,768.69,1337.88z"/>
			</g>
			<g>
				<path class="st0" d="M768.69,1427.33H396.1c-9.72,0-17.59-7.88-17.59-17.59c0-9.72,7.88-17.59,17.59-17.59h372.59
					c9.72,0,17.59,7.88,17.59,17.59C786.29,1419.45,778.41,1427.33,768.69,1427.33z"/>
			</g>
		</g>
		<g>
			<circle class="st0" cx="947.46" cy="1365.01" r="57.77"/>
		</g>
	</g>
	<circle class="st0" cx="1474.33" cy="1301.58" r="317.67"/>
	<g>
		<g>
			<g>
				<path class="st1" d="M1643.07,1287.7c-7.43,0-14-5.35-15.3-12.92c-12.98-75.91-78.39-131-155.54-131
					c-63.61,0-120.71,37.87-145.45,96.48c-3.34,7.91-12.46,11.61-20.36,8.27c-7.91-3.34-11.61-12.45-8.27-20.36
					c29.61-70.15,97.94-115.47,174.08-115.47c44.84,0,88.31,15.99,122.4,45.02c33.7,28.7,56.35,68.41,63.77,111.82
					c1.45,8.46-4.24,16.49-12.7,17.94C1644.83,1287.62,1643.94,1287.7,1643.07,1287.7z"/>
			</g>
			<g>
				<g>
					<path class="st1" d="M1472.24,1490.46c-43.51,0-85.98-15.15-119.58-42.67c-33.13-27.13-56.27-65.01-65.15-106.66
						c-1.79-8.39,3.57-16.65,11.96-18.44c8.4-1.78,16.65,3.57,18.44,11.96c15.4,72.27,80.31,124.73,154.34,124.73
						c65.12,0,122.72-39.1,146.74-99.62c3.16-7.98,12.19-11.88,20.17-8.71c7.98,3.17,11.88,12.2,8.71,20.17
						c-13.8,34.77-37.42,64.44-68.3,85.8C1547.93,1478.9,1510.82,1490.46,1472.24,1490.46z"/>
				</g>
				<g>
					<g>
						<path class="st1" d="M1649.02,1460.74c-7.57,0-14.2-5.53-15.35-13.24l-12.73-85.09c-1.27-8.49,4.58-16.4,13.07-17.67
							c8.5-1.27,16.4,4.58,17.67,13.07l12.73,85.09c1.27,8.49-4.58,16.4-13.07,17.67
							C1650.56,1460.68,1649.79,1460.74,1649.02,1460.74z"/>
					</g>
					<g>
						<path class="st1" d="M1553.89,1400.34c-6.69,0-12.86-4.35-14.88-11.08c-2.46-8.22,2.2-16.88,10.42-19.35l82.42-24.7
							c8.22-2.46,16.88,2.2,19.35,10.42c2.46,8.22-2.2,16.88-10.42,19.35l-82.42,24.7
							C1556.86,1400.13,1555.36,1400.34,1553.89,1400.34z"/>
					</g>
				</g>
			</g>
			<g>
				<g>
					<path class="st1" d="M1308.08,1256.55c-7.89,0-14.65-5.99-15.44-14.01l-8.48-85.62c-0.85-8.54,5.39-16.15,13.93-16.99
						c8.54-0.86,16.15,5.39,16.99,13.93l8.48,85.62c0.85,8.54-5.39,16.15-13.93,16.99
						C1309.11,1256.53,1308.6,1256.55,1308.08,1256.55z"/>
				</g>
				<g>
					<path class="st1" d="M1308.09,1256.55c-6.98,0-13.33-4.74-15.08-11.83c-2.05-8.33,3.04-16.75,11.37-18.8l83.55-20.56
						c8.34-2.05,16.75,3.04,18.8,11.37c2.05,8.33-3.04,16.75-11.37,18.8l-83.55,20.56
						C1310.57,1256.41,1309.32,1256.55,1308.09,1256.55z"/>
				</g>
			</g>
		</g>
	</g>
</g>
</svg>
