<?xml version="1.0" encoding="utf-8"?>
<!-- Generator: Adobe Illustrator 23.0.2, SVG Export Plug-In . SVG Version: 6.00 Build 0)  -->
<svg version="1.1" id="Layer_1" xmlns="http://www.w3.org/2000/svg" xmlns:xlink="http://www.w3.org/1999/xlink" x="0px" y="0px"
	 viewBox="0 0 2048 2048" style="enable-background:new 0 0 2048 2048;" xml:space="preserve">
<style type="text/css">
	.st0{fill:#497FA3;}
	.st1{fill:#3B6785;}
	.st2{fill:#2D4F66;}
	.st3{fill:#A3BCCC;}
	.st4{fill:#B6DB98;}
	.st5{fill:#7CBDE8;}
	.st6{fill:#94DEB0;}
	.st7{fill:#FF8C96;}
</style>
<g>
	<g>
		<path class="st0" d="M1730.06,1682.18H317.94c-34.21,0-61.94-27.73-61.94-61.94V427.76c0-34.21,27.73-61.94,61.94-61.94h1412.13
			c34.21,0,61.94,27.73,61.94,61.94v1192.48C1792,1654.45,1764.27,1682.18,1730.06,1682.18z"/>
		<path class="st1" d="M1792,584.17H256V427.76c0-34.21,27.73-61.94,61.94-61.94h1412.13c34.21,0,61.94,27.73,61.94,61.94V584.17z"
			/>
		<g>
			<path class="st2" d="M1652.52,491.51h-616.26c-9.12,0-16.52-7.39-16.52-16.52c0-9.12,7.39-16.52,16.52-16.52h616.26
				c9.12,0,16.52,7.39,16.52,16.52C1669.04,484.12,1661.65,491.51,1652.52,491.51z"/>
		</g>
		<g>
			<circle class="st2" cx="416.37" cy="475" r="32.64"/>
			<circle class="st2" cx="552.96" cy="475" r="32.64"/>
			<circle class="st2" cx="689.56" cy="475" r="32.64"/>
		</g>
	</g>
	<g>
		<g>
			<path class="st3" d="M500.27,800.37h-71.32c-9.12,0-16.52-7.39-16.52-16.52s7.39-16.52,16.52-16.52h71.32
				c9.12,0,16.52,7.39,16.52,16.52S509.39,800.37,500.27,800.37z"/>
		</g>
		<g>
			<path class="st3" d="M500.27,940.1h-71.32c-9.12,0-16.52-7.39-16.52-16.52s7.39-16.52,16.52-16.52h71.32
				c9.12,0,16.52,7.39,16.52,16.52S509.39,940.1,500.27,940.1z"/>
		</g>
		<g>
			<path class="st3" d="M500.27,1079.82h-71.32c-9.12,0-16.52-7.39-16.52-16.52c0-9.12,7.39-16.52,16.52-16.52h71.32
				c9.12,0,16.52,7.39,16.52,16.52C516.78,1072.43,509.39,1079.82,500.27,1079.82z"/>
		</g>
		<g>
			<path class="st3" d="M500.27,1219.55h-71.32c-9.12,0-16.52-7.39-16.52-16.52c0-9.12,7.39-16.52,16.52-16.52h71.32
				c9.12,0,16.52,7.39,16.52,16.52C516.78,1212.16,509.39,1219.55,500.27,1219.55z"/>
		</g>
		<g>
			<path class="st3" d="M500.27,1359.28h-71.32c-9.12,0-16.52-7.39-16.52-16.52c0-9.12,7.39-16.52,16.52-16.52h71.32
				c9.12,0,16.52,7.39,16.52,16.52C516.78,1351.88,509.39,1359.28,500.27,1359.28z"/>
		</g>
		<g>
			<path class="st3" d="M500.27,1499h-71.32c-9.12,0-16.52-7.39-16.52-16.52c0-9.12,7.39-16.52,16.52-16.52h71.32
				c9.12,0,16.52,7.39,16.52,16.52C516.78,1491.61,509.39,1499,500.27,1499z"/>
		</g>
		<g>
			<path class="st4" d="M762.85,800.37H643.93c-9.12,0-16.52-7.39-16.52-16.52s7.39-16.52,16.52-16.52h118.91
				c9.12,0,16.52,7.39,16.52,16.52S771.97,800.37,762.85,800.37z"/>
		</g>
		<g>
			<path class="st4" d="M988.79,800.37H860.96c-9.12,0-16.52-7.39-16.52-16.52s7.39-16.52,16.52-16.52h127.83
				c9.12,0,16.52,7.39,16.52,16.52S997.91,800.37,988.79,800.37z"/>
		</g>
		<g>
			<path class="st4" d="M1220.68,800.37h-130.81c-9.12,0-16.52-7.39-16.52-16.52s7.39-16.52,16.52-16.52h130.81
				c9.12,0,16.52,7.39,16.52,16.52S1229.8,800.37,1220.68,800.37z"/>
		</g>
		<g>
			<path class="st4" d="M1449.59,800.37h-141.21c-9.12,0-16.52-7.39-16.52-16.52s7.39-16.52,16.52-16.52h141.21
				c9.12,0,16.52,7.39,16.52,16.52S1458.72,800.37,1449.59,800.37z"/>
		</g>
		<g>
			<path class="st4" d="M1619.05,800.37h-71.34c-9.12,0-16.52-7.39-16.52-16.52s7.39-16.52,16.52-16.52h71.34
				c9.12,0,16.52,7.39,16.52,16.52S1628.17,800.37,1619.05,800.37z"/>
		</g>
		<g>
			<path class="st5" d="M715.28,940.1h-71.35c-9.12,0-16.52-7.39-16.52-16.52s7.39-16.52,16.52-16.52h71.35
				c9.12,0,16.52,7.39,16.52,16.52S724.41,940.1,715.28,940.1z"/>
		</g>
		<g>
			<path class="st5" d="M933.79,940.1H803.71c-9.12,0-16.52-7.39-16.52-16.52s7.39-16.52,16.52-16.52h130.08
				c9.12,0,16.52,7.39,16.52,16.52S942.91,940.1,933.79,940.1z"/>
		</g>
		<g>
			<path class="st5" d="M1097.3,940.1h-72.84c-9.12,0-16.52-7.39-16.52-16.52s7.39-16.52,16.52-16.52h72.84
				c9.12,0,16.52,7.39,16.52,16.52S1106.42,940.1,1097.3,940.1z"/>
		</g>
		<g>
			<path class="st5" d="M1373.78,940.1h-182.83c-9.12,0-16.52-7.39-16.52-16.52s7.39-16.52,16.52-16.52h182.83
				c9.12,0,16.52,7.39,16.52,16.52S1382.91,940.1,1373.78,940.1z"/>
		</g>
		<g>
			<path class="st5" d="M1619.05,940.1h-153.1c-9.12,0-16.52-7.39-16.52-16.52s7.39-16.52,16.52-16.52h153.1
				c9.12,0,16.52,7.39,16.52,16.52S1628.17,940.1,1619.05,940.1z"/>
		</g>
		<g>
			<path class="st6" d="M840.89,1079.82H643.93c-9.12,0-16.52-7.39-16.52-16.52c0-9.12,7.39-16.52,16.52-16.52h196.95
				c9.12,0,16.52,7.39,16.52,16.52C857.4,1072.43,850.01,1079.82,840.89,1079.82z"/>
		</g>
		<g>
			<path class="st6" d="M1091.73,1079.82H930.08c-9.12,0-16.52-7.39-16.52-16.52c0-9.12,7.39-16.52,16.52-16.52h161.65
				c9.12,0,16.52,7.39,16.52,16.52C1108.24,1072.43,1100.85,1079.82,1091.73,1079.82z"/>
		</g>
		<g>
			<path class="st6" d="M1325.84,1079.82h-151.62c-9.12,0-16.52-7.39-16.52-16.52c0-9.12,7.39-16.52,16.52-16.52h151.62
				c9.12,0,16.52,7.39,16.52,16.52C1342.36,1072.43,1334.97,1079.82,1325.84,1079.82z"/>
		</g>
		<g>
			<path class="st6" d="M1619.05,1079.82h-209.59c-9.12,0-16.52-7.39-16.52-16.52c0-9.12,7.39-16.52,16.52-16.52h209.59
				c9.12,0,16.52,7.39,16.52,16.52C1635.56,1072.43,1628.17,1079.82,1619.05,1079.82z"/>
		</g>
		<g>
			<g>
				<path class="st7" d="M712.31,1219.55h-68.38c-9.12,0-16.52-7.39-16.52-16.52c0-9.12,7.39-16.52,16.52-16.52h68.38
					c9.12,0,16.52,7.39,16.52,16.52C728.83,1212.16,721.43,1219.55,712.31,1219.55z"/>
			</g>
		</g>
		<g>
			<g>
				<path class="st7" d="M953.12,1219.55H799.27c-9.12,0-16.52-7.39-16.52-16.52c0-9.12,7.39-16.52,16.52-16.52h153.85
					c9.12,0,16.52,7.39,16.52,16.52C969.63,1212.16,962.24,1219.55,953.12,1219.55z"/>
			</g>
		</g>
		<g>
			<g>
				<path class="st7" d="M1235.54,1219.55h-178.38c-9.12,0-16.52-7.39-16.52-16.52c0-9.12,7.39-16.52,16.52-16.52h178.38
					c9.12,0,16.52,7.39,16.52,16.52C1252.06,1212.16,1244.67,1219.55,1235.54,1219.55z"/>
			</g>
		</g>
		<g>
			<g>
				<path class="st7" d="M1428.78,1219.55h-110.01c-9.12,0-16.52-7.39-16.52-16.52c0-9.12,7.39-16.52,16.52-16.52h110.01
					c9.12,0,16.52,7.39,16.52,16.52C1445.3,1212.16,1437.91,1219.55,1428.78,1219.55z"/>
			</g>
		</g>
		<g>
			<g>
				<path class="st7" d="M1619.05,1219.55h-107.02c-9.12,0-16.52-7.39-16.52-16.52c0-9.12,7.39-16.52,16.52-16.52h107.02
					c9.12,0,16.52,7.39,16.52,16.52C1635.56,1212.16,1628.17,1219.55,1619.05,1219.55z"/>
			</g>
		</g>
		<g>
			<path class="st4" d="M758.39,1359.28H643.93c-9.12,0-16.52-7.39-16.52-16.52c0-9.12,7.39-16.52,16.52-16.52h114.45
				c9.12,0,16.52,7.39,16.52,16.52C774.9,1351.88,767.51,1359.28,758.39,1359.28z"/>
		</g>
		<g>
			<path class="st4" d="M1003.66,1359.28H847.58c-9.12,0-16.52-7.39-16.52-16.52c0-9.12,7.39-16.52,16.52-16.52h156.08
				c9.12,0,16.52,7.39,16.52,16.52C1020.17,1351.88,1012.78,1359.28,1003.66,1359.28z"/>
		</g>
		<g>
			<path class="st4" d="M1308.38,1359.28h-203.64c-9.12,0-16.52-7.39-16.52-16.52c0-9.12,7.39-16.52,16.52-16.52h203.64
				c9.12,0,16.52,7.39,16.52,16.52C1324.9,1351.88,1317.5,1359.28,1308.38,1359.28z"/>
		</g>
		<g>
			<path class="st4" d="M1619.05,1359.28H1405c-9.12,0-16.52-7.39-16.52-16.52c0-9.12,7.39-16.52,16.52-16.52h214.05
				c9.12,0,16.52,7.39,16.52,16.52C1635.56,1351.88,1628.17,1359.28,1619.05,1359.28z"/>
		</g>
		<g>
			<path class="st5" d="M780.69,1499H643.93c-9.12,0-16.52-7.39-16.52-16.52c0-9.12,7.39-16.52,16.52-16.52h136.75
				c9.12,0,16.52,7.39,16.52,16.52C797.2,1491.61,789.81,1499,780.69,1499z"/>
		</g>
		<g>
			<path class="st5" d="M1017.03,1499H856.5c-9.12,0-16.52-7.39-16.52-16.52c0-9.12,7.39-16.52,16.52-16.52h160.54
				c9.12,0,16.52,7.39,16.52,16.52C1033.55,1491.61,1026.16,1499,1017.03,1499z"/>
		</g>
		<g>
			<path class="st5" d="M1189.46,1499h-72.84c-9.12,0-16.52-7.39-16.52-16.52c0-9.12,7.39-16.52,16.52-16.52h72.84
				c9.12,0,16.52,7.39,16.52,16.52C1205.98,1491.61,1198.58,1499,1189.46,1499z"/>
		</g>
		<g>
			<path class="st5" d="M1406.49,1499h-123.38c-9.12,0-16.52-7.39-16.52-16.52c0-9.12,7.39-16.52,16.52-16.52h123.38
				c9.12,0,16.52,7.39,16.52,16.52C1423,1491.61,1415.61,1499,1406.49,1499z"/>
		</g>
		<g>
			<path class="st5" d="M1619.05,1499h-123.37c-9.12,0-16.52-7.39-16.52-16.52c0-9.12,7.39-16.52,16.52-16.52h123.37
				c9.12,0,16.52,7.39,16.52,16.52C1635.56,1491.61,1628.17,1499,1619.05,1499z"/>
		</g>
	</g>
</g>
</svg>
