<?xml version="1.0" encoding="utf-8"?>
<!-- Generator: Adobe Illustrator 23.0.2, SVG Export Plug-In . SVG Version: 6.00 Build 0)  -->
<svg version="1.1" id="Layer_1" xmlns="http://www.w3.org/2000/svg" xmlns:xlink="http://www.w3.org/1999/xlink" x="0px" y="0px"
	 viewBox="0 0 2048 2048" style="enable-background:new 0 0 2048 2048;" xml:space="preserve">
<style type="text/css">
	.st0{fill:#508BB3;}
	.st1{fill:#427394;}
	.st2{fill:#E1EFFF;}
	.st3{fill:#76C9EB;}
</style>
<g>
	<g>
		<g>
			<path class="st0" d="M1238.98,1075.98l465.64,465.64l52.79,52.79c46.28,46.28,46.06,121.8-1.7,166.53
				c-22.11,20.72-50.38,31.06-78.67,31.06c-29.46,0-58.92-11.23-81.41-33.71l-53.83-53.84l-465.64-465.64L1238.98,1075.98z"/>
			<path class="st1" d="M1541.79,1704.44l53.83,53.84c22.49,22.48,51.95,33.71,81.41,33.71c28.28,0,56.56-10.34,78.67-31.06
				c47.76-44.74,47.98-120.26,1.7-166.53l-52.79-52.79L1541.79,1704.44z"/>
		</g>
		<g>
			<circle class="st1" cx="855.37" cy="855.2" r="599.2"/>
			<circle class="st2" cx="855.37" cy="855.2" r="480.04"/>
		</g>
	</g>
	<g>
		<g>
			<path class="st3" d="M697.73,722.03c-32.46,0-58.87-26.41-58.87-58.87V617.9c0-32.46,26.41-58.87,58.87-58.87
				s58.87,26.41,58.87,58.87v45.27C756.59,695.62,730.19,722.03,697.73,722.03z M697.73,592.06c-14.24,0-25.83,11.59-25.83,25.83
				v45.27c0,14.24,11.59,25.83,25.83,25.83c14.24,0,25.83-11.59,25.83-25.83V617.9C723.56,603.65,711.97,592.06,697.73,592.06z"/>
		</g>
		<g>
			<g>
				<path class="st3" d="M857.17,722.03c-9.12,0-16.52-7.39-16.52-16.52v-90.1l-1.62,1.62c-6.45,6.45-16.91,6.45-23.36,0
					c-6.45-6.45-6.45-16.91,0-23.36l29.82-29.82c4.72-4.72,11.83-6.14,18-3.58c6.17,2.56,10.2,8.58,10.2,15.26v129.97
					C873.69,714.64,866.29,722.03,857.17,722.03z"/>
			</g>
			<g>
				<path class="st3" d="M883.39,722.03h-52.44c-9.12,0-16.52-7.39-16.52-16.52S821.83,689,830.95,689h52.44
					c9.12,0,16.52,7.39,16.52,16.52S892.51,722.03,883.39,722.03z"/>
			</g>
		</g>
		<g>
			<g>
				<path class="st3" d="M1000.48,722.03c-9.12,0-16.52-7.39-16.52-16.52v-90.1l-1.62,1.62c-6.45,6.45-16.91,6.45-23.36,0
					c-6.45-6.45-6.45-16.91,0-23.36l29.81-29.82c4.72-4.72,11.83-6.14,18-3.58c6.17,2.56,10.2,8.58,10.2,15.26v129.97
					C1017,714.64,1009.61,722.03,1000.48,722.03z"/>
			</g>
			<g>
				<path class="st3" d="M1026.7,722.03h-52.44c-9.12,0-16.52-7.39-16.52-16.52S965.14,689,974.27,689h52.44
					c9.12,0,16.52,7.39,16.52,16.52S1035.82,722.03,1026.7,722.03z"/>
			</g>
		</g>
		<g>
			<g>
				<path class="st3" d="M541.88,936.7c-9.12,0-16.52-7.39-16.52-16.52v-90.1l-1.62,1.62c-6.45,6.45-16.91,6.45-23.36,0
					c-6.45-6.45-6.45-16.91,0-23.36l29.82-29.82c4.72-4.72,11.83-6.14,18-3.58c6.17,2.56,10.2,8.58,10.2,15.26v129.97
					C558.4,929.31,551,936.7,541.88,936.7z"/>
			</g>
			<g>
				<path class="st3" d="M568.1,936.7h-52.44c-9.12,0-16.52-7.39-16.52-16.52c0-9.12,7.39-16.52,16.52-16.52h52.44
					c9.12,0,16.52,7.39,16.52,16.52C584.62,929.31,577.22,936.7,568.1,936.7z"/>
			</g>
		</g>
		<g>
			<path class="st3" d="M697.73,936.7c-32.46,0-58.87-26.41-58.87-58.87v-45.27c0-32.46,26.41-58.87,58.87-58.87
				s58.87,26.41,58.87,58.87v45.27C756.59,910.29,730.19,936.7,697.73,936.7z M697.73,806.73c-14.24,0-25.83,11.59-25.83,25.83
				v45.27c0,14.24,11.59,25.83,25.83,25.83c14.24,0,25.83-11.59,25.83-25.83v-45.27C723.56,818.32,711.97,806.73,697.73,806.73z"/>
		</g>
		<g>
			<g>
				<path class="st3" d="M1029.15,936.7c-9.12,0-16.52-7.39-16.52-16.52v-90.1l-1.62,1.62c-6.45,6.45-16.91,6.45-23.36,0
					c-6.45-6.45-6.45-16.91,0-23.36l29.82-29.82c4.72-4.72,11.83-6.14,18-3.58c6.17,2.56,10.2,8.58,10.2,15.26v129.97
					C1045.67,929.31,1038.27,936.7,1029.15,936.7z"/>
			</g>
			<g>
				<path class="st3" d="M1055.37,936.7h-52.44c-9.12,0-16.52-7.39-16.52-16.52c0-9.12,7.39-16.52,16.52-16.52h52.44
					c9.12,0,16.52,7.39,16.52,16.52C1071.89,929.31,1064.49,936.7,1055.37,936.7z"/>
			</g>
		</g>
		<g>
			<path class="st3" d="M869.71,936.7c-32.46,0-58.87-26.41-58.87-58.87v-45.27c0-32.46,26.41-58.87,58.87-58.87
				s58.87,26.41,58.87,58.87v45.27C928.57,910.29,902.17,936.7,869.71,936.7z M869.71,806.73c-14.24,0-25.83,11.59-25.83,25.83
				v45.27c0,14.24,11.59,25.83,25.83,25.83c14.24,0,25.83-11.59,25.83-25.83v-45.27C895.54,818.32,883.95,806.73,869.71,806.73z"/>
		</g>
		<g>
			<g>
				<path class="st3" d="M1172.46,936.7c-9.12,0-16.52-7.39-16.52-16.52v-90.1l-1.62,1.62c-6.45,6.45-16.91,6.45-23.36,0
					c-6.45-6.45-6.45-16.91,0-23.36l29.82-29.82c4.72-4.72,11.83-6.14,18-3.58c6.17,2.56,10.2,8.58,10.2,15.26v129.97
					C1188.98,929.31,1181.58,936.7,1172.46,936.7z"/>
			</g>
			<g>
				<path class="st3" d="M1198.68,936.7h-52.44c-9.12,0-16.52-7.39-16.52-16.52c0-9.12,7.39-16.52,16.52-16.52h52.44
					c9.12,0,16.52,7.39,16.52,16.52C1215.2,929.31,1207.8,936.7,1198.68,936.7z"/>
			</g>
		</g>
		<g>
			<path class="st3" d="M841.04,1151.37c-32.46,0-58.87-26.41-58.87-58.87v-45.27c0-32.46,26.41-58.87,58.87-58.87
				s58.87,26.41,58.87,58.87v45.27C899.91,1124.96,873.5,1151.37,841.04,1151.37z M841.04,1021.4c-14.24,0-25.83,11.59-25.83,25.83
				v45.27c0,14.24,11.59,25.83,25.83,25.83c14.24,0,25.83-11.59,25.83-25.83v-45.27C866.87,1032.99,855.29,1021.4,841.04,1021.4z"/>
		</g>
		<g>
			<g>
				<path class="st3" d="M685.19,1151.37c-9.12,0-16.52-7.39-16.52-16.52v-90.1l-1.62,1.62c-6.45,6.45-16.91,6.45-23.36,0
					c-6.45-6.45-6.45-16.91,0-23.36l29.82-29.82c4.72-4.72,11.83-6.14,18-3.58c6.17,2.56,10.2,8.58,10.2,15.26v129.97
					C701.71,1143.98,694.32,1151.37,685.19,1151.37z"/>
			</g>
			<g>
				<path class="st3" d="M711.41,1151.37h-52.44c-9.12,0-16.52-7.39-16.52-16.52c0-9.12,7.39-16.52,16.52-16.52h52.44
					c9.12,0,16.52,7.39,16.52,16.52C727.93,1143.98,720.53,1151.37,711.41,1151.37z"/>
			</g>
		</g>
		<g>
			<path class="st3" d="M1013.02,1151.37c-32.46,0-58.87-26.41-58.87-58.87v-45.27c0-32.46,26.41-58.87,58.87-58.87
				c32.46,0,58.87,26.41,58.87,58.87v45.27C1071.89,1124.96,1045.48,1151.37,1013.02,1151.37z M1013.02,1021.4
				c-14.24,0-25.83,11.59-25.83,25.83v45.27c0,14.24,11.59,25.83,25.83,25.83h0c14.24,0,25.83-11.59,25.83-25.83v-45.27
				C1038.85,1032.99,1027.26,1021.4,1013.02,1021.4z"/>
		</g>
	</g>
</g>
</svg>
