<?xml version="1.0" encoding="utf-8"?>
<!-- Generator: Adobe Illustrator 23.0.2, SVG Export Plug-In . SVG Version: 6.00 Build 0)  -->
<svg version="1.1" id="Layer_1" xmlns="http://www.w3.org/2000/svg" xmlns:xlink="http://www.w3.org/1999/xlink" x="0px" y="0px"
	 viewBox="0 0 2048 2048" style="enable-background:new 0 0 2048 2048;" xml:space="preserve">
<style type="text/css">
	.st0{fill:#427394;}
	.st1{fill:#E1EFFF;}
	.st2{fill:#508BB3;}
	.st3{fill:#76C9EB;}
</style>
<g>
	<g>
		<g>
			<g>
				<g>
					<polygon class="st0" points="1141.14,1580.95 1099.85,1401.64 948.15,1401.64 906.86,1580.95 					"/>
				</g>
			</g>
			<path class="st1" d="M256,395.08v975.66c0,22.8,18.49,41.29,41.29,41.29h1453.42c22.8,0,41.29-18.49,41.29-41.29V395.08
				c0-22.8-18.49-41.29-41.29-41.29H297.29C274.49,353.79,256,372.28,256,395.08z"/>
			<path class="st2" d="M1792,1244.99v125.75c0,22.81-18.49,41.29-41.29,41.29H297.29c-22.8,0-41.29-18.48-41.29-41.29v-125.75H1792
				z"/>
			<path class="st2" d="M1348.34,1694.21H699.66v0c0-68.29,55.36-123.65,123.65-123.65h401.37
				C1292.98,1570.56,1348.34,1625.92,1348.34,1694.21L1348.34,1694.21z"/>
		</g>
	</g>
	<g>
		<g>
			<path class="st3" d="M483.31,644.78c-35.8,0-64.93-29.13-64.93-64.93v-51.76c0-35.8,29.13-64.93,64.93-64.93
				s64.93,29.13,64.93,64.93v51.76C548.24,615.65,519.11,644.78,483.31,644.78z M483.31,496.19c-17.59,0-31.9,14.31-31.9,31.9v51.76
				c0,17.59,14.31,31.9,31.9,31.9s31.9-14.31,31.9-31.9v-51.76C515.21,510.5,500.9,496.19,483.31,496.19z"/>
		</g>
		<g>
			<g>
				<path class="st3" d="M665.6,644.78c-9.12,0-16.52-7.39-16.52-16.52V519.54l-5.89,5.89c-6.45,6.45-16.91,6.45-23.36,0
					c-6.45-6.45-6.45-16.91,0-23.36l34.09-34.09c4.72-4.72,11.83-6.14,18-3.58c6.17,2.56,10.2,8.58,10.2,15.26v148.59
					C682.11,637.38,674.72,644.78,665.6,644.78z"/>
			</g>
			<g>
				<path class="st3" d="M695.57,644.78h-59.95c-9.12,0-16.52-7.39-16.52-16.52s7.39-16.52,16.52-16.52h59.95
					c9.12,0,16.52,7.39,16.52,16.52S704.69,644.78,695.57,644.78z"/>
			</g>
		</g>
		<g>
			<path class="st3" d="M843.77,644.78c-35.8,0-64.93-29.13-64.93-64.93v-51.76c0-35.8,29.13-64.93,64.93-64.93
				c35.8,0,64.93,29.13,64.93,64.93v51.76C908.7,615.65,879.57,644.78,843.77,644.78z M843.77,496.19c-17.59,0-31.9,14.31-31.9,31.9
				v51.76c0,17.59,14.31,31.9,31.9,31.9c17.59,0,31.9-14.31,31.9-31.9v-51.76C875.67,510.5,861.36,496.19,843.77,496.19z"/>
		</g>
		<g>
			<g>
				<path class="st3" d="M1026.06,644.78c-9.12,0-16.52-7.39-16.52-16.52V519.54l-5.89,5.89c-6.45,6.45-16.91,6.45-23.36,0
					c-6.45-6.45-6.45-16.91,0-23.36l34.09-34.09c4.72-4.72,11.83-6.14,18-3.58c6.17,2.56,10.2,8.58,10.2,15.26v148.59
					C1042.57,637.38,1035.18,644.78,1026.06,644.78z"/>
			</g>
			<g>
				<path class="st3" d="M1056.03,644.78h-59.95c-9.12,0-16.52-7.39-16.52-16.52s7.39-16.52,16.52-16.52h59.95
					c9.12,0,16.52,7.39,16.52,16.52S1065.15,644.78,1056.03,644.78z"/>
			</g>
		</g>
		<g>
			<path class="st3" d="M1368.07,644.78c-35.8,0-64.93-29.13-64.93-64.93v-51.76c0-35.8,29.13-64.93,64.93-64.93
				c35.8,0,64.93,29.13,64.93,64.93v51.76C1433.01,615.65,1403.88,644.78,1368.07,644.78z M1368.07,496.19
				c-17.59,0-31.9,14.31-31.9,31.9v51.76c0,17.59,14.31,31.9,31.9,31.9c17.59,0,31.9-14.31,31.9-31.9v-51.76
				C1399.97,510.5,1385.66,496.19,1368.07,496.19z"/>
		</g>
		<g>
			<g>
				<path class="st3" d="M1189.9,644.78c-9.12,0-16.52-7.39-16.52-16.52V519.54l-5.89,5.89c-6.45,6.45-16.91,6.45-23.36,0
					c-6.45-6.45-6.45-16.91,0-23.36l34.09-34.09c4.72-4.72,11.83-6.14,18-3.58c6.17,2.56,10.2,8.58,10.2,15.26v148.59
					C1206.42,637.38,1199.02,644.78,1189.9,644.78z"/>
			</g>
			<g>
				<path class="st3" d="M1219.87,644.78h-59.95c-9.12,0-16.52-7.39-16.52-16.52s7.39-16.52,16.52-16.52h59.95
					c9.12,0,16.52,7.39,16.52,16.52S1229,644.78,1219.87,644.78z"/>
			</g>
		</g>
		<g>
			<path class="st3" d="M1564.69,644.78c-35.8,0-64.93-29.13-64.93-64.93v-51.76c0-35.8,29.13-64.93,64.93-64.93
				c35.8,0,64.93,29.13,64.93,64.93v51.76C1629.62,615.65,1600.49,644.78,1564.69,644.78z M1564.69,496.19
				c-17.59,0-31.9,14.31-31.9,31.9v51.76c0,17.59,14.31,31.9,31.9,31.9c17.59,0,31.9-14.31,31.9-31.9v-51.76
				C1596.59,510.5,1582.28,496.19,1564.69,496.19z"/>
		</g>
		<g>
			<path class="st3" d="M483.31,890.2c-35.8,0-64.93-29.13-64.93-64.93v-51.76c0-35.8,29.13-64.93,64.93-64.93
				s64.93,29.13,64.93,64.93v51.76C548.24,861.07,519.11,890.2,483.31,890.2z M483.31,741.61c-17.59,0-31.9,14.31-31.9,31.9v51.76
				c0,17.59,14.31,31.9,31.9,31.9s31.9-14.31,31.9-31.9v-51.76C515.21,755.92,500.9,741.61,483.31,741.61z"/>
		</g>
		<g>
			<g>
				<path class="st3" d="M665.6,890.2c-9.12,0-16.52-7.39-16.52-16.52V764.97l-5.89,5.89c-6.45,6.45-16.91,6.45-23.36,0
					c-6.45-6.45-6.45-16.91,0-23.36l34.09-34.09c4.72-4.72,11.83-6.14,18-3.58c6.17,2.56,10.2,8.58,10.2,15.26v148.59
					C682.11,882.8,674.72,890.2,665.6,890.2z"/>
			</g>
			<g>
				<path class="st3" d="M695.57,890.2h-59.95c-9.12,0-16.52-7.39-16.52-16.52c0-9.12,7.39-16.52,16.52-16.52h59.95
					c9.12,0,16.52,7.39,16.52,16.52C712.09,882.8,704.69,890.2,695.57,890.2z"/>
			</g>
		</g>
		<g>
			<path class="st3" d="M843.77,890.2c-35.8,0-64.93-29.13-64.93-64.93v-51.76c0-35.8,29.13-64.93,64.93-64.93
				c35.8,0,64.93,29.13,64.93,64.93v51.76C908.7,861.07,879.57,890.2,843.77,890.2z M843.77,741.61c-17.59,0-31.9,14.31-31.9,31.9
				v51.76c0,17.59,14.31,31.9,31.9,31.9c17.59,0,31.9-14.31,31.9-31.9v-51.76C875.67,755.92,861.36,741.61,843.77,741.61z"/>
		</g>
		<g>
			<g>
				<path class="st3" d="M1222.67,890.2c-9.12,0-16.52-7.39-16.52-16.52V764.97l-5.89,5.89c-6.45,6.45-16.91,6.45-23.36,0
					c-6.45-6.45-6.45-16.91,0-23.36l34.09-34.09c4.72-4.72,11.83-6.14,18-3.58c6.17,2.56,10.2,8.58,10.2,15.26v148.59
					C1239.19,882.8,1231.79,890.2,1222.67,890.2z"/>
			</g>
			<g>
				<path class="st3" d="M1252.65,890.2h-59.95c-9.12,0-16.52-7.39-16.52-16.52c0-9.12,7.39-16.52,16.52-16.52h59.95
					c9.12,0,16.52,7.39,16.52,16.52C1269.16,882.8,1261.77,890.2,1252.65,890.2z"/>
			</g>
		</g>
		<g>
			<path class="st3" d="M1040.39,890.2c-35.8,0-64.93-29.13-64.93-64.93v-51.76c0-35.8,29.13-64.93,64.93-64.93
				c35.8,0,64.93,29.13,64.93,64.93v51.76C1105.32,861.07,1076.19,890.2,1040.39,890.2z M1040.39,741.61
				c-17.59,0-31.9,14.31-31.9,31.9v51.76c0,17.59,14.31,31.9,31.9,31.9c17.59,0,31.9-14.31,31.9-31.9v-51.76
				C1072.29,755.92,1057.98,741.61,1040.39,741.61z"/>
		</g>
		<g>
			<g>
				<path class="st3" d="M1386.52,890.2c-9.12,0-16.52-7.39-16.52-16.52V764.97l-5.89,5.89c-6.45,6.45-16.91,6.45-23.36,0
					c-6.45-6.45-6.45-16.91,0-23.36l34.09-34.09c4.72-4.72,11.83-6.14,18-3.58c6.17,2.56,10.2,8.58,10.2,15.26v148.59
					C1403.03,882.8,1395.64,890.2,1386.52,890.2z"/>
			</g>
			<g>
				<path class="st3" d="M1416.49,890.2h-59.95c-9.12,0-16.52-7.39-16.52-16.52c0-9.12,7.39-16.52,16.52-16.52h59.95
					c9.12,0,16.52,7.39,16.52,16.52C1433.01,882.8,1425.61,890.2,1416.49,890.2z"/>
			</g>
		</g>
		<g>
			<path class="st3" d="M1564.69,890.2c-35.8,0-64.93-29.13-64.93-64.93v-51.76c0-35.8,29.13-64.93,64.93-64.93
				c35.8,0,64.93,29.13,64.93,64.93v51.76C1629.62,861.07,1600.49,890.2,1564.69,890.2z M1564.69,741.61
				c-17.59,0-31.9,14.31-31.9,31.9v51.76c0,17.59,14.31,31.9,31.9,31.9c17.59,0,31.9-14.31,31.9-31.9v-51.76
				C1596.59,755.92,1582.28,741.61,1564.69,741.61z"/>
		</g>
		<g>
			<path class="st3" d="M483.31,1135.62c-35.8,0-64.93-29.13-64.93-64.93v-51.76c0-35.8,29.13-64.93,64.93-64.93
				s64.93,29.13,64.93,64.93v51.76C548.24,1106.49,519.11,1135.62,483.31,1135.62z M483.31,987.03c-17.59,0-31.9,14.31-31.9,31.9
				v51.76c0,17.59,14.31,31.9,31.9,31.9s31.9-14.31,31.9-31.9v-51.76C515.21,1001.34,500.9,987.03,483.31,987.03z"/>
		</g>
		<g>
			<g>
				<path class="st3" d="M665.6,1135.62c-9.12,0-16.52-7.39-16.52-16.52v-108.72l-5.89,5.89c-6.45,6.45-16.91,6.45-23.36,0
					c-6.45-6.45-6.45-16.91,0-23.36l34.09-34.09c4.72-4.72,11.83-6.14,18-3.58c6.17,2.56,10.2,8.58,10.2,15.26v148.59
					C682.11,1128.23,674.72,1135.62,665.6,1135.62z"/>
			</g>
			<g>
				<path class="st3" d="M695.57,1135.62h-59.95c-9.12,0-16.52-7.39-16.52-16.52s7.39-16.52,16.52-16.52h59.95
					c9.12,0,16.52,7.39,16.52,16.52S704.69,1135.62,695.57,1135.62z"/>
			</g>
		</g>
		<g>
			<path class="st3" d="M1007.61,1135.62L1007.61,1135.62c-35.8,0-64.93-29.13-64.93-64.93v-51.76c0-35.8,29.13-64.93,64.93-64.93
				s64.93,29.13,64.93,64.93v51.76C1072.55,1106.49,1043.42,1135.62,1007.61,1135.62z M1007.61,987.03
				c-17.59,0-31.9,14.31-31.9,31.9v51.76c0,17.59,14.31,31.9,31.9,31.9c17.59,0,31.9-14.31,31.9-31.9v-51.76
				C1039.51,1001.34,1025.2,987.03,1007.61,987.03z"/>
		</g>
		<g>
			<g>
				<path class="st3" d="M829.44,1135.62c-9.12,0-16.52-7.39-16.52-16.52v-108.72l-5.89,5.89c-6.45,6.45-16.91,6.45-23.36,0
					c-6.45-6.45-6.45-16.91,0-23.36l34.09-34.09c4.72-4.72,11.83-6.14,18-3.58c6.17,2.56,10.2,8.58,10.2,15.26v148.59
					C845.96,1128.23,838.56,1135.62,829.44,1135.62z"/>
			</g>
			<g>
				<path class="st3" d="M859.41,1135.62h-59.95c-9.12,0-16.52-7.39-16.52-16.52s7.39-16.52,16.52-16.52h59.95
					c9.12,0,16.52,7.39,16.52,16.52S868.54,1135.62,859.41,1135.62z"/>
			</g>
		</g>
		<g>
			<path class="st3" d="M1204.23,1135.62c-35.8,0-64.93-29.13-64.93-64.93v-51.76c0-35.8,29.13-64.93,64.93-64.93
				c35.8,0,64.93,29.13,64.93,64.93v51.76C1269.16,1106.49,1240.03,1135.62,1204.23,1135.62z M1204.23,987.03
				c-17.59,0-31.9,14.31-31.9,31.9v51.76c0,17.59,14.31,31.9,31.9,31.9c17.59,0,31.9-14.31,31.9-31.9v-51.76
				C1236.13,1001.34,1221.82,987.03,1204.23,987.03z"/>
		</g>
		<g>
			<g>
				<path class="st3" d="M1386.52,1135.62c-9.12,0-16.52-7.39-16.52-16.52v-108.72l-5.89,5.89c-6.45,6.45-16.91,6.45-23.36,0
					c-6.45-6.45-6.45-16.91,0-23.36l34.09-34.09c4.72-4.72,11.83-6.14,18-3.58c6.17,2.56,10.2,8.58,10.2,15.26v148.59
					C1403.03,1128.23,1395.64,1135.62,1386.52,1135.62z"/>
			</g>
			<g>
				<path class="st3" d="M1416.49,1135.62h-59.95c-9.12,0-16.52-7.39-16.52-16.52s7.39-16.52,16.52-16.52h59.95
					c9.12,0,16.52,7.39,16.52,16.52S1425.61,1135.62,1416.49,1135.62z"/>
			</g>
		</g>
		<g>
			<path class="st3" d="M1564.69,1135.62c-35.8,0-64.93-29.13-64.93-64.93v-51.76c0-35.8,29.13-64.93,64.93-64.93
				c35.8,0,64.93,29.13,64.93,64.93v51.76C1629.62,1106.49,1600.49,1135.62,1564.69,1135.62z M1564.69,987.03
				c-17.59,0-31.9,14.31-31.9,31.9v51.76c0,17.59,14.31,31.9,31.9,31.9c17.59,0,31.9-14.31,31.9-31.9v-51.76
				C1596.59,1001.34,1582.28,987.03,1564.69,987.03z"/>
		</g>
	</g>
</g>
</svg>
