<?xml version="1.0" encoding="utf-8"?>
<!-- Generator: Adobe Illustrator 23.0.2, SVG Export Plug-In . SVG Version: 6.00 Build 0)  -->
<svg version="1.1" id="Layer_1" xmlns="http://www.w3.org/2000/svg" xmlns:xlink="http://www.w3.org/1999/xlink" x="0px" y="0px"
	 viewBox="0 0 2048 2048" style="enable-background:new 0 0 2048 2048;" xml:space="preserve">
<style type="text/css">
	.st0{fill:#BBECFE;}
	.st1{fill:#B3C6FF;}
	.st2{fill:#8DD0FF;}
	.st3{fill:#85A3FA;}
	.st4{fill:#D6E0FF;}
</style>
<g>
	<g>
		<path class="st0" d="M1471.74,1356.42c88.43,0,168.51-35.85,226.46-93.8c57.95-57.97,93.8-138.03,93.8-226.47
			c0-176.88-143.39-320.26-320.26-320.26h-18.99c0-236.8-191.95-428.76-428.76-428.76S595.24,479.1,595.24,715.9h-18.99
			c-88.43,0-168.51,35.84-226.46,93.79c-57.95,57.96-93.8,138.03-93.8,226.47c0,176.88,143.39,320.27,320.26,320.27H1471.74z"/>
	</g>
	<rect x="700.99" y="1115.35" class="st1" width="646.03" height="544.08"/>
	<g>
		<g>
			<g>
				<path class="st2" d="M1024,1104.33c-9.12,0-16.52-7.39-16.52-16.52V831.42c0-9.12,7.39-16.52,16.52-16.52
					c9.12,0,16.52,7.39,16.52,16.51v256.4C1040.52,1096.93,1033.12,1104.33,1024,1104.33z"/>
			</g>
			<circle class="st3" cx="1024" cy="807.85" r="44.21"/>
		</g>
		<g>
			<g>
				<g>
					<path class="st2" d="M880.1,1104.33c-9.12,0-16.52-7.39-16.52-16.52V922.73l-72.6-44.07c-4.93-2.99-7.95-8.35-7.95-14.12
						V756.52c0-9.12,7.39-16.52,16.52-16.52c9.12,0,16.52,7.39,16.52,16.52v98.73l72.6,44.07c4.93,2.99,7.95,8.35,7.95,14.12v174.37
						C896.62,1096.93,889.22,1104.33,880.1,1104.33z"/>
				</g>
				<circle class="st3" cx="799.56" cy="732.95" r="44.21"/>
			</g>
			<g>
				<g>
					<path class="st2" d="M1167.9,1104.33c-9.12,0-16.52-7.39-16.52-16.52V913.44c0-5.77,3.01-11.12,7.95-14.12l72.6-44.07v-98.73
						c0-9.12,7.39-16.52,16.52-16.52s16.52,7.39,16.52,16.52v108.02c0,5.77-3.01,11.12-7.95,14.12l-72.6,44.07v165.08
						C1184.42,1096.93,1177.02,1104.33,1167.9,1104.33z"/>
				</g>
				<circle class="st3" cx="1248.44" cy="732.95" r="44.21"/>
			</g>
		</g>
	</g>
	<g>
		<g>
			<path class="st3" d="M1395.88,1242.4H652.12c-28.46,0-51.53-23.07-51.53-51.53v-125.42c0-28.46,23.07-51.53,51.53-51.53h743.76
				c28.46,0,51.53,23.07,51.53,51.53v125.42C1447.41,1219.33,1424.34,1242.4,1395.88,1242.4z"/>
			<g>
				<g>
					<g>
						<circle class="st4" cx="1267.4" cy="1128.16" r="40.35"/>
					</g>
					<g>
						<circle class="st4" cx="1151.16" cy="1128.16" r="40.35"/>
					</g>
				</g>
				<g>
					<g>
						<path class="st4" d="M984.81,1144.67H740.26c-9.12,0-16.52-7.39-16.52-16.52s7.39-16.52,16.52-16.52h244.55
							c9.12,0,16.52,7.39,16.52,16.52S993.93,1144.67,984.81,1144.67z"/>
					</g>
				</g>
			</g>
		</g>
		<g>
			<path class="st3" d="M1395.88,1501.63H652.12c-28.46,0-51.53-23.07-51.53-51.53v-125.42c0-28.46,23.07-51.53,51.53-51.53h743.76
				c28.46,0,51.53,23.07,51.53,51.53v125.42C1447.41,1478.56,1424.34,1501.63,1395.88,1501.63z"/>
			<g>
				<g>
					<g>
						<circle class="st4" cx="1267.4" cy="1387.39" r="40.35"/>
					</g>
					<g>
						<circle class="st4" cx="1151.16" cy="1387.39" r="40.35"/>
					</g>
				</g>
				<g>
					<g>
						<path class="st4" d="M984.81,1403.9H740.26c-9.12,0-16.52-7.39-16.52-16.52c0-9.12,7.39-16.52,16.52-16.52h244.55
							c9.12,0,16.52,7.39,16.52,16.52C1001.32,1396.51,993.93,1403.9,984.81,1403.9z"/>
					</g>
				</g>
			</g>
		</g>
		<g>
			<path class="st3" d="M1395.88,1760.86H652.12c-28.46,0-51.53-23.07-51.53-51.53v-125.42c0-28.46,23.07-51.53,51.53-51.53h743.76
				c28.46,0,51.53,23.07,51.53,51.53v125.42C1447.41,1737.79,1424.34,1760.86,1395.88,1760.86z"/>
			<g>
				<g>
					<g>
						<circle class="st4" cx="1267.4" cy="1646.62" r="40.35"/>
					</g>
					<g>
						<circle class="st4" cx="1151.16" cy="1646.62" r="40.35"/>
					</g>
				</g>
				<g>
					<g>
						<path class="st4" d="M984.81,1663.13H740.26c-9.12,0-16.52-7.39-16.52-16.52c0-9.12,7.39-16.52,16.52-16.52h244.55
							c9.12,0,16.52,7.39,16.52,16.52C1001.32,1655.74,993.93,1663.13,984.81,1663.13z"/>
					</g>
				</g>
			</g>
		</g>
	</g>
</g>
</svg>
