<?xml version="1.0" encoding="utf-8"?>
<!-- Generator: Adobe Illustrator 23.0.2, SVG Export Plug-In . SVG Version: 6.00 Build 0)  -->
<svg version="1.1" id="Layer_1" xmlns="http://www.w3.org/2000/svg" xmlns:xlink="http://www.w3.org/1999/xlink" x="0px" y="0px"
	 viewBox="0 0 2048 2048" style="enable-background:new 0 0 2048 2048;" xml:space="preserve">
<style type="text/css">
	.st0{fill:#427394;}
	.st1{fill:#E1EFFF;}
	.st2{fill:#508BB3;}
	.st3{fill:#75C9FF;}
	.st4{fill:#FF96A0;}
	.st5{fill:#A3BCCC;}
</style>
<g>
	<g>
		<g>
			<g>
				<g>
					<g>
						<g>
							<polygon class="st0" points="1141.14,1580.95 1099.85,1401.64 948.15,1401.64 906.86,1580.95 							"/>
						</g>
					</g>
					<path class="st1" d="M256,395.08v975.66c0,22.8,18.49,41.29,41.29,41.29h1453.42c22.8,0,41.29-18.49,41.29-41.29V395.08
						c0-22.8-18.49-41.29-41.29-41.29H297.29C274.49,353.79,256,372.28,256,395.08z"/>
					<path class="st2" d="M1792,1244.99v125.75c0,22.81-18.49,41.29-41.29,41.29H297.29c-22.8,0-41.29-18.48-41.29-41.29v-125.75
						H1792z"/>
					<path class="st2" d="M1348.34,1694.21H699.66v0c0-68.29,55.36-123.65,123.65-123.65h401.37
						C1292.98,1570.56,1348.34,1625.92,1348.34,1694.21L1348.34,1694.21z"/>
				</g>
			</g>
		</g>
	</g>
	<g>
		<rect x="371.13" y="491.2" class="st3" width="691.23" height="272.01"/>
		<rect x="1170.87" y="491.2" class="st4" width="506" height="272.01"/>
		<g>
			<g>
				<path class="st5" d="M691.49,896.58H387.64c-9.12,0-16.52-7.39-16.52-16.52s7.39-16.52,16.52-16.52h303.85
					c9.12,0,16.52,7.39,16.52,16.52S700.61,896.58,691.49,896.58z"/>
			</g>
			<g>
				<path class="st5" d="M1660.36,896.58H783.73c-9.12,0-16.52-7.39-16.52-16.52s7.39-16.52,16.52-16.52h876.62
					c9.12,0,16.52,7.39,16.52,16.52S1669.48,896.58,1660.36,896.58z"/>
			</g>
			<g>
				<path class="st5" d="M1063.84,1013.43h-676.2c-9.12,0-16.52-7.39-16.52-16.52s7.39-16.52,16.52-16.52h676.2
					c9.12,0,16.52,7.39,16.52,16.52S1072.97,1013.43,1063.84,1013.43z"/>
			</g>
			<g>
				<path class="st5" d="M1660.36,1013.43h-508.44c-9.12,0-16.52-7.39-16.52-16.52s7.39-16.52,16.52-16.52h508.44
					c9.12,0,16.52,7.39,16.52,16.52S1669.48,1013.43,1660.36,1013.43z"/>
			</g>
			<g>
				<path class="st5" d="M1660.36,1130.28H387.64c-9.12,0-16.52-7.39-16.52-16.52s7.39-16.52,16.52-16.52h1272.71
					c9.12,0,16.52,7.39,16.52,16.52S1669.48,1130.28,1660.36,1130.28z"/>
			</g>
		</g>
	</g>
</g>
</svg>
