<?xml version="1.0" encoding="utf-8"?>
<!-- Generator: Adobe Illustrator 23.0.2, SVG Export Plug-In . SVG Version: 6.00 Build 0)  -->
<svg version="1.1" id="Layer_1" xmlns="http://www.w3.org/2000/svg" xmlns:xlink="http://www.w3.org/1999/xlink" x="0px" y="0px"
	 viewBox="0 0 2048 2048" style="enable-background:new 0 0 2048 2048;" xml:space="preserve">
<style type="text/css">
	.st0{fill:#E1EFFF;}
	.st1{fill:#B0CCDD;}
	.st2{fill:#A2BCCC;}
	.st3{fill:#76C9EB;}
	.st4{fill:#F3F6FF;}
</style>
<g>
	<polygon class="st0" points="1613.11,1655.95 1613.11,535.77 1333.32,256 434.89,256 434.89,1655.95 	"/>
	<polygon class="st1" points="1333.32,256 1333.32,535.77 1613.11,535.77 	"/>
	<g>
		<g>
			<path class="st2" d="M953.42,942.88H591.25c-9.12,0-16.52-7.39-16.52-16.52s7.39-16.52,16.52-16.52h362.17
				c9.12,0,16.52,7.39,16.52,16.52S962.54,942.88,953.42,942.88z"/>
		</g>
		<g>
			<path class="st2" d="M1456.74,942.88h-397.22c-9.12,0-16.52-7.39-16.52-16.52s7.39-16.52,16.52-16.52h397.22
				c9.12,0,16.52,7.39,16.52,16.52S1465.86,942.88,1456.74,942.88z"/>
		</g>
		<g>
			<path class="st2" d="M1456.74,715.76H591.25c-9.12,0-16.52-7.39-16.52-16.52s7.39-16.52,16.52-16.52h865.49
				c9.12,0,16.52,7.39,16.52,16.52S1465.86,715.76,1456.74,715.76z"/>
		</g>
		<g>
			<path class="st2" d="M1118.84,488.65H591.25c-9.12,0-16.52-7.39-16.52-16.52c0-9.12,7.39-16.52,16.52-16.52h527.59
				c9.12,0,16.52,7.39,16.52,16.52C1135.35,481.25,1127.96,488.65,1118.84,488.65z"/>
		</g>
	</g>
	<circle class="st3" cx="1024" cy="1476.14" r="315.86"/>
	<g>
		<g>
			<g>
				<path class="st4" d="M1024,1653.45c-5.32,0-10.31-2.56-13.42-6.88l-80.18-111.68c-5.32-7.41-3.63-17.73,3.78-23.05
					c7.41-5.32,17.73-3.63,23.05,3.78l66.76,92.99l66.76-92.99c5.32-7.41,15.64-9.1,23.05-3.78c7.41,5.32,9.1,15.64,3.78,23.05
					l-80.18,111.68C1034.31,1650.89,1029.32,1653.45,1024,1653.45z"/>
			</g>
		</g>
		<g>
			<path class="st4" d="M1024,1653.45c-9.12,0-16.52-7.39-16.52-16.52v-321.59c0-9.12,7.39-16.52,16.52-16.52
				c9.12,0,16.52,7.39,16.52,16.52v321.59C1040.52,1646.06,1033.12,1653.45,1024,1653.45z"/>
		</g>
	</g>
</g>
</svg>
