<?xml version="1.0" encoding="utf-8"?>
<!-- Generator: Adobe Illustrator 23.0.2, SVG Export Plug-In . SVG Version: 6.00 Build 0)  -->
<svg version="1.1" id="Layer_1" xmlns="http://www.w3.org/2000/svg" xmlns:xlink="http://www.w3.org/1999/xlink" x="0px" y="0px"
	 viewBox="0 0 2048 2048" style="enable-background:new 0 0 2048 2048;" xml:space="preserve">
<style type="text/css">
	.st0{fill:#E1EFFF;}
	.st1{fill:#B0CCDD;}
	.st2{fill:#A2BCCC;}
	.st3{fill:#76C9EB;}
	.st4{fill:#F3F6FF;}
</style>
<g>
	<polygon class="st0" points="1635.61,546.46 1635.61,1792 412.39,1792 412.39,256 1345.14,256 	"/>
	<polygon class="st1" points="1345.14,256 1345.14,546.46 1635.61,546.46 	"/>
	<g>
		<path class="st2" d="M856.25,1149.24H574.72c-9.12,0-16.52-7.39-16.52-16.52c0-9.12,7.39-16.52,16.52-16.52h281.52
			c9.12,0,16.52,7.39,16.52,16.52C872.76,1141.85,865.37,1149.24,856.25,1149.24z"/>
	</g>
	<g>
		<path class="st2" d="M1351.92,1149.24H963.34c-9.12,0-16.52-7.39-16.52-16.52c0-9.12,7.39-16.52,16.52-16.52h388.58
			c9.12,0,16.52,7.39,16.52,16.52C1368.44,1141.85,1361.04,1149.24,1351.92,1149.24z"/>
	</g>
	<g>
		<path class="st2" d="M950.72,931.8h-376c-9.12,0-16.52-7.39-16.52-16.52s7.39-16.52,16.52-16.52h376
			c9.12,0,16.52,7.39,16.52,16.52S959.84,931.8,950.72,931.8z"/>
	</g>
	<g>
		<path class="st2" d="M1473.27,931.8h-412.39c-9.12,0-16.52-7.39-16.52-16.52s7.39-16.52,16.52-16.52h412.39
			c9.12,0,16.52,7.39,16.52,16.52S1482.39,931.8,1473.27,931.8z"/>
	</g>
	<g>
		<path class="st2" d="M1473.27,714.35H574.72c-9.12,0-16.52-7.39-16.52-16.52s7.39-16.52,16.52-16.52h898.55
			c9.12,0,16.52,7.39,16.52,16.52S1482.39,714.35,1473.27,714.35z"/>
	</g>
	<g>
		<path class="st2" d="M1122.46,496.9H574.72c-9.12,0-16.52-7.39-16.52-16.52c0-9.12,7.39-16.52,16.52-16.52h547.74
			c9.12,0,16.52,7.39,16.52,16.52C1138.98,489.51,1131.58,496.9,1122.46,496.9z"/>
	</g>
	<g>
		<g>
			<g>
				<path class="st3" d="M1046.87,1584.14c-5.9,0-11.77-0.38-17.59-1.14c-9.04-1.19-15.41-9.48-14.22-18.53
					c1.19-9.04,9.49-15.42,18.53-14.22c21.96,2.89,45.77-1.82,67.45-12.54c-11.81-12.27-21.76-26.67-28.87-41.99
					c-6.7-14.43-9.95-29.86-9.4-44.61c0.65-17.53,6.74-33.17,17.59-45.23c12.3-13.67,30.17-21.32,47.85-20.46
					c30.31,1.48,58.4,23.1,68.31,52.59c5.46,16.25,4.23,35.21-3.39,52c-6.08,13.39-15.22,26.76-27.16,39.73
					c-2.3,2.5-4.66,4.92-7.09,7.26c23.95,6.87,52.15,0.58,69.32-17.53c3.15-3.32,6.13-7.13,9.29-11.17
					c5.14-6.57,10.45-13.36,17.47-19.41c13.95-12.03,36.33-19.44,54.87-8.89c14.86,8.45,20.1,23.66,24.31,35.88
					c0.48,1.4,0.96,2.79,1.45,4.15c3.19,8.88,7.66,12.76,8.63,12.76c0.01,0,0.01,0,0.02,0c1.43-0.08,5.37-3.12,7.97-5.12
					c5.15-3.96,11.55-8.9,20.06-11.12c15.51-4.05,29.38,2.88,39.5,7.93c1.28,0.64,2.55,1.28,3.81,1.88
					c8.22,3.95,11.68,13.82,7.72,22.04c-3.95,8.22-13.82,11.68-22.04,7.72c-1.41-0.68-2.83-1.39-4.26-2.1
					c-6.04-3.02-12.9-6.44-16.4-5.52c-2.01,0.53-5.18,2.96-8.24,5.32c-6.16,4.75-14.61,11.26-26.21,11.93
					c-17.93,1.06-33.52-11.88-41.67-34.57c-0.54-1.49-1.06-3.02-1.59-4.55c-2.65-7.69-5.39-15.65-9.41-17.93
					c-3.63-2.07-11.24,0.26-16.97,5.2c-4.57,3.94-8.68,9.19-13.03,14.75c-3.5,4.47-7.11,9.09-11.34,13.55
					c-31.11,32.79-84.15,39.82-123.15,17.9C1103.65,1575.62,1074.98,1584.14,1046.87,1584.14z M1125.5,1418.39
					c-7.41,0-15.21,3.61-20.59,9.59c-13.53,15.04-9.96,38.4-2.79,53.85c6.47,13.94,15.93,26.91,27.16,37.39
					c4.35-3.67,8.5-7.63,12.38-11.85c9.56-10.38,16.75-20.81,21.38-31c4.2-9.26,4.99-19.4,2.16-27.82
					c-5.5-16.37-22.1-29.32-38.61-30.12C1126.23,1418.39,1125.86,1418.39,1125.5,1418.39z"/>
			</g>
		</g>
		<circle class="st3" cx="726.17" cy="1484.75" r="167.97"/>
		<g>
			<g>
				<path class="st4" d="M692.39,1556.04c-4.23,0-8.45-1.61-11.68-4.84l-39.05-39.05c-6.45-6.45-6.45-16.91,0-23.36
					c6.45-6.45,16.91-6.45,23.36,0l27.37,27.37l89.04-89.04c6.45-6.45,16.91-6.45,23.36,0c6.45,6.45,6.45,16.91,0,23.36
					l-100.71,100.71C700.84,1554.43,696.61,1556.04,692.39,1556.04z"/>
			</g>
		</g>
	</g>
</g>
</svg>
