<?xml version="1.0" encoding="utf-8"?>
<!-- Generator: Adobe Illustrator 23.0.2, SVG Export Plug-In . SVG Version: 6.00 Build 0)  -->
<svg version="1.1" id="Layer_1" xmlns="http://www.w3.org/2000/svg" xmlns:xlink="http://www.w3.org/1999/xlink" x="0px" y="0px"
	 viewBox="0 0 2048 2048" style="enable-background:new 0 0 2048 2048;" xml:space="preserve">
<style type="text/css">
	.st0{fill:#E1EFFF;}
	.st1{fill:#B0CCDD;}
	.st2{fill:#76C9EB;}
	.st3{fill:#F3F6FF;}
	.st4{fill:#A2BCCC;}
</style>
<g>
	<polygon class="st0" points="334.06,1683.79 334.06,256 1237.54,256 1518.89,537.34 1518.89,1683.79 	"/>
	<polygon class="st1" points="1237.53,256 1237.53,537.34 1518.89,537.34 	"/>
	<circle class="st2" cx="1393.99" cy="1472.05" r="319.95"/>
	<g>
		<g>
			<path class="st3" d="M1483.04,1473.34c-24.13,0-46.82-9.4-63.89-26.46c-17.06-17.06-26.46-39.75-26.46-63.89
				s9.4-46.82,26.46-63.89c17.06-17.06,39.75-26.46,63.89-26.46s46.82,9.4,63.89,26.46c17.06,17.06,26.46,39.75,26.46,63.89
				s-9.4,46.82-26.46,63.89C1529.86,1463.94,1507.18,1473.34,1483.04,1473.34z M1483.04,1325.67c-15.31,0-29.7,5.96-40.53,16.79
				c-10.83,10.83-16.79,25.22-16.79,40.53s5.96,29.7,16.79,40.53c10.83,10.83,25.22,16.79,40.53,16.79
				c15.31,0,29.7-5.96,40.53-16.79c10.83-10.83,16.79-25.22,16.79-40.53s-5.96-29.7-16.79-40.53S1498.35,1325.67,1483.04,1325.67z"
				/>
		</g>
		<g>
			<path class="st3" d="M1249.45,1633.1c-4.23,0-8.45-1.61-11.68-4.84c-6.45-6.45-6.45-16.91,0-23.36l181.38-181.38
				c6.45-6.45,16.91-6.45,23.36,0c6.45,6.45,6.45,16.91,0,23.36l-181.38,181.38C1257.91,1631.48,1253.68,1633.1,1249.45,1633.1z"/>
		</g>
		<g>
			<g>
				<path class="st3" d="M1406.91,1588.88c-4.23,0-8.45-1.61-11.68-4.84l-56.62-56.62c-6.45-6.45-6.45-16.91,0-23.36
					c6.45-6.45,16.91-6.45,23.36,0l56.62,56.62c6.45,6.45,6.45,16.91,0,23.36C1415.37,1587.26,1411.14,1588.88,1406.91,1588.88z"/>
			</g>
			<g>
				<path class="st3" d="M1338.84,1619.76c-4.23,0-8.45-1.61-11.68-4.84l-38.03-38.03c-6.45-6.45-6.45-16.91,0-23.36
					c6.45-6.45,16.91-6.45,23.36,0l38.03,38.03c6.45,6.45,6.45,16.91,0,23.36C1347.29,1618.15,1343.07,1619.76,1338.84,1619.76z"/>
			</g>
		</g>
	</g>
	<g>
		<g>
			<path class="st4" d="M530.57,657.44c-36.27,0-65.78-29.51-65.78-65.78V539c0-36.27,29.51-65.78,65.78-65.78
				c36.27,0,65.78,29.51,65.78,65.78v52.66C596.35,627.93,566.84,657.44,530.57,657.44z M530.57,506.25
				c-18.06,0-32.75,14.69-32.75,32.75v52.66c0,18.06,14.69,32.75,32.75,32.75c18.06,0,32.75-14.69,32.75-32.75V539
				C563.32,520.94,548.63,506.25,530.57,506.25z"/>
		</g>
		<g>
			<g>
				<path class="st4" d="M716.04,657.44c-9.12,0-16.52-7.39-16.52-16.52V529.61l-6.49,6.49c-6.45,6.45-16.91,6.45-23.36,0
					c-6.45-6.45-6.45-16.91,0-23.36l34.68-34.68c4.72-4.73,11.83-6.14,18-3.58c6.17,2.56,10.2,8.58,10.2,15.26v151.19
					C732.56,650.05,725.16,657.44,716.04,657.44z"/>
			</g>
			<g>
				<path class="st4" d="M746.54,657.44h-61c-9.12,0-16.52-7.39-16.52-16.52s7.39-16.52,16.52-16.52h61
					c9.12,0,16.52,7.39,16.52,16.52S755.66,657.44,746.54,657.44z"/>
			</g>
		</g>
		<g>
			<path class="st4" d="M897.33,657.44c-36.27,0-65.78-29.51-65.78-65.78V539c0-36.27,29.51-65.78,65.78-65.78
				s65.78,29.51,65.78,65.78v52.66C963.11,627.93,933.6,657.44,897.33,657.44z M897.33,506.25c-18.06,0-32.75,14.69-32.75,32.75
				v52.66c0,18.06,14.69,32.75,32.75,32.75c18.06,0,32.75-14.69,32.75-32.75V539C930.07,520.94,915.38,506.25,897.33,506.25z"/>
		</g>
		<g>
			<g>
				<path class="st4" d="M1082.8,657.44c-9.12,0-16.52-7.39-16.52-16.52V529.61l-6.49,6.49c-6.45,6.45-16.91,6.45-23.36,0
					c-6.45-6.45-6.45-16.91,0-23.36l34.68-34.68c4.72-4.72,11.83-6.14,18-3.58c6.17,2.56,10.2,8.58,10.2,15.26v151.19
					C1099.31,650.05,1091.92,657.44,1082.8,657.44z"/>
			</g>
			<g>
				<path class="st4" d="M1113.3,657.44h-61c-9.12,0-16.52-7.39-16.52-16.52s7.39-16.52,16.52-16.52h61
					c9.12,0,16.52,7.39,16.52,16.52S1122.42,657.44,1113.3,657.44z"/>
			</g>
		</g>
		<g>
			<path class="st4" d="M530.57,927.15c-36.27,0-65.78-29.51-65.78-65.78v-52.66c0-36.27,29.51-65.78,65.78-65.78
				c36.27,0,65.78,29.51,65.78,65.78v52.66C596.35,897.64,566.84,927.15,530.57,927.15z M530.57,775.96
				c-18.06,0-32.75,14.69-32.75,32.75v52.66c0,18.06,14.69,32.75,32.75,32.75c18.06,0,32.75-14.69,32.75-32.75v-52.66
				C563.32,790.65,548.63,775.96,530.57,775.96z"/>
		</g>
		<g>
			<g>
				<path class="st4" d="M716.04,927.15c-9.12,0-16.52-7.39-16.52-16.52V799.32l-6.49,6.49c-6.45,6.45-16.91,6.45-23.36,0
					c-6.45-6.45-6.45-16.91,0-23.36l34.68-34.68c4.72-4.72,11.83-6.14,18-3.58c6.17,2.56,10.2,8.58,10.2,15.26v151.19
					C732.56,919.75,725.16,927.15,716.04,927.15z"/>
			</g>
			<g>
				<path class="st4" d="M746.54,927.15h-61c-9.12,0-16.52-7.39-16.52-16.52s7.39-16.52,16.52-16.52h61
					c9.12,0,16.52,7.39,16.52,16.52S755.66,927.15,746.54,927.15z"/>
			</g>
		</g>
		<g>
			<path class="st4" d="M897.33,927.15c-36.27,0-65.78-29.51-65.78-65.78v-52.66c0-36.27,29.51-65.78,65.78-65.78
				s65.78,29.51,65.78,65.78v52.66C963.11,897.64,933.6,927.15,897.33,927.15z M897.33,775.96c-18.06,0-32.75,14.69-32.75,32.75
				v52.66c0,18.06,14.69,32.75,32.75,32.75c18.06,0,32.75-14.69,32.75-32.75v-52.66C930.07,790.65,915.38,775.96,897.33,775.96z"/>
		</g>
		<g>
			<g>
				<path class="st4" d="M1282.85,927.15c-9.12,0-16.52-7.39-16.52-16.52V799.32l-6.49,6.49c-6.45,6.45-16.91,6.45-23.36,0
					c-6.45-6.45-6.45-16.91,0-23.36l34.68-34.68c4.72-4.72,11.83-6.14,18-3.58c6.17,2.56,10.2,8.58,10.2,15.26v151.19
					C1299.37,919.75,1291.97,927.15,1282.85,927.15z"/>
			</g>
			<g>
				<path class="st4" d="M1313.35,927.15h-61c-9.12,0-16.52-7.39-16.52-16.52s7.39-16.52,16.52-16.52h61
					c9.12,0,16.52,7.39,16.52,16.52S1322.47,927.15,1313.35,927.15z"/>
			</g>
		</g>
		<g>
			<path class="st4" d="M1097.38,927.15c-36.27,0-65.78-29.51-65.78-65.78v-52.66c0-36.27,29.51-65.78,65.78-65.78
				c36.27,0,65.78,29.51,65.78,65.78v52.66C1163.16,897.64,1133.65,927.15,1097.38,927.15z M1097.38,775.96
				c-18.06,0-32.75,14.69-32.75,32.75v52.66c0,18.06,14.69,32.75,32.75,32.75c18.06,0,32.75-14.69,32.75-32.75v-52.66
				C1130.13,790.65,1115.44,775.96,1097.38,775.96z"/>
		</g>
		<g>
			<path class="st4" d="M530.57,1196.86c-36.27,0-65.78-29.51-65.78-65.78v-52.66c0-36.27,29.51-65.78,65.78-65.78
				c36.27,0,65.78,29.51,65.78,65.78v52.66C596.35,1167.35,566.84,1196.86,530.57,1196.86z M530.57,1045.67
				c-18.06,0-32.75,14.69-32.75,32.75v52.66c0,18.06,14.69,32.75,32.75,32.75c18.06,0,32.75-14.69,32.75-32.75v-52.66
				C563.32,1060.36,548.63,1045.67,530.57,1045.67z"/>
		</g>
		<g>
			<g>
				<path class="st4" d="M716.04,1196.86c-9.12,0-16.52-7.39-16.52-16.52v-111.31l-6.49,6.49c-6.45,6.45-16.91,6.45-23.36,0
					c-6.45-6.45-6.45-16.91,0-23.36l34.68-34.68c4.72-4.72,11.83-6.14,18-3.58c6.17,2.56,10.2,8.58,10.2,15.26v151.19
					C732.56,1189.46,725.16,1196.86,716.04,1196.86z"/>
			</g>
			<g>
				<path class="st4" d="M746.54,1196.86h-61c-9.12,0-16.52-7.39-16.52-16.52c0-9.12,7.39-16.52,16.52-16.52h61
					c9.12,0,16.52,7.39,16.52,16.52C763.05,1189.46,755.66,1196.86,746.54,1196.86z"/>
			</g>
		</g>
		<g>
			<path class="st4" d="M1064.03,1196.86c-36.27,0-65.78-29.51-65.78-65.78v-52.66c0-36.27,29.51-65.78,65.78-65.78
				c36.27,0,65.78,29.51,65.78,65.78v52.66C1129.81,1167.35,1100.3,1196.86,1064.03,1196.86z M1064.03,1045.67
				c-18.06,0-32.75,14.69-32.75,32.75v52.66c0,18.06,14.69,32.75,32.75,32.75c18.06,0,32.75-14.69,32.75-32.75v-52.66
				C1096.78,1060.36,1082.09,1045.67,1064.03,1045.67z"/>
		</g>
		<g>
			<g>
				<path class="st4" d="M882.75,1196.86c-9.12,0-16.52-7.39-16.52-16.52v-111.31l-6.49,6.49c-6.45,6.45-16.91,6.45-23.36,0
					c-6.45-6.45-6.45-16.91,0-23.36l34.68-34.68c4.72-4.72,11.83-6.14,18-3.58c6.17,2.56,10.2,8.58,10.2,15.26v151.19
					C899.26,1189.46,891.87,1196.86,882.75,1196.86z"/>
			</g>
			<g>
				<path class="st4" d="M913.25,1196.86h-61c-9.12,0-16.52-7.39-16.52-16.52c0-9.12,7.39-16.52,16.52-16.52h61
					c9.12,0,16.52,7.39,16.52,16.52C929.76,1189.46,922.37,1196.86,913.25,1196.86z"/>
			</g>
		</g>
		<g>
			<g>
				<path class="st4" d="M530.57,1466.57c-36.27,0-65.78-29.51-65.78-65.78v-52.66c0-36.27,29.51-65.78,65.78-65.78
					c36.27,0,65.78,29.51,65.78,65.78v52.66C596.35,1437.06,566.84,1466.57,530.57,1466.57z M530.57,1315.38
					c-18.06,0-32.75,14.69-32.75,32.75v52.66c0,18.06,14.69,32.75,32.75,32.75c18.06,0,32.75-14.69,32.75-32.75v-52.66
					C563.32,1330.07,548.63,1315.38,530.57,1315.38z"/>
			</g>
			<g>
				<g>
					<path class="st4" d="M716.04,1466.57c-9.12,0-16.52-7.39-16.52-16.52v-111.31l-6.49,6.49c-6.45,6.45-16.91,6.45-23.36,0
						c-6.45-6.45-6.45-16.91,0-23.36l34.68-34.68c4.72-4.72,11.83-6.14,18-3.58c6.17,2.56,10.2,8.58,10.2,15.26v151.19
						C732.56,1459.17,725.16,1466.57,716.04,1466.57z"/>
				</g>
				<g>
					<path class="st4" d="M746.54,1466.57h-61c-9.12,0-16.52-7.39-16.52-16.52s7.39-16.52,16.52-16.52h61
						c9.12,0,16.52,7.39,16.52,16.52S755.66,1466.57,746.54,1466.57z"/>
				</g>
			</g>
			<g>
				<g>
					<path class="st4" d="M882.75,1466.57c-9.12,0-16.52-7.39-16.52-16.52v-111.31l-6.49,6.49c-6.45,6.45-16.91,6.45-23.36,0
						c-6.45-6.45-6.45-16.91,0-23.36l34.68-34.68c4.72-4.73,11.83-6.14,18-3.58c6.17,2.56,10.2,8.58,10.2,15.26v151.19
						C899.26,1459.17,891.87,1466.57,882.75,1466.57z"/>
				</g>
				<g>
					<path class="st4" d="M913.25,1466.57h-61c-9.12,0-16.52-7.39-16.52-16.52s7.39-16.52,16.52-16.52h61
						c9.12,0,16.52,7.39,16.52,16.52S922.37,1466.57,913.25,1466.57z"/>
				</g>
			</g>
		</g>
	</g>
</g>
</svg>
