<?xml version="1.0" encoding="utf-8"?>
<!-- Generator: Adobe Illustrator 23.0.2, SVG Export Plug-In . SVG Version: 6.00 Build 0)  -->
<svg version="1.1" id="Layer_1" xmlns="http://www.w3.org/2000/svg" xmlns:xlink="http://www.w3.org/1999/xlink" x="0px" y="0px"
	 viewBox="0 0 2048 2048" style="enable-background:new 0 0 2048 2048;" xml:space="preserve">
<style type="text/css">
	.st0{fill:#508BB3;}
	.st1{fill:#587180;}
	.st2{fill:#E1EAF0;}
</style>
<g>
	<g>
		<path class="st0" d="M1414.17,588.55v147.48h-252.72c16.92-25.82,26.75-56.69,26.75-89.86c0-90.68-73.51-164.19-164.19-164.19
			s-164.19,73.51-164.19,164.19c0,33.17,9.83,64.04,26.75,89.86H633.83V588.55h99.18c7.7-39.09,23.07-75.42,44.5-107.37
			l-70.15-70.14l81.5-81.49l70.13,70.14c31.95-21.42,68.29-36.8,107.38-44.49V256h115.24v99.19c39.09,7.69,75.43,23.07,107.38,44.49
			l70.13-70.14l81.5,81.49l-70.15,70.14c21.43,31.95,36.8,68.28,44.5,107.37H1414.17z"/>
	</g>
	<g>
		<rect x="530.51" y="900.31" class="st1" width="986.97" height="678.46"/>
		<g>
			<g>
				<path class="st2" d="M1580.44,1028.96H467.56c-42.58,0-77.11-34.52-77.11-77.11V764.19c0-42.58,34.52-77.11,77.11-77.11h1112.87
					c42.58,0,77.11,34.52,77.11,77.11v187.66C1657.54,994.43,1623.02,1028.96,1580.44,1028.96z"/>
				<g>
					<g>
						<g>
							<circle class="st1" cx="1398.76" cy="858.02" r="60.37"/>
						</g>
						<g>
							<circle class="st1" cx="1224.84" cy="858.02" r="60.37"/>
						</g>
					</g>
					<g>
						<g>
							<path class="st1" d="M975.93,879.17H610.02c-11.68,0-21.15-9.47-21.15-21.15s9.47-21.15,21.15-21.15h365.91
								c11.68,0,21.15,9.47,21.15,21.15S987.61,879.17,975.93,879.17z"/>
						</g>
					</g>
				</g>
			</g>
			<g>
				<path class="st2" d="M1580.44,1410.48H467.56c-42.58,0-77.11-34.52-77.11-77.11v-187.66c0-42.58,34.52-77.11,77.11-77.11
					h1112.87c42.58,0,77.11,34.52,77.11,77.11v187.66C1657.54,1375.96,1623.02,1410.48,1580.44,1410.48z"/>
				<g>
					<g>
						<g>
							<circle class="st1" cx="1398.76" cy="1239.54" r="60.37"/>
						</g>
						<g>
							<circle class="st1" cx="1224.84" cy="1239.54" r="60.37"/>
						</g>
					</g>
					<g>
						<g>
							<path class="st1" d="M975.93,1260.69H610.02c-11.68,0-21.15-9.47-21.15-21.15s9.47-21.15,21.15-21.15h365.91
								c11.68,0,21.15,9.47,21.15,21.15S987.61,1260.69,975.93,1260.69z"/>
						</g>
					</g>
				</g>
			</g>
			<g>
				<path class="st2" d="M1580.44,1792H467.56c-42.58,0-77.11-34.52-77.11-77.11v-187.66c0-42.58,34.52-77.11,77.11-77.11h1112.87
					c42.58,0,77.11,34.52,77.11,77.11v187.66C1657.54,1757.48,1623.02,1792,1580.44,1792z"/>
				<g>
					<g>
						<g>
							<circle class="st1" cx="1398.76" cy="1621.06" r="60.37"/>
						</g>
						<g>
							<circle class="st1" cx="1224.84" cy="1621.06" r="60.37"/>
						</g>
					</g>
					<g>
						<g>
							<path class="st1" d="M975.93,1642.21H610.02c-11.68,0-21.15-9.47-21.15-21.15s9.47-21.15,21.15-21.15h365.91
								c11.68,0,21.15,9.47,21.15,21.15S987.61,1642.21,975.93,1642.21z"/>
						</g>
					</g>
				</g>
			</g>
		</g>
	</g>
</g>
</svg>
