<?xml version="1.0" encoding="utf-8"?>
<!-- Generator: Adobe Illustrator 23.0.2, SVG Export Plug-In . SVG Version: 6.00 Build 0)  -->
<svg version="1.1" id="Layer_1" xmlns="http://www.w3.org/2000/svg" xmlns:xlink="http://www.w3.org/1999/xlink" x="0px" y="0px"
	 viewBox="0 0 2048 2048" style="enable-background:new 0 0 2048 2048;" xml:space="preserve">
<style type="text/css">
	.st0{fill:#587180;}
	.st1{fill:#E1EAF0;}
	.st2{fill:#C7D0D6;}
</style>
<g>
	<polygon class="st0" points="1781.99,595.8 1781.99,1792 266.01,1792 266.01,256 1442.19,256 	"/>
	<rect x="427.75" y="256" class="st1" width="873.35" height="390.9"/>
	<path class="st1" d="M477.27,1792v-705.55c0-34.21,27.73-61.94,61.94-61.94h969.58c34.21,0,61.94,27.73,61.94,61.94V1792H477.27z"
		/>
	<g>
		<g>
			<path class="st0" d="M1422.37,1276.13H625.63c-9.12,0-16.52-7.39-16.52-16.52s7.39-16.52,16.52-16.52h796.74
				c9.12,0,16.52,7.39,16.52,16.52S1431.49,1276.13,1422.37,1276.13z"/>
		</g>
		<g>
			<path class="st0" d="M1422.37,1424.77H625.63c-9.12,0-16.52-7.39-16.52-16.52s7.39-16.52,16.52-16.52h796.74
				c9.12,0,16.52,7.39,16.52,16.52S1431.49,1424.77,1422.37,1424.77z"/>
		</g>
		<g>
			<path class="st0" d="M1422.37,1573.42H625.63c-9.12,0-16.52-7.39-16.52-16.52s7.39-16.52,16.52-16.52h796.74
				c9.12,0,16.52,7.39,16.52,16.52S1431.49,1573.42,1422.37,1573.42z"/>
		</g>
	</g>
	<rect x="1031.14" y="370.06" class="st0" width="112.97" height="162.77"/>
	<rect x="427.75" y="256" class="st2" width="160.43" height="390.9"/>
</g>
</svg>
