<?xml version="1.0" encoding="utf-8"?>
<!-- Generator: Adobe Illustrator 23.0.2, SVG Export Plug-In . SVG Version: 6.00 Build 0)  -->
<svg version="1.1" id="Layer_1" xmlns="http://www.w3.org/2000/svg" xmlns:xlink="http://www.w3.org/1999/xlink" x="0px" y="0px"
	 viewBox="0 0 2048 2048" style="enable-background:new 0 0 2048 2048;" xml:space="preserve">
<style type="text/css">
	.st0{fill:#E1EFFF;}
	.st1{fill:#B0CCDD;}
	.st2{fill:#A2BCCC;}
	.st3{fill:#5B9ECC;}
	.st4{fill:#447799;}
</style>
<g>
	<g>
		<polygon class="st0" points="1369.01,419.85 1369.01,904.28 678.99,904.28 678.99,256 1205.15,256 		"/>
		<polygon class="st1" points="1205.15,256 1205.15,419.85 1369.01,419.85 		"/>
		<g>
			<g>
				<path class="st2" d="M1042.88,438.58H817.75c-10.35,0-18.74-8.39-18.74-18.74c0-10.35,8.39-18.74,18.74-18.74h225.12
					c10.35,0,18.74,8.39,18.74,18.74C1061.61,430.2,1053.23,438.58,1042.88,438.58z"/>
			</g>
			<g>
				<path class="st2" d="M1230.25,595.45H817.75c-10.35,0-18.74-8.39-18.74-18.74c0-10.35,8.39-18.74,18.74-18.74h412.49
					c10.35,0,18.74,8.39,18.74,18.74C1248.98,587.06,1240.59,595.45,1230.25,595.45z"/>
			</g>
			<g>
				<path class="st2" d="M1230.25,752.31H817.75c-10.35,0-18.74-8.39-18.74-18.74s8.39-18.74,18.74-18.74h412.49
					c10.35,0,18.74,8.39,18.74,18.74S1240.59,752.31,1230.25,752.31z"/>
			</g>
		</g>
	</g>
	<polygon class="st3" points="1096.12,1380.97 1096.12,1683.44 951.88,1792 951.88,1380.97 541.31,821.6 1506.69,821.6 	"/>
	<rect x="491.49" y="701.64" class="st4" width="1065.02" height="119.96"/>
</g>
</svg>
