<?xml version="1.0" encoding="utf-8"?>
<!-- Generator: Adobe Illustrator 23.0.2, SVG Export Plug-In . SVG Version: 6.00 Build 0)  -->
<svg version="1.1" id="Layer_1" xmlns="http://www.w3.org/2000/svg" xmlns:xlink="http://www.w3.org/1999/xlink" x="0px" y="0px"
	 viewBox="0 0 2048 2048" style="enable-background:new 0 0 2048 2048;" xml:space="preserve">
<style type="text/css">
	.st0{fill:#CFDCEB;}
	.st1{fill:#E1EFFF;}
	.st2{fill:#B0CCDD;}
	.st3{fill:#A2BCCC;}
</style>
<g>
	<polygon class="st0" points="1526.41,645.05 1526.41,1792 400.01,1792 400.01,377.58 1258.92,377.58 	"/>
	<polygon class="st1" points="1647.99,523.47 1647.99,1670.42 521.59,1670.42 521.59,256 1380.51,256 	"/>
	<polygon class="st2" points="1380.51,256 1380.51,523.47 1647.99,523.47 	"/>
	<g>
		<g>
			<path class="st3" d="M930.32,1082.59H671.08c-9.12,0-16.52-7.39-16.52-16.52s7.39-16.52,16.52-16.52h259.24
				c9.12,0,16.52,7.39,16.52,16.52S939.44,1082.59,930.32,1082.59z"/>
		</g>
		<g>
			<path class="st3" d="M1386.76,1082.59h-357.83c-9.12,0-16.52-7.39-16.52-16.52s7.39-16.52,16.52-16.52h357.83
				c9.12,0,16.52,7.39,16.52,16.52S1395.88,1082.59,1386.76,1082.59z"/>
		</g>
		<g>
			<path class="st3" d="M1017.32,876.85H671.08c-9.12,0-16.52-7.39-16.52-16.52c0-9.12,7.39-16.52,16.52-16.52h346.24
				c9.12,0,16.52,7.39,16.52,16.52C1033.84,869.46,1026.44,876.85,1017.32,876.85z"/>
		</g>
		<g>
			<path class="st3" d="M1498.5,876.85h-379.75c-9.12,0-16.52-7.39-16.52-16.52c0-9.12,7.39-16.52,16.52-16.52h379.75
				c9.12,0,16.52,7.39,16.52,16.52C1515.02,869.46,1507.62,876.85,1498.5,876.85z"/>
		</g>
		<g>
			<path class="st3" d="M1498.5,671.11H671.08c-9.12,0-16.52-7.39-16.52-16.52s7.39-16.52,16.52-16.52h827.42
				c9.12,0,16.52,7.39,16.52,16.52S1507.62,671.11,1498.5,671.11z"/>
		</g>
		<g>
			<path class="st3" d="M1175.46,465.37H671.08c-9.12,0-16.52-7.39-16.52-16.52c0-9.12,7.39-16.52,16.52-16.52h504.38
				c9.12,0,16.52,7.39,16.52,16.52C1191.98,457.98,1184.59,465.37,1175.46,465.37z"/>
		</g>
		<g>
			<g>
				<path class="st3" d="M1017.32,1494.08H671.08c-9.12,0-16.52-7.39-16.52-16.52s7.39-16.52,16.52-16.52h346.24
					c9.12,0,16.52,7.39,16.52,16.52S1026.44,1494.08,1017.32,1494.08z"/>
			</g>
			<g>
				<path class="st3" d="M1498.5,1494.08h-379.75c-9.12,0-16.52-7.39-16.52-16.52s7.39-16.52,16.52-16.52h379.75
					c9.12,0,16.52,7.39,16.52,16.52S1507.62,1494.08,1498.5,1494.08z"/>
			</g>
			<g>
				<path class="st3" d="M1498.5,1288.34H671.08c-9.12,0-16.52-7.39-16.52-16.52s7.39-16.52,16.52-16.52h827.42
					c9.12,0,16.52,7.39,16.52,16.52S1507.62,1288.34,1498.5,1288.34z"/>
			</g>
		</g>
	</g>
</g>
</svg>
