<?xml version="1.0" encoding="utf-8"?>
<!-- Generator: Adobe Illustrator 23.0.2, SVG Export Plug-In . SVG Version: 6.00 Build 0)  -->
<svg version="1.1" id="Layer_1" xmlns="http://www.w3.org/2000/svg" xmlns:xlink="http://www.w3.org/1999/xlink" x="0px" y="0px"
	 viewBox="0 0 2048 2048" style="enable-background:new 0 0 2048 2048;" xml:space="preserve">
<style type="text/css">
	.st0{fill:#427394;}
	.st1{fill:#E1EFFF;}
	.st2{fill:#508BB3;}
	.st3{fill:#FF6676;}
	.st4{fill:#E8F3FF;}
</style>
<g>
	<g>
		<g>
			<g>
				<g>
					<g>
						<polygon class="st0" points="1141.14,1580.95 1099.85,1401.64 948.15,1401.64 906.86,1580.95 						"/>
					</g>
				</g>
				<path class="st1" d="M256,395.08v975.66c0,22.8,18.49,41.29,41.29,41.29h1453.42c22.8,0,41.29-18.49,41.29-41.29V395.08
					c0-22.8-18.49-41.29-41.29-41.29H297.29C274.49,353.79,256,372.28,256,395.08z"/>
				<path class="st2" d="M1792,1244.99v125.75c0,22.81-18.49,41.29-41.29,41.29H297.29c-22.8,0-41.29-18.48-41.29-41.29v-125.75
					H1792z"/>
				<path class="st2" d="M1348.34,1694.21H699.66v0c0-68.29,55.36-123.65,123.65-123.65h401.37
					C1292.98,1570.56,1348.34,1625.92,1348.34,1694.21L1348.34,1694.21z"/>
			</g>
		</g>
	</g>
	<g>
		<polygon class="st3" points="1024,517.46 698.45,1081.32 1349.55,1081.32 		"/>
		<g>
			<g>
				<path class="st4" d="M1024,903.15c-9.12,0-16.52-7.39-16.52-16.52V717.34c0-9.12,7.39-16.52,16.52-16.52
					c9.12,0,16.52,7.39,16.52,16.52v169.29C1040.52,895.76,1033.12,903.15,1024,903.15z"/>
			</g>
			<g>
				<path class="st4" d="M1024,1001.17c-9.12,0-16.52-7.39-16.52-16.52v-25.27c0-9.12,7.39-16.52,16.52-16.52
					c9.12,0,16.52,7.39,16.52,16.52v25.27C1040.52,993.78,1033.12,1001.17,1024,1001.17z"/>
			</g>
		</g>
	</g>
</g>
</svg>
