<?xml version="1.0" encoding="utf-8"?>
<!-- Generator: Adobe Illustrator 23.0.2, SVG Export Plug-In . SVG Version: 6.00 Build 0)  -->
<svg version="1.1" id="Layer_1" xmlns="http://www.w3.org/2000/svg" xmlns:xlink="http://www.w3.org/1999/xlink" x="0px" y="0px"
	 viewBox="0 0 2048 2048" style="enable-background:new 0 0 2048 2048;" xml:space="preserve">
<style type="text/css">
	.st0{fill:#76C9EB;}
	.st1{fill:#508BB3;}
</style>
<g>
	<g>
		<path class="st0" d="M1024,1792c-103.67,0-204.25-20.31-298.95-60.36c-91.46-38.68-173.59-94.05-244.11-164.58
			c-70.52-70.52-125.9-152.65-164.58-244.11C276.31,1228.25,256,1127.67,256,1024c0-13.25,10.75-24,24-24s24,10.75,24,24
			c0,397.01,322.99,720,720,720c397.01,0,720-322.99,720-720c0-397.01-322.99-720-720-720c-180.91,0-353.86,67.36-486.99,189.67
			c-9.76,8.97-24.94,8.32-33.91-1.44c-8.97-9.76-8.32-24.94,1.44-33.91C646.54,327.85,831.03,256,1024,256
			c103.67,0,204.25,20.31,298.95,60.36c91.46,38.68,173.59,94.05,244.11,164.58c70.52,70.52,125.9,152.65,164.58,244.11
			c40.05,94.7,60.36,195.28,60.36,298.95s-20.31,204.25-60.36,298.95c-38.68,91.46-94.05,173.59-164.58,244.11
			c-70.52,70.52-152.65,125.9-244.11,164.58C1228.25,1771.69,1127.67,1792,1024,1792z"/>
	</g>
	<g>
		<path class="st0" d="M490.15,529.42c-7.1,0-13.91-3.15-18.51-8.72c-5.4-6.54-6.94-15.43-4.07-23.41l74.47-206.8
			c4.49-12.47,18.24-18.94,30.71-14.45c12.47,4.49,18.94,18.24,14.45,30.71l-60.75,168.71l177.16-27.68
			c13.1-2.04,25.37,6.91,27.42,20.01c2.05,13.1-6.91,25.37-20.01,27.42l-217.16,33.93C492.62,529.33,491.38,529.42,490.15,529.42z"
			/>
	</g>
	<path class="st1" d="M1529.28,1096.4V951.6h-115.24c-10.27-55.67-32.16-107.27-63.07-152.18l81.52-81.51l-102.4-102.4l-81.51,81.52
		c-44.91-30.91-96.51-52.8-152.18-63.07V518.72H951.6v115.24c-55.67,10.27-107.27,32.16-152.18,63.07l-81.51-81.52l-102.4,102.4
		l81.52,81.51c-30.91,44.91-52.8,96.51-63.07,152.18H518.72v144.8h115.24c10.27,55.67,32.16,107.27,63.07,152.18l-81.52,81.51
		l102.4,102.4l81.51-81.52c44.91,30.91,96.51,52.8,152.18,63.07v115.24h144.8v-115.24c55.67-10.27,107.27-32.16,152.18-63.07
		l81.51,81.52l102.4-102.4l-81.52-81.51c30.91-44.91,52.8-96.51,63.07-152.18H1529.28z M1024,1256.55
		c-128.43,0-232.55-104.12-232.55-232.55S895.57,791.45,1024,791.45s232.55,104.12,232.55,232.55S1152.43,1256.55,1024,1256.55z"/>
</g>
</svg>
