<?xml version="1.0" encoding="utf-8"?>
<!-- Generator: Adobe Illustrator 23.0.2, SVG Export Plug-In . SVG Version: 6.00 Build 0)  -->
<svg version="1.1" id="Layer_1" xmlns="http://www.w3.org/2000/svg" xmlns:xlink="http://www.w3.org/1999/xlink" x="0px" y="0px"
	 viewBox="0 0 2048 2048" style="enable-background:new 0 0 2048 2048;" xml:space="preserve">
<style type="text/css">
	.st0{fill:#65ADCC;}
	.st1{fill:#80DAFF;}
	.st2{fill:#E2E7EB;}
</style>
<g>
	<path class="st0" d="M1024,1792l-39.98-41.57c-8.98-9.34-17.69-18.85-26.1-28.04c-14.21-15.53-27.64-30.2-41.67-43.38
		c-22.13-20.78-50.07-39.13-85.4-56.1c-17.12-8.23-34.5-16.02-52.9-24.26l-0.3-0.13c-26.6-11.92-54.1-24.25-82.04-38.46
		c-69.6-35.42-125.08-76.75-169.62-126.36c-32.34-36.02-59.11-76.5-79.56-120.29c-20.67-44.26-34.42-90.94-40.86-138.73
		c-2.38-17.72-3.86-36.66-4.52-57.9l-0.03-0.88l0-0.88l0.5-589.92l50.05-4.88c204.28-19.93,394.33-101.64,535.12-230.09l37.39-34.11
		l37.39,34.12c140.75,128.42,330.75,210.13,534.99,230.07l50.05,4.89l0.5,590.81l-0.03,0.88c-0.66,21.24-2.14,40.18-4.52,57.88
		c-6.45,47.81-20.2,94.49-40.86,138.75c-20.45,43.79-47.22,84.26-79.56,120.29c-44.54,49.61-100.02,90.94-169.61,126.36
		c-27.95,14.22-55.46,26.55-82.07,38.47l-0.26,0.12c-18.41,8.25-35.8,16.04-52.89,24.26c-35.35,16.98-63.29,35.33-85.42,56.11
		c-14.03,13.17-27.46,27.84-41.67,43.38c-8.42,9.2-17.12,18.7-26.1,28.05L1024,1792z"/>
	<path class="st1" d="M511.97,1114.19c0.55,17.05,1.72,32,3.55,45.67c9.83,72.92,42.87,143.85,93.02,199.7
		c35.25,39.26,80.18,72.49,137.38,101.6c25.49,12.97,51.73,24.73,77.11,36.1l0.28,0.13c18.25,8.18,37.14,16.64,55.59,25.51
		c45.7,21.95,82.76,46.55,113.29,75.21c11.19,10.51,21.69,21.39,31.81,32.24c10.12-10.85,20.62-21.73,31.81-32.24
		c30.53-28.66,67.6-53.27,113.31-75.22c18.43-8.86,37.31-17.32,55.58-25.5l0.25-0.11c25.38-11.38,51.63-23.14,77.14-36.12
		c57.18-29.1,102.12-62.33,137.36-101.59c50.15-55.86,83.19-126.79,93.02-199.72c1.84-13.65,3-28.6,3.55-45.65l-0.41-489.58
		c-99.07-14.16-194.4-41.33-284.02-80.99c-83.42-36.92-159.76-83.64-227.54-139.2c-67.8,55.57-144.16,102.29-227.6,139.21
		c-89.64,39.67-184.99,66.83-284.08,80.99L511.97,1114.19z"/>
	<circle class="st0" cx="1024" cy="1003.35" r="271.07"/>
	<g>
		<path class="st2" d="M972.61,1118.71c-6.34,0-12.68-2.42-17.52-7.26l-78.39-78.39c-9.67-9.67-9.67-25.36,0-35.04
			c9.68-9.67,25.36-9.67,35.04,0l60.87,60.87l163.64-163.64c9.68-9.67,25.36-9.67,35.04,0c9.67,9.67,9.67,25.36,0,35.04
			l-181.16,181.16C985.29,1116.29,978.95,1118.71,972.61,1118.71z"/>
	</g>
</g>
</svg>
