<?xml version="1.0" encoding="utf-8"?>
<!-- Generator: Adobe Illustrator 23.0.2, SVG Export Plug-In . SVG Version: 6.00 Build 0)  -->
<svg version="1.1" id="Layer_1" xmlns="http://www.w3.org/2000/svg" xmlns:xlink="http://www.w3.org/1999/xlink" x="0px" y="0px"
	 viewBox="0 0 2048 2048" style="enable-background:new 0 0 2048 2048;" xml:space="preserve">
<style type="text/css">
	.st0{fill:#587180;}
	.st1{fill:#E1EAF0;}
	.st2{fill:#508BB3;}
	.st3{fill:#427394;}
	.st4{fill:#E1EFFF;}
</style>
<g>
	<g>
		<rect x="393.24" y="589.87" class="st0" width="967.12" height="664.82"/>
		<g>
			<g>
				<path class="st1" d="M1422.05,715.93H331.55c-41.73,0-75.55-33.83-75.55-75.55V456.48c0-41.73,33.83-75.55,75.55-75.55h1090.49
					c41.73,0,75.55,33.83,75.55,75.55v183.89C1497.6,682.1,1463.78,715.93,1422.05,715.93z"/>
				<g>
					<g>
						<g>
							<circle class="st0" cx="1244.03" cy="548.43" r="59.15"/>
						</g>
						<g>
							<circle class="st0" cx="1073.61" cy="548.43" r="59.15"/>
						</g>
					</g>
					<g>
						<g>
							<path class="st0" d="M829.7,569.15H471.14c-11.44,0-20.72-9.28-20.72-20.72c0-11.44,9.28-20.72,20.72-20.72H829.7
								c11.44,0,20.72,9.28,20.72,20.72C850.42,559.87,841.14,569.15,829.7,569.15z"/>
						</g>
					</g>
				</g>
			</g>
			<g>
				<path class="st1" d="M1422.05,1089.78H331.55c-41.73,0-75.55-33.83-75.55-75.55V830.33c0-41.73,33.83-75.55,75.55-75.55h1090.49
					c41.73,0,75.55,33.83,75.55,75.55v183.89C1497.6,1055.95,1463.78,1089.78,1422.05,1089.78z"/>
				<g>
					<g>
						<g>
							<circle class="st0" cx="1073.61" cy="922.28" r="59.15"/>
						</g>
					</g>
					<g>
						<g>
							<path class="st0" d="M829.7,943H471.14c-11.44,0-20.72-9.28-20.72-20.72s9.28-20.72,20.72-20.72H829.7
								c11.44,0,20.72,9.28,20.72,20.72S841.14,943,829.7,943z"/>
						</g>
					</g>
				</g>
			</g>
			<g>
				<path class="st1" d="M1422.05,1463.63H331.55c-41.73,0-75.55-33.83-75.55-75.55v-183.89c0-41.73,33.83-75.55,75.55-75.55
					h1090.49c41.73,0,75.55,33.83,75.55,75.55v183.89C1497.6,1429.8,1463.78,1463.63,1422.05,1463.63z"/>
				<g>
					<g>
						<g>
							<path class="st0" d="M829.7,1316.85H471.14c-11.44,0-20.72-9.28-20.72-20.72s9.28-20.72,20.72-20.72H829.7
								c11.44,0,20.72,9.28,20.72,20.72S841.14,1316.85,829.7,1316.85z"/>
						</g>
					</g>
				</g>
			</g>
		</g>
	</g>
	<g>
		<g>
			<g>
				<path class="st2" d="M1537.64,1337.63l214.24,214.24l24.29,24.29c21.29,21.29,21.19,56.04-0.78,76.62
					c-10.17,9.53-23.18,14.29-36.2,14.29c-13.55,0-27.11-5.17-37.46-15.51l-24.77-24.77l-214.24-214.24L1537.64,1337.63z"/>
			</g>
			<g>
				<circle class="st3" cx="1361.14" cy="1236.05" r="275.69"/>
				<circle class="st4" cx="1361.14" cy="1236.05" r="205.5"/>
			</g>
		</g>
	</g>
</g>
</svg>
