<?xml version="1.0" encoding="utf-8"?>
<!-- Generator: Adobe Illustrator 23.0.2, SVG Export Plug-In . SVG Version: 6.00 Build 0)  -->
<svg version="1.1" id="Layer_1" xmlns="http://www.w3.org/2000/svg" xmlns:xlink="http://www.w3.org/1999/xlink" x="0px" y="0px"
	 viewBox="0 0 2048 2048" style="enable-background:new 0 0 2048 2048;" xml:space="preserve">
<style type="text/css">
	.st0{fill:#D8E5F5;}
	.st1{fill:#F7E07F;}
	.st2{fill:#76C9EB;}
	.st3{fill:#E0F6FF;}
</style>
<g>
	<path class="st0" d="M1303.41,1025.02V622.9c0-62.99-42.17-144.15-94.14-179.75c-224.2-153.58-464.69,4.71-464.69,218.12v363.75
		H618.73V661.26c0-54.68,10.72-107.76,31.87-157.77c20.41-48.27,49.63-91.6,86.83-128.8c37.2-37.2,80.53-66.41,128.8-86.83
		C916.24,266.72,969.32,256,1024,256c54.68,0,107.76,10.72,157.77,31.87c48.27,20.41,91.6,49.63,128.8,86.83
		c37.2,37.2,66.41,80.53,86.83,128.8c21.15,50,31.87,103.08,31.87,157.77v363.75H1303.41z"/>
	<g>
		<g>
			<rect x="454.49" y="921.79" class="st1" width="1139.01" height="870.21"/>
		</g>
	</g>
	<rect x="327.26" y="1151.55" class="st2" width="1393.47" height="410.7"/>
	<g>
		<g>
			<g>
				<path class="st3" d="M531.18,1472.51c-9.12,0-16.52-7.39-16.52-16.52v-198.2c0-9.12,7.39-16.52,16.52-16.52
					c9.12,0,16.52,7.39,16.52,16.52v198.2C547.7,1465.12,540.3,1472.51,531.18,1472.51z"/>
			</g>
			<g>
				<path class="st3" d="M442.83,1443.49c-4.87,0-9.69-2.14-12.95-6.26c-5.67-7.15-4.47-17.54,2.68-23.2l176.72-140.15
					c7.15-5.67,17.54-4.47,23.2,2.68c5.67,7.15,4.47,17.54-2.68,23.2l-176.72,140.15C450.05,1442.32,446.43,1443.49,442.83,1443.49z
					"/>
			</g>
			<g>
				<path class="st3" d="M619.53,1443.49c-3.6,0-7.22-1.17-10.25-3.58l-176.72-140.15c-7.15-5.67-8.35-16.06-2.68-23.2
					c5.67-7.15,16.05-8.35,23.2-2.68l176.72,140.15c7.15,5.67,8.35,16.06,2.68,23.2C629.22,1441.34,624.4,1443.49,619.53,1443.49z"
					/>
			</g>
		</g>
		<g>
			<g>
				<path class="st3" d="M859.73,1472.51c-9.12,0-16.52-7.39-16.52-16.52v-198.2c0-9.12,7.39-16.52,16.52-16.52
					c9.12,0,16.52,7.39,16.52,16.52v198.2C876.24,1465.12,868.85,1472.51,859.73,1472.51z"/>
			</g>
			<g>
				<path class="st3" d="M771.38,1443.49c-4.87,0-9.69-2.14-12.95-6.26c-5.67-7.15-4.47-17.54,2.68-23.2l176.72-140.15
					c7.15-5.67,17.54-4.47,23.2,2.68c5.67,7.15,4.47,17.54-2.68,23.2l-176.72,140.15C778.59,1442.32,774.97,1443.49,771.38,1443.49z
					"/>
			</g>
			<g>
				<path class="st3" d="M948.08,1443.49c-3.6,0-7.22-1.17-10.25-3.58L761.1,1299.76c-7.15-5.67-8.35-16.06-2.68-23.2
					c5.67-7.15,16.06-8.35,23.2-2.68l176.72,140.15c7.15,5.67,8.35,16.06,2.68,23.2C957.77,1441.34,952.95,1443.49,948.08,1443.49z"
					/>
			</g>
		</g>
		<g>
			<g>
				<path class="st3" d="M1188.27,1472.51c-9.12,0-16.52-7.39-16.52-16.52v-198.2c0-9.12,7.39-16.52,16.52-16.52
					c9.12,0,16.52,7.39,16.52,16.52v198.2C1204.79,1465.12,1197.39,1472.51,1188.27,1472.51z"/>
			</g>
			<g>
				<path class="st3" d="M1099.92,1443.49c-4.87,0-9.69-2.14-12.95-6.26c-5.67-7.15-4.47-17.54,2.68-23.2l176.72-140.15
					c7.15-5.67,17.54-4.47,23.2,2.68c5.67,7.15,4.47,17.54-2.68,23.2l-176.72,140.15
					C1107.14,1442.32,1103.52,1443.49,1099.92,1443.49z"/>
			</g>
			<g>
				<path class="st3" d="M1276.62,1443.49c-3.6,0-7.22-1.17-10.25-3.58l-176.72-140.15c-7.15-5.67-8.35-16.06-2.68-23.2
					c5.67-7.15,16.06-8.35,23.2-2.68l176.72,140.15c7.15,5.67,8.35,16.06,2.68,23.2
					C1286.31,1441.34,1281.49,1443.49,1276.62,1443.49z"/>
			</g>
		</g>
		<g>
			<g>
				<path class="st3" d="M1516.82,1472.51c-9.12,0-16.52-7.39-16.52-16.52v-198.2c0-9.12,7.39-16.52,16.52-16.52
					c9.12,0,16.52,7.39,16.52,16.52v198.2C1533.33,1465.12,1525.94,1472.51,1516.82,1472.51z"/>
			</g>
			<g>
				<path class="st3" d="M1428.47,1443.49c-4.87,0-9.69-2.14-12.95-6.26c-5.67-7.15-4.47-17.54,2.68-23.2l176.72-140.15
					c7.15-5.67,17.54-4.47,23.2,2.68c5.67,7.15,4.47,17.54-2.68,23.2l-176.72,140.15
					C1435.68,1442.32,1432.06,1443.49,1428.47,1443.49z"/>
			</g>
			<g>
				<path class="st3" d="M1605.17,1443.49c-3.6,0-7.22-1.17-10.25-3.58l-176.72-140.15c-7.15-5.67-8.35-16.06-2.68-23.2
					c5.67-7.15,16.06-8.35,23.2-2.68l176.72,140.15c7.15,5.67,8.35,16.06,2.68,23.2
					C1614.86,1441.34,1610.04,1443.49,1605.17,1443.49z"/>
			</g>
		</g>
	</g>
</g>
</svg>
