<?xml version="1.0" encoding="utf-8"?>
<!-- Generator: Adobe Illustrator 23.0.2, SVG Export Plug-In . SVG Version: 6.00 Build 0)  -->
<svg version="1.1" id="Layer_1" xmlns="http://www.w3.org/2000/svg" xmlns:xlink="http://www.w3.org/1999/xlink" x="0px" y="0px"
	 viewBox="0 0 2048 2048" style="enable-background:new 0 0 2048 2048;" xml:space="preserve">
<style type="text/css">
	.st0{fill:#F0F5FF;}
	.st1{fill:#FFE783;}
	.st2{fill:#D1BE6C;}
	.st3{fill:#75C9FF;}
	.st4{fill:#FF96A0;}
	.st5{fill:#A3BCCC;}
</style>
<g>
	<path class="st0" d="M1730.06,1682.18H317.94c-34.21,0-61.94-27.73-61.94-61.94V427.76c0-34.21,27.73-61.94,61.94-61.94h1412.13
		c34.21,0,61.94,27.73,61.94,61.94v1192.48C1792,1654.45,1764.27,1682.18,1730.06,1682.18z"/>
	<path class="st1" d="M1792,584.17H256V427.76c0-34.21,27.73-61.94,61.94-61.94h1412.13c34.21,0,61.94,27.73,61.94,61.94V584.17z"/>
	<g>
		<path class="st2" d="M1652.52,491.51h-616.26c-9.12,0-16.52-7.39-16.52-16.52c0-9.12,7.39-16.52,16.52-16.52h616.26
			c9.12,0,16.52,7.39,16.52,16.52C1669.04,484.12,1661.65,491.51,1652.52,491.51z"/>
	</g>
	<g>
		<g>
			<circle class="st2" cx="416.37" cy="475" r="32.64"/>
		</g>
		<g>
			<circle class="st2" cx="552.96" cy="475" r="32.64"/>
		</g>
		<g>
			<circle class="st2" cx="689.56" cy="475" r="32.64"/>
		</g>
	</g>
	<g>
		<rect x="389" y="723.3" class="st3" width="648.09" height="268.1"/>
		<rect x="1193.7" y="723.3" class="st4" width="465.3" height="268.1"/>
		<g>
			<g>
				<path class="st5" d="M1642.48,1132.78H405.52c-9.12,0-16.52-7.39-16.52-16.52c0-9.12,7.39-16.52,16.52-16.52h1236.97
					c9.12,0,16.52,7.39,16.52,16.52C1659,1125.39,1651.61,1132.78,1642.48,1132.78z"/>
			</g>
			<g>
				<path class="st5" d="M1642.48,1269.53H405.52c-9.12,0-16.52-7.39-16.52-16.52s7.39-16.52,16.52-16.52h1236.97
					c9.12,0,16.52,7.39,16.52,16.52S1651.61,1269.53,1642.48,1269.53z"/>
			</g>
			<g>
				<path class="st5" d="M1642.48,1406.29H405.52c-9.12,0-16.52-7.39-16.52-16.52s7.39-16.52,16.52-16.52h1236.97
					c9.12,0,16.52,7.39,16.52,16.52S1651.61,1406.29,1642.48,1406.29z"/>
			</g>
			<g>
				<path class="st5" d="M1642.48,1543.04H405.52c-9.12,0-16.52-7.39-16.52-16.52s7.39-16.52,16.52-16.52h1236.97
					c9.12,0,16.52,7.39,16.52,16.52S1651.61,1543.04,1642.48,1543.04z"/>
			</g>
		</g>
	</g>
</g>
</svg>
