<?xml version="1.0" encoding="utf-8"?>
<!-- Generator: Adobe Illustrator 23.0.2, SVG Export Plug-In . SVG Version: 6.00 Build 0)  -->
<svg version="1.1" id="Layer_1" xmlns="http://www.w3.org/2000/svg" xmlns:xlink="http://www.w3.org/1999/xlink" x="0px" y="0px"
	 viewBox="0 0 2048 2048" style="enable-background:new 0 0 2048 2048;" xml:space="preserve">
<style type="text/css">
	.st0{fill:#F06B56;}
	.st1{fill:#EBEDE9;}
	.st2{fill:#CBCCC9;}
	.st3{fill:#FF725C;}
	.st4{fill:#F4F5F1;}
	.st5{fill:#DADBD8;}
</style>
<g>
	<g>
		<path class="st0" d="M904.45,516.65c-4.83,47.06,1.8,95.96,21.58,142.59l144.74,341.15l533.81-226.48l-144.74-341.14
			c-62.53-147.41-232.73-216.21-380.14-153.67C978.92,321.86,914.89,414.94,904.45,516.65z"/>
		<path class="st1" d="M1070.77,1000.4l144.73,341.14c62.55,147.4,232.73,216.21,380.14,153.66
			c147.41-62.53,216.21-232.73,153.67-380.14l-144.73-341.14L1070.77,1000.4z"/>
		<g>
			<path class="st2" d="M1551.98,1412.67c2.68,0.28,5.47-0.1,8.12-1.23c100.99-42.84,148.29-159.86,105.44-260.84l-58.07-136.88
				c-3.56-8.4-13.26-12.32-21.65-8.75c-8.4,3.56-12.32,13.26-8.75,21.65l58.07,136.88c35.73,84.22-3.72,181.8-87.94,217.53
				c-8.4,3.56-12.32,13.26-8.75,21.65C1540.89,1408.43,1546.19,1412.08,1551.98,1412.67z"/>
		</g>
	</g>
	<g>
		<path class="st3" d="M1213.2,853.12c0,47.31-11.59,95.28-36.04,139.64l-178.82,324.59l-507.89-279.82l178.82-324.58
			c77.26-140.25,253.6-191.3,393.85-114.04C1159,651.74,1213.2,750.88,1213.2,853.12z"/>
		<path class="st4" d="M998.34,1317.35l-178.81,324.58c-77.27,140.24-253.6,191.3-393.85,114.03
			c-140.25-77.26-191.3-253.6-114.04-393.85l178.81-324.58L998.34,1317.35z"/>
		<g>
			<path class="st5" d="M477.53,1678.32c-2.7,0-5.43-0.66-7.95-2.05c-96.08-52.93-131.19-174.17-78.25-270.25l71.75-130.23
				c4.4-7.99,14.45-10.9,22.44-6.5c7.99,4.4,10.9,14.45,6.5,22.43l-71.75,130.23c-44.15,80.13-14.87,181.23,65.26,225.38
				c7.99,4.4,10.9,14.45,6.5,22.43C489,1675.23,483.35,1678.32,477.53,1678.32z"/>
		</g>
	</g>
</g>
</svg>
