<?xml version="1.0" encoding="utf-8"?>
<!-- Generator: Adobe Illustrator 23.0.2, SVG Export Plug-In . SVG Version: 6.00 Build 0)  -->
<svg version="1.1" id="Layer_1" xmlns="http://www.w3.org/2000/svg" xmlns:xlink="http://www.w3.org/1999/xlink" x="0px" y="0px"
	 viewBox="0 0 2048 2048" style="enable-background:new 0 0 2048 2048;" xml:space="preserve">
<style type="text/css">
	.st0{fill:#EBB39E;}
	.st1{fill:#746566;}
	.st2{fill:#F4BAA6;}
	.st3{fill:#E6F3FF;}
	.st4{fill:#D2E6F7;}
	.st5{fill:#60B8FF;}
	.st6{fill:#22A7FF;}
	.st7{fill:#4A82A8;}
	.st8{fill:#67B2E6;}
	.st9{fill:#C7DAEB;}
</style>
<g>
	<g>
		<path class="st0" d="M1177.8,1114.25c-13.67-30.67-26.8-71.62-27.8-116.45c-0.36-16.68,1.21-27.24,3.46-37.48l0,0V823.37H884.05
			v126.55c3.99,17.59,7.96,28.79,7.4,54.28c-0.92,41.18-12.31,80.9-24.07,109.79v210.78h310.43V1114.25z"/>
	</g>
	<g>
		<path class="st1" d="M762.54,621.27c-11.76-27.22-13.83-58.15-15.71-88.25c-1.62-25.89-3.12-52.71,2.94-78.08
			c6.42-26.9,25.3-54,41.87-74.25c3.64-4.44,7.4-8.75,11.3-12.92c55.31-59.17,146.41-90.17,192.75-100.82
			c37.53-8.62,77.21-13.01,115.98-10.02c21.61,1.67,44.25,4.71,65.27,10.61c17.27,4.84,34.39,14,44.76,30.04
			c11.17,17.27,13.88,39.1,27.26,54.92c14.6,17.27,34.51,27.58,49.45,44.44c19.98,22.56,39.87,58.06,42.75,89.88
			c2.6,28.67-8.76,55.73-21.83,79.63c-2.23,4.07-25.47,50.03-30.71,54.82H762.54z"/>
		<path class="st2" d="M1288.62,621.27v123.05c0,160.83-117.77,291.21-263.04,291.21h0c-145.27,0-263.04-130.38-263.04-291.21
			V621.27c0,0,61.29-21.19,96.48-60.16c0,0,139.7,110.4,363.83,4.79C1222.86,565.9,1256.51,601.45,1288.62,621.27z"/>
	</g>
	<path class="st3" d="M1595.59,1792H452.41c-0.15-51.83,0.26-303.19,42.98-457.53c10.49-37.91,22.63-66.71,38.2-93.11
		c8.73-14.81,47.01-77.09,121.77-119.7c69.47-39.6,133.84-41.35,164.75-39.9l198.64,144.87l209.15-144.87
		c30.91-1.45,95.28,0.3,164.75,39.9c74.76,42.61,113.03,104.89,121.77,119.7c15.57,26.39,27.71,55.19,38.2,93.11
		C1595.33,1488.81,1595.74,1740.17,1595.59,1792z"/>
	<g>
		<g>
			<path class="st4" d="M1240.94,1081.44l-137.36,628.08l-18.04,82.49H962.46l-16.82-76.92l-138.58-633.64
				c4.83,0.02,9.19,0.15,13.05,0.33l198.64,144.87l209.15-144.87C1231.75,1081.59,1236.11,1081.46,1240.94,1081.44z"/>
		</g>
	</g>
	<g>
		<g>
			<polygon class="st5" points="1103.58,1709.51 1085.54,1792 962.46,1792 945.64,1715.08 979.62,1354.96 1070.24,1354.96 			"/>
		</g>
	</g>
	<polygon class="st6" points="1099.19,1226.64 950.31,1226.64 979.63,1354.96 1070.24,1354.96 1070.25,1354.96 	"/>
	<g>
		<path class="st7" d="M891.44,1004.2c-0.13,5.64-0.45,11.26-0.94,16.81c-46.44,1.55-88.35,21.01-119.02,51.68
			c-32,32-51.79,76.2-51.79,125.02v156.46c0,9.65-8.06,17.4-17.8,16.94c-9.12-0.43-16.12-8.29-16.12-17.41v-151.18
			c0-112.32,85.92-204.57,195.63-214.61c3.3,2.41,6.65,4.73,10.05,6.95C891.52,997.77,891.52,1000.86,891.44,1004.2z"/>
		<path class="st7" d="M1362.23,1208.48v284.72c0,9.13-7.01,16.98-16.12,17.42c-9.74,0.47-17.8-7.29-17.8-16.94v-290.9
			c0-98.72-78.66-179.07-176.73-181.79c-0.75-6.59-1.26-13.29-1.49-20.1c6.34-3.77,12.52-7.83,18.53-12.16
			c50.02,6.29,94.84,29.24,128.74,63.13C1337.44,1091.94,1362.23,1147.32,1362.23,1208.48z"/>
		<g>
			<path class="st8" d="M808.62,1607.13h-53.53c-9.37,0-16.96-7.59-16.96-16.96s7.59-16.96,16.96-16.96h36.57v-106.92
				c0-23.75-9.25-46.08-26.05-62.88c-16.81-16.79-39.14-26.05-62.89-26.05c-49.03,0-88.92,39.89-88.92,88.92v106.92h36.56
				c9.37,0,16.96,7.59,16.96,16.96s-7.59,16.96-16.96,16.96h-53.52c-9.37,0-16.96-7.59-16.96-16.96v-123.88
				c0-67.74,55.11-122.84,122.84-122.84c32.8,0,63.65,12.78,86.87,35.98c23.21,23.21,35.98,54.05,35.98,86.86v123.88
				C825.58,1599.54,817.98,1607.13,808.62,1607.13z"/>
		</g>
		<circle class="st8" cx="1345.28" cy="1540.92" r="66.22"/>
	</g>
	<g>
		<g>
			<path class="st9" d="M1018.74,1226.64l-162.37,80.26l-49.31-225.46c4.83,0.02,9.19,0.15,13.05,0.33L1018.74,1226.64z"/>
			<path class="st9" d="M1240.94,1081.44l-49.31,225.46l-172.89-80.26l209.15-144.87
				C1231.75,1081.59,1236.11,1081.46,1240.94,1081.44z"/>
		</g>
	</g>
</g>
</svg>
