<?xml version="1.0" encoding="utf-8"?>
<!-- Generator: Adobe Illustrator 23.0.2, SVG Export Plug-In . SVG Version: 6.00 Build 0)  -->
<svg version="1.1" id="Layer_1" xmlns="http://www.w3.org/2000/svg" xmlns:xlink="http://www.w3.org/1999/xlink" x="0px" y="0px"
	 viewBox="0 0 2048 2048" style="enable-background:new 0 0 2048 2048;" xml:space="preserve">
<style type="text/css">
	.st0{fill:#E5EBF5;}
	.st1{fill:#70BEFF;}
	.st2{fill:#8BCAFF;}
	.st3{fill:#B3DCFF;}
	.st4{fill:#CCE8FF;}
	.st5{fill:#FF725C;}
</style>
<g>
	<g>
		<rect x="420.83" y="911.59" class="st0" width="1206.35" height="880.41"/>
		<polygon class="st1" points="270.03,879.58 445.62,510.13 1602.38,510.13 1777.97,879.58 		"/>
		<path class="st2" d="M425.54,1094.7h-9.42c-80.68,0-146.08-65.4-146.08-146.08v-69.03h301.59v69.03
			C571.62,1029.3,506.22,1094.7,425.54,1094.7z"/>
		<path class="st3" d="M727.13,1094.7h-9.42c-80.68,0-146.08-65.4-146.08-146.08v-69.03h301.59v69.03
			C873.21,1029.3,807.8,1094.7,727.13,1094.7z"/>
		<path class="st2" d="M1028.71,1094.7h-9.42c-80.68,0-146.08-65.4-146.08-146.08v-69.03h301.59v69.03
			C1174.79,1029.3,1109.39,1094.7,1028.71,1094.7z"/>
		<path class="st3" d="M1330.3,1094.7h-9.42c-80.68,0-146.08-65.4-146.08-146.08v-69.03h301.59v69.03
			C1476.38,1029.3,1410.98,1094.7,1330.3,1094.7z"/>
		<path class="st2" d="M1631.89,1094.7h-9.42c-80.68,0-146.08-65.4-146.08-146.08v-69.03h301.59v69.03
			C1777.97,1029.3,1712.56,1094.7,1631.89,1094.7z"/>
		<rect x="878.07" y="1231.93" class="st2" width="291.86" height="560.07"/>
		<rect x="544.38" y="1231.93" class="st2" width="210.14" height="210.14"/>
		<rect x="1293.48" y="1231.93" class="st2" width="210.14" height="210.14"/>
		<path class="st4" d="M1278.13,510.13c0,130.2-97.92,237.52-224.13,252.36c-9.84,1.17-19.85,1.77-30,1.77
			c-10.15,0-20.15-0.6-29.99-1.75C867.8,747.66,769.87,640.33,769.87,510.13C769.87,369.78,883.65,256,1024,256
			S1278.13,369.78,1278.13,510.13z"/>
	</g>
	<g>
		<polygon class="st5" points="981.98,649.56 981.98,552.15 884.56,552.15 884.56,468.11 981.98,468.11 981.98,370.69 
			1066.02,370.69 1066.02,468.11 1163.44,468.11 1163.44,552.15 1066.02,552.15 1066.02,649.56 		"/>
	</g>
</g>
</svg>
