<?xml version="1.0" encoding="utf-8"?>
<!-- Generator: Adobe Illustrator 23.0.2, SVG Export Plug-In . SVG Version: 6.00 Build 0)  -->
<svg version="1.1" id="Layer_1" xmlns="http://www.w3.org/2000/svg" xmlns:xlink="http://www.w3.org/1999/xlink" x="0px" y="0px"
	 viewBox="0 0 2048 2048" style="enable-background:new 0 0 2048 2048;" xml:space="preserve">
<style type="text/css">
	.st0{fill:#D8E5F5;}
	.st1{fill:#E1EFFF;}
	.st2{fill:#70BEFF;}
	.st3{fill:#5A98CC;}
	.st4{fill:#FF725C;}
	.st5{fill:#EAEBE7;}
</style>
<g>
	<g>
		<rect x="450.26" y="487.37" class="st0" width="586.69" height="223.02"/>
		<path class="st1" d="M1137.61,1751.72H349.6c-51.7,0-93.6-41.91-93.6-93.6V757.58c0-51.7,41.91-93.6,93.6-93.6h788.01
			c51.7,0,93.6,41.91,93.6,93.6v900.53C1231.22,1709.81,1189.31,1751.72,1137.61,1751.72z"/>
		<rect x="256" y="884.84" class="st2" width="975.22" height="646.01"/>
		<polygon class="st1" points="686.61,1374.33 686.61,1264.85 577.13,1264.85 577.13,1150.85 686.61,1150.85 686.61,1041.37 
			800.61,1041.37 800.61,1150.85 910.09,1150.85 910.09,1264.85 800.61,1264.85 800.61,1374.33 		"/>
		<g>
			<path class="st2" d="M1161.88,533.79H325.34V366.48c0-38.77,31.43-70.2,70.2-70.2h696.14c38.77,0,70.2,31.43,70.2,70.2V533.79z"
				/>
			<g>
				<g>
					<path class="st3" d="M435.72,462.81c-8.64,0-15.65-7.01-15.65-15.65v-64.25c0-8.64,7.01-15.65,15.65-15.65
						s15.65,7.01,15.65,15.65v64.25C451.37,455.8,444.36,462.81,435.72,462.81z"/>
				</g>
				<g>
					<path class="st3" d="M538.35,462.81c-8.64,0-15.65-7.01-15.65-15.65v-64.25c0-8.64,7.01-15.65,15.65-15.65
						S554,374.27,554,382.91v64.25C554,455.8,546.99,462.81,538.35,462.81z"/>
				</g>
				<g>
					<path class="st3" d="M640.98,462.81c-8.64,0-15.65-7.01-15.65-15.65v-64.25c0-8.64,7.01-15.65,15.65-15.65
						c8.64,0,15.65,7.01,15.65,15.65v64.25C656.63,455.8,649.62,462.81,640.98,462.81z"/>
				</g>
				<g>
					<path class="st3" d="M743.61,462.81c-8.64,0-15.65-7.01-15.65-15.65v-64.25c0-8.64,7.01-15.65,15.65-15.65
						c8.64,0,15.65,7.01,15.65,15.65v64.25C759.26,455.8,752.25,462.81,743.61,462.81z"/>
				</g>
				<g>
					<path class="st3" d="M846.24,462.81c-8.64,0-15.65-7.01-15.65-15.65v-64.25c0-8.64,7.01-15.65,15.65-15.65
						c8.64,0,15.65,7.01,15.65,15.65v64.25C861.89,455.8,854.88,462.81,846.24,462.81z"/>
				</g>
				<g>
					<path class="st3" d="M948.87,462.81c-8.64,0-15.65-7.01-15.65-15.65v-64.25c0-8.64,7.01-15.65,15.65-15.65
						s15.65,7.01,15.65,15.65v64.25C964.52,455.8,957.51,462.81,948.87,462.81z"/>
				</g>
				<g>
					<path class="st3" d="M1051.5,462.81c-8.64,0-15.65-7.01-15.65-15.65v-64.25c0-8.64,7.01-15.65,15.65-15.65
						s15.65,7.01,15.65,15.65v64.25C1067.15,455.8,1060.14,462.81,1051.5,462.81z"/>
				</g>
			</g>
		</g>
	</g>
	<g>
		<g>
			<path class="st4" d="M1354.56,1505.04c-68.12,0-123.34,55.22-123.34,123.34v0c0,68.12,55.22,123.34,123.34,123.34h157.05v-246.68
				H1354.56z"/>
			<path class="st5" d="M1668.66,1505.04h-157.05v246.68h157.05c68.12,0,123.34-55.22,123.34-123.34v0
				C1792,1560.26,1736.78,1505.04,1668.66,1505.04z"/>
		</g>
		<g>
			<path class="st4" d="M1489.72,1468.7c48.17,48.17,126.26,48.17,174.43,0l0,0c48.17-48.17,48.17-126.26,0-174.43l-111.05-111.05
				l-174.43,174.43L1489.72,1468.7z"/>
			<path class="st5" d="M1267.62,1246.6l111.05,111.05l174.43-174.43l-111.05-111.05c-48.17-48.17-126.26-48.17-174.43,0l0,0
				C1219.45,1120.33,1219.45,1198.43,1267.62,1246.6z"/>
		</g>
	</g>
</g>
</svg>
