<?xml version="1.0" encoding="utf-8"?>
<!-- Generator: Adobe Illustrator 23.0.2, SVG Export Plug-In . SVG Version: 6.00 Build 0)  -->
<svg version="1.1" id="Layer_1" xmlns="http://www.w3.org/2000/svg" xmlns:xlink="http://www.w3.org/1999/xlink" x="0px" y="0px"
	 viewBox="0 0 2048 2048" style="enable-background:new 0 0 2048 2048;" xml:space="preserve">
<style type="text/css">
	.st0{fill:#F7E07F;}
	.st1{fill:#E1EFFF;}
	.st2{fill:#A7C1D1;}
	.st3{fill:#89CDE6;}
	.st4{fill:#FF725C;}
	.st5{fill:#FFCC5B;}
	.st6{fill:#EC9922;}
</style>
<g>
	<polyline class="st0" points="1030.3,1652 429.4,1652 429.4,256 1618.6,256 1618.6,1652 1268.2,1652 	"/>
	<path class="st1" d="M1268.2,1548.8h140c0-59.2,48-107.2,107.2-107.2V466.4c-59.2,0-107.2-48-107.2-107.2H639.8
		c0,59.2-48,107.2-107.2,107.2v975.2c59.2,0,107.2,48,107.2,107.2h390.5"/>
	<g>
		<g>
			<path class="st2" d="M1152.3,513.9H895.7c-9.1,0-16.5-7.4-16.5-16.5c0-9.1,7.4-16.5,16.5-16.5h256.7c9.1,0,16.5,7.4,16.5,16.5
				C1168.9,506.5,1161.5,513.9,1152.3,513.9z"/>
		</g>
		<g>
			<path class="st2" d="M1360.4,623.7H687.6c-9.1,0-16.5-7.4-16.5-16.5s7.4-16.5,16.5-16.5h672.8c9.1,0,16.5,7.4,16.5,16.5
				S1369.5,623.7,1360.4,623.7z"/>
		</g>
		<g>
			<path class="st2" d="M1360.4,728.1H687.6c-9.1,0-16.5-7.4-16.5-16.5c0-9.1,7.4-16.5,16.5-16.5h672.8c9.1,0,16.5,7.4,16.5,16.5
				C1376.9,720.7,1369.5,728.1,1360.4,728.1z"/>
		</g>
		<g>
			<path class="st2" d="M1158.8,832.5H687.6c-9.1,0-16.5-7.4-16.5-16.5c0-9.1,7.4-16.5,16.5-16.5h471.2c9.1,0,16.5,7.4,16.5,16.5
				C1175.3,825,1167.9,832.5,1158.8,832.5z"/>
		</g>
	</g>
	<g>
		<g>
			<path class="st3" d="M699.6,1050.9c-4.7,0-9.4-0.3-14.1-0.9c-9-1.2-15.4-9.5-14.2-18.5c1.2-9,9.5-15.4,18.5-14.2
				c14.8,2,30.8-0.8,45.6-7.3c-7.9-8.9-14.6-19.1-19.6-29.8c-9.8-21-13.1-51.4,7-73.7c10.3-11.4,25.2-17.8,40-17.1
				c25,1.2,48.1,19,56.3,43.3c4.5,13.5,3.5,29.2-2.8,43c-4.9,10.7-12.2,21.4-21.7,31.8c-0.3,0.3-0.6,0.6-0.9,1
				c15.7,2.4,32.8-2.5,43.7-14c2.3-2.4,4.6-5.3,7-8.4c3.9-5,8.3-10.6,14-15.6c11.8-10.2,30.8-16.4,46.8-7.3
				c12.7,7.3,17.2,20.3,20.5,29.8c0.4,1.1,0.7,2.1,1.1,3.2c1.2,3.3,2.6,5.6,3.7,6.8c1.1-0.7,2.5-1.8,3.5-2.6
				c4.3-3.3,9.5-7.4,16.9-9.3c13.4-3.5,24.8,2.2,33.2,6.4c1,0.5,1.9,1,2.9,1.4c8.2,4,11.7,13.8,7.7,22c-4,8.2-13.8,11.7-22,7.7
				c-1.1-0.5-2.2-1.1-3.3-1.7c-3-1.5-8.5-4.2-10.2-4c-0.9,0.3-3.4,2.2-5,3.5c-5.2,4-12.2,9.4-22.4,10c-15.4,0.9-29.2-10.3-36-29.3
				c-0.4-1.2-0.8-2.4-1.3-3.6c-1.5-4.3-3.7-10.8-5.6-11.9c-0.8-0.5-5,0.2-8.9,3.6c-3.3,2.8-6.3,6.8-9.6,10.9
				c-2.8,3.5-5.6,7.2-9,10.8c-24.8,26.1-66.6,32.1-98.1,15.6C743.6,1044.5,721.4,1050.9,699.6,1050.9z M929.2,1003.8L929.2,1003.8
				L929.2,1003.8z M760.5,922.4c-4.7,0-9.7,2.3-13.2,6.2c-9.3,10.3-6.6,26.8-1.5,37.7c4.3,9.4,10.5,18.2,17.8,25.5
				c2.3-2.1,4.6-4.3,6.7-6.7c7.1-7.8,12.5-15.5,15.9-23c2.9-6.3,3.4-13.2,1.5-18.8c-3.8-11.3-15.2-20.3-26.6-20.8
				C761,922.4,760.7,922.4,760.5,922.4z"/>
		</g>
	</g>
	<g>
		<polygon class="st4" points="1268.2,1405.1 1268.2,1792 1149.3,1652.8 1030.3,1792 1030.3,1405.1 		"/>
		<g>
			<path class="st5" d="M1374.4,1282.7c0,28-41.3,47.6-51.4,72c-10.5,25.3,4.5,68.2-14.5,87.3s-62,4.1-87.3,14.5
				c-24.4,10.1-43.9,51.4-72,51.4s-47.6-41.3-72-51.4c-25.3-10.5-68.2,4.5-87.3-14.5s-4.1-62-14.5-87.3
				c-10.1-24.4-51.4-43.9-51.4-72s41.3-47.6,51.4-72c10.5-25.3-4.5-68.2,14.5-87.3s62-4.1,87.3-14.5c24.4-10.1,43.9-51.4,72-51.4
				s47.6,41.3,72,51.4c25.3,10.5,68.2-4.5,87.3,14.5s4.1,62,14.5,87.3C1333.1,1235.1,1374.4,1254.7,1374.4,1282.7z"/>
			<circle class="st6" cx="1149.3" cy="1282.7" r="75.1"/>
		</g>
	</g>
</g>
</svg>
