<?xml version="1.0" encoding="utf-8"?>
<!-- Generator: Adobe Illustrator 23.0.2, SVG Export Plug-In . SVG Version: 6.00 Build 0)  -->
<svg version="1.1" id="Layer_1" xmlns="http://www.w3.org/2000/svg" xmlns:xlink="http://www.w3.org/1999/xlink" x="0px" y="0px"
	 viewBox="0 0 2048 2048" style="enable-background:new 0 0 2048 2048;" xml:space="preserve">
<style type="text/css">
	.st0{fill:#74CC8C;}
	.st1{fill:#5DA36F;}
	.st2{fill:#83E69E;}
	.st3{fill:#66B37A;}
</style>
<g>
	<rect x="256" y="879.83" class="st0" width="1327.34" height="704.6"/>
	<polygon class="st1" points="762.83,879.83 1411.43,463.56 1792,1056.55 1583.33,1190.47 762.83,1190.47 	"/>
	<path class="st2" d="M1540.27,879.83l-106.28-165.6c-50.68,32.52-118.13,17.79-150.65-32.87L974.09,879.83v176.58h566.17V879.83z"
		/>
	<rect x="256" y="879.83" class="st3" width="1327.34" height="704.6"/>
	<path class="st2" d="M1357.91,993.94H481.42c0,60.21-48.81,109.03-109.02,109.03v258.33c60.21,0,109.02,48.82,109.02,109.03h876.49
		c0-60.21,48.81-109.03,109.02-109.03v-258.33C1406.72,1102.97,1357.91,1054.15,1357.91,993.94z"/>
	<g>
		<g>
			<circle class="st3" cx="1227.81" cy="1232.14" r="48.33"/>
			<circle class="st3" cx="611.53" cy="1232.14" r="48.33"/>
		</g>
	</g>
	<circle class="st3" cx="919.67" cy="1232.14" r="104.33"/>
</g>
</svg>
