<?xml version="1.0" encoding="utf-8"?>
<!-- Generator: Adobe Illustrator 23.0.2, SVG Export Plug-In . SVG Version: 6.00 Build 0)  -->
<svg version="1.1" id="Layer_1" xmlns="http://www.w3.org/2000/svg" xmlns:xlink="http://www.w3.org/1999/xlink" x="0px" y="0px"
	 viewBox="0 0 2048 2048" style="enable-background:new 0 0 2048 2048;" xml:space="preserve">
<style type="text/css">
	.st0{fill:#99B3FF;}
	.st1{fill:#8096D6;}
	.st2{fill:#DBE2EB;}
	.st3{fill:#F5F7FF;}
</style>
<g>
	<g>
		<g>
			<g>
				<g>
					<g>
						<path class="st0" d="M1648.42,256v1297.71h-94.05v119.14H399.58V441.81c0-102.62,83.19-185.81,185.81-185.81H1648.42z"/>
						<g>
							<path class="st1" d="M676.06,256h-90.67c-102.62,0-185.81,83.19-185.81,185.81v1231.05h276.48V256z"/>
						</g>
						<path class="st2" d="M1648.42,1791.99c-65.79-65.79-65.79-172.48,0-238.27l-1129.7-0.01c-65.8,0-119.14,53.34-119.14,119.14v0
							c0,65.8,53.34,119.14,119.14,119.14L1648.42,1791.99z"/>
					</g>
				</g>
			</g>
		</g>
	</g>
	<circle class="st3" cx="1162.24" cy="904.86" r="304.79"/>
	<g>
		<g>
			<path class="st0" d="M1162.24,1098.83c-13.68,0-24.77-11.09-24.77-24.77V836.73c0-13.68,11.09-24.77,24.77-24.77
				c13.68,0,24.77,11.09,24.77,24.77v237.32C1187.01,1087.73,1175.92,1098.83,1162.24,1098.83z"/>
		</g>
		<g>
			<path class="st0" d="M1162.24,773.85c-13.68,0-24.77-11.09-24.77-24.77v-13.41c0-13.68,11.09-24.77,24.77-24.77
				c13.68,0,24.77,11.09,24.77,24.77v13.41C1187.01,762.76,1175.92,773.85,1162.24,773.85z"/>
		</g>
	</g>
</g>
</svg>
