<?xml version="1.0" encoding="utf-8"?>
<!-- Generator: Adobe Illustrator 23.0.2, SVG Export Plug-In . SVG Version: 6.00 Build 0)  -->
<svg version="1.1" id="Layer_1" xmlns="http://www.w3.org/2000/svg" xmlns:xlink="http://www.w3.org/1999/xlink" x="0px" y="0px"
	 viewBox="0 0 2048 2048" style="enable-background:new 0 0 2048 2048;" xml:space="preserve">
<style type="text/css">
	.st0{fill:#FFE04E;}
	.st1{fill:#465A65;}
	.st2{fill:#FFFFFF;}
	.st3{fill:#F85F6A;}
	.st4{fill:#E6CA46;}
	.st5{fill:#F4F5F1;}
	.st6{fill:#E5E6E2;}
	.st7{fill:#9DE4E6;}
</style>
<g>
	<g>
		<g>
			<path class="st0" d="M1792,1459.91v69.88c0,68.31-55.38,123.68-123.68,123.68H382.08c-68.3,0-123.68-55.37-123.68-123.68V1343.2
				c0-32.8,13.03-64.25,36.23-87.46l201.05-201.04c23.19-23.19,54.64-36.22,87.45-36.22h593.12c32.8,0,64.26,13.03,87.45,36.22
				l210.89,210.89c15.81,15.81,35.61,27.04,57.29,32.5l166.6,41.88C1753.45,1353.79,1792,1403.22,1792,1459.91z"/>
		</g>
		<path class="st1" d="M406.96,1253.82L566.78,1094c7.73-7.73,18.22-12.07,29.15-12.07h567.5c10.93,0,21.42,4.34,29.15,12.07
			l159.82,159.82c12.99,12.99,3.79,35.19-14.58,35.19H421.53C403.17,1289.01,393.97,1266.8,406.96,1253.82z"/>
		<g>
			<path class="st0" d="M687.02,1325.8c-9.11,0-16.49-7.38-16.49-16.49v-247.69c0-9.11,7.38-16.49,16.49-16.49
				c9.11,0,16.49,7.38,16.49,16.49v247.69C703.51,1318.42,696.13,1325.8,687.02,1325.8z"/>
		</g>
		<g>
			<path class="st0" d="M907.44,1325.8c-9.11,0-16.49-7.38-16.49-16.49v-247.69c0-9.11,7.38-16.49,16.49-16.49
				s16.49,7.38,16.49,16.49v247.69C923.93,1318.42,916.55,1325.8,907.44,1325.8z"/>
		</g>
		<circle class="st1" cx="548.05" cy="1653.46" r="129.48"/>
		<path class="st2" d="M548.05,1702.55c-27.07,0-49.09-22.02-49.09-49.08s22.02-49.09,49.09-49.09c27.07,0,49.08,22.02,49.08,49.09
			S575.12,1702.55,548.05,1702.55z"/>
		<circle class="st1" cx="1502.35" cy="1653.46" r="129.48"/>
		<path class="st2" d="M1502.35,1702.55c-27.07,0-49.08-22.02-49.08-49.08s22.02-49.09,49.08-49.09c27.07,0,49.09,22.02,49.09,49.09
			S1529.41,1702.55,1502.35,1702.55z"/>
		<g>
			<path class="st3" d="M1792,1466.58v49.47h-76.97c-13.66,0-24.74-11.08-24.74-24.74c0-13.67,11.08-24.74,24.74-24.74H1792z"/>
		</g>
	</g>
	<g>
		<rect x="744.7" y="1494.9" class="st1" width="62.33" height="62.33"/>
		<rect x="807.03" y="1432.56" class="st1" width="62.33" height="62.33"/>
		<rect x="869.36" y="1494.9" class="st1" width="62.33" height="62.33"/>
		<rect x="931.7" y="1432.56" class="st1" width="62.33" height="62.33"/>
		<rect x="994.03" y="1494.9" class="st1" width="62.33" height="62.33"/>
		<rect x="1056.36" y="1432.56" class="st1" width="62.33" height="62.33"/>
		<rect x="1118.7" y="1494.9" class="st1" width="62.33" height="62.33"/>
		<rect x="1181.03" y="1432.56" class="st1" width="62.33" height="62.33"/>
		<rect x="1243.36" y="1494.9" class="st1" width="62.33" height="62.33"/>
	</g>
	<path class="st4" d="M987.28,1018.48h-215.2l21.97-71.53c5.32-17.31,21.3-29.12,39.41-29.12h92.43c18.11,0,34.09,11.81,39.41,29.12
		L987.28,1018.48z"/>
	<path class="st5" d="M1670.58,771.47c27.43,0,53.74-10.9,73.13-30.29l3.91-3.91c9.7-9.7,17.27-21.12,22.41-33.55
		c5.15-12.43,7.87-25.87,7.87-39.58c0-23.93-8.29-47.02-23.29-65.39c-2.19-2.68-4.53-5.27-7-7.74l-91.84-91.84
		c-19.39-19.39-45.7-30.29-73.13-30.29h-174.13H848.06l-14.84-63.72c-10.08-43.3-37.88-80.39-76.62-102.21l-67.27-37.9v265.83
		c0,132.87,107.71,240.58,240.58,240.58H1670.58z"/>
	<path class="st6" d="M1167.93,878.95l97.4-180.38h191.2C1456.53,698.57,1385.59,878.95,1167.93,878.95z"/>
	<path class="st7" d="M1754.62,598.77h-211.5c-72.77,0-132.08-57.73-134.6-129.87h174.13c27.44,0,53.74,10.89,73.13,30.28
		l91.84,91.85C1750.09,593.49,1752.43,596.09,1754.62,598.77z"/>
	<g>
		<path class="st7" d="M1330.17,575.39h-51.65c-9.11,0-16.49-7.38-16.49-16.49s7.38-16.49,16.49-16.49h51.65
			c9.11,0,16.49,7.38,16.49,16.49S1339.27,575.39,1330.17,575.39z"/>
	</g>
	<g>
		<path class="st7" d="M1191.95,575.39h-51.65c-9.11,0-16.49-7.38-16.49-16.49s7.38-16.49,16.49-16.49h51.65
			c9.11,0,16.49,7.38,16.49,16.49S1201.06,575.39,1191.95,575.39z"/>
	</g>
	<g>
		<path class="st7" d="M1053.74,575.39h-51.65c-9.11,0-16.49-7.38-16.49-16.49s7.38-16.49,16.49-16.49h51.65
			c9.11,0,16.49,7.38,16.49,16.49S1062.85,575.39,1053.74,575.39z"/>
	</g>
	<g>
		<path class="st7" d="M915.53,575.39h-51.65c-9.11,0-16.49-7.38-16.49-16.49s7.38-16.49,16.49-16.49h51.65
			c9.11,0,16.49,7.38,16.49,16.49S924.64,575.39,915.53,575.39z"/>
	</g>
	<g>
		<g>
			<path class="st7" d="M578.22,490.54H272.49c-9.11,0-16.49-7.38-16.49-16.49c0-9.11,7.38-16.49,16.49-16.49h305.73
				c9.11,0,16.49,7.38,16.49,16.49C594.71,483.16,587.33,490.54,578.22,490.54z"/>
		</g>
		<g>
			<path class="st7" d="M578.22,588.5H376.38c-9.11,0-16.49-7.38-16.49-16.49c0-9.11,7.38-16.49,16.49-16.49h201.84
				c9.11,0,16.49,7.38,16.49,16.49C594.71,581.11,587.33,588.5,578.22,588.5z"/>
		</g>
		<g>
			<path class="st7" d="M578.22,686.45H272.49c-9.11,0-16.49-7.38-16.49-16.49s7.38-16.49,16.49-16.49h305.73
				c9.11,0,16.49,7.38,16.49,16.49S587.33,686.45,578.22,686.45z"/>
		</g>
	</g>
</g>
</svg>
