<?xml version="1.0" encoding="utf-8"?>
<!-- Generator: Adobe Illustrator 23.0.2, SVG Export Plug-In . SVG Version: 6.00 Build 0)  -->
<svg version="1.1" id="Layer_1" xmlns="http://www.w3.org/2000/svg" xmlns:xlink="http://www.w3.org/1999/xlink" x="0px" y="0px"
	 viewBox="0 0 2048 2048" style="enable-background:new 0 0 2048 2048;" xml:space="preserve">
<style type="text/css">
	.st0{fill:#465A65;}
	.st1{fill:#E6CA46;}
	.st2{fill:#FFE04E;}
	.st3{fill:#F5F5F5;}
	.st4{fill:#F7E07F;}
	.st5{fill:#FF725C;}
	.st6{fill:#E1EFFF;}
	.st7{fill:#AAB5C2;}
</style>
<g>
	<g>
		<g>
			<path class="st0" d="M568.05,1685.59h-56.34c-33.14,0-60-26.86-60-60v-142.93h176.34v142.93
				C628.05,1658.73,601.19,1685.59,568.05,1685.59z"/>
			<path class="st0" d="M1536.29,1685.59h-56.34c-33.14,0-60-26.86-60-60v-142.93h176.34v142.93
				C1596.29,1658.73,1569.43,1685.59,1536.29,1685.59z"/>
		</g>
		<g>
			<path class="st1" d="M283.21,1114.06c-15.04,0-27.21-12.18-27.21-27.21v-48.47c0-15.03,12.18-27.21,27.21-27.21h96.96
				c10.48,0,20.04,6.03,24.55,15.49l42.42,87.41H283.21z"/>
			<path class="st1" d="M1643.28,1026.65c4.51-9.46,14.06-15.49,24.55-15.49h96.96c15.04,0,27.21,12.19,27.21,27.21v48.47
				c0,15.04-12.18,27.21-27.21,27.21h-162.69L1643.28,1026.65z"/>
		</g>
		<path class="st2" d="M371.8,1169.85l231.01-308.35c42.9-57.26,110.27-90.97,181.82-90.97h478.75
			c71.55,0,138.92,33.71,181.82,90.97l231.01,308.35c14.72,19.65,22.68,43.55,22.68,68.11v234.92c0,40.08-32.49,72.57-72.57,72.57
			H421.69c-40.08,0-72.57-32.49-72.57-72.57v-234.92C349.12,1213.4,357.08,1189.5,371.8,1169.85z"/>
		<path class="st1" d="M1214.22,1401.84H833.78c-14.99,0-28.17-9.93-32.29-24.34l-15.81-55.23c-6.15-21.46,9.97-42.84,32.29-42.84
			h412.08c22.33,0,38.44,21.38,32.29,42.84l-15.81,55.23C1242.39,1391.91,1229.21,1401.84,1214.22,1401.84z"/>
		<path class="st3" d="M1538.17,1392.3l-87.49-4.36c-25.21-1.26-45.01-22.06-45.01-47.31v0c0-25.24,19.8-46.05,45.01-47.31
			l87.49-4.36c27.05-1.35,49.72,20.22,49.72,47.31v8.71C1587.89,1372.08,1565.22,1393.64,1538.17,1392.3z"/>
		<path class="st3" d="M509.83,1392.3l87.49-4.36c25.21-1.26,45.01-22.06,45.01-47.31v0c0-25.24-19.8-46.05-45.01-47.31l-87.49-4.36
			c-27.05-1.35-49.72,20.22-49.72,47.31v8.71C460.11,1372.08,482.78,1393.64,509.83,1392.3z"/>
		<path class="st0" d="M666.66,1093.98c-25.79,0-50.85-5.25-74.47-15.62l-74.93-32.88L636.3,886.59
			c17.17-22.92,39.79-41.81,65.4-54.63c25.61-12.82,54.29-19.59,82.92-19.59h478.75c28.64,0,57.31,6.77,82.93,19.59
			c25.61,12.82,48.23,31.71,65.4,54.63l119.04,158.89l-74.94,32.88c-23.62,10.36-48.67,15.61-74.46,15.61H666.66z"/>
	</g>
	<g>
		<g>
			<path class="st4" d="M1023.3,473.54c-7.02,0-12.71-5.69-12.71-12.71v-85.71c0-7.02,5.69-12.71,12.71-12.71
				c7.02,0,12.71,5.69,12.71,12.71v85.71C1036.01,467.85,1030.32,473.54,1023.3,473.54z"/>
		</g>
		<g>
			<path class="st4" d="M1073.05,387.83h-99.51c-7.02,0-12.71-5.69-12.71-12.71c0-7.02,5.69-12.71,12.71-12.71h99.51
				c7.02,0,12.71,5.69,12.71,12.71C1085.76,382.14,1080.07,387.83,1073.05,387.83z"/>
		</g>
		<g>
			<path class="st4" d="M1137.06,517.19l70.23-70.23c12.41-12.41,32.52-12.41,44.93,0l23.97,23.97c12.41,12.41,12.41,32.52,0,44.93
				l-70.24,70.24L1137.06,517.19z"/>
			<path class="st4" d="M832.85,578.31l-62.44-62.44c-12.41-12.41-12.41-32.52,0-44.93l23.97-23.97c12.41-12.41,32.52-12.41,44.93,0
				l62.43,62.43L832.85,578.31z"/>
		</g>
		<circle class="st5" cx="1023.3" cy="699.85" r="262.85"/>
		<circle class="st6" cx="1023.3" cy="699.85" r="185.01"/>
		<g>
			<path class="st7" d="M1036.01,515.27v38.04c0,7.01-5.69,12.71-12.71,12.71c-7.02,0-12.71-5.69-12.71-12.71v-38.04
				c4.2-0.29,8.44-0.43,12.71-0.43S1031.8,514.99,1036.01,515.27z"/>
		</g>
		<g>
			<path class="st7" d="M928.66,605.22c-2.48,2.49-5.73,3.73-8.98,3.73c-3.26,0-6.51-1.24-8.99-3.73l-26.89-26.89
				c5.57-6.39,11.57-12.39,17.97-17.97l26.89,26.89C933.63,592.21,933.63,600.25,928.66,605.22z"/>
		</g>
		<g>
			<path class="st7" d="M889.46,699.85c0,7.02-5.69,12.71-12.71,12.71h-38.04c-0.29-4.2-0.43-8.43-0.43-12.71
				c0-4.27,0.14-8.51,0.43-12.71h38.04C883.77,687.14,889.46,692.83,889.46,699.85z"/>
		</g>
		<g>
			<path class="st7" d="M928.66,812.46l-26.89,26.89c-6.39-5.58-12.4-11.58-17.97-17.97l26.89-26.89c4.96-4.96,13.01-4.96,17.97,0
				C933.63,799.45,933.63,807.5,928.66,812.46z"/>
		</g>
		<g>
			<path class="st7" d="M1036.01,846.39v38.04c-4.2,0.29-8.44,0.43-12.71,0.43s-8.51-0.14-12.71-0.43v-38.04
				c0-7.01,5.69-12.71,12.71-12.71C1030.32,833.68,1036.01,839.38,1036.01,846.39z"/>
		</g>
		<g>
			<path class="st7" d="M1162.79,821.38c-5.57,6.39-11.57,12.39-17.97,17.97l-26.89-26.89c-4.96-4.96-4.96-13.01,0-17.97
				c4.96-4.96,13.01-4.96,17.97,0L1162.79,821.38z"/>
		</g>
		<g>
			<path class="st7" d="M1208.31,699.85c0,4.27-0.14,8.51-0.43,12.71h-38.04c-7.01,0-12.71-5.69-12.71-12.71
				c0-7.02,5.69-12.71,12.71-12.71h38.04C1208.16,691.34,1208.31,695.58,1208.31,699.85z"/>
		</g>
		<g>
			<path class="st7" d="M1162.79,578.32l-26.89,26.89c-2.49,2.49-5.73,3.73-8.99,3.73c-3.25,0-6.5-1.24-8.98-3.73
				c-4.96-4.96-4.96-13.01,0-17.97l26.89-26.89C1151.22,565.93,1157.23,571.94,1162.79,578.32z"/>
		</g>
		<g>
			<path class="st5" d="M1098.89,746.16c-1.72,0-3.48-0.35-5.15-1.1l-75.6-33.6c-4.59-2.04-7.55-6.59-7.55-11.61v-74
				c0-7.02,5.69-12.71,12.71-12.71c7.02,0,12.71,5.69,12.71,12.71v65.74l68.06,30.24c6.41,2.85,9.3,10.36,6.45,16.77
				C1108.41,743.35,1103.76,746.16,1098.89,746.16z"/>
		</g>
	</g>
</g>
</svg>
