<?xml version="1.0" encoding="utf-8"?>
<!-- Generator: Adobe Illustrator 23.0.2, SVG Export Plug-In . SVG Version: 6.00 Build 0)  -->
<svg version="1.1" id="Layer_1" xmlns="http://www.w3.org/2000/svg" xmlns:xlink="http://www.w3.org/1999/xlink" x="0px" y="0px"
	 viewBox="0 0 2048 2048" style="enable-background:new 0 0 2048 2048;" xml:space="preserve">
<style type="text/css">
	.st0{fill:#FFE04E;}
	.st1{fill:#465A65;}
	.st2{fill:#587180;}
	.st3{fill:#9DE4E6;}
	.st4{fill:#E1EFFF;}
	.st5{fill:#35444D;}
	.st6{fill:#A2BCCC;}
</style>
<g>
	<g>
		<path class="st0" d="M1139.32,1591.09h484.72c22.8,0,41.29-18.49,41.29-41.29V781.87c0-22.8-18.49-41.29-41.29-41.29h-484.72
			c-22.8,0-41.29,18.49-41.29,41.29v767.93C1098.03,1572.6,1116.52,1591.09,1139.32,1591.09z"/>
		
			<rect x="1087.73" y="1111.13" transform="matrix(-1.836970e-16 1 -1 -1.836970e-16 2678.8154 -347.1455)" class="st1" width="850.51" height="109.42"/>
	</g>
	<path class="st2" d="M1217.74,539.67c33.09,0,59.91,26.82,59.91,59.91v1132.5c0,33.09-26.82,59.91-59.91,59.91H442.58
		c-33.09,0-59.91-26.82-59.91-59.91V599.58c0-33.09,26.82-59.91,59.91-59.91H1217.74z"/>
	
		<rect x="618.83" y="630.95" transform="matrix(-1.836970e-16 1 -1 -1.836970e-16 1788.7729 128.4564)" class="st3" width="422.66" height="655.34"/>
	<polygon class="st4" points="577.35,647.43 577.35,256 661.61,295.94 745.88,256 830.15,295.94 914.42,256 998.7,295.94 
		1082.97,256 1082.97,647.43 	"/>
	<g>
		<path class="st5" d="M1141.31,663.95H519.01c-9.12,0-16.52-7.39-16.52-16.52c0-9.12,7.39-16.52,16.52-16.52h622.31
			c9.12,0,16.52,7.39,16.52,16.52C1157.83,656.56,1150.43,663.95,1141.31,663.95z"/>
	</g>
	<g>
		<g>
			<g>
				<path class="st5" d="M666.69,1329.44H555.77c-9.12,0-16.52-7.39-16.52-16.52c0-9.12,7.39-16.52,16.52-16.52h110.92
					c9.12,0,16.52,7.39,16.52,16.52C683.21,1322.04,675.82,1329.44,666.69,1329.44z"/>
			</g>
			<g>
				<path class="st5" d="M885.62,1329.44H774.7c-9.12,0-16.52-7.39-16.52-16.52c0-9.12,7.39-16.52,16.52-16.52h110.92
					c9.12,0,16.52,7.39,16.52,16.52C902.14,1322.04,894.74,1329.44,885.62,1329.44z"/>
			</g>
			<g>
				<path class="st5" d="M1104.55,1329.44H993.63c-9.12,0-16.52-7.39-16.52-16.52c0-9.12,7.39-16.52,16.52-16.52h110.92
					c9.12,0,16.52,7.39,16.52,16.52C1121.06,1322.04,1113.67,1329.44,1104.55,1329.44z"/>
			</g>
		</g>
		<g>
			<g>
				<path class="st5" d="M666.69,1441.47H555.77c-9.12,0-16.52-7.39-16.52-16.52c0-9.12,7.39-16.52,16.52-16.52h110.92
					c9.12,0,16.52,7.39,16.52,16.52C683.21,1434.08,675.82,1441.47,666.69,1441.47z"/>
			</g>
			<g>
				<path class="st5" d="M885.62,1441.47H774.7c-9.12,0-16.52-7.39-16.52-16.52c0-9.12,7.39-16.52,16.52-16.52h110.92
					c9.12,0,16.52,7.39,16.52,16.52C902.14,1434.08,894.74,1441.47,885.62,1441.47z"/>
			</g>
			<g>
				<path class="st5" d="M1104.55,1441.47H993.63c-9.12,0-16.52-7.39-16.52-16.52c0-9.12,7.39-16.52,16.52-16.52h110.92
					c9.12,0,16.52,7.39,16.52,16.52C1121.06,1434.08,1113.67,1441.47,1104.55,1441.47z"/>
			</g>
		</g>
		<g>
			<g>
				<path class="st5" d="M666.69,1553.51H555.77c-9.12,0-16.52-7.39-16.52-16.52c0-9.12,7.39-16.52,16.52-16.52h110.92
					c9.12,0,16.52,7.39,16.52,16.52C683.21,1546.11,675.82,1553.51,666.69,1553.51z"/>
			</g>
			<g>
				<path class="st5" d="M885.62,1553.51H774.7c-9.12,0-16.52-7.39-16.52-16.52c0-9.12,7.39-16.52,16.52-16.52h110.92
					c9.12,0,16.52,7.39,16.52,16.52C902.14,1546.11,894.74,1553.51,885.62,1553.51z"/>
			</g>
			<g>
				<path class="st5" d="M1104.55,1553.51H993.63c-9.12,0-16.52-7.39-16.52-16.52c0-9.12,7.39-16.52,16.52-16.52h110.92
					c9.12,0,16.52,7.39,16.52,16.52C1121.06,1546.11,1113.67,1553.51,1104.55,1553.51z"/>
			</g>
		</g>
		<g>
			<g>
				<path class="st5" d="M666.69,1665.54H555.77c-9.12,0-16.52-7.39-16.52-16.52c0-9.12,7.39-16.52,16.52-16.52h110.92
					c9.12,0,16.52,7.39,16.52,16.52C683.21,1658.15,675.82,1665.54,666.69,1665.54z"/>
			</g>
			<g>
				<path class="st5" d="M885.62,1665.54H774.7c-9.12,0-16.52-7.39-16.52-16.52c0-9.12,7.39-16.52,16.52-16.52h110.92
					c9.12,0,16.52,7.39,16.52,16.52C902.14,1658.15,894.74,1665.54,885.62,1665.54z"/>
			</g>
			<g>
				<path class="st5" d="M1104.55,1665.54H993.63c-9.12,0-16.52-7.39-16.52-16.52c0-9.12,7.39-16.52,16.52-16.52h110.92
					c9.12,0,16.52,7.39,16.52,16.52C1121.06,1658.15,1113.67,1665.54,1104.55,1665.54z"/>
			</g>
		</g>
	</g>
	<g>
		<g>
			<path class="st6" d="M975.71,426.45h-291.1c-9.12,0-16.52-7.39-16.52-16.52s7.39-16.52,16.52-16.52h291.1
				c9.12,0,16.52,7.39,16.52,16.52S984.83,426.45,975.71,426.45z"/>
		</g>
		<g>
			<path class="st6" d="M975.71,526.75h-291.1c-9.12,0-16.52-7.39-16.52-16.52s7.39-16.52,16.52-16.52h291.1
				c9.12,0,16.52,7.39,16.52,16.52S984.83,526.75,975.71,526.75z"/>
		</g>
	</g>
</g>
</svg>
