<?xml version="1.0" encoding="utf-8"?>
<!-- Generator: Adobe Illustrator 23.0.2, SVG Export Plug-In . SVG Version: 6.00 Build 0)  -->
<svg version="1.1" id="Layer_1" xmlns="http://www.w3.org/2000/svg" xmlns:xlink="http://www.w3.org/1999/xlink" x="0px" y="0px"
	 viewBox="0 0 2048 2048" style="enable-background:new 0 0 2048 2048;" xml:space="preserve">
<style type="text/css">
	.st0{fill:#E66753;}
	.st1{fill:#FF725C;}
	.st2{fill:#F5F5F5;}
	.st3{fill:#CC5B4A;}
</style>
<g>
	<g>
		<path class="st0" d="M1180.5,588.64V425.74h-313v162.89l-101.18,0.21V393.96c0-38.33,31.07-69.4,69.4-69.4h376.57
			c38.33,0,69.4,31.07,69.4,69.4v194.88L1180.5,588.64z"/>
	</g>
	<path class="st1" d="M1721.24,1723.43H326.76c-39.08,0-70.76-31.68-70.76-70.76V628.64c0-39.08,31.68-70.76,70.76-70.76h1394.48
		c39.08,0,70.76,31.68,70.76,70.76v1024.03C1792,1691.75,1760.32,1723.43,1721.24,1723.43z"/>
	<circle class="st2" cx="1024" cy="1140.66" r="360.82"/>
	<polygon class="st1" points="968.3,1312.91 968.3,1196.36 851.75,1196.36 851.75,1084.96 968.3,1084.96 968.3,968.4 1079.7,968.4 
		1079.7,1084.96 1196.25,1084.96 1196.25,1196.36 1079.7,1196.36 1079.7,1312.91 	"/>
	<path class="st3" d="M1792,630.93v1019.47c0,40.34-32.7,73.04-73.04,73.04h-137.84V557.88h137.84
		C1759.3,557.88,1792,590.58,1792,630.93z"/>
	<path class="st3" d="M466.88,557.88v1165.55H329.04c-40.34,0-73.04-32.7-73.04-73.04V630.93c0-40.34,32.7-73.04,73.04-73.04H466.88
		z"/>
</g>
</svg>
