<?xml version="1.0" encoding="utf-8"?>
<!-- Generator: Adobe Illustrator 23.0.2, SVG Export Plug-In . SVG Version: 6.00 Build 0)  -->
<svg version="1.1" id="Layer_1" xmlns="http://www.w3.org/2000/svg" xmlns:xlink="http://www.w3.org/1999/xlink" x="0px" y="0px"
	 viewBox="0 0 2048 2048" style="enable-background:new 0 0 2048 2048;" xml:space="preserve">
<style type="text/css">
	.st0{fill:#465A65;}
	.st1{fill:#E6CA46;}
	.st2{fill:#FFE04E;}
	.st3{fill:#F5F5F5;}
	.st4{fill:#CCB33E;}
</style>
<g>
	<g>
		<g>
			<path class="st0" d="M568.05,1660.64h-56.34c-33.14,0-60-26.86-60-60v-142.93h176.34v142.93
				C628.05,1633.78,601.19,1660.64,568.05,1660.64z"/>
			<path class="st0" d="M1536.29,1660.64h-56.34c-33.14,0-60-26.86-60-60v-142.93h176.34v142.93
				C1596.29,1633.78,1569.43,1660.64,1536.29,1660.64z"/>
		</g>
		<g>
			<path class="st1" d="M283.21,1089.11c-15.04,0-27.21-12.18-27.21-27.21v-48.47c0-15.03,12.18-27.21,27.21-27.21h96.96
				c10.48,0,20.04,6.03,24.55,15.49l42.42,87.41H283.21z"/>
			<path class="st1" d="M1643.28,1001.7c4.51-9.46,14.06-15.49,24.55-15.49h96.96c15.04,0,27.21,12.19,27.21,27.21v48.47
				c0,15.04-12.18,27.21-27.21,27.21h-162.69L1643.28,1001.7z"/>
		</g>
		<path class="st2" d="M371.8,1144.9l231.01-308.35c42.9-57.26,110.27-90.97,181.82-90.97h478.75c71.55,0,138.92,33.71,181.82,90.97
			l231.01,308.35c14.72,19.65,22.68,43.55,22.68,68.11v234.92c0,40.08-32.49,72.57-72.57,72.57H421.69
			c-40.08,0-72.57-32.49-72.57-72.57v-234.92C349.12,1188.45,357.08,1164.55,371.8,1144.9z"/>
		<path class="st1" d="M1214.22,1376.89H833.78c-14.99,0-28.17-9.93-32.29-24.34l-15.81-55.23c-6.15-21.46,9.97-42.84,32.29-42.84
			h412.08c22.33,0,38.44,21.38,32.29,42.84l-15.81,55.23C1242.39,1366.96,1229.21,1376.89,1214.22,1376.89z"/>
		<path class="st3" d="M1538.17,1367.35l-87.49-4.36c-25.21-1.26-45.01-22.06-45.01-47.31l0,0c0-25.24,19.8-46.05,45.01-47.31
			l87.49-4.36c27.05-1.35,49.72,20.22,49.72,47.31v8.71C1587.89,1347.13,1565.22,1368.7,1538.17,1367.35z"/>
		<path class="st3" d="M509.83,1367.35l87.49-4.36c25.21-1.26,45.01-22.06,45.01-47.31l0,0c0-25.24-19.8-46.05-45.01-47.31
			l-87.49-4.36c-27.05-1.35-49.72,20.22-49.72,47.31v8.71C460.11,1347.13,482.78,1368.7,509.83,1367.35z"/>
		<path class="st0" d="M666.66,1069.03c-25.79,0-50.85-5.25-74.47-15.62l-74.93-32.88L636.3,861.64
			c17.17-22.92,39.79-41.81,65.4-54.63c25.61-12.82,54.29-19.59,82.92-19.59h478.75c28.64,0,57.31,6.77,82.93,19.59
			c25.61,12.82,48.23,31.71,65.4,54.63l119.04,158.89l-74.94,32.88c-23.62,10.36-48.67,15.61-74.46,15.61H666.66z"/>
	</g>
	<circle class="st1" cx="1024" cy="679.68" r="292.32"/>
	<circle class="st2" cx="1024" cy="679.68" r="233.03"/>
	<g>
		<g>
			<path class="st4" d="M1111.75,694.79l-0.15-0.22c-7.07-10.38-18-19.03-32.51-25.72c-9.76-4.43-27.74-9.63-53.44-15.44
				c-30.52-6.9-41.39-12.39-45.13-15.78c-5.09-4.56-7.56-10.22-7.56-17.33c0-8.31,3.65-15.27,11.17-21.29
				c7.74-6.2,20.66-9.35,38.4-9.35c16.97,0,29.82,3.49,38.19,10.36c5.85,4.81,10.06,11.41,12.49,19.61
				c2.58,8.7,10.3,14.54,19.22,14.54c0.52,0,1.04-0.02,1.55-0.06l0.18-0.01c4.57-0.34,8.95-2.1,12.33-5.2
				c5.8-5.33,7.93-13.14,5.88-20.37c-2.08-7.34-5.27-14.31-9.48-20.72c-7.74-11.79-18.91-20.82-33.2-26.84
				c-13.98-5.9-30.28-8.88-48.44-8.88c-16.54,0-31.82,2.85-45.42,8.47c-13.93,5.76-24.71,14.36-32.03,25.58
				c-7.3,11.18-11,23.39-11,36.28c0,11.8,3.06,22.62,9.1,32.17c6,9.5,15.15,17.51,27.19,23.82c9.07,4.81,24.87,9.94,46.96,15.25
				c21.44,5.15,35.45,8.98,41.65,11.39c9,3.43,15.46,7.6,19.18,12.39c3.61,4.64,5.43,10.18,5.43,16.46c0,6.24-1.94,12.09-5.78,17.41
				c-3.88,5.38-10.02,9.73-18.24,12.93c-8.55,3.32-18.62,5-29.92,5c-12.74,0-24.32-2.23-34.43-6.63
				c-9.86-4.29-17.17-9.9-21.73-16.67c-2.87-4.26-5.13-9.37-6.73-15.18c-2.43-8.87-10.5-15.06-19.63-15.06
				c-0.59,0-1.19,0.03-1.77,0.08c-5.86,0.51-11.21,3.54-14.66,8.31c-3.48,4.81-4.69,10.89-3.33,16.68
				c2.24,9.51,6.1,18.49,11.48,26.68c8.76,13.33,20.98,23.45,36.32,30.07c15.07,6.5,33.88,9.79,55.93,9.79
				c17.57,0,33.64-3.28,47.77-9.75c14.34-6.57,25.53-15.95,33.25-27.87c7.72-11.93,11.63-24.84,11.63-38.37
				C1122.46,717.63,1118.86,705.35,1111.75,694.79z"/>
		</g>
		<g>
			<g>
				<path class="st4" d="M1024,839.73c-11.29,0-20.45-9.16-20.45-20.45v-15.01c0-11.29,9.16-20.45,20.45-20.45
					c11.29,0,20.45,9.16,20.45,20.45v15.01C1044.45,830.57,1035.29,839.73,1024,839.73z"/>
			</g>
			<g>
				<path class="st4" d="M1024,575.49c-11.29,0-20.45-9.16-20.45-20.45v-14.95c0-11.29,9.16-20.45,20.45-20.45
					c11.29,0,20.45,9.16,20.45,20.45v14.95C1044.45,566.34,1035.29,575.49,1024,575.49z"/>
			</g>
		</g>
	</g>
</g>
</svg>
