<?xml version="1.0" encoding="utf-8"?>
<!-- Generator: Adobe Illustrator 23.0.2, SVG Export Plug-In . SVG Version: 6.00 Build 0)  -->
<svg version="1.1" id="Layer_1" xmlns="http://www.w3.org/2000/svg" xmlns:xlink="http://www.w3.org/1999/xlink" x="0px" y="0px"
	 viewBox="0 0 2048 2048" style="enable-background:new 0 0 2048 2048;" xml:space="preserve">
<style type="text/css">
	.st0{fill:#D8E5F5;}
	.st1{fill:#FF725C;}
	.st2{fill:#9DE4E6;}
	.st3{fill:#DB6150;}
	.st4{fill:#7AB1B3;}
	.st5{fill:#FFE04E;}
	.st6{fill:#E6CA46;}
	.st7{fill:#465A65;}
	.st8{fill:#F5F5F5;}
</style>
<g>
	<g>
		<g>
			<path class="st0" d="M936.77,1150.56c-4.15,0-8.21-2.09-10.55-5.88c-28.82-46.68-58-126.84-58-189.72V798.42
				c0-36.97-30.08-67.05-67.05-67.05H688.52c-6.84,0-12.39-5.55-12.39-12.39s5.55-12.39,12.39-12.39h112.65
				c50.63,0,91.82,41.19,91.82,91.82v156.53c0,57.65,27.98,134.07,54.3,176.71c3.59,5.82,1.79,13.45-4.03,17.05
				C941.23,1149.96,938.99,1150.56,936.77,1150.56z"/>
		</g>
	</g>
	<rect x="303.43" y="566.51" class="st1" width="465.35" height="823.55"/>
	<rect x="344.72" y="607.79" class="st2" width="382.77" height="283.62"/>
	<rect x="256" y="1390.06" class="st3" width="560.22" height="91.44"/>
	<g>
		<g>
			<path class="st4" d="M661.16,725.02H411.05c-6.84,0-12.39-5.55-12.39-12.39c0-6.84,5.55-12.39,12.39-12.39h250.11
				c6.84,0,12.39,5.55,12.39,12.39C673.55,719.48,668,725.02,661.16,725.02z"/>
		</g>
		<g>
			<path class="st4" d="M661.16,798.96H411.05c-6.84,0-12.39-5.55-12.39-12.39c0-6.84,5.55-12.39,12.39-12.39h250.11
				c6.84,0,12.39,5.55,12.39,12.39C673.55,793.42,668,798.96,661.16,798.96z"/>
		</g>
	</g>
	<g>
		<path class="st5" d="M607.18,1158.65c0,39.25-31.82,71.06-71.06,71.06c-39.25,0-71.06-31.82-71.06-71.06
			c0-60.78,71.06-134.65,71.06-134.65S607.18,1097.87,607.18,1158.65z"/>
	</g>
	<g>
		<path class="st6" d="M1451.61,880.91h-217.17l22.1-55.58c6.24-15.68,21.41-25.98,38.29-25.98h96.39
			c16.88,0,32.05,10.29,38.29,25.98L1451.61,880.91z"/>
		<g>
			<g>
				<g>
					<path class="st7" d="M1022.78,1481.49h-3.67c-31.38,0-56.82-25.44-56.82-56.82v-78.18h117.31v78.18
						C1079.61,1456.05,1054.17,1481.49,1022.78,1481.49z"/>
					<path class="st7" d="M1666.93,1481.49h-3.67c-31.38,0-56.82-25.44-56.82-56.82v-78.18h117.31v78.18
						C1723.75,1456.05,1698.31,1481.49,1666.93,1481.49z"/>
				</g>
				<path class="st5" d="M909.13,1138.39l153.68-205.14c28.54-38.1,73.36-60.52,120.96-60.52h318.5c47.6,0,92.42,22.42,120.96,60.52
					l153.68,205.14c9.8,13.07,15.09,28.97,15.09,45.31v156.28c0,26.66-21.61,48.28-48.28,48.28h-801.4
					c-26.66,0-48.28-21.61-48.28-48.28V1183.7C894.04,1167.36,899.34,1151.46,909.13,1138.39z"/>
				<path class="st6" d="M1469.57,1292.72h-253.1c-9.97,0-18.74-6.61-21.48-16.19l-10.52-36.74c-4.09-14.28,6.63-28.5,21.48-28.5
					h274.14c14.85,0,25.57,14.22,21.48,28.5l-10.52,36.74C1488.31,1286.12,1479.54,1292.72,1469.57,1292.72z"/>
				<path class="st8" d="M1685.09,1286.37l-58.2-2.9c-16.77-0.83-29.94-14.68-29.94-31.47l0,0c0-16.79,13.17-30.64,29.94-31.47
					l58.2-2.9c18-0.9,33.08,13.45,33.08,31.47v5.8C1718.16,1272.92,1703.08,1287.27,1685.09,1286.37z"/>
				<path class="st8" d="M1000.96,1286.37l58.2-2.9c16.77-0.83,29.94-14.68,29.94-31.47l0,0c0-16.79-13.17-30.64-29.94-31.47
					l-58.2-2.9c-18-0.9-33.08,13.45-33.08,31.47v5.8C967.88,1272.92,982.96,1287.27,1000.96,1286.37z"/>
				<path class="st7" d="M1105.3,1087.91c-17.16,0-33.83-3.49-49.54-10.39l-49.85-21.87l79.19-105.71
					c11.42-15.25,26.47-27.82,43.51-36.34c17.04-8.53,36.12-13.03,55.17-13.03h318.5c19.05,0,38.13,4.51,55.17,13.03
					c17.04,8.53,32.08,21.09,43.51,36.34l79.19,105.71l-49.85,21.88c-15.71,6.89-32.38,10.39-49.54,10.39H1105.3z"/>
			</g>
		</g>
	</g>
</g>
</svg>
