<?xml version="1.0" encoding="utf-8"?>
<!-- Generator: Adobe Illustrator 23.0.2, SVG Export Plug-In . SVG Version: 6.00 Build 0)  -->
<svg version="1.1" id="Layer_1" xmlns="http://www.w3.org/2000/svg" xmlns:xlink="http://www.w3.org/1999/xlink" x="0px" y="0px"
	 viewBox="0 0 2048 2048" style="enable-background:new 0 0 2048 2048;" xml:space="preserve">
<style type="text/css">
	.st0{fill:#E1EFFF;}
	.st1{fill:#FF725C;}
	.st2{fill:#CC5B4A;}
	.st3{fill:#465A65;}
	.st4{fill:#A2BCCC;}
</style>
<g>
	<rect x="433.78" y="256" class="st0" width="1180.44" height="1536"/>
	<g>
		<circle class="st1" cx="1024" cy="900.44" r="152.26"/>
		<g>
			<g>
				<g>
					<path class="st2" d="M983.4,875.48c-9.12,0-16.52-7.39-16.52-16.52v-10.49c0-9.12,7.39-16.52,16.52-16.52
						s16.52,7.39,16.52,16.52v10.49C999.91,868.09,992.52,875.48,983.4,875.48z"/>
				</g>
				<g>
					<path class="st2" d="M1064.6,875.48c-9.12,0-16.52-7.39-16.52-16.52v-10.49c0-9.12,7.39-16.52,16.52-16.52
						s16.52,7.39,16.52,16.52v10.49C1081.12,868.09,1073.72,875.48,1064.6,875.48z"/>
				</g>
			</g>
			<g>
				<path class="st2" d="M1077.86,968.92c-3.37,0-6.76-1.03-9.69-3.16c-26.42-19.19-61.92-19.19-88.33,0
					c-7.38,5.36-17.71,3.73-23.07-3.65c-5.36-7.38-3.73-17.71,3.65-23.07c38.03-27.63,89.14-27.63,127.17,0
					c7.38,5.36,9.02,15.69,3.65,23.07C1088,966.56,1082.97,968.92,1077.86,968.92z"/>
			</g>
		</g>
		<g>
			<rect x="771.05" y="427.11" class="st3" width="101.18" height="101.18"/>
			<rect x="872.23" y="528.29" class="st3" width="101.18" height="101.18"/>
			<rect x="973.41" y="427.11" class="st3" width="101.18" height="101.18"/>
			<rect x="1074.59" y="528.29" class="st3" width="101.18" height="101.18"/>
			<rect x="1175.77" y="427.11" class="st3" width="101.18" height="101.18"/>
		</g>
		<g>
			<g>
				<path class="st4" d="M1434.26,1212.86H613.74c-9.12,0-16.52-7.39-16.52-16.52s7.39-16.52,16.52-16.52h820.52
					c9.12,0,16.52,7.39,16.52,16.52S1443.38,1212.86,1434.26,1212.86z"/>
			</g>
			<g>
				<g>
					<path class="st4" d="M1434.26,1484.88h-421.7c-9.12,0-16.52-7.39-16.52-16.52s7.39-16.52,16.52-16.52h421.7
						c9.12,0,16.52,7.39,16.52,16.52S1443.38,1484.88,1434.26,1484.88z"/>
				</g>
			</g>
			<g>
				<g>
					<path class="st4" d="M911.38,1484.88H613.74c-9.12,0-16.52-7.39-16.52-16.52s7.39-16.52,16.52-16.52h297.64
						c9.12,0,16.52,7.39,16.52,16.52S920.5,1484.88,911.38,1484.88z"/>
				</g>
			</g>
			<g>
				<g>
					<path class="st4" d="M1035.44,1348.87h-421.7c-9.12,0-16.52-7.39-16.52-16.52c0-9.12,7.39-16.52,16.52-16.52h421.7
						c9.12,0,16.52,7.39,16.52,16.52C1051.95,1341.48,1044.56,1348.87,1035.44,1348.87z"/>
				</g>
			</g>
			<g>
				<g>
					<path class="st4" d="M1434.26,1348.87h-297.64c-9.12,0-16.52-7.39-16.52-16.52c0-9.12,7.39-16.52,16.52-16.52h297.64
						c9.12,0,16.52,7.39,16.52,16.52C1450.78,1341.48,1443.38,1348.87,1434.26,1348.87z"/>
				</g>
			</g>
			<g>
				<path class="st4" d="M1434.26,1620.89H613.74c-9.12,0-16.52-7.39-16.52-16.52s7.39-16.52,16.52-16.52h820.52
					c9.12,0,16.52,7.39,16.52,16.52S1443.38,1620.89,1434.26,1620.89z"/>
			</g>
		</g>
	</g>
</g>
</svg>
