<?xml version="1.0" encoding="utf-8"?>
<!-- Generator: Adobe Illustrator 23.0.2, SVG Export Plug-In . SVG Version: 6.00 Build 0)  -->
<svg version="1.1" id="Layer_1" xmlns="http://www.w3.org/2000/svg" xmlns:xlink="http://www.w3.org/1999/xlink" x="0px" y="0px"
	 viewBox="0 0 2048 2048" style="enable-background:new 0 0 2048 2048;" xml:space="preserve">
<style type="text/css">
	.st0{fill:#D5E0F5;}
	.st1{fill:#C7D1E6;}
	.st2{fill:#7DC8E6;}
	.st3{fill:#FAFCFF;}
	.st4{fill:#E6CA46;}
	.st5{fill:#465A65;}
	.st6{fill:#FFE04E;}
	.st7{fill:#F5F5F5;}
</style>
<g>
	<g>
		<g>
			<rect x="431.43" y="1030.4" class="st0" width="104.08" height="497.66"/>
		</g>
		<g>
			<rect x="387.08" y="907.77" class="st1" width="192.79" height="151.08"/>
		</g>
		<g>
			<path class="st2" d="M650.95,947.52H316c-33.14,0-60-26.86-60-60V579.94c0-33.14,26.86-60,60-60h334.95c33.14,0,60,26.86,60,60
				v307.58C710.95,920.66,684.08,947.52,650.95,947.52z"/>
		</g>
		<g>
			<g>
				<path class="st3" d="M436.06,861.92c-9.12,0-16.52-7.39-16.52-16.52V622.05c0-9.12,7.39-16.52,16.52-16.52
					c9.12,0,16.52,7.39,16.52,16.52v223.36C452.57,854.53,445.18,861.92,436.06,861.92z"/>
			</g>
			<g>
				<path class="st3" d="M507.17,760.12h-71.11c-9.12,0-16.52-7.39-16.52-16.52V622.05c0-9.12,7.39-16.52,16.52-16.52h71.11
					c39.98,0,72.51,32.53,72.51,72.51v9.57C579.68,727.59,547.15,760.12,507.17,760.12z M452.57,727.09h54.6
					c21.77,0,39.47-17.71,39.47-39.47v-9.57c0-21.77-17.71-39.47-39.47-39.47h-54.6V727.09z"/>
			</g>
		</g>
	</g>
	<g>
		<path class="st4" d="M1384.81,809.62h-259.79l26.44-66.49c7.46-18.76,25.61-31.08,45.8-31.08h115.31
			c20.19,0,38.34,12.31,45.8,31.08L1384.81,809.62z"/>
		<g>
			<g>
				<g>
					<path class="st5" d="M882.99,1528.06H856.3c-31.38,0-56.82-25.44-56.82-56.82v-104.67h140.33v104.67
						C939.81,1502.62,914.37,1528.06,882.99,1528.06z"/>
					<path class="st5" d="M1653.53,1528.06h-26.69c-31.38,0-56.82-25.44-56.82-56.82v-104.67h140.33v104.67
						C1710.36,1502.62,1684.92,1528.06,1653.53,1528.06z"/>
				</g>
				<path class="st6" d="M735.88,1117.62l183.84-245.39c34.14-45.57,87.75-72.4,144.69-72.4h381c56.94,0,110.55,26.82,144.69,72.4
					l183.84,245.39c11.72,15.64,18.05,34.66,18.05,54.2v186.95c0,31.89-25.86,57.75-57.75,57.75H775.58
					c-31.9,0-57.75-25.86-57.75-57.75v-186.95C717.83,1152.28,724.16,1133.26,735.88,1117.62z"/>
				<path class="st4" d="M1406.3,1302.25h-302.77c-11.93,0-22.42-7.9-25.7-19.37l-12.59-43.95c-4.89-17.08,7.93-34.09,25.7-34.09
					h327.94c17.77,0,30.59,17.01,25.7,34.09l-12.59,43.95C1428.71,1294.34,1418.23,1302.25,1406.3,1302.25z"/>
				<path class="st7" d="M1664.11,1294.65l-69.63-3.47c-20.06-1-35.82-17.56-35.82-37.65l0,0c0-20.09,15.75-36.65,35.82-37.65
					l69.63-3.47c21.53-1.07,39.57,16.09,39.57,37.65v6.93C1703.67,1278.56,1685.63,1295.72,1664.11,1294.65z"/>
				<path class="st7" d="M845.73,1294.65l69.63-3.47c20.06-1,35.82-17.56,35.82-37.65l0,0c0-20.09-15.76-36.65-35.82-37.65
					l-69.63-3.47c-21.53-1.07-39.57,16.09-39.57,37.65v6.93C806.16,1278.56,824.2,1295.72,845.73,1294.65z"/>
				<path class="st5" d="M970.54,1057.25c-20.52,0-40.46-4.18-59.26-12.43l-59.63-26.17l94.73-126.45
					c13.67-18.24,31.66-33.28,52.05-43.47c20.38-10.2,43.2-15.59,65.99-15.59h381c22.79,0,45.61,5.39,65.99,15.59
					c20.38,10.2,38.38,25.23,52.04,43.47l94.73,126.45l-59.64,26.17c-18.8,8.24-38.73,12.43-59.26,12.43H970.54z"/>
			</g>
		</g>
	</g>
</g>
</svg>
