<?xml version="1.0" encoding="utf-8"?>
<!-- Generator: Adobe Illustrator 23.0.2, SVG Export Plug-In . SVG Version: 6.00 Build 0)  -->
<svg version="1.1" id="Layer_1" xmlns="http://www.w3.org/2000/svg" xmlns:xlink="http://www.w3.org/1999/xlink" x="0px" y="0px"
	 viewBox="0 0 2048 2048" style="enable-background:new 0 0 2048 2048;" xml:space="preserve">
<style type="text/css">
	.st0{fill:#E6CA46;}
	.st1{fill:#465A65;}
	.st2{fill:#FFE04E;}
	.st3{fill:#F5F5F5;}
	.st4{fill:#FF725C;}
	.st5{fill:#F9C7B2;}
	.st6{fill:#9DE4E6;}
	.st7{fill:#465C66;}
</style>
<g>
	<g>
		<path class="st0" d="M1187.22,633.92H860.78L894,550.37c9.38-23.58,32.18-39.05,57.55-39.05h144.89
			c25.37,0,48.18,15.47,57.55,39.05L1187.22,633.92z"/>
		<g>
			<g>
				<g>
					<path class="st1" d="M568.05,1536.68h-56.34c-33.14,0-60-26.86-60-60v-142.93h176.34v142.93
						C628.05,1509.82,601.19,1536.68,568.05,1536.68z"/>
					<path class="st1" d="M1536.29,1536.68h-56.34c-33.14,0-60-26.86-60-60v-142.93h176.34v142.93
						C1596.29,1509.82,1569.43,1536.68,1536.29,1536.68z"/>
				</g>
				<g>
					<path class="st0" d="M283.21,965.15c-15.04,0-27.21-12.18-27.21-27.21v-48.47c0-15.03,12.18-27.21,27.21-27.21h96.96
						c10.48,0,20.04,6.03,24.55,15.49l42.42,87.41H283.21z"/>
					<path class="st0" d="M1643.28,877.74c4.51-9.46,14.06-15.49,24.55-15.49h96.96c15.04,0,27.21,12.19,27.21,27.21v48.47
						c0,15.04-12.18,27.21-27.21,27.21h-162.69L1643.28,877.74z"/>
				</g>
				<path class="st2" d="M371.8,1020.94l231.01-308.35c42.9-57.26,110.27-90.97,181.82-90.97h478.75
					c71.55,0,138.92,33.71,181.82,90.97l231.01,308.35c14.72,19.65,22.68,43.55,22.68,68.11v234.92c0,40.08-32.49,72.57-72.57,72.57
					H421.69c-40.08,0-72.57-32.49-72.57-72.57v-234.92C349.12,1064.49,357.08,1040.59,371.8,1020.94z"/>
				<path class="st0" d="M1214.22,1252.93H833.78c-14.99,0-28.17-9.93-32.29-24.34l-15.81-55.23c-6.15-21.46,9.97-42.84,32.29-42.84
					h412.08c22.33,0,38.44,21.38,32.29,42.84l-15.81,55.23C1242.39,1243,1229.21,1252.93,1214.22,1252.93z"/>
				<path class="st3" d="M1538.17,1243.39l-87.49-4.36c-25.21-1.26-45.01-22.06-45.01-47.31l0,0c0-25.24,19.8-46.05,45.01-47.31
					l87.49-4.36c27.05-1.35,49.72,20.22,49.72,47.31v8.71C1587.89,1223.17,1565.22,1244.74,1538.17,1243.39z"/>
				<path class="st3" d="M509.83,1243.39l87.49-4.36c25.21-1.26,45.01-22.06,45.01-47.31l0,0c0-25.24-19.8-46.05-45.01-47.31
					l-87.49-4.36c-27.05-1.35-49.72,20.22-49.72,47.31v8.71C460.11,1223.17,482.78,1244.74,509.83,1243.39z"/>
				<path class="st1" d="M666.66,945.07c-25.79,0-50.85-5.25-74.47-15.62l-74.93-32.88L636.3,737.68
					c17.17-22.92,39.79-41.81,65.4-54.63c25.61-12.82,54.29-19.59,82.92-19.59h478.75c28.64,0,57.31,6.77,82.93,19.59
					c25.61,12.82,48.23,31.71,65.4,54.63l119.04,158.89l-74.94,32.88c-23.62,10.36-48.67,15.61-74.46,15.61H666.66z"/>
			</g>
		</g>
	</g>
	<g>
		<g>
			<path class="st4" d="M933.89,925.1v19.97H715.39V925.1c0-42.97,32.83-78.29,74.78-82.21c2.57-0.25,5.17-0.37,7.8-0.37h53.35
				c2.63,0,5.24,0.12,7.81,0.37C901.08,846.82,933.89,882.13,933.89,925.1z"/>
			<circle class="st5" cx="824.64" cy="788.13" r="64.71"/>
		</g>
		<g>
			<path class="st6" d="M1332.61,925.1v19.97h-218.51V925.1c0-42.97,32.82-78.28,74.77-82.21c2.57-0.25,5.18-0.37,7.81-0.37h53.35
				c2.63,0,5.23,0.12,7.8,0.37C1299.79,846.81,1332.61,882.13,1332.61,925.1z"/>
			<circle class="st5" cx="1223.36" cy="788.13" r="64.71"/>
		</g>
		<g>
			<path class="st7" d="M824.64,887.45c-34.57,0-63.35,24.82-69.48,57.62h13.07c0.55-2.38,1.25-4.71,2.07-6.96
				c0.15-0.42,0.31-0.83,0.48-1.25c8.47-21.45,29.39-36.63,53.87-36.63c24.48,0,45.4,15.18,53.87,36.63
				c0.16,0.42,0.32,0.83,0.48,1.25c0.83,2.25,1.52,4.58,2.07,6.96h13.07C887.99,912.27,859.21,887.45,824.64,887.45z"/>
		</g>
	</g>
</g>
</svg>
