<?xml version="1.0" encoding="utf-8"?>
<!-- Generator: Adobe Illustrator 23.0.2, SVG Export Plug-In . SVG Version: 6.00 Build 0)  -->
<svg version="1.1" id="Layer_1" xmlns="http://www.w3.org/2000/svg" xmlns:xlink="http://www.w3.org/1999/xlink" x="0px" y="0px"
	 viewBox="0 0 2048 2048" style="enable-background:new 0 0 2048 2048;" xml:space="preserve">
<style type="text/css">
	.st0{fill:#D5E0F5;}
	.st1{fill:#E6CA46;}
	.st2{fill:#465A65;}
	.st3{fill:#FFE04E;}
	.st4{fill:#F5F5F5;}
</style>
<g>
	<g>
		<path class="st0" d="M853.2,544.4c-22,46.64-69.46,78.92-124.46,78.92c-55,0-102.46-32.28-124.46-78.92l124.46-10.22v-96.82
			l-124.46-10.22c22-46.64,69.46-78.92,124.46-78.92c55,0,102.46,32.28,124.46,78.92h341.6c22-46.64,69.46-78.92,124.46-78.92
			c55,0,102.46,32.28,124.46,78.92l-124.46,10.22v96.82l124.46,10.22c-22,46.64-69.46,78.92-124.46,78.92
			c-55,0-102.46-32.28-124.46-78.92H853.2z"/>
	</g>
	<g>
		<path class="st1" d="M1187.22,797.02H860.78L894,713.47c9.38-23.58,32.18-39.05,57.55-39.05h144.89
			c25.37,0,48.18,15.47,57.55,39.05L1187.22,797.02z"/>
		<g>
			<g>
				<g>
					<path class="st2" d="M568.05,1699.78h-56.34c-33.14,0-60-26.86-60-60v-142.93h176.34v142.93
						C628.05,1672.92,601.19,1699.78,568.05,1699.78z"/>
					<path class="st2" d="M1536.29,1699.78h-56.34c-33.14,0-60-26.86-60-60v-142.93h176.34v142.93
						C1596.29,1672.92,1569.43,1699.78,1536.29,1699.78z"/>
				</g>
				<g>
					<path class="st1" d="M283.21,1128.25c-15.04,0-27.21-12.18-27.21-27.21v-48.47c0-15.03,12.18-27.21,27.21-27.21h96.96
						c10.48,0,20.04,6.03,24.55,15.49l42.42,87.41H283.21z"/>
					<path class="st1" d="M1643.28,1040.84c4.51-9.46,14.06-15.49,24.55-15.49h96.96c15.04,0,27.21,12.19,27.21,27.21v48.47
						c0,15.04-12.18,27.21-27.21,27.21h-162.69L1643.28,1040.84z"/>
				</g>
				<path class="st3" d="M371.8,1184.04l231.01-308.35c42.9-57.26,110.27-90.97,181.82-90.97h478.75
					c71.55,0,138.92,33.71,181.82,90.97l231.01,308.35c14.72,19.65,22.68,43.55,22.68,68.11v234.92c0,40.08-32.49,72.57-72.57,72.57
					H421.69c-40.08,0-72.57-32.49-72.57-72.57v-234.92C349.12,1227.59,357.08,1203.69,371.8,1184.04z"/>
				<path class="st1" d="M1214.22,1416.03H833.78c-14.99,0-28.17-9.93-32.29-24.34l-15.81-55.23c-6.15-21.46,9.97-42.84,32.29-42.84
					h412.08c22.33,0,38.44,21.38,32.29,42.84l-15.81,55.23C1242.39,1406.1,1229.21,1416.03,1214.22,1416.03z"/>
				<path class="st4" d="M1538.17,1406.49l-87.49-4.36c-25.21-1.26-45.01-22.06-45.01-47.31l0,0c0-25.24,19.8-46.05,45.01-47.31
					l87.49-4.36c27.05-1.35,49.72,20.22,49.72,47.31v8.71C1587.89,1386.27,1565.22,1407.84,1538.17,1406.49z"/>
				<path class="st4" d="M509.83,1406.49l87.49-4.36c25.21-1.26,45.01-22.06,45.01-47.31l0,0c0-25.24-19.8-46.05-45.01-47.31
					l-87.49-4.36c-27.05-1.35-49.72,20.22-49.72,47.31v8.71C460.11,1386.27,482.78,1407.84,509.83,1406.49z"/>
				<path class="st2" d="M666.66,1108.17c-25.79,0-50.85-5.25-74.47-15.62l-74.93-32.88L636.3,900.78
					c17.17-22.92,39.79-41.81,65.4-54.63c25.61-12.82,54.29-19.59,82.92-19.59h478.75c28.64,0,57.31,6.77,82.93,19.59
					c25.61,12.82,48.23,31.71,65.4,54.63l119.04,158.89l-74.94,32.88c-23.62,10.36-48.67,15.61-74.46,15.61H666.66z"/>
			</g>
		</g>
	</g>
</g>
</svg>
