<?xml version="1.0" encoding="utf-8"?>
<!-- Generator: Adobe Illustrator 23.0.2, SVG Export Plug-In . SVG Version: 6.00 Build 0)  -->
<svg version="1.1" id="Layer_1" xmlns="http://www.w3.org/2000/svg" xmlns:xlink="http://www.w3.org/1999/xlink" x="0px" y="0px"
	 viewBox="0 0 2048 2048" style="enable-background:new 0 0 2048 2048;" xml:space="preserve">
<style type="text/css">
	.st0{fill:#5B7980;}
	.st1{fill:#B3E4FF;}
	.st2{fill:#DFEBFA;}
	.st3{fill:#37494D;}
	.st4{fill:#76E6D5;}
	.st5{fill:#F7E07F;}
	.st6{fill:#FF9180;}
	.st7{fill:#FF725C;}
	.st8{fill:#72C5FF;}
</style>
<g>
	<path class="st0" d="M1712,1568.18H336c-44.18,0-80-35.82-80-80V559.82c0-44.18,35.82-80,80-80h1376c44.18,0,80,35.82,80,80v928.37
		C1792,1532.37,1756.18,1568.18,1712,1568.18z"/>
	<g>
		
			<rect x="1294.77" y="460.25" transform="matrix(-1.836970e-16 1 -1 -1.836970e-16 2131.2458 -682.0616)" class="st1" width="223.76" height="528.69"/>
		<g>
			<g>
				
					<rect x="1142.31" y="963.47" transform="matrix(-1.836970e-16 1 -1 -1.836970e-16 2209.3887 -178.8427)" class="st2" width="103.61" height="103.61"/>
				
					<rect x="1354.85" y="963.47" transform="matrix(-1.836970e-16 1 -1 -1.836970e-16 2421.9268 -391.3807)" class="st2" width="103.61" height="103.61"/>
				
					<rect x="1567.39" y="963.47" transform="matrix(-1.836970e-16 1 -1 -1.836970e-16 2634.4648 -603.9188)" class="st2" width="103.61" height="103.61"/>
			</g>
			<g>
				
					<rect x="1142.31" y="1155.83" transform="matrix(-1.836970e-16 1 -1 -1.836970e-16 2401.751 13.5195)" class="st2" width="103.61" height="103.61"/>
				
					<rect x="1354.85" y="1155.83" transform="matrix(-1.836970e-16 1 -1 -1.836970e-16 2614.2888 -199.0186)" class="st2" width="103.61" height="103.61"/>
				
					<rect x="1567.39" y="1155.83" transform="matrix(-1.836970e-16 1 -1 -1.836970e-16 2826.8269 -411.5567)" class="st2" width="103.61" height="103.61"/>
			</g>
			<g>
				
					<rect x="1142.31" y="1348.19" transform="matrix(-1.836970e-16 1 -1 -1.836970e-16 2594.113 205.8816)" class="st2" width="103.61" height="103.61"/>
				
					<rect x="1354.85" y="1348.19" transform="matrix(-1.836970e-16 1 -1 -1.836970e-16 2806.6511 -6.6565)" class="st2" width="103.61" height="103.61"/>
				
					<rect x="1567.39" y="1348.19" transform="matrix(-1.836970e-16 1 -1 -1.836970e-16 3019.1892 -219.1945)" class="st2" width="103.61" height="103.61"/>
			</g>
		</g>
		<g>
			<g>
				<path class="st3" d="M974.2,1451.8H393.52c-9.12,0-16.52-7.39-16.52-16.52s7.39-16.52,16.52-16.52H974.2
					c9.12,0,16.52,7.39,16.52,16.52S983.32,1451.8,974.2,1451.8z"/>
			</g>
			<g>
				<path class="st3" d="M974.2,1348.19H393.52c-9.12,0-16.52-7.39-16.52-16.52c0-9.12,7.39-16.52,16.52-16.52H974.2
					c9.12,0,16.52,7.39,16.52,16.52C990.71,1340.8,983.32,1348.19,974.2,1348.19z"/>
			</g>
		</g>
		<g>
			<circle class="st4" cx="455.03" cy="1186.98" r="61.51"/>
			<circle class="st5" cx="683.86" cy="1186.98" r="61.51"/>
			<circle class="st6" cx="912.69" cy="1186.98" r="61.51"/>
		</g>
		<g>
			<rect x="590.58" y="859.54" class="st7" width="186.55" height="166.17"/>
			<polygon class="st2" points="839.25,760.37 839.25,1025.71 729.96,1025.71 729.96,886.36 637.75,886.36 637.75,1025.71 
				528.47,1025.71 528.47,760.37 683.86,612.72 			"/>
			<g>
				<path class="st7" d="M906.24,840.54c-4.09,0-8.18-1.51-11.37-4.54L683.86,635.5L472.85,836c-6.61,6.28-17.07,6.02-23.35-0.6
					c-6.28-6.61-6.02-17.07,0.6-23.35l222.38-211.32c6.38-6.06,16.38-6.06,22.75,0l222.38,211.32c6.61,6.28,6.88,16.74,0.6,23.35
					C914.97,838.82,910.61,840.54,906.24,840.54z"/>
			</g>
			<circle class="st8" cx="683.86" cy="769.61" r="34.93"/>
		</g>
	</g>
</g>
</svg>
