<?xml version="1.0" encoding="utf-8"?>
<!-- Generator: Adobe Illustrator 23.0.2, SVG Export Plug-In . SVG Version: 6.00 Build 0)  -->
<svg version="1.1" id="Layer_1" xmlns="http://www.w3.org/2000/svg" xmlns:xlink="http://www.w3.org/1999/xlink" x="0px" y="0px"
	 viewBox="0 0 2048 2048" style="enable-background:new 0 0 2048 2048;" xml:space="preserve">
<style type="text/css">
	.st0{fill:#66B2E6;}
	.st1{fill:#E2F0FF;}
	.st2{fill:#C6D1E0;}
	.st3{fill:#8AD0FF;}
	.st4{fill:#C0EBE0;}
	.st5{fill:#6EE6CC;}
	.st6{fill:#CDFAF0;}
	.st7{fill:#FFD782;}
	.st8{fill:#7BCAFF;}
	.st9{fill:#72B6E6;}
	.st10{fill:#FF725C;}
	.st11{fill:#333333;}
</style>
<g>
	<g>
		<g>
			<g>
				<g>
					<g id="XMLID_1_">
						<path class="st0" d="M722.86,1577.34c37.34,0,67.6,30.27,67.6,67.61c0,37.33-30.26,67.6-67.6,67.6
							c-37.34,0-67.61-30.27-67.61-67.6C655.25,1607.61,685.52,1577.34,722.86,1577.34z"/>
						<path class="st0" d="M1407.31,1577.34c37.34,0,67.61,30.27,67.61,67.61c0,37.33-30.27,67.6-67.61,67.6
							c-37.33,0-67.6-30.27-67.6-67.6C1339.71,1607.61,1369.98,1577.34,1407.31,1577.34z"/>
						
							<rect x="1571.01" y="364.23" transform="matrix(0.4554 -0.8903 0.8903 0.4554 512.7245 1686.2765)" class="st1" width="127.5" height="119.58"/>
						<path class="st2" d="M1689.16,523.46l-48.6,94.99c-20.57-23.45-45.84-43.47-75.3-58.55c-29.47-15.07-60.49-23.84-91.55-26.8
							v-0.01l48.6-94.99l30.19,15.45l106.46,54.46L1689.16,523.46z"/>
						<path class="st3" d="M1651.01,631.18v7h-183.6h-44.38v-86.97l-12.67-16.15l0.09-0.07c20.78-3.24,42.03-3.93,63.26-1.89
							c31.06,2.96,62.08,11.73,91.55,26.8c29.46,15.08,54.73,35.1,75.3,58.55C1644.19,622.59,1647.68,626.84,1651.01,631.18z"/>
						<polygon class="st4" points="1423.03,551.21 1423.03,638.18 1209.14,638.18 1209.14,551.21 1316.09,414.89 1410.36,535.06 
													"/>
						<rect x="1052.43" y="335.45" class="st5" width="263.66" height="79.44"/>
						<polygon class="st6" points="1316.09,414.89 1209.14,551.21 945.64,551.02 1052.43,414.89 						"/>
						<polygon class="st5" points="1209.14,551.21 1209.14,638.18 1117.43,638.18 945.49,638.18 945.49,551.21 945.64,551.02 						
							"/>
						<path class="st7" d="M938.53,631.18v7H767.44h-182.9v-7c18.87-30.96,45.74-56.88,78.28-74.49
							c20.33-11.01,42.87-18.78,67.06-22.52c24.19-3.73,48.02-3.13,70.73,1.24c30.47,5.85,58.9,18.47,83.39,36.43
							C905.7,587.76,924.31,607.87,938.53,631.18z"/>
						<polygon class="st8" points="816.26,335.45 823.82,431.23 785.43,437.16 647.63,458.44 609.25,464.37 587.56,370.77 						"/>
						<path class="st9" d="M785.43,437.16l15.18,98.25c-22.71-4.37-46.54-4.97-70.73-1.24c-24.19,3.74-46.73,11.51-67.06,22.52
							l-0.01-0.01l-15.18-98.24L785.43,437.16z"/>
						<path class="st10" d="M466.85,638.18H1768l-167.49,722.23H592.98c-0.17,0-0.35,0-0.52,0.01v-0.01L466.85,638.18z"/>
					</g>
				</g>
			</g>
		</g>
	</g>
	<g>
		<g>
			<g>
				<path class="st11" d="M584.52,655.18c-4.26,0-8.57-1.13-12.47-3.51c-11.32-6.9-14.9-21.66-8.01-32.98
					c35.56-58.36,94.67-97.81,162.17-108.24c26.39-4.08,52.94-3.61,78.93,1.39c33.33,6.4,65.51,20.45,93.05,40.64
					c24.57,18.03,45.03,40.3,60.83,66.2c6.9,11.32,3.32,26.08-8,32.99s-26.09,3.32-32.99-8c-12.52-20.53-28.75-38.19-48.23-52.49
					c-21.83-16-47.33-27.14-73.73-32.21c-20.57-3.95-41.61-4.32-62.54-1.09c-53.48,8.26-100.32,39.52-128.5,85.78
					C600.51,651.09,592.61,655.18,584.52,655.18z"/>
			</g>
			<g>
				<path class="st11" d="M662.78,580.69c-11.64,0-21.86-8.48-23.69-20.34l-15.17-98.24c-2.02-13.1,6.96-25.36,20.06-27.38
					l137.8-21.28c6.29-0.97,12.71,0.6,17.84,4.36c5.14,3.76,8.57,9.41,9.54,15.7l15.18,98.26c2.02,13.1-6.96,25.36-20.06,27.38
					c-13.1,2.02-25.36-6.96-27.38-20.06l-11.51-74.54l-90.36,13.96l11.51,74.52c2.02,13.1-6.96,25.36-20.06,27.38
					C665.23,580.59,663.99,580.69,662.78,580.69z"/>
			</g>
			<g>
				<path class="st11" d="M609.22,488.37c-10.99,0-20.8-7.57-23.36-18.58l-21.69-93.6c-1.51-6.5-0.24-13.34,3.5-18.87
					c3.74-5.53,9.62-9.25,16.21-10.27l228.7-35.32c6.6-1.02,13.32,0.76,18.56,4.9c5.23,4.14,8.51,10.28,9.03,16.93l7.56,95.78
					c0.99,12.52-7.85,23.69-20.26,25.61l-214.57,33.14C611.67,488.28,610.44,488.37,609.22,488.37z M616.77,390.54l10.82,46.71
					l170.54-26.34l-3.77-47.8L616.77,390.54z"/>
			</g>
			<g>
				<path class="st11" d="M931.73,425.21c-6.96,0-13.86-3.01-18.6-8.82l-16.78-20.55l-69.11,10.67
					c-13.1,2.03-25.36-6.96-27.38-20.06s6.96-25.36,20.06-27.38l82.68-12.77c8.41-1.3,16.87,1.95,22.25,8.54l25.46,31.18
					c8.38,10.27,6.86,25.39-3.41,33.77C942.44,423.43,937.07,425.2,931.73,425.21z"/>
			</g>
		</g>
		<g>
			<g>
				<g>
					<path class="st11" d="M945.49,655.18c-13.25,0-24-10.75-24-24v-80.16c0-13.25,10.75-24,24-24h0.15l263.52,0.19
						c13.25,0.01,23.99,10.76,23.98,24.02c-0.01,13.25-10.75,23.98-24,23.98c-0.01,0-0.01,0-0.02,0l-239.63-0.17v56.14
						C969.49,644.43,958.75,655.18,945.49,655.18z"/>
				</g>
				<g>
					<path class="st11" d="M1423.03,655.18c-13.25,0-24-10.75-24-24V559.5l-82.94-105.73l-82.95,105.73v71.68
						c0,13.25-10.75,24-24,24s-24-10.75-24-24v-79.97c0-5.37,1.8-10.59,5.12-14.81l106.95-136.32c4.55-5.8,11.51-9.19,18.88-9.19
						l0,0c7.37,0,14.33,3.39,18.88,9.19l106.94,136.32c3.32,4.23,5.12,9.44,5.12,14.81v79.97
						C1447.03,644.43,1436.29,655.18,1423.03,655.18z"/>
				</g>
				<g>
					<path class="st11" d="M945.48,575.21c-5.24,0-10.52-1.71-14.94-5.23c-10.37-8.26-12.07-23.36-3.81-33.73l0.1-0.12
						l101.61-129.53v-71.16c0-13.25,10.75-24,24-24h263.66c13.25,0,24,10.75,24,24v79.45c0,13.25-10.75,24-24,24h-251.98
						l-99.58,126.94c-0.04,0.05-0.08,0.1-0.11,0.14l-0.15,0.19C959.52,572.12,952.53,575.21,945.48,575.21z M1076.43,390.89h215.66
						v-31.45h-215.66V390.89z"/>
				</g>
			</g>
		</g>
		<g>
			<g>
				<path class="st11" d="M1651.03,655.18c-7.2,0-14.33-3.23-19.05-9.38c-20.81-27.1-46.94-48.81-77.65-64.53
					c-26.11-13.36-54-21.53-82.9-24.28c-19.05-1.82-38.32-1.25-57.27,1.72c-13.1,2.04-25.37-6.91-27.42-20.01
					c-2.04-13.1,6.91-25.37,20.01-27.42c22.92-3.58,46.21-4.28,69.25-2.07c34.95,3.33,68.67,13.2,100.2,29.33
					c37.1,18.98,68.68,45.23,93.86,78.02c8.07,10.51,6.09,25.58-4.42,33.65C1661.27,653.56,1656.13,655.18,1651.03,655.18z"/>
			</g>
			<g>
				<path class="st11" d="M1640.54,642.45c-3.68,0-7.41-0.85-10.91-2.64c-11.8-6.04-16.47-20.5-10.44-32.3l37.66-73.62l-124.12-63.5
					l-37.66,73.62c-6.04,11.8-20.5,16.47-32.3,10.44c-11.8-6.04-16.47-20.5-10.44-32.3l48.59-94.99c2.9-5.67,7.93-9.95,13.99-11.91
					c6.06-1.96,12.64-1.43,18.31,1.47l166.85,85.36c11.8,6.04,16.47,20.5,10.44,32.3l-48.59,94.99
					C1657.68,637.68,1649.27,642.45,1640.54,642.45z"/>
			</g>
			<g>
				<path class="st11" d="M1658.94,532.01c-3.68,0-7.41-0.85-10.91-2.64l-106.46-54.46c-5.67-2.9-9.95-7.93-11.91-13.99
					c-1.96-6.06-1.43-12.64,1.47-18.31l58.07-113.51c2.9-5.67,7.93-9.95,13.99-11.91c6.06-1.96,12.64-1.43,18.31,1.47l106.46,54.46
					c5.67,2.9,9.95,7.93,11.91,13.99c1.96,6.06,1.43,12.64-1.47,18.31l-58.07,113.51C1676.08,527.24,1667.66,532.01,1658.94,532.01z
					 M1584.8,443.11l63.72,32.6l36.21-70.78l-63.72-32.6L1584.8,443.11z"/>
			</g>
		</g>
		<g>
			<g>
				<g>
					<g>
						<path class="st11" d="M592.44,1384.42c-11.45,0-21.59-8.22-23.62-19.89L416.04,486.13H280c-13.25,0-24-10.75-24-24
							s10.75-24,24-24h156.23c11.67,0,21.65,8.39,23.65,19.89l156.23,898.28c2.27,13.06-6.47,25.49-19.53,27.76
							C595.19,1384.3,593.8,1384.42,592.44,1384.42z"/>
					</g>
				</g>
			</g>
			<g>
				<path class="st11" d="M1600.51,1511.05H592.97c-48.15,0-87.32-39.17-87.32-87.32c0-48.15,39.17-87.32,87.32-87.32h988.47
					l156.35-674.23H466.85c-13.25,0-24-10.75-24-24s10.75-24,24-24H1768c7.32,0,14.24,3.34,18.79,9.07
					c4.55,5.73,6.24,13.22,4.59,20.35l-167.49,722.23c-2.52,10.88-12.21,18.58-23.38,18.58H592.97c-21.68,0-39.32,17.64-39.32,39.32
					c0,21.68,17.64,39.32,39.32,39.32h1007.54c13.25,0,24,10.75,24,24S1613.77,1511.05,1600.51,1511.05z"/>
			</g>
			<g>
				<g>
					<path class="st11" d="M722.86,1736.55c-50.51,0-91.61-41.09-91.61-91.61c0-50.51,41.09-91.61,91.61-91.61
						c50.51,0,91.61,41.09,91.61,91.61C814.46,1695.46,773.37,1736.55,722.86,1736.55z M722.86,1601.34
						c-24.05,0-43.61,19.56-43.61,43.61s19.56,43.61,43.61,43.61c24.04,0,43.61-19.56,43.61-43.61S746.9,1601.34,722.86,1601.34z"/>
				</g>
				<g>
					<path class="st11" d="M1407.31,1736.55c-50.51,0-91.61-41.09-91.61-91.61c0-50.51,41.09-91.61,91.61-91.61
						s91.61,41.09,91.61,91.61C1498.92,1695.46,1457.83,1736.55,1407.31,1736.55z M1407.31,1601.34
						c-24.04,0-43.61,19.56-43.61,43.61s19.56,43.61,43.61,43.61s43.61-19.56,43.61-43.61S1431.36,1601.34,1407.31,1601.34z"/>
				</g>
			</g>
			<g>
				<g>
					<path class="st11" d="M1725,847.62H499.1c-13.25,0-24-10.75-24-24s10.75-24,24-24H1725c13.25,0,24,10.75,24,24
						S1738.25,847.62,1725,847.62z"/>
				</g>
				<g>
					<path class="st11" d="M1684.25,1023.3H529.66c-13.25,0-24-10.75-24-24s10.75-24,24-24h1154.59c13.25,0,24,10.75,24,24
						S1697.5,1023.3,1684.25,1023.3z"/>
				</g>
				<g>
					<path class="st11" d="M1643.51,1198.98H560.21c-13.25,0-24-10.75-24-24s10.75-24,24-24h1083.3c13.25,0,24,10.75,24,24
						S1656.76,1198.98,1643.51,1198.98z"/>
				</g>
			</g>
			<g>
				<path class="st11" d="M1117.43,1384.41c-13.25,0-24-10.75-24-24V638.18c0-13.25,10.75-24,24-24s24,10.75,24,24v722.23
					C1141.43,1373.67,1130.68,1384.41,1117.43,1384.41z"/>
			</g>
			<g>
				<g>
					<g>
						<path class="st11" d="M1354.88,1384.41c-1.23,0-2.47-0.09-3.73-0.29c-13.1-2.04-22.06-14.31-20.02-27.41l112.56-722.23
							c2.04-13.1,14.3-22.06,27.41-20.02c13.1,2.04,22.06,14.31,20.02,27.41l-112.56,722.23
							C1376.72,1375.95,1366.5,1384.41,1354.88,1384.41z"/>
					</g>
				</g>
				<g>
					<g>
						<path class="st11" d="M879.97,1384.41c-11.62,0-21.84-8.46-23.68-20.31L743.73,641.88c-2.04-13.1,6.92-25.37,20.02-27.41
							c13.1-2.04,25.37,6.92,27.41,20.02l112.56,722.23c2.04,13.1-6.92,25.37-20.02,27.41
							C882.44,1384.32,881.2,1384.41,879.97,1384.41z"/>
					</g>
				</g>
			</g>
		</g>
	</g>
</g>
</svg>
