<?xml version="1.0" encoding="utf-8"?>
<!-- Generator: Adobe Illustrator 23.0.2, SVG Export Plug-In . SVG Version: 6.00 Build 0)  -->
<svg version="1.1" id="Layer_1" xmlns="http://www.w3.org/2000/svg" xmlns:xlink="http://www.w3.org/1999/xlink" x="0px" y="0px"
	 viewBox="0 0 2048 2048" style="enable-background:new 0 0 2048 2048;" xml:space="preserve">
<style type="text/css">
	.st0{fill:#4F8AB3;}
	.st1{fill:#E66753;}
	.st2{fill:#E6D076;}
	.st3{fill:#FFE783;}
	.st4{fill:#66B2E6;}
	.st5{fill:#FF725C;}
	.st6{fill:#333333;}
</style>
<g>
	<g>
		<g>
			<g id="XMLID_1_">
				<path class="st0" d="M1443.49,1428.85h279.59c0,77.21-62.6,139.8-139.8,139.8C1506.08,1568.65,1443.49,1506.06,1443.49,1428.85z
					"/>
				<path class="st0" d="M539.16,1428.86h279.59c-0.01,77.21-62.59,139.79-139.8,139.79
					C601.75,1568.65,539.17,1506.07,539.16,1428.86z"/>
				<path class="st1" d="M1768,1428.85h-44.92h-279.59h-86.45l240.38-240.39h0.01C1696.76,1223.17,1768,1317.69,1768,1428.85z"/>
				<path class="st2" d="M757.6,548.91v41.85H280v-41.85c0-38.02,30.82-68.85,68.84-68.85h339.92
					C726.78,480.06,757.6,510.89,757.6,548.91z"/>
				<path class="st3" d="M1631.04,514.64c7.91,7.91,12.8,18.84,12.8,30.9c0,24.14-19.56,43.7-43.7,43.7h-45.77v-87.4h45.77
					C1612.21,501.84,1623.14,506.73,1631.04,514.64z"/>
				<path class="st1" d="M1554.37,589.24v22.5h-103.32h-119.8h-9.26c-36.56,0-66.2-29.64-66.2-66.2c0-18.28,7.41-34.82,19.39-46.8
					c11.98-11.98,28.53-19.39,46.81-19.39h232.38v22.49V589.24z"/>
				<path class="st3" d="M361.96,1149.43h64.68c-18.11,37.79-28.25,80.13-28.25,124.83h-45.2c-21.69,0-38.7-18.66-36.67-40.26
					c1.86-19.69,5.11-38.75,9.78-56.96C330.47,1160.77,345.17,1149.43,361.96,1149.43z"/>
				<path class="st4" d="M654.88,836.45H382.72c0-75.15,60.93-136.08,136.08-136.08C593.96,700.37,654.88,761.3,654.88,836.45z"/>
				<path class="st3" d="M654.88,836.45c0-75.15-60.92-136.08-136.08-136.08c-75.15,0-136.08,60.93-136.08,136.08H654.88z
					 M757.6,819.14v97.12H612.44H280v-325.5h477.6V819.14z"/>
				<path class="st0" d="M1057.62,916.26h-59.47H757.6v-97.12h202.89c26.82,0,51.1,10.87,68.68,28.44
					C1046.75,865.16,1057.62,889.44,1057.62,916.26z"/>
				<path class="st5" d="M818.75,1428.86H539.16h-82.82c-32.01,0-57.95-25.95-57.95-57.96v-96.64c0-44.7,10.14-87.04,28.25-124.83
					c36.06-75.27,103.72-132.51,185.8-154.54v-78.63H757.6h240.55v330.41c0,32.01,25.95,57.95,57.95,57.95h229.75
					c15.37,0,30.11-6.11,40.97-16.97l96.19-96.19h0.01v-0.01l20.86-20.86c14.45-14.45,20.22-35.44,15.19-55.24l-127.82-503.61h119.8
					l146.37,576.72l-240.38,240.39l-0.01,0.01H818.75z"/>
			</g>
		</g>
	</g>
	<g>
		<g>
			<g>
				<path class="st6" d="M1285.85,1328.62H1056.1c-45.19,0-81.95-36.76-81.95-81.95V916.26c0-13.25,10.75-24,24-24s24,10.75,24,24
					v330.41c0,18.72,15.23,33.95,33.95,33.95h229.74c8.94,0,17.69-3.62,24.01-9.94l96.19-96.19c0.13-0.13,0.26-0.25,0.39-0.38
					l20.48-20.49c8.43-8.42,11.84-20.83,8.91-32.36l-127.82-503.61c-3.26-12.85,4.51-25.91,17.36-29.17
					c12.85-3.26,25.91,4.51,29.17,17.36l127.82,503.61c7.07,27.86-1.16,57.79-21.49,78.11l-20.85,20.86
					c-0.13,0.13-0.26,0.26-0.4,0.39l-95.8,95.81C1328.54,1319.87,1307.42,1328.62,1285.85,1328.62z M1423.02,1191.46
					L1423.02,1191.46L1423.02,1191.46z"/>
			</g>
			<g>
				<path class="st6" d="M1357.03,1452.86h-900.7c-45.19,0-81.95-36.76-81.95-81.95v-96.65c0-135.28,87.13-254.93,214.06-297.21
					v-60.79c0-13.25,10.75-24,24-24s24,10.75,24,24v78.62c0,10.86-7.29,20.36-17.78,23.18
					c-115.57,31.02-196.28,136.37-196.28,256.19v96.65c0,18.72,15.23,33.95,33.95,33.95h890.75l223.71-223.71l-143.02-563.49
					c-3.26-12.85,4.51-25.91,17.36-29.17c12.85-3.26,25.91,4.51,29.17,17.36l146.38,576.72c2.08,8.2-0.31,16.89-6.29,22.88
					L1374,1445.83C1369.5,1450.33,1363.4,1452.86,1357.03,1452.86z"/>
			</g>
			<g>
				<path class="st6" d="M398.39,1298.26h-45.2c-17.09,0-33.49-7.25-44.99-19.89c-11.5-12.63-17.17-29.62-15.57-46.62
					c1.98-20.99,5.49-41.41,10.43-60.67c6.89-26.88,31.11-45.65,58.9-45.65h64.68c13.25,0,24,10.75,24,24s-10.75,24-24,24h-64.68
					c-5.86,0-10.96,3.93-12.41,9.57c-4.32,16.84-7.39,34.76-9.13,53.26c-0.46,4.89,1.85,8.24,3.28,9.8c1.43,1.57,4.56,4.2,9.49,4.2
					h45.2c13.25,0,24,10.75,24,24S411.64,1298.26,398.39,1298.26z"/>
			</g>
			<g>
				<path class="st6" d="M1554.37,635.74h-232.38c-49.73,0-90.19-40.46-90.19-90.19c0-49.73,40.46-90.19,90.19-90.19h232.38
					c13.25,0,24,10.75,24,24v132.39C1578.37,624.99,1567.62,635.74,1554.37,635.74z M1321.99,503.35
					c-23.27,0-42.19,18.93-42.19,42.19c0,23.27,18.93,42.19,42.19,42.19h208.38v-84.39H1321.99z"/>
			</g>
			<g>
				<path class="st6" d="M1600.14,613.24h-45.78c-13.25,0-24-10.75-24-24v-87.4c0-13.25,10.75-24,24-24h45.78
					c37.33,0,67.7,30.37,67.7,67.7S1637.47,613.24,1600.14,613.24z M1578.37,565.24h21.78c10.86,0,19.7-8.84,19.7-19.7
					s-8.84-19.7-19.7-19.7h-21.78V565.24z"/>
			</g>
			<g>
				<path class="st6" d="M1057.62,940.26H757.6c-13.25,0-24-10.75-24-24v-97.13c0-13.25,10.75-24,24-24h202.89
					c66.79,0,121.13,54.34,121.13,121.13C1081.62,929.52,1070.87,940.26,1057.62,940.26z M781.6,892.26h247.97
					c-9.95-28.57-37.16-49.13-69.08-49.13H781.6V892.26z"/>
			</g>
			<g>
				<path class="st6" d="M1768,1452.85h-410.96c-13.25,0-24-10.75-24-24s10.75-24,24-24h385.71
					c-9.2-88.01-68.45-164.11-153.24-193.73c-12.51-4.37-19.11-18.06-14.74-30.57c4.37-12.51,18.06-19.11,30.57-14.74
					c111.64,39.01,186.65,144.72,186.65,263.05C1792,1442.11,1781.25,1452.85,1768,1452.85z"/>
			</g>
			<g>
				<path class="st6" d="M1583.28,1592.65c-90.31,0-163.79-73.48-163.79-163.8c0-13.25,10.75-24,24-24s24,10.75,24,24
					c0,63.85,51.94,115.8,115.79,115.8c63.85,0,115.8-51.95,115.8-115.8c0-13.25,10.75-24,24-24s24,10.75,24,24
					C1747.08,1519.17,1673.6,1592.65,1583.28,1592.65z"/>
			</g>
			<g>
				<path class="st6" d="M678.95,1592.65c-90.31,0-163.79-73.48-163.79-163.8c0-13.25,10.75-24,24-24s24,10.75,24,24
					c0,63.85,51.94,115.8,115.79,115.8c63.85,0,115.8-51.95,115.8-115.8c0-13.25,10.75-24,24-24s24,10.75,24,24
					C842.75,1519.17,769.27,1592.65,678.95,1592.65z"/>
			</g>
			<g>
				<g>
					<path class="st6" d="M897.28,1145.15H649.86c-13.25,0-24-10.75-24-24s10.75-24,24-24h247.42c13.25,0,24,10.75,24,24
						S910.54,1145.15,897.28,1145.15z"/>
				</g>
				<g>
					<path class="st6" d="M897.28,1231.75H649.86c-13.25,0-24-10.75-24-24s10.75-24,24-24h247.42c13.25,0,24,10.75,24,24
						S910.54,1231.75,897.28,1231.75z"/>
				</g>
				<g>
					<path class="st6" d="M897.28,1316.72H649.86c-13.25,0-24-10.75-24-24s10.75-24,24-24h247.42c13.25,0,24,10.75,24,24
						S910.54,1316.72,897.28,1316.72z"/>
				</g>
			</g>
			<g>
				<path class="st6" d="M1072.66,606.04c-6.14,0-12.28-2.34-16.97-7.03c-9.37-9.37-9.37-24.57,0-33.94l69.08-69.08
					c4.5-4.5,10.61-7.03,16.97-7.03h121.34c13.25,0,24,10.75,24,24s-10.75,24-24,24h-111.4l-62.05,62.05
					C1084.95,603.7,1078.81,606.04,1072.66,606.04z"/>
			</g>
		</g>
		<g>
			<g>
				<path class="st6" d="M757.6,940.26H280c-13.25,0-24-10.75-24-24V548.91c0-51.19,41.65-92.84,92.84-92.84h339.92
					c51.19,0,92.84,41.65,92.84,92.84v367.36C781.6,929.52,770.86,940.26,757.6,940.26z M304,892.26h429.6V548.91
					c0-24.73-20.12-44.84-44.84-44.84H348.84c-24.73,0-44.84,20.12-44.84,44.84V892.26z"/>
			</g>
			<g>
				<path class="st6" d="M757.6,614.76H280c-13.25,0-24-10.75-24-24s10.75-24,24-24h477.6c13.25,0,24,10.75,24,24
					S770.86,614.76,757.6,614.76z"/>
			</g>
		</g>
		<g>
			<g>
				<g>
					<path class="st6" d="M684.06,860.45H353.54c-13.25,0-24-10.75-24-24s10.75-24,24-24h330.52c13.25,0,24,10.75,24,24
						S697.32,860.45,684.06,860.45z"/>
				</g>
				<g>
					<path class="st6" d="M654.88,860.45c-13.25,0-24-10.75-24-24c0-61.8-50.28-112.08-112.08-112.08
						c-61.8,0-112.08,50.28-112.08,112.08c0,13.25-10.75,24-24,24s-24-10.75-24-24c0-88.27,71.81-160.08,160.08-160.08
						c88.27,0,160.08,71.81,160.08,160.08C678.88,849.71,668.13,860.45,654.88,860.45z"/>
				</g>
			</g>
			<g>
				<path class="st6" d="M518.8,724.37c-13.25,0-24-10.75-24-24v-29.8c0-13.25,10.75-24,24-24s24,10.75,24,24v29.8
					C542.8,713.63,532.05,724.37,518.8,724.37z"/>
			</g>
		</g>
	</g>
</g>
</svg>
