<?xml version="1.0" encoding="utf-8"?>
<!-- Generator: Adobe Illustrator 23.0.2, SVG Export Plug-In . SVG Version: 6.00 Build 0)  -->
<svg version="1.1" id="Layer_1" xmlns="http://www.w3.org/2000/svg" xmlns:xlink="http://www.w3.org/1999/xlink" x="0px" y="0px"
	 viewBox="0 0 2048 2048" style="enable-background:new 0 0 2048 2048;" xml:space="preserve">
<style type="text/css">
	.st0{fill:#DFE6F0;}
	.st1{fill:#FF725C;}
	.st2{fill:#FFE783;}
	.st3{fill:#74CC8C;}
	.st4{fill:#92FFB0;}
	.st5{fill:#FFD3CC;}
	.st6{fill:#333333;}
</style>
<g>
	<g>
		<g>
			<g>
				<g>
					<g id="XMLID_1_">
						<path class="st0" d="M1671.57,795.51v461.6h-93.14v-461.6c14.32,6.03,30.06,9.36,46.57,9.36
							C1641.52,804.87,1657.25,801.54,1671.57,795.51z"/>
						<path class="st0" d="M469.57,795.51v461.6h-93.14v-461.6c14.32,6.03,30.05,9.36,46.57,9.36
							C439.51,804.87,455.25,801.54,469.57,795.51z"/>
						<path class="st1" d="M1062.98,1447.4c43.06,0,77.97,45.8,77.97,102.3s-34.91,102.3-77.97,102.3
							c-14.2,0-27.51-4.99-38.98-13.69c-11.47,8.7-24.78,13.69-38.98,13.69c-43.06,0-77.97-45.8-77.97-102.3
							s34.91-102.3,77.97-102.3c14.2,0,27.51,4.98,38.98,13.69C1035.47,1452.38,1048.78,1447.4,1062.98,1447.4z"/>
						<path class="st2" d="M1024,1461.09c-11.47-8.71-24.78-13.69-38.98-13.69c-43.06,0-77.97,45.8-77.97,102.3
							s34.91,102.3,77.97,102.3c14.2,0,27.51-4.99,38.98-13.69c11.47,8.7,24.78,13.69,38.98,13.69c43.06,0,77.97-45.8,77.97-102.3
							s-34.91-102.3-77.97-102.3C1048.78,1447.4,1035.47,1452.38,1024,1461.09z M1745.2,1257.11V1768H302.8v-510.89h73.63h93.14
							h309.32h543.45h256.09h93.14H1745.2z"/>
						<path class="st1" d="M581.19,1057.77h395.39c-8.26,111.6-93.62,199.34-197.69,199.34
							C674.81,1257.11,589.46,1169.37,581.19,1057.77z"/>
						<path class="st3" d="M1275.87,1112.64c0,79.79,20.8,144.47,46.47,144.47c-79.79,0-144.48-64.68-144.48-144.47
							s64.69-144.47,144.48-144.47C1296.67,968.17,1275.87,1032.85,1275.87,1112.64z"/>
						<path class="st3" d="M1322.34,968.17c79.79,0,144.47,64.68,144.47,144.47s-64.68,144.47-144.47,144.47
							c25.66,0,46.47-64.68,46.47-144.47S1348,968.17,1322.34,968.17z"/>
						<ellipse class="st4" cx="1322.34" cy="1112.64" rx="46.47" ry="144.47"/>
						<path class="st5" d="M1745.2,633.4v51.27c0,49.87-30.37,92.65-73.63,110.84c-14.32,6.03-30.05,9.36-46.57,9.36
							c-16.51,0-32.25-3.33-46.57-9.36c-43.26-18.19-73.63-60.97-73.63-110.84V633.4H1745.2z"/>
						<path class="st5" d="M1264.4,633.4v51.27c0,66.38-53.82,120.2-120.2,120.2S1024,751.05,1024,684.67V633.4H1264.4z"/>
						<path class="st5" d="M783.6,633.4v51.27c0,66.38-53.82,120.2-120.2,120.2c-66.39,0-120.2-53.82-120.2-120.2V633.4H783.6z"/>
						<path class="st1" d="M1504.8,633.4v51.27c0,66.38-53.81,120.2-120.2,120.2c-66.38,0-120.2-53.82-120.2-120.2V633.4H1504.8z"/>
						<path class="st1" d="M1024,633.4v51.27c0,66.38-53.82,120.2-120.2,120.2s-120.2-53.82-120.2-120.2V633.4H1024z"/>
						<polygon class="st1" points="1577.24,280 1745.2,633.4 1504.8,633.4 1264.4,633.4 1024,633.4 783.6,633.4 543.2,633.4 
							302.8,633.4 470.76,280 						"/>
						<path class="st1" d="M543.2,633.4v51.27c0,49.87-30.37,92.65-73.63,110.84c-14.32,6.03-30.06,9.36-46.57,9.36
							c-16.52,0-32.25-3.33-46.57-9.36c-43.26-18.19-73.63-60.97-73.63-110.84V633.4H543.2z"/>
					</g>
				</g>
			</g>
		</g>
	</g>
	<g>
		<g>
			<g>
				<g>
					<g>
						<g>
							<path class="st6" d="M1745.22,657.4c-8.98,0-17.58-5.06-21.69-13.7L1562.07,304H485.93L324.48,643.7
								c-5.69,11.97-20.01,17.06-31.98,11.37c-11.97-5.69-17.06-20.01-11.37-31.98l167.96-353.4c3.98-8.37,12.41-13.7,21.68-13.7
								h1106.48c9.26,0,17.7,5.33,21.68,13.7l167.96,353.4c5.69,11.97,0.6,26.29-11.38,31.98
								C1752.18,656.65,1748.67,657.4,1745.22,657.4z"/>
						</g>
						<g>
							<g>
								<path class="st6" d="M423,828.87c-79.51,0-144.2-64.69-144.2-144.2V633.4c0-13.25,10.75-24,24-24h240.4
									c13.25,0,24,10.75,24,24v51.27C567.2,764.18,502.51,828.87,423,828.87z M326.8,657.4v27.27c0,53.04,43.15,96.2,96.2,96.2h0
									c53.04,0,96.2-43.16,96.2-96.2V657.4H326.8z"/>
							</g>
							<g>
								<path class="st6" d="M663.4,828.87c-79.51,0-144.2-64.69-144.2-144.2V633.4c0-13.25,10.75-24,24-24h240.4
									c13.25,0,24,10.75,24,24v51.27C807.6,764.18,742.91,828.87,663.4,828.87z M567.2,657.4v27.27c0,53.04,43.15,96.2,96.2,96.2
									h0c53.04,0,96.2-43.16,96.2-96.2V657.4H567.2z"/>
							</g>
							<g>
								<path class="st6" d="M903.8,828.87c-79.51,0-144.2-64.69-144.2-144.2V633.4c0-13.25,10.75-24,24-24H1024
									c13.25,0,24,10.75,24,24v51.27C1048,764.18,983.31,828.87,903.8,828.87z M807.6,657.4v27.27c0,53.04,43.16,96.2,96.2,96.2
									s96.2-43.16,96.2-96.2V657.4H807.6z"/>
							</g>
							<g>
								<path class="st6" d="M1144.2,828.87c-79.51,0-144.2-64.69-144.2-144.2V633.4c0-13.25,10.75-24,24-24h240.4
									c13.25,0,24,10.75,24,24v51.27C1288.4,764.18,1223.71,828.87,1144.2,828.87z M1048,657.4v27.27
									c0,53.04,43.16,96.2,96.2,96.2s96.2-43.16,96.2-96.2V657.4H1048z"/>
							</g>
							<g>
								<path class="st6" d="M1384.6,828.87c-79.51,0-144.2-64.69-144.2-144.2V633.4c0-13.25,10.75-24,24-24h240.4
									c13.25,0,24,10.75,24,24v51.27C1528.8,764.18,1464.11,828.87,1384.6,828.87z M1288.4,657.4v27.27
									c0,53.04,43.16,96.2,96.2,96.2s96.2-43.16,96.2-96.2V657.4H1288.4z"/>
							</g>
							<g>
								<path class="st6" d="M1625,828.87c-79.51,0-144.2-64.69-144.2-144.2V633.4c0-13.25,10.75-24,24-24h240.4
									c13.25,0,24,10.75,24,24v51.27C1769.2,764.18,1704.51,828.87,1625,828.87z M1528.8,657.4v27.27
									c0,53.04,43.16,96.2,96.2,96.2s96.2-43.16,96.2-96.2V657.4H1528.8z"/>
							</g>
						</g>
					</g>
				</g>
			</g>
		</g>
		<g>
			<path class="st6" d="M376.43,1281.11c-13.25,0-24-10.75-24-24v-461.6c0-13.25,10.75-24,24-24s24,10.75,24,24v461.6
				C400.43,1270.37,389.69,1281.11,376.43,1281.11z"/>
		</g>
		<g>
			<path class="st6" d="M469.57,1281.11c-13.25,0-24-10.75-24-24v-461.6c0-13.25,10.75-24,24-24s24,10.75,24,24v461.6
				C493.57,1270.37,482.82,1281.11,469.57,1281.11z"/>
		</g>
		<g>
			<path class="st6" d="M1578.43,1281.11c-13.25,0-24-10.75-24-24v-461.6c0-13.25,10.75-24,24-24s24,10.75,24,24v461.6
				C1602.43,1270.37,1591.69,1281.11,1578.43,1281.11z"/>
		</g>
		<g>
			<path class="st6" d="M1671.57,1281.11c-13.25,0-24-10.75-24-24v-461.6c0-13.25,10.75-24,24-24s24,10.75,24,24v461.6
				C1695.57,1270.37,1684.82,1281.11,1671.57,1281.11z"/>
		</g>
		<g>
			<path class="st6" d="M1745.2,1792H302.8c-13.25,0-24-10.75-24-24v-510.89c0-13.25,10.75-24,24-24h1442.4c13.25,0,24,10.75,24,24
				V1768C1769.2,1781.25,1758.46,1792,1745.2,1792z M326.8,1744h1394.4v-462.89H326.8V1744z"/>
		</g>
		<g>
			<g>
				<path class="st6" d="M1062.98,1676c-13.48,0-26.71-3.24-38.98-9.46c-12.27,6.23-25.5,9.46-38.98,9.46
					c-28.49,0-54.85-14-74.22-39.42c-17.89-23.48-27.75-54.33-27.75-86.88s9.85-63.41,27.75-86.88
					c19.37-25.42,45.73-39.42,74.22-39.42c13.48,0,26.71,3.24,38.98,9.46c12.27-6.23,25.5-9.46,38.98-9.46
					c28.49,0,54.85,14,74.22,39.42c17.89,23.48,27.75,54.33,27.75,86.88s-9.85,63.41-27.75,86.88
					C1117.83,1662,1091.47,1676,1062.98,1676z M1024,1614.31c5.11,0,10.22,1.63,14.51,4.88c7.7,5.84,15.93,8.81,24.47,8.81
					c29.25,0,53.97-35.86,53.97-78.3c0-42.44-24.71-78.3-53.97-78.3c-8.54,0-16.78,2.96-24.47,8.81c-8.58,6.51-20.44,6.51-29.02,0
					c-7.7-5.84-15.93-8.81-24.47-8.81c-29.25,0-53.97,35.86-53.97,78.3c0,42.44,24.71,78.3,53.97,78.3c8.54,0,16.77-2.96,24.47-8.81
					C1013.78,1615.94,1018.89,1614.31,1024,1614.31z"/>
			</g>
			<g>
				<path class="st6" d="M1000.2,1464.22c-0.33-2.54-7.74-62.6,30.39-106.78c8.66-10.04,23.81-11.15,33.85-2.49
					c10.04,8.66,11.15,23.81,2.49,33.85c-23.86,27.66-19.17,68.87-19.13,69.28l-0.01-0.12L1000.2,1464.22z"/>
			</g>
		</g>
		<g>
			<g>
				<g>
					<path class="st6" d="M1322.34,1281.11c-92.9,0-168.47-75.58-168.47-168.47c0-92.9,75.58-168.47,168.47-168.47
						s168.47,75.58,168.47,168.47C1490.81,1205.53,1415.23,1281.11,1322.34,1281.11z M1322.34,992.17
						c-66.43,0-120.47,54.04-120.47,120.47s54.04,120.47,120.47,120.47s120.47-54.04,120.47-120.47S1388.77,992.17,1322.34,992.17z"
						/>
				</g>
				<g>
					<path class="st6" d="M1322.34,1281.11c-16.76,0-40.03-10.23-55.71-58.97c-9.52-29.6-14.76-68.49-14.76-109.51
						s5.24-79.91,14.76-109.51c15.67-48.74,38.94-58.97,55.71-58.97c16.76,0,40.03,10.23,55.71,58.97
						c9.52,29.6,14.76,68.49,14.76,109.51s-5.24,79.91-14.76,109.51C1362.37,1270.88,1339.1,1281.11,1322.34,1281.11z
						 M1322.34,995.4c-3.38,4.98-8.26,14.79-12.76,31.89c-6.26,23.76-9.7,54.07-9.7,85.35s3.45,61.59,9.7,85.35
						c4.5,17.09,9.39,26.91,12.76,31.89c3.38-4.98,8.26-14.79,12.76-31.89c6.26-23.76,9.7-54.07,9.7-85.35s-3.45-61.58-9.7-85.35
						C1330.6,1010.2,1325.71,1000.38,1322.34,995.4z"/>
				</g>
			</g>
			<g>
				<g>
					<g>
						<g>
							<path class="st6" d="M778.89,1281.11c-56.62,0-110.56-23.07-151.87-64.97c-40.55-41.13-65.33-96.75-69.77-156.6
								c-0.49-6.66,1.81-13.21,6.35-18.11c4.54-4.89,10.91-7.67,17.59-7.67h395.4c6.67,0,13.05,2.78,17.59,7.67
								c4.54,4.89,6.84,11.45,6.35,18.11c-4.43,59.85-29.21,115.46-69.77,156.6C889.44,1258.04,835.51,1281.11,778.89,1281.11z
								 M608.65,1081.77c17.42,86.68,88.11,151.34,170.24,151.34s152.82-64.66,170.24-151.34H608.65z"/>
						</g>
					</g>
				</g>
				<g>
					<g>
						<path class="st6" d="M858.07,1141.53l-11.48-15.74c-6.77-9.28-0.54-22.57,10.92-22.95c0.19-0.01,0.37-0.01,0.56-0.01h0
							c0.19,0,0.37,0,0.56,0.01c11.47,0.39,17.69,13.68,10.92,22.95L858.07,1141.53z"/>
					</g>
					<g>
						<g>
							<path class="st6" d="M724.71,1197.69l-11.48-15.74c-6.77-9.28-0.54-22.57,10.92-22.95c0.19-0.01,0.37-0.01,0.56-0.01h0
								c0.19,0,0.37,0,0.56,0.01c11.47,0.39,17.69,13.68,10.92,22.95L724.71,1197.69z"/>
						</g>
						<g>
							<path class="st6" d="M825.33,1197.69l11.49-15.75c6.77-9.28,0.56-22.56-10.91-22.94c-0.19-0.01-0.37-0.01-0.56-0.01h0
								c-0.19,0-0.37,0-0.56,0.01c-11.47,0.39-17.7,13.68-10.93,22.95L825.33,1197.69z"/>
						</g>
					</g>
					<g>
						<path class="st6" d="M775.04,1149.53l-11.49-15.75c-6.77-9.28-0.56-22.56,10.91-22.94c0.19-0.01,0.37-0.01,0.56-0.01h0
							c0.19,0,0.37,0,0.56,0.01c11.47,0.39,17.7,13.68,10.93,22.95L775.04,1149.53z"/>
					</g>
					<g>
						<path class="st6" d="M699.69,1140.37l11.49-15.75c6.77-9.28,0.56-22.56-10.91-22.94c-0.19-0.01-0.37-0.01-0.56-0.01l0,0
							c-0.19,0-0.37,0-0.56,0.01c-11.47,0.39-17.7,13.68-10.93,22.95L699.69,1140.37z"/>
					</g>
				</g>
			</g>
		</g>
	</g>
</g>
</svg>
