<?xml version="1.0" encoding="utf-8"?>
<!-- Generator: Adobe Illustrator 23.0.2, SVG Export Plug-In . SVG Version: 6.00 Build 0)  -->
<svg version="1.1" id="Layer_1" xmlns="http://www.w3.org/2000/svg" xmlns:xlink="http://www.w3.org/1999/xlink" x="0px" y="0px"
	 viewBox="0 0 2048 2048" style="enable-background:new 0 0 2048 2048;" xml:space="preserve">
<style type="text/css">
	.st0{fill:#F5FBFF;}
	.st1{fill:#FF725C;}
	.st2{fill:#FFE783;}
	.st3{fill:#333333;}
</style>
<g>
	<g>
		<g>
			<g id="XMLID_1_">
				<path class="st0" d="M779,856.99c42.25,29.31,59.71,77.27,39,107.12c-20.71,29.85-71.75,30.29-114,0.98
					c-42.25-29.32-59.71-77.28-39-107.13C685.71,828.11,736.75,827.68,779,856.99z"/>
				<path class="st0" d="M969.46,738.85c21.93,46.51,13.07,96.78-19.79,112.27c-32.86,15.5-77.28-9.64-99.21-56.15
					c-21.93-46.51-13.07-96.78,19.79-112.28C903.11,667.2,947.53,692.34,969.46,738.85z"/>
				<path class="st0" d="M1177.75,682.69c32.86,15.5,41.72,65.77,19.79,112.28c-21.93,46.51-66.35,71.65-99.21,56.15
					c-32.86-15.49-41.72-65.76-19.79-112.27C1100.47,692.34,1144.89,667.2,1177.75,682.69z"/>
				<path class="st0" d="M1383,857.96c20.71,29.85,3.25,77.81-39,107.13c-42.25,29.31-93.29,28.87-114-0.98
					c-20.71-29.85-3.25-77.81,39-107.12S1362.29,828.11,1383,857.96z"/>
				<path class="st0" d="M1185.57,1071.64c79.07,25.5,128.17,138.16,67.65,245.28c-3.77,6.67-11.46,15.8-17.06,20.32
					c-55.6,44.91-114.02,39.78-155.57,7.01c-16.15-12.74-36.02-19.83-56.59-19.83c-20.57,0-40.44,7.09-56.59,19.83
					c-41.55,32.77-99.97,37.9-155.57-7.01c-5.6-4.52-13.29-13.65-17.06-20.32c-60.52-107.12-11.42-219.78,67.65-245.28
					c19.49-6.28,34.83-21.62,40.93-41.17c18.11-57.99,65.43-99.36,120.64-99.36c55.21,0,102.53,41.37,120.64,99.36
					C1150.74,1050.02,1166.08,1065.36,1185.57,1071.64z"/>
				<path class="st1" d="M527.32,410.71h993.36c-36.43,64.8-46.76,141.09-28.64,213.19c65.98,262.63,65.98,537.57,0,800.2
					c-18.12,72.1-7.79,148.39,28.64,213.19H527.32c36.43-64.8,46.76-141.09,28.64-213.19c-65.98-262.63-65.98-537.57,0-800.2
					C574.08,551.8,563.75,475.51,527.32,410.71z M1344,965.09c42.25-29.32,59.71-77.28,39-107.13c-20.71-29.85-71.75-30.28-114-0.97
					s-59.71,77.27-39,107.12C1250.71,993.96,1301.75,994.4,1344,965.09z M1253.22,1316.92c60.52-107.12,11.42-219.78-67.65-245.28
					c-19.49-6.28-34.83-21.62-40.93-41.17c-18.11-57.99-65.43-99.36-120.64-99.36c-55.21,0-102.53,41.37-120.64,99.36
					c-6.1,19.55-21.44,34.89-40.93,41.17c-79.07,25.5-128.17,138.16-67.65,245.28c3.77,6.67,11.46,15.8,17.06,20.32
					c55.6,44.91,114.02,39.78,155.57,7.01c16.15-12.74,36.02-19.83,56.59-19.83c20.57,0,40.44,7.09,56.59,19.83
					c41.55,32.77,99.97,37.9,155.57-7.01C1241.76,1332.72,1249.45,1323.59,1253.22,1316.92z M1197.54,794.97
					c21.93-46.51,13.07-96.78-19.79-112.28c-32.86-15.49-77.28,9.65-99.21,56.16c-21.93,46.51-13.07,96.78,19.79,112.27
					C1131.19,866.62,1175.61,841.48,1197.54,794.97z M949.67,851.12c32.86-15.49,41.72-65.76,19.79-112.27
					c-21.93-46.51-66.35-71.65-99.21-56.16c-32.86,15.5-41.72,65.77-19.79,112.28C872.39,841.48,916.81,866.62,949.67,851.12z
					 M818,964.11c20.71-29.85,3.25-77.81-39-107.12s-93.29-28.88-114,0.97c-20.71,29.85-3.25,77.81,39,107.13
					C746.25,994.4,797.29,993.96,818,964.11z"/>
				<rect x="527.32" y="1637.29" class="st2" width="993.36" height="130.71"/>
				<rect x="527.32" y="280" class="st2" width="993.36" height="130.71"/>
			</g>
		</g>
	</g>
	<g>
		<g>
			<g>
				<path class="st3" d="M1151.69,1393.87c-30.27,0-59.9-10.22-85.96-30.78c-12-9.46-26.82-14.68-41.73-14.68
					s-29.73,5.21-41.73,14.68c-55.12,43.48-126.2,40.73-185.51-7.18c-8.01-6.47-17.64-17.91-22.88-27.19
					c-33.12-58.63-39.23-125.23-16.77-182.74c18.63-47.7,54.33-83.12,97.96-97.19c12.14-3.91,21.63-13.44,25.39-25.48
					c21.7-69.51,79.38-116.21,143.55-116.21s121.85,46.7,143.55,116.21c3.76,12.04,13.25,21.56,25.39,25.48
					c43.63,14.07,79.33,49.49,97.96,97.19c22.46,57.51,16.35,124.11-16.77,182.73c-5.24,9.28-14.86,20.72-22.88,27.19
					C1219.98,1381.16,1185.43,1393.87,1151.69,1393.87z M1024,1300.42c25.65,0,51.03,8.88,71.46,24.99
					c37.67,29.71,83.46,27.22,125.62-6.83c3.02-2.44,8.8-9.13,11.25-13.46c26-46.02,31.04-97.65,13.85-141.67
					c-13.36-34.21-38.14-59.34-67.98-68.97c-26.96-8.69-48.08-29.95-56.48-56.86c-15.4-49.35-54.68-82.51-97.73-82.51
					s-82.32,33.16-97.73,82.51c-8.4,26.91-29.51,48.17-56.48,56.86c-29.84,9.62-54.62,34.76-67.98,68.97
					c-17.19,44.02-12.14,95.65,13.85,141.66c2.45,4.33,8.23,11.02,11.25,13.46c22.62,18.27,46.29,27.46,69.19,27.46
					c19.78,0,38.98-6.85,56.44-20.62C972.97,1309.29,998.35,1300.42,1024,1300.42z"/>
			</g>
			<g>
				<g>
					<g>
						<path class="st3" d="M1279.67,1010.79c-0.32,0-0.63,0-0.95,0c-29.12-0.25-54.06-12.27-68.44-32.99
							c-14.37-20.72-16.9-48.29-6.94-75.65c9.05-24.85,27.51-47.89,51.98-64.87c24.47-16.98,52.51-26.18,78.96-25.98
							c29.12,0.25,54.06,12.27,68.44,32.99s16.9,48.29,6.94,75.65c-9.05,24.85-27.51,47.89-51.98,64.87
							C1333.5,1001.58,1305.83,1010.79,1279.67,1010.79z M1333.34,859.29c-16.25,0-34.68,6.33-50.66,17.42
							c-33.46,23.22-44.23,57.49-32.96,73.72c7.35,10.59,21.58,12.29,29.41,12.35c0.18,0,0.35,0,0.53,0
							c16.25,0,34.68-6.33,50.66-17.42c33.46-23.22,44.23-57.49,32.96-73.72c-7.35-10.59-21.58-12.29-29.41-12.35
							C1333.7,859.29,1333.52,859.29,1333.34,859.29z"/>
					</g>
					<g>
						<path class="st3" d="M1119.11,879.64c-10.84,0-21.36-2.26-31.01-6.81c-22.81-10.75-38.79-33.37-43.84-62.05
							c-4.59-26.05-0.12-55.23,12.58-82.17c12.7-26.94,32.38-48.95,55.39-61.98c25.34-14.34,52.96-16.4,75.76-5.65
							s38.79,33.37,43.84,62.05c4.59,26.05,0.12,55.23-12.58,82.17c-12.7,26.94-32.38,48.95-55.39,61.98
							C1149.24,875.45,1133.87,879.64,1119.11,879.64z M1156.89,702.11c-8.32,0-16.23,3.59-21.01,6.29
							c-14.25,8.07-27.23,22.89-35.62,40.68c-8.39,17.79-11.57,37.24-8.73,53.36c1.36,7.71,5.38,21.46,17.04,26.96
							c3.09,1.46,6.61,2.18,10.4,2.18c18.12,0,42.5-16.4,56.86-46.86c8.39-17.79,11.57-37.24,8.72-53.36
							c-1.36-7.71-5.38-21.46-17.04-26.96C1164.04,702.76,1160.42,702.11,1156.89,702.11z"/>
					</g>
				</g>
				<g>
					<g>
						<path class="st3" d="M768.33,1010.79c-26.17,0-53.83-9.21-78.01-25.98c-24.47-16.98-42.93-40.02-51.98-64.87
							c-9.96-27.36-7.43-54.94,6.94-75.65s39.32-32.74,68.44-32.99c26.43-0.22,54.49,9,78.96,25.98
							c24.47,16.98,42.93,40.02,51.98,64.87c9.96,27.36,7.43,54.94-6.94,75.65s-39.32,32.74-68.44,32.99
							C768.97,1010.79,768.65,1010.79,768.33,1010.79z M714.66,859.29c-0.18,0-0.35,0-0.53,0c-7.83,0.07-22.06,1.76-29.41,12.35
							c-7.35,10.59-3.96,24.52-1.28,31.87c5.6,15.39,18.08,30.64,34.24,41.85c33.46,23.22,69.33,21.3,80.6,5.07
							s0.5-50.51-32.96-73.72C749.34,865.62,730.9,859.29,714.66,859.29z"/>
					</g>
					<g>
						<path class="st3" d="M928.89,879.64c-14.77,0-30.13-4.19-44.75-12.46c-23.02-13.03-42.69-35.04-55.39-61.98
							c-12.7-26.94-17.17-56.12-12.58-82.17c5.05-28.68,21.03-51.29,43.84-62.05c22.81-10.75,50.42-8.7,75.76,5.65
							c23.02,13.03,42.69,35.04,55.39,61.98s17.17,56.12,12.58,82.17c-5.05,28.68-21.03,51.29-43.84,62.05
							C950.25,877.38,939.73,879.64,928.89,879.64z M891.11,702.11c-3.54,0-7.15,0.65-10.63,2.29
							c-11.66,5.5-15.68,19.25-17.04,26.96c-2.84,16.13,0.34,35.58,8.73,53.36s21.37,32.61,35.62,40.68c6.81,3.86,19.98,9.5,31.65,4
							c17.88-8.43,25.69-43.49,8.32-80.33c-8.39-17.79-21.37-32.61-35.62-40.68C907.35,705.7,899.44,702.11,891.11,702.11z"/>
					</g>
				</g>
			</g>
		</g>
		<g>
			<g>
				<path class="st3" d="M527.3,1661.29c-3.98,0-8.02-0.99-11.74-3.08c-11.55-6.5-15.65-21.13-9.16-32.68
					c33.62-59.78,42.95-129.24,26.29-195.57c-33.32-132.62-50.21-269.2-50.21-405.95c0-136.76,16.89-273.34,50.21-405.95
					c16.67-66.33,7.33-135.79-26.29-195.57c-6.5-11.55-2.4-26.19,9.16-32.68c11.55-6.5,26.19-2.4,32.68,9.16
					c39.66,70.53,50.67,152.5,31,230.79c-64.8,257.92-64.8,530.59,0,788.51c19.67,78.29,8.66,160.26-31,230.79
					C543.84,1656.88,535.69,1661.29,527.3,1661.29z"/>
			</g>
			<g>
				<path class="st3" d="M1520.7,1661.29c-8.39,0-16.54-4.41-20.94-12.24c-39.66-70.53-50.67-152.5-31-230.79
					c64.8-257.92,64.8-530.59,0-788.51c-19.67-78.3-8.66-160.26,31-230.79c6.5-11.55,21.13-15.65,32.68-9.16
					c11.55,6.5,15.65,21.13,9.16,32.68c-33.62,59.78-42.95,129.24-26.29,195.57c33.32,132.61,50.21,269.2,50.21,405.95
					s-16.89,273.34-50.21,405.95c-16.67,66.33-7.33,135.79,26.29,195.57c6.5,11.55,2.4,26.19-9.16,32.68
					C1528.72,1660.3,1524.68,1661.29,1520.7,1661.29z"/>
			</g>
			<g>
				<path class="st3" d="M1520.68,434.71H527.32c-13.25,0-24-10.75-24-24V280c0-13.25,10.75-24,24-24h993.36c13.25,0,24,10.75,24,24
					v130.71C1544.68,423.97,1533.93,434.71,1520.68,434.71z M551.32,386.71h945.36V304H551.32V386.71z"/>
			</g>
			<g>
				<path class="st3" d="M1520.68,1792H527.32c-13.25,0-24-10.75-24-24v-130.71c0-13.25,10.75-24,24-24h993.36
					c13.25,0,24,10.75,24,24V1768C1544.68,1781.25,1533.93,1792,1520.68,1792z M551.32,1744h945.36v-82.71H551.32V1744z"/>
			</g>
		</g>
	</g>
</g>
</svg>
