<?xml version="1.0" encoding="utf-8"?>
<!-- Generator: Adobe Illustrator 23.0.2, SVG Export Plug-In . SVG Version: 6.00 Build 0)  -->
<svg version="1.1" id="Layer_1" xmlns="http://www.w3.org/2000/svg" xmlns:xlink="http://www.w3.org/1999/xlink" x="0px" y="0px"
	 viewBox="0 0 2048 2048" style="enable-background:new 0 0 2048 2048;" xml:space="preserve">
<style type="text/css">
	.st0{fill:#E66C8B;}
	.st1{fill:#FF725C;}
	.st2{fill:#E1EFFF;}
	.st3{fill:#B3546C;}
	.st4{fill:#333333;}
</style>
<g>
	<g>
		<g id="XMLID_1_">
			<circle class="st0" cx="887.5" cy="1554.76" r="42.94"/>
			<circle class="st0" cx="1104.29" cy="1427.05" r="46.26"/>
			<path class="st0" d="M956.35,1210.52c24.8,0,44.9,20.1,44.9,44.9c0,24.8-20.1,44.91-44.9,44.91c-24.8,0-44.91-20.11-44.91-44.91
				C911.44,1230.62,931.55,1210.52,956.35,1210.52z"/>
			<path class="st1" d="M1147.88,341.35v41.96h-35.72H935.84h-35.72v-41.96c0-33.88,27.47-61.35,61.35-61.35h125.06
				C1120.41,280,1147.88,307.47,1147.88,341.35z"/>
			<path class="st2" d="M1317.71,784.14H730.29c8.59-40.13,25.77-78.19,50.63-111.44L899.2,514.46
				c23.79-31.81,36.64-70.47,36.64-110.19v-20.96h176.32v20.96c0,39.72,12.85,78.38,36.64,110.19l118.28,158.24
				C1291.94,705.95,1309.12,744.01,1317.71,784.14z"/>
			<path class="st1" d="M1324.06,844.1v256.95H723.94V844.1c0-20.27,2.15-40.36,6.35-59.96h587.42
				C1321.91,803.74,1324.06,823.83,1324.06,844.1z"/>
			<path class="st3" d="M1324.06,1445.91v199.4c0,67.76-54.93,122.69-122.69,122.69H846.63c-67.76,0-122.69-54.93-122.69-122.69
				v-199.4c0-13.03,2.43-25.83,7.06-37.77c4.63-11.94,11.45-23.04,20.23-32.66c17.55-19.25,27.29-44.37,27.29-70.43v-21.26
				c0-13.03-2.44-25.82-7.06-37.77c-4.63-11.94-11.46-23.03-20.23-32.66c-17.56-19.25-27.29-44.37-27.29-70.42v-41.89h600.12v41.89
				c0,13.02-2.43,25.82-7.06,37.76c-4.63,11.94-11.45,23.04-20.23,32.66c-17.55,19.26-27.29,44.37-27.29,70.43v21.26
				c0,13.03,2.44,25.83,7.06,37.77c4.63,11.94,11.46,23.04,20.23,32.66C1314.33,1394.73,1324.06,1419.85,1324.06,1445.91z
				 M1150.55,1427.05c0-25.55-20.71-46.26-46.26-46.26c-25.55,0-46.26,20.71-46.26,46.26c0,25.55,20.71,46.26,46.26,46.26
				C1129.84,1473.31,1150.55,1452.6,1150.55,1427.05z M1001.25,1255.42c0-24.8-20.1-44.9-44.9-44.9c-24.8,0-44.91,20.1-44.91,44.9
				c0,24.8,20.11,44.91,44.91,44.91C981.15,1300.33,1001.25,1280.22,1001.25,1255.42z M930.44,1554.76
				c0-23.71-19.22-42.94-42.94-42.94c-23.71,0-42.94,19.23-42.94,42.94c0,23.72,19.23,42.94,42.94,42.94
				C911.22,1597.7,930.44,1578.48,930.44,1554.76z"/>
		</g>
	</g>
	<g>
		<g>
			<path class="st4" d="M1201.37,1792H846.63c-80.89,0-146.69-65.81-146.69-146.69v-199.4c0-32.11,11.92-62.87,33.56-86.6
				c13.56-14.87,21.02-34.14,21.02-54.26v-21.26c0-20.12-7.47-39.39-21.02-54.26c-21.64-23.73-33.56-54.48-33.56-86.6V844.1
				c0-33.33,5.33-66.26,15.84-97.89s25.96-61.19,45.92-87.89l118.28-158.23c20.54-27.48,31.85-61.51,31.85-95.82v-20.97
				c0-13.25,10.75-24,24-24s24,10.75,24,24v20.97c0,44.6-14.71,88.83-41.41,124.56L800.14,687.07
				c-33.67,45.04-52.21,100.81-52.21,157.03v298.84c0,20.12,7.47,39.39,21.02,54.25c21.64,23.73,33.56,54.49,33.56,86.6v21.26
				c0,32.11-11.92,62.87-33.56,86.6c-13.56,14.87-21.02,34.14-21.02,54.26v199.4c0,54.42,44.27,98.69,98.69,98.69h354.74
				c54.42,0,98.69-44.27,98.69-98.69v-199.4c0-20.12-7.47-39.39-21.02-54.26c-21.64-23.73-33.55-54.48-33.55-86.6v-21.26
				c0-32.11,11.92-62.87,33.56-86.6c13.56-14.87,21.02-34.14,21.02-54.26V844.1c0-56.23-18.54-112-52.21-157.03l-118.28-158.23
				c-26.7-35.72-41.41-79.96-41.41-124.56v-20.97c0-13.25,10.75-24,24-24s24,10.75,24,24v20.97c0,34.31,11.31,68.34,31.85,95.82
				l118.28,158.23c19.95,26.69,35.4,56.26,45.92,87.89s15.84,64.56,15.84,97.89v298.84c0,32.11-11.92,62.87-33.55,86.6
				c-13.56,14.87-21.02,34.14-21.02,54.26v21.26c0,20.12,7.47,39.39,21.02,54.25c21.64,23.73,33.55,54.49,33.55,86.6v199.4
				C1348.06,1726.19,1282.26,1792,1201.37,1792z"/>
		</g>
		<g>
			<path class="st4" d="M1324.06,1125.05H723.94c-13.25,0-24-10.75-24-24s10.75-24,24-24h600.12c13.25,0,24,10.75,24,24
				S1337.32,1125.05,1324.06,1125.05z"/>
		</g>
		<g>
			<path class="st4" d="M1317.71,808.14H730.29c-13.25,0-24-10.75-24-24s10.75-24,24-24h587.43c13.25,0,24,10.75,24,24
				S1330.97,808.14,1317.71,808.14z"/>
		</g>
		<g>
			<path class="st4" d="M1147.88,407.31H900.12c-13.25,0-24-10.75-24-24v-41.96c0-47.06,38.29-85.35,85.35-85.35h125.06
				c47.06,0,85.35,38.29,85.35,85.35v41.96C1171.88,396.56,1161.13,407.31,1147.88,407.31z M924.12,359.31h199.75v-17.96
				c0-20.59-16.75-37.35-37.35-37.35H961.47c-20.59,0-37.35,16.75-37.35,37.35V359.31z"/>
		</g>
		<g>
			<path class="st4" d="M956.35,1324.33c-37.99,0-68.91-30.91-68.91-68.91s30.91-68.91,68.91-68.91c37.99,0,68.91,30.91,68.91,68.91
				S994.34,1324.33,956.35,1324.33z M956.35,1234.52c-11.53,0-20.91,9.38-20.91,20.91s9.38,20.91,20.91,20.91
				c11.53,0,20.9-9.38,20.9-20.91S967.87,1234.52,956.35,1234.52z"/>
		</g>
		<g>
			<path class="st4" d="M1104.29,1497.31c-38.74,0-70.26-31.52-70.26-70.26s31.52-70.26,70.26-70.26s70.26,31.52,70.26,70.26
				S1143.03,1497.31,1104.29,1497.31z M1104.29,1404.79c-12.27,0-22.26,9.99-22.26,22.26s9.99,22.26,22.26,22.26
				s22.26-9.99,22.26-22.26S1116.56,1404.79,1104.29,1404.79z"/>
		</g>
		<g>
			<path class="st4" d="M887.5,1621.7c-36.91,0-66.94-30.03-66.94-66.94c0-36.91,30.03-66.94,66.94-66.94s66.94,30.03,66.94,66.94
				C954.44,1591.67,924.41,1621.7,887.5,1621.7z M887.5,1535.82c-10.44,0-18.94,8.5-18.94,18.94s8.5,18.94,18.94,18.94
				s18.94-8.5,18.94-18.94S897.95,1535.82,887.5,1535.82z"/>
		</g>
		<g>
			<circle class="st4" cx="931.65" cy="1420.07" r="17.56"/>
		</g>
		<g>
			<circle class="st4" cx="1187.45" cy="1583.49" r="17.56"/>
		</g>
		<g>
			<circle class="st4" cx="1041.56" cy="1649.74" r="17.56"/>
		</g>
		<g>
			<circle class="st4" cx="1152.32" cy="1225.71" r="17.56"/>
		</g>
	</g>
</g>
</svg>
