<?xml version="1.0" encoding="utf-8"?>
<!-- Generator: Adobe Illustrator 23.0.2, SVG Export Plug-In . SVG Version: 6.00 Build 0)  -->
<svg version="1.1" id="Layer_1" xmlns="http://www.w3.org/2000/svg" xmlns:xlink="http://www.w3.org/1999/xlink" x="0px" y="0px"
	 viewBox="0 0 2048 2048" style="enable-background:new 0 0 2048 2048;" xml:space="preserve">
<style type="text/css">
	.st0{fill:#3FB37C;}
	.st1{fill:#CC6A24;}
	.st2{fill:#FF822D;}
	.st3{fill:#FFE783;}
	.st4{fill:#48CC8E;}
	.st5{fill:#5AFFB1;}
	.st6{fill:#333333;}
</style>
<g>
	<g>
		<g id="XMLID_1_">
			<path class="st0" d="M839.87,354.8L603.32,882.03h-0.01H492.27c-0.18,0-0.35,0-0.53-0.01l76.25-169.94l179-398.96L839.87,354.8z"
				/>
			<path class="st1" d="M1640.71,1151.65v261.75h-96.07h-145.31c-72.28,0-130.88-58.59-130.88-130.87
				c0-36.14,14.65-68.86,38.33-92.55c23.69-23.68,56.41-38.33,92.55-38.33h145.31H1640.71z M1439.96,1282.53
				c0-23.85-19.33-43.18-43.18-43.18s-43.19,19.33-43.19,43.18s19.34,43.18,43.19,43.18S1439.96,1306.38,1439.96,1282.53z"/>
			<path class="st2" d="M1544.64,1413.4V1708c0,33.14-26.86,60-60,60H467.3c-33.14,0-60-26.86-60-60V797.78
				c0.19,23.18,9.67,44.15,24.89,59.36c15.25,15.26,36.3,24.75,59.55,24.88c0.18,0.01,0.35,0.01,0.53,0.01h111.04h0.01h100.42h0.01
				h125.84h167.59h0.01h125.84h100.42h151.19v0.01h110c33.14,0,60,26.86,60,60v209.61h-145.31c-36.14,0-68.86,14.65-92.55,38.33
				c-23.68,23.69-38.33,56.41-38.33,92.55c0,72.28,58.6,130.87,130.88,130.87H1544.64z"/>
			<path class="st3" d="M1396.78,1239.35c23.85,0,43.18,19.33,43.18,43.18s-19.33,43.18-43.18,43.18s-43.19-19.33-43.19-43.18
				S1372.93,1239.35,1396.78,1239.35z"/>
			<path class="st4" d="M1299.46,712.64l-76.01,169.39h-100.42l76.25-169.95l32.68-72.82c-44.12-19.79-63.84-71.61-44.05-115.72
				l-189.26-84.91c-19.79,44.11-71.6,63.82-115.72,44.03L780,712.08l-76.25,169.95h-0.01H603.32L839.87,354.8l33.56-74.8
				l516.22,231.61L1299.46,712.64z"/>
			<path class="st1" d="M1374.64,797.05v84.98h-151.19l76.01-169.39C1341.79,717.5,1374.64,753.43,1374.64,797.05z"/>
			<path class="st5" d="M1231.96,639.26l-32.68,72.82l-76.25,169.95H997.19c-0.02-31.98-18.45-62.5-49.51-76.43
				c-42.21-18.94-91.79-0.07-110.73,42.14c-5.01,11.15-7.37,22.81-7.36,34.29H703.75L780,712.08l102.93-229.42
				c44.12,19.79,95.93,0.08,115.72-44.03l189.26,84.91C1168.12,567.65,1187.84,619.47,1231.96,639.26z"/>
			<path class="st4" d="M997.19,882.03h-0.01H829.59c-0.01-11.48,2.35-23.14,7.36-34.29c18.94-42.21,68.52-61.08,110.73-42.14
				C978.74,819.53,997.17,850.05,997.19,882.03z"/>
			<path class="st1" d="M407.3,797.78c-0.01-0.24-0.01-0.49-0.01-0.73c0-46.93,38.05-84.97,84.98-84.97h75.72l-76.25,169.94
				c-23.25-0.13-44.3-9.62-59.55-24.88C416.97,841.93,407.49,820.96,407.3,797.78z"/>
		</g>
	</g>
	<g>
		<g>
			<path class="st6" d="M1544.64,1175.65c-13.25,0-24-10.75-24-24V942.04c0-19.85-16.15-36-36-36h-110c-13.25,0-24-10.75-24-24
				s10.75-24,24-24h110c46.32,0,84,37.68,84,84v209.62C1568.64,1164.91,1557.89,1175.65,1544.64,1175.65z"/>
		</g>
		<g>
			<path class="st6" d="M1484.64,1792H467.3c-46.32,0-84-37.68-84-84V797.05c0-13.25,10.75-24,24-24s24,10.75,24,24V1708
				c0,19.85,16.15,36,36,36h1017.34c19.85,0,36-16.15,36-36v-294.6c0-13.25,10.75-24,24-24s24,10.75,24,24V1708
				C1568.64,1754.32,1530.96,1792,1484.64,1792z"/>
		</g>
		<g>
			<path class="st6" d="M1374.64,906.03H492.27c-0.35,0-0.69,0-1.04-0.01c-28.72-0.26-55.7-11.58-76.02-31.91
				c-20.28-20.26-31.61-47.2-31.91-75.86c-0.01-0.4-0.01-0.8-0.01-1.19c0-60.09,48.89-108.97,108.98-108.97h75.72
				c13.25,0,24,10.75,24,24s-10.75,24-24,24h-75.72c-33.62,0-60.98,27.35-60.98,60.97v0.05c0,0.16,0.01,0.32,0.01,0.48
				c0.13,16.08,6.47,31.21,17.86,42.58c11.42,11.43,26.59,17.77,42.72,17.86c0.18,0,0.37,0,0.55,0.01h858.21v-60.98
				c0-31.01-23.18-57.04-53.92-60.57c-13.17-1.51-22.62-13.41-21.11-26.58c1.51-13.17,13.41-22.62,26.58-21.11
				c54.99,6.3,96.46,52.84,96.46,108.25v84.98C1398.64,895.28,1387.9,906.03,1374.64,906.03z M492.93,858.05
				c0.04,0,0.07,0,0.11,0.01C493,858.05,492.97,858.05,492.93,858.05z M492.91,858.05c0.01,0,0.02,0,0.02,0
				C492.92,858.05,492.92,858.05,492.91,858.05z M431.28,796.8c0,0.04,0,0.08,0,0.13C431.29,796.89,431.28,796.84,431.28,796.8z"/>
		</g>
		<g>
			<g>
				<g>
					<path class="st6" d="M603.3,906.04c-3.28,0-6.62-0.68-9.81-2.11c-12.09-5.43-17.5-19.63-12.07-31.72l270.12-602.03
						c2.61-5.81,7.41-10.34,13.36-12.61c5.95-2.26,12.55-2.07,18.36,0.53l516.22,231.61c12.09,5.43,17.5,19.63,12.07,31.72
						l-166.2,370.42c-5.43,12.09-19.63,17.5-31.72,12.07c-12.09-5.43-17.5-19.63-12.07-31.72l156.37-348.52L885.5,311.72
						L625.21,891.86C621.22,900.76,612.47,906.04,603.3,906.04z"/>
				</g>
				<g>
					<path class="st6" d="M1123.02,906.04c-3.28,0-6.62-0.68-9.81-2.11c-12.09-5.43-17.5-19.63-12.07-31.72l100.15-223.23
						c-16.98-12.55-30.06-29.71-37.75-49.92c-7.7-20.21-9.34-41.72-5-62.39l-150.16-67.37c-12.55,16.98-29.71,30.05-49.93,37.74
						c-20.21,7.69-41.72,9.34-62.39,4.99L801.89,721.9l-76.25,169.96c-5.43,12.09-19.63,17.5-31.72,12.07
						c-12.09-5.43-17.5-19.63-12.07-31.72l76.25-169.96l102.93-229.42c2.61-5.81,7.41-10.34,13.36-12.61
						c5.95-2.26,12.55-2.07,18.36,0.53c15.49,6.95,32.76,7.45,48.62,1.42c15.86-6.04,28.43-17.89,35.37-33.37
						c2.61-5.81,7.41-10.34,13.36-12.61c5.95-2.27,12.56-2.07,18.36,0.53l189.26,84.91c5.81,2.61,10.34,7.41,12.61,13.36
						s2.07,12.55-0.53,18.36c-6.95,15.49-7.45,32.75-1.41,48.62c6.04,15.87,17.9,28.43,33.38,35.38c5.81,2.6,10.34,7.41,12.61,13.36
						c2.26,5.95,2.07,12.56-0.53,18.36l-32.68,72.82l-76.25,169.96C1140.93,900.76,1132.18,906.04,1123.02,906.04z"/>
				</g>
				<g>
					<path class="st6" d="M829.59,906.03c-13.25,0-23.99-10.73-24-23.98c-0.01-15.28,3.17-30.13,9.47-44.14
						c11.78-26.26,33.09-46.36,59.99-56.6c26.91-10.24,56.19-9.39,82.45,2.4c38.66,17.35,63.66,55.94,63.68,98.32
						c0.01,13.25-10.73,24.01-23.99,24.01c0,0-0.01,0-0.01,0c-13.25,0-23.99-10.74-24-23.99c-0.01-23.51-13.88-44.92-35.33-54.55
						c-14.57-6.54-30.81-7.01-45.73-1.33c-14.92,5.68-26.74,16.83-33.28,31.4c-3.5,7.79-5.26,16.01-5.26,24.45
						c0.01,13.25-10.73,24.01-23.98,24.02C829.6,906.03,829.6,906.03,829.59,906.03z"/>
				</g>
			</g>
			<g>
				<path class="st6" d="M491.73,906.03c-3.28,0-6.62-0.68-9.81-2.11c-12.09-5.43-17.5-19.63-12.07-31.72L725.1,303.3
					c2.61-5.81,7.41-10.34,13.36-12.61c5.95-2.26,12.55-2.07,18.36,0.53l92.88,41.68c12.09,5.43,17.5,19.63,12.07,31.72
					c-5.43,12.09-19.63,17.5-31.72,12.07l-70.98-31.85l-245.42,547C509.64,900.75,500.89,906.03,491.73,906.03z"/>
			</g>
		</g>
		<g>
			<path class="st6" d="M1640.71,1437.4h-241.38c-85.4,0-154.87-69.48-154.87-154.88c0-85.4,69.48-154.87,154.87-154.87h241.38
				c13.25,0,24,10.75,24,24v261.75C1664.71,1426.66,1653.96,1437.4,1640.71,1437.4z M1399.33,1175.65
				c-58.93,0-106.87,47.94-106.87,106.87s47.94,106.88,106.87,106.88h217.38v-213.75H1399.33z"/>
		</g>
		<g>
			<path class="st6" d="M1396.78,1349.71c-37.04,0-67.18-30.14-67.18-67.18s30.14-67.18,67.18-67.18s67.18,30.14,67.18,67.18
				S1433.82,1349.71,1396.78,1349.71z M1396.78,1263.35c-10.58,0-19.18,8.61-19.18,19.18s8.61,19.18,19.18,19.18
				s19.18-8.61,19.18-19.18S1407.35,1263.35,1396.78,1263.35z"/>
		</g>
	</g>
</g>
</svg>
