<?xml version="1.0" encoding="utf-8"?>
<!-- Generator: Adobe Illustrator 23.0.2, SVG Export Plug-In . SVG Version: 6.00 Build 0)  -->
<svg version="1.1" id="Layer_1" xmlns="http://www.w3.org/2000/svg" xmlns:xlink="http://www.w3.org/1999/xlink" x="0px" y="0px"
	 viewBox="0 0 2048 2048" style="enable-background:new 0 0 2048 2048;" xml:space="preserve">
<style type="text/css">
	.st0{fill:#FFE783;}
	.st1{fill:#FF725C;}
	.st2{fill:#333333;}
</style>
<g>
	<g>
		<g id="XMLID_1_">
			<polygon class="st0" points="1532.73,1584.95 1532.73,1718.84 1447.95,1768 1363.16,1718.84 1278.38,1768 1193.59,1718.84 
				1108.81,1768 1024.02,1718.84 939.23,1768 854.43,1718.84 769.64,1768 684.86,1718.84 600.07,1768 515.27,1718.84 
				515.27,1584.95 			"/>
			<polygon class="st0" points="1532.73,329.16 1532.73,463.05 515.27,463.05 515.27,329.16 600.07,280 684.86,329.16 769.64,280 
				854.43,329.16 939.23,280 1024.02,329.16 1108.81,280 1193.59,329.16 1278.38,280 1363.16,329.16 1447.95,280 			"/>
			<path class="st0" d="M519.24,808.65h1009.52c-23.18,142.81-23.18,287.89,0,430.7H519.24
				C542.42,1096.54,542.42,951.46,519.24,808.65z"/>
			<path class="st1" d="M1562.07,1389.96c18.55,65.94,7.98,135.73-29.34,194.99H515.27c-37.32-59.26-47.89-129.05-29.34-194.99
				c14.01-49.79,25.11-100.06,33.31-150.61h1009.52C1536.96,1289.9,1548.06,1340.17,1562.07,1389.96z"/>
			<path class="st1" d="M1532.73,463.05c37.32,59.26,47.89,129.05,29.34,194.99c-14.01,49.79-25.11,100.06-33.31,150.61H519.24
				c-8.2-50.55-19.3-100.82-33.31-150.61c-18.55-65.94-7.98-135.73,29.34-194.99H1532.73z"/>
		</g>
	</g>
	<g>
		<g>
			<g>
				<path class="st2" d="M515.29,1608.96c-7.97,0-15.77-3.97-20.33-11.21c-20.36-32.33-33.49-67.39-39.04-104.2
					c-5.57-36.95-3.24-73.98,6.91-110.08c66.16-235.16,66.16-483.76,0-718.92c-10.15-36.09-12.48-73.13-6.91-110.08
					c5.55-36.81,18.68-71.87,39.04-104.2c7.06-11.22,21.88-14.58,33.1-7.52c11.22,7.06,14.58,21.88,7.52,33.1
					c-33.86,53.78-43.29,116.18-26.54,175.7c34.23,121.67,51.58,246.98,51.58,372.46c0,125.48-17.36,250.8-51.58,372.46
					c-16.75,59.52-7.32,121.92,26.54,175.7c7.06,11.22,3.69,26.04-7.52,33.1C524.09,1607.76,519.66,1608.96,515.29,1608.96z"/>
			</g>
			<g>
				<path class="st2" d="M1532.71,1608.96c-4.37,0-8.79-1.19-12.77-3.69c-11.22-7.06-14.58-21.88-7.52-33.1
					c33.86-53.78,43.29-116.18,26.54-175.71c-34.23-121.67-51.58-246.98-51.58-372.46c0-125.48,17.36-250.8,51.58-372.46
					c16.75-59.52,7.32-121.92-26.54-175.7c-7.06-11.22-3.7-26.04,7.52-33.1c11.22-7.06,26.03-3.7,33.1,7.52
					c20.36,32.33,33.49,67.39,39.04,104.2c5.57,36.95,3.24,73.98-6.91,110.08c-66.16,235.16-66.16,483.76,0,718.92
					c10.15,36.09,12.48,73.13,6.91,110.08c-5.55,36.81-18.68,71.87-39.04,104.2C1548.48,1604.99,1540.68,1608.96,1532.71,1608.96z"
					/>
			</g>
		</g>
		<g>
			<path class="st2" d="M1532.73,487.05H515.27c-13.25,0-24-10.75-24-24V329.16c0-8.56,4.56-16.47,11.96-20.76l84.8-49.16
				c7.45-4.32,16.63-4.32,24.08,0l72.75,42.18l72.75-42.18c7.45-4.32,16.63-4.32,24.08,0l72.75,42.18l72.76-42.19
				c7.45-4.32,16.63-4.32,24.08,0l72.75,42.18l72.75-42.18c7.45-4.32,16.63-4.32,24.08,0l72.74,42.18l72.75-42.18
				c7.45-4.32,16.63-4.32,24.08,0l72.75,42.18l72.75-42.18c7.45-4.32,16.63-4.32,24.08,0l84.78,49.16
				c7.4,4.29,11.96,12.2,11.96,20.76v133.88C1556.73,476.3,1545.99,487.05,1532.73,487.05z M539.27,439.05h969.46v-96.06
				l-60.78-35.25l-72.75,42.18c-7.45,4.32-16.63,4.32-24.08,0l-72.75-42.18l-72.75,42.18c-7.45,4.32-16.63,4.32-24.08,0
				l-72.74-42.18l-72.75,42.18c-7.45,4.32-16.63,4.32-24.08,0l-72.75-42.18l-72.76,42.19c-7.44,4.32-16.63,4.32-24.08,0
				l-72.75-42.18l-72.75,42.18c-7.45,4.32-16.63,4.32-24.08,0l-72.75-42.18l-60.8,35.25V439.05z"/>
		</g>
		<g>
			<g>
				<path class="st2" d="M1194.71,1137.34c-21.79,0-42.27-8.49-57.68-23.9c-15.4-15.4-23.89-35.88-23.89-57.67v-62.81
					c0-44.88,36.17-81.8,80.64-82.3c22.1-0.24,42.96,8.24,58.61,23.89c8.14,8.14,14.35,17.69,18.46,28.38
					c4.76,12.37-1.42,26.26-13.79,31.01c-12.38,4.75-26.26-1.42-31.01-13.79c-1.68-4.38-4.24-8.3-7.6-11.67
					c-6.44-6.44-14.97-9.91-24.13-9.83c-18.29,0.2-33.18,15.59-33.18,34.3v62.81c0,8.96,3.49,17.39,9.83,23.73
					c6.34,6.35,14.77,9.84,23.74,9.84c13.79,0,26.39-8.64,31.34-21.51c4.76-12.37,18.65-18.54,31.02-13.78
					c12.37,4.76,18.54,18.65,13.78,31.02c-5.86,15.22-16.04,28.21-29.44,37.58C1227.67,1132.26,1211.52,1137.34,1194.71,1137.34z"/>
			</g>
			<g>
				<path class="st2" d="M670.33,1137.34c-1.25,0-2.5-0.03-3.74-0.09c-16.89-0.85-32.19-7.47-43.07-18.64
					c-8.53-8.76-18.65-24.75-18.39-51.16c0.13-13.17,10.85-23.77,23.99-23.77c0.08,0,0.16,0,0.24,0
					c13.25,0.13,23.89,10.98,23.77,24.23c-0.18,18.15,7.93,21,15.87,21.4c12.65,0.62,25.33-7.23,25.93-13.79
					c0.03-0.32,0.06-0.63,0.1-0.94c2.24-17.07-27.78-28.5-31.21-29.75c-11.15-4.05-27.39-10.77-39.67-22.21
					c-16.08-15-21.9-34.87-16.41-55.95c11.53-44.22,48.99-59.64,78.92-55.25c16.04,2.35,30.64,10.14,41.11,21.94
					c11.61,13.09,17.39,29.89,16.72,48.59c-0.48,13.25-11.58,23.6-24.85,23.12c-13.25-0.48-23.6-11.6-23.12-24.85
					c0.62-17.4-12.71-20.72-16.81-21.32c-4.59-0.67-20.01-1.23-25.51,19.87c-0.98,3.76-0.73,5.55,2.7,8.75
					c6.54,6.1,19.17,10.69,23.32,12.2c7.97,2.9,23.33,9.44,36.75,20.71c19.37,16.26,28.49,37.53,25.71,59.93
					c-1.74,17.47-11.73,33.02-28.16,43.83C701.67,1132.63,685.76,1137.34,670.33,1137.34z"/>
			</g>
			<g>
				<path class="st2" d="M887.54,1137.34c-9.07,0-17.57-5.16-21.63-13.62l-40.12-83.6v73.21c0,13.25-10.75,24-24,24s-24-10.75-24-24
					V934.66c0-11.2,7.75-20.92,18.67-23.4c10.93-2.48,22.11,2.92,26.96,13.02l40.12,83.6v-73.21c0-13.25,10.75-24,24-24
					s24,10.75,24,24v178.68c0,11.2-7.75,20.92-18.67,23.4C891.09,1137.15,889.3,1137.34,887.54,1137.34z"/>
			</g>
			<g>
				<g>
					<path class="st2" d="M968.02,1137.35c-2.17,0-4.38-0.3-6.58-0.92c-12.75-3.63-20.15-16.9-16.52-29.65l50.81-178.68
						c2.93-10.32,12.36-17.44,23.08-17.44s20.15,7.12,23.08,17.44l50.81,178.68c3.63,12.75-3.77,26.02-16.52,29.65
						c-12.75,3.63-26.02-3.77-29.65-16.52l-27.73-97.51l-27.73,97.51C988.09,1130.46,978.48,1137.35,968.02,1137.35z"/>
				</g>
				<g>
					<path class="st2" d="M1053.33,1097.12h-68.65c-13.25,0-24-10.75-24-24s10.75-24,24-24h68.65c13.25,0,24,10.75,24,24
						S1066.59,1097.12,1053.33,1097.12z"/>
				</g>
			</g>
			<g>
				<g>
					<path class="st2" d="M1323.65,1137.34c-13.25,0-24-10.75-24-24V934.66c0-13.25,10.75-24,24-24s24,10.75,24,24v178.68
						C1347.65,1126.6,1336.9,1137.34,1323.65,1137.34z"/>
				</g>
				<g>
					<path class="st2" d="M1418.88,1137.34c-5.89,0-11.78-2.15-16.42-6.5l-95.23-89.34c-4.84-4.54-7.58-10.87-7.58-17.5
						s2.74-12.97,7.58-17.5l95.23-89.34c9.67-9.07,24.86-8.58,33.92,1.08c9.07,9.67,8.58,24.85-1.08,33.92l-76.57,71.84l76.57,71.84
						c9.67,9.07,10.15,24.26,1.08,33.92C1431.66,1134.8,1425.28,1137.34,1418.88,1137.34z"/>
				</g>
			</g>
		</g>
		<g>
			<path class="st2" d="M939.23,1792c-4.16,0-8.32-1.08-12.04-3.24l-72.76-42.19l-72.75,42.18c-7.45,4.32-16.63,4.32-24.08,0
				l-72.75-42.18l-72.75,42.18c-7.45,4.32-16.63,4.32-24.08,0l-84.8-49.17c-7.4-4.29-11.96-12.2-11.96-20.76v-133.88
				c0-13.25,10.75-24,24-24h1017.46c13.25,0,24,10.75,24,24v133.88c0,8.56-4.56,16.47-11.96,20.76l-84.78,49.17
				c-7.45,4.32-16.63,4.32-24.08,0l-72.75-42.18l-72.75,42.18c-7.45,4.32-16.63,4.32-24.08,0l-72.75-42.18l-72.74,42.18
				c-7.45,4.32-16.63,4.32-24.08,0l-72.75-42.18l-72.75,42.18C947.55,1790.92,943.39,1792,939.23,1792z M854.43,1694.83
				c4.16,0,8.32,1.08,12.04,3.24l72.76,42.19l72.75-42.18c7.45-4.32,16.63-4.32,24.08,0l72.75,42.18l72.74-42.18
				c7.45-4.32,16.63-4.32,24.08,0l72.75,42.18l72.75-42.18c7.45-4.32,16.63-4.32,24.08,0l72.75,42.18l60.78-35.25v-96.06H539.27
				v96.05l60.8,35.25l72.75-42.18c7.45-4.32,16.63-4.32,24.08,0l72.75,42.18l72.75-42.18
				C846.12,1695.91,850.28,1694.83,854.43,1694.83z M1532.73,1718.83L1532.73,1718.83L1532.73,1718.83z"/>
		</g>
		<g>
			<path class="st2" d="M1528.76,1263.35H519.24c-13.25,0-24-10.75-24-24s10.75-24,24-24h1009.52c13.25,0,24,10.75,24,24
				S1542.01,1263.35,1528.76,1263.35z"/>
		</g>
		<g>
			<path class="st2" d="M1528.76,832.65H519.24c-13.25,0-24-10.75-24-24s10.75-24,24-24h1009.52c13.25,0,24,10.75,24,24
				S1542.01,832.65,1528.76,832.65z"/>
		</g>
	</g>
</g>
</svg>
