<?xml version="1.0" encoding="utf-8"?>
<!-- Generator: Adobe Illustrator 23.0.2, SVG Export Plug-In . SVG Version: 6.00 Build 0)  -->
<svg version="1.1" id="Layer_1" xmlns="http://www.w3.org/2000/svg" xmlns:xlink="http://www.w3.org/1999/xlink" x="0px" y="0px"
	 viewBox="0 0 2048 2048" style="enable-background:new 0 0 2048 2048;" xml:space="preserve">
<style type="text/css">
	.st0{fill:#76C230;}
	.st1{fill:#FD9226;}
	.st2{fill:#CADD78;}
	.st3{fill:#FF725C;}
	.st4{fill:#FFE783;}
	.st5{fill:#333333;}
</style>
<g>
	<g>
		<g>
			<g>
				<g>
					<g id="XMLID_2_">
						<path class="st0" d="M1156.26,382.67c16.95,17.32,16.66,45.11-0.66,62.06l-78.47,79.55c-20.6-11.9-44.57-18.89-70.5-19.16
							c-25.01-0.26-48.33,5.76-68.65,16.47l-79.03-79.97c-8.48-8.67-12.65-19.95-12.53-31.18s4.52-22.41,13.18-30.89
							c17.32-16.96,45.1-16.67,62.07,0.65l41.93,42.83l0.27-26.22c0.13-12.13,5.16-23.04,13.18-30.9
							c8.02-7.86,19.05-12.66,31.17-12.53c24.23,0.26,43.68,20.11,43.42,44.35l-0.28,26.22l42.83-41.93
							c8.66-8.49,19.94-12.65,31.17-12.53C1136.59,369.6,1147.78,374,1156.26,382.67z"/>
						<path class="st1" d="M869.43,703.21l-4.92-21.33c-15.39-66.67,17.87-131.01,73.47-160.29c20.32-10.71,43.64-16.73,68.65-16.47
							c25.93,0.27,49.9,7.26,70.5,19.16c11.58,6.68,22.1,14.92,31.31,24.39c18.08,18.59,31.1,41.91,37.18,67.53
							c5.17,21.72,5.34,45.09-0.62,68.62l-25.05,98.95l-36.32,143.48H921.16l-12.88-55.78L869.43,703.21z"/>
						<path class="st2" d="M678.57,715.85l-7.05,211.4H544.2v-0.27c-23.58-35.17-59.75-89.11-76.94-114.72c0.01-0.01,0-0.01,0-0.01
							c6.78-12.72,9.69-27.64,7.41-42.99c-0.86-5.82-2.43-11.36-4.58-16.55c32.22-7.36,57.04-31.27,66.69-61.23
							c8.28,1.1,16.85,1.07,25.53-0.22c34.77-5.16,62.47-29.05,73.39-60.06c-2.67,9.28-3.02,19.43-1.51,29.61
							C638.04,686.73,655.68,707.19,678.57,715.85L678.57,715.85z"/>
						<path class="st0" d="M377.98,497.36c-3.15-7.55-5.43-15.61-6.69-24.08c-8.15-54.92,29.76-106.05,84.68-114.2
							c41.29-6.13,80.45,13.79,100.8,47.42c5.71-2.21,11.75-3.81,18.05-4.75c44.48-6.6,86.03,22.55,95.47,65.86
							c40.43,1.1,75.47,31.06,81.62,72.46c2.81,18.92-0.85,37.32-9.33,52.93c15.46,10.58,26.64,27.32,29.61,47.32
							c5.66,38.11-20.65,73.58-58.76,79.24c-12.19,1.81-24.11,0.35-34.86-3.72c-22.89-8.65-40.53-29.11-44.38-55.03
							c-1.51-10.18-1.16-20.33,1.51-29.61c0.02,0.01,0.04,0.01,0.05,0.02c-0.01-0.01-0.03-0.02-0.05-0.03
							c-0.14-0.05-0.07-0.02,0,0.01c-10.92,31.01-38.62,54.9-73.39,60.06c-8.68,1.29-17.25,1.32-25.53,0.22
							c-9.65,29.96-34.47,53.87-66.69,61.23h-0.01c-2.32,0.54-4.67,0.98-7.06,1.33c-16.03,2.38-31.7,0.45-45.84-4.91
							c-16.85-6.38-31.54-17.65-42.07-32.33c-7.88-10.97-13.44-23.85-15.84-38.03c-16.51-3.33-31.63-11.15-43.8-22.31
							c-14.97-13.7-25.48-32.42-28.69-54.04c-7.43-50.04,27.11-96.63,77.15-104.06C368.66,497.66,373.35,497.34,377.98,497.36z"/>
						<path class="st3" d="M671.52,927.25h249.64h162.47h192.19h87.41h278.58h65.26c33.65,0,60.93,27.28,60.93,60.94
							c0,16.83-6.82,32.06-17.85,43.08c-11.02,11.03-26.25,17.85-43.08,17.85h-6.96H347.89h-6.96c-33.65,0-60.93-27.28-60.93-60.93
							c0-16.83,6.82-32.07,17.85-43.09c11.02-11.03,26.25-17.85,43.08-17.85H544.2H671.52z"/>
						<path class="st0" d="M467.26,812.25c0,0,0.01,0,0,0.01c-10.04,18.85-28.59,32.85-51.34,36.23
							c-38.11,5.66-73.59-20.64-79.25-58.74c-0.62-4.2-0.86-8.37-0.73-12.47c-23.84-8.2-42.4-29.08-46.36-55.74
							c-3.81-25.66,6.88-50.12,25.89-65.08c12.17,11.16,27.29,18.98,43.8,22.31c2.4,14.18,7.96,27.06,15.84,38.03
							c10.53,14.68,25.22,25.95,42.07,32.33c14.14,5.36,29.81,7.29,45.84,4.91c2.39-0.35,4.74-0.79,7.06-1.33h0.01
							c2.15,5.19,3.72,10.73,4.58,16.55C476.95,784.61,474.04,799.53,467.26,812.25z"/>
						<path class="st0" d="M1547.84,684.92v0.01l0.01-0.01H1547.84z M1363.23,927.25h-87.41c-28.91-12.77-49.09-41.71-49.09-75.38
							c0-27.49,13.48-51.84,34.2-66.82c-23.54-13.64-39.37-39.11-39.37-68.29c0-43.58,35.34-78.93,78.93-78.93
							c11.36,0,22.14,2.4,31.91,6.71c3.91-39.93,37.58-71.1,78.53-71.1c22.3,0,42.44,9.25,56.8,24.13c-0.43-3.28-0.64-6.62-0.64-10
							c0-43.59,35.33-78.94,78.92-78.94c19.87,0,38.06,7.35,51.93,19.5c12.95-25.86,39.7-43.61,70.59-43.61
							c43.6,0,78.93,35.35,78.93,78.93c0,18.11-6.1,34.79-16.36,48.11c19.33,14.4,31.84,37.42,31.84,63.37
							c0,43.59-35.33,78.92-78.91,78.92c-2.7,0-5.36-0.13-7.98-0.4c5.1,10.45,7.98,22.19,7.98,34.61
							c0,34.75-22.47,64.26-53.67,74.79h-0.01c8.63,13.02,13.65,28.65,13.65,45.44c0,6.52-0.76,12.88-2.19,18.96H1363.23z
							 M1405.63,850.82v0.02c0.01,0,0.01-0.01,0.01-0.01v-0.01H1405.63z"/>
						<path class="st3" d="M1395.98,1267.63v208.48c0,31.48-25.51,57-56.99,57s-57-25.52-57-57v-208.48c0-31.48,25.52-57,57-57
							c15.74,0,29.99,6.38,40.3,16.69C1389.6,1237.64,1395.98,1251.89,1395.98,1267.63z"/>
						<path class="st3" d="M1081,1267.63v208.48c0,31.48-25.52,57-57,57s-57-25.52-57-57v-208.48c0-31.48,25.52-57,57-57
							c15.74,0,29.99,6.38,40.3,16.69C1074.62,1237.64,1081,1251.89,1081,1267.63z"/>
						<path class="st3" d="M766.01,1267.63v208.48c0,31.48-25.52,57-57,57s-56.99-25.52-56.99-57v-208.48c0-31.48,25.51-57,56.99-57
							c15.74,0,29.99,6.38,40.31,16.69C759.63,1237.64,766.01,1251.89,766.01,1267.63z"/>
						<path class="st4" d="M1700.11,1049.12l-121.17,645.5H469.06l-121.17-645.5H1700.11z M1395.98,1476.11v-208.48
							c0-15.74-6.38-29.99-16.69-40.31c-10.31-10.31-24.56-16.69-40.3-16.69c-31.48,0-57,25.52-57,57v208.48c0,31.48,25.52,57,57,57
							S1395.98,1507.59,1395.98,1476.11z M1081,1476.11v-208.48c0-15.74-6.38-29.99-16.7-40.31c-10.31-10.31-24.56-16.69-40.3-16.69
							c-31.48,0-57,25.52-57,57v208.48c0,31.48,25.52,57,57,57S1081,1507.59,1081,1476.11z M766.01,1476.11v-208.48
							c0-15.74-6.38-29.99-16.69-40.31c-10.32-10.31-24.57-16.69-40.31-16.69c-31.48,0-56.99,25.52-56.99,57v208.48
							c0,31.48,25.51,57,56.99,57S766.01,1507.59,766.01,1476.11z"/>
					</g>
				</g>
			</g>
		</g>
	</g>
	<g>
		<g>
			<g>
				<g>
					<path class="st5" d="M1578.94,1718.62H469.06c-11.55,0-21.46-8.22-23.59-19.57l-121.17-645.5c-1.32-7.02,0.56-14.26,5.12-19.75
						s11.33-8.67,18.47-8.67h1352.21c7.14,0,13.91,3.18,18.47,8.67s6.44,12.74,5.12,19.75l-121.17,645.5
						C1600.4,1710.4,1590.49,1718.62,1578.94,1718.62z M488.97,1670.62h1070.05l112.16-597.5H376.82L488.97,1670.62z"/>
				</g>
				<g>
					<path class="st5" d="M1707.07,1073.12H340.93c-46.83,0-84.93-38.1-84.93-84.93c0-46.83,38.1-84.94,84.93-84.94h1366.13
						c46.83,0,84.93,38.1,84.93,84.94C1792,1035.02,1753.9,1073.12,1707.07,1073.12z M340.93,951.25
						c-20.37,0-36.93,16.57-36.93,36.94c0,20.37,16.57,36.93,36.93,36.93h1366.13c20.37,0,36.93-16.57,36.93-36.93
						c0-20.37-16.57-36.94-36.93-36.94H340.93z"/>
				</g>
				<g>
					<g>
						<path class="st5" d="M709.01,1557.11c-44.66,0-81-36.33-81-81v-208.49c0-44.66,36.33-81,81-81s81,36.33,81,81v208.49
							C790.01,1520.78,753.67,1557.11,709.01,1557.11z M709.01,1234.63c-18.19,0-33,14.8-33,33v208.49c0,18.19,14.8,33,33,33
							s33-14.8,33-33v-208.49C742.01,1249.43,727.21,1234.63,709.01,1234.63z"/>
					</g>
					<g>
						<path class="st5" d="M1024,1557.11c-44.66,0-81-36.33-81-81v-208.49c0-44.66,36.33-81,81-81s81,36.33,81,81v208.49
							C1105,1520.78,1068.66,1557.11,1024,1557.11z M1024,1234.63c-18.19,0-33,14.8-33,33v208.49c0,18.19,14.8,33,33,33
							c18.19,0,33-14.8,33-33v-208.49C1057,1249.43,1042.19,1234.63,1024,1234.63z"/>
					</g>
					<g>
						<path class="st5" d="M1338.99,1557.11c-44.66,0-81-36.33-81-81v-208.49c0-44.66,36.33-81,81-81s81,36.33,81,81v208.49
							C1419.98,1520.78,1383.65,1557.11,1338.99,1557.11z M1338.99,1234.63c-18.19,0-33,14.8-33,33v208.49c0,18.19,14.8,33,33,33
							s33-14.8,33-33v-208.49C1371.98,1249.43,1357.18,1234.63,1338.99,1234.63z"/>
					</g>
				</g>
			</g>
		</g>
		<g>
			<g>
				<g>
					<g>
						<path class="st5" d="M1083.64,951.26c-1.95,0-3.93-0.24-5.91-0.74c-12.85-3.25-20.63-16.31-17.38-29.16l61.37-242.43
							c4.84-19.11,5.02-38.34,0.54-57.17c-5.02-21.16-15.75-40.64-31.04-56.35c-22.43-23.06-52.57-35.95-84.85-36.28
							c-37.14-0.39-71.76,15.98-95.03,44.91c-23.26,28.93-31.81,66.27-23.46,102.45l56.65,245.37c2.98,12.92-5.07,25.8-17.98,28.78
							c-12.92,2.98-25.8-5.07-28.78-17.98l-56.65-245.38c-11.68-50.6,0.28-102.84,32.82-143.32s80.96-63.41,132.94-62.83
							c45.17,0.47,87.35,18.51,118.76,50.81c21.33,21.93,36.31,49.15,43.33,78.72c6.29,26.43,6.05,53.37-0.71,80.05l-61.37,242.43
							C1104.14,944.01,1094.37,951.26,1083.64,951.26z"/>
					</g>
					<g>
						<g>
							<path class="st5" d="M1145.62,640.2c-0.09,0-0.17,0-0.26,0l-97.76-1.03c-13.25-0.14-23.89-11-23.75-24.25
								c0.14-13.25,11.03-23.89,24.25-23.75l97.76,1.03c13.25,0.14,23.89,11,23.75,24.25
								C1169.47,629.62,1158.75,640.2,1145.62,640.2z"/>
						</g>
						<g>
							<path class="st5" d="M962.15,728.19c-0.09,0-0.17,0-0.26,0l-92.71-0.97c-13.25-0.14-23.89-11-23.75-24.25
								c0.14-13.25,10.97-23.9,24.25-23.75l92.71,0.97c13.25,0.14,23.89,11,23.75,24.25C986,717.61,975.28,728.19,962.15,728.19z"/>
						</g>
					</g>
					<g>
						<g>
							<path class="st5" d="M1119.95,807.77c-0.09,0-0.17,0-0.26,0l-73.85-0.78c-13.25-0.14-23.89-11-23.75-24.25
								c0.14-13.17,10.86-23.75,23.99-23.75c0.09,0,0.17,0,0.26,0l73.85,0.78c13.25,0.14,23.89,11,23.75,24.25
								C1143.81,797.19,1133.09,807.77,1119.95,807.77z"/>
						</g>
					</g>
				</g>
				<g>
					<g>
						<path class="st5" d="M1084.08,538.76c-6.23,0-12.45-2.41-17.15-7.21c-9.27-9.47-9.11-24.67,0.36-33.94l71.52-70.03
							c7.83-7.67,7.97-20.29,0.29-28.13c-3.71-3.8-8.68-5.92-14-5.97c-0.07,0-0.14,0-0.22,0c-5.23,0-10.16,2.01-13.9,5.67
							l-42.84,41.94c-6.94,6.79-17.28,8.74-26.21,4.92c-8.93-3.81-14.68-12.62-14.58-22.33l0.28-26.22
							c0.06-5.31-1.96-10.33-5.68-14.12c-3.72-3.8-8.69-5.92-14-5.97c-5.37-0.06-10.33,1.96-14.12,5.67
							c-3.79,3.72-5.92,8.7-5.98,14.01l-0.27,26.22c-0.1,9.71-6.04,18.4-15.05,22.02c-9.01,3.62-19.31,1.46-26.1-5.48l-41.93-42.82
							c-3.72-3.8-8.69-5.92-14-5.98c-5.31-0.04-10.32,1.96-14.12,5.68c-3.8,3.72-5.92,8.69-5.98,14
							c-0.06,5.31,1.96,10.33,5.68,14.13l70.03,71.52c9.27,9.47,9.11,24.67-0.36,33.94c-9.47,9.27-24.67,9.11-33.94-0.36
							l-70.03-71.52c-12.69-12.96-19.57-30.08-19.38-48.21c0.19-18.13,7.43-35.1,20.39-47.79c12.95-12.69,30.06-19.58,48.21-19.38
							c18.13,0.19,35.1,7.43,47.79,20.39l6.65,6.79c3.45-7.93,8.43-15.2,14.79-21.43c12.96-12.7,30.06-19.58,48.22-19.38
							c18.13,0.19,35.1,7.43,47.79,20.39c6.24,6.37,11.07,13.74,14.35,21.75l6.79-6.65c12.94-12.68,30.05-19.58,48.21-19.38
							c18.14,0.19,35.12,7.43,47.8,20.4c26.18,26.74,25.72,69.81-1.02,95.99l-71.52,70.03
							C1096.2,536.48,1090.14,538.76,1084.08,538.76z"/>
					</g>
				</g>
			</g>
			<g>
				<g>
					<path class="st5" d="M671.23,947.79c-0.29,0-0.57-0.01-0.86-0.02c-13.25-0.47-23.61-11.59-23.14-24.83L654.59,715
						c0.47-13.25,11.6-23.61,24.83-23.14c13.25,0.47,23.61,11.59,23.14,24.83l-7.35,207.94
						C694.74,937.59,684.09,947.79,671.23,947.79z"/>
				</g>
				<g>
					<path class="st5" d="M544.22,950.98c-7.73,0-15.32-3.73-19.96-10.64l-12.55-18.72c-22.44-33.47-50.04-74.62-64.38-96
						c-2.65-3.95-4.07-8.61-4.07-13.37c0-13.25,10.75-24,24-24c8.52,0,16.01,4.44,20.27,11.13c14.44,21.52,41.78,62.3,64.05,95.51
						l12.55,18.72c7.38,11.01,4.44,25.92-6.57,33.3C553.46,949.67,548.81,950.98,544.22,950.98z"/>
				</g>
				<g>
					<path class="st5" d="M742.56,617.01c-3.87,0-7.79-0.94-11.44-2.92c-11.65-6.33-15.96-20.9-9.63-32.55
						c6.33-11.65,8.64-24.77,6.68-37.95c-4.36-29.32-28.97-51.19-58.53-51.99c-13.25-0.36-23.7-11.39-23.34-24.64
						c0.36-13.25,11.41-23.66,24.64-23.34c52.89,1.44,96.92,40.52,104.71,92.92c3.5,23.56-0.64,47.04-11.98,67.91
						C759.32,612.46,751.07,617.01,742.56,617.01z"/>
				</g>
				<g>
					<path class="st5" d="M635.72,655.2c-2.93,0-5.9-0.54-8.78-1.66c-12.2-4.78-18.4-18.51-13.81-30.78
						c4.59-12.28,18.26-18.58,30.61-14.18c0.47,0.17,0.94,0.35,1.4,0.55c12.05,5.16,17.81,19.08,12.83,31.2
						C654.18,649.59,645.19,655.2,635.72,655.2z"/>
				</g>
				<g>
					<path class="st5" d="M670.27,491.61c-11.04,0-20.98-7.66-23.43-18.89c-6.8-31.17-36.88-51.92-68.49-47.23
						c-4.46,0.66-8.82,1.8-12.94,3.39c-12.37,4.77-26.26-1.39-31.03-13.75c-4.77-12.37,1.39-26.26,13.75-31.03
						c7.41-2.86,15.21-4.91,23.16-6.09c56.5-8.39,110.28,28.72,122.44,84.48c2.82,12.95-5.39,25.74-18.34,28.56
						C673.68,491.43,671.96,491.61,670.27,491.61z"/>
				</g>
				<g>
					<path class="st5" d="M377.99,521.37c-9.39,0-18.31-5.55-22.16-14.76c-3.97-9.51-6.76-19.54-8.28-29.8
						c-10.08-67.92,36.97-131.38,104.89-141.47c49.79-7.4,98.8,15.66,124.86,58.73c8.56,14.13,14.15,29.66,16.59,46.16
						c2.84,19.15,1.29,38.14-4.62,56.45c-4.07,12.61-17.6,19.54-30.21,15.47c-12.61-4.07-19.54-17.6-15.47-30.21
						c3.62-11.22,4.57-22.88,2.82-34.66c-1.51-10.15-4.93-19.69-10.17-28.35c-16.03-26.49-46.15-40.66-76.75-36.11
						c-41.74,6.2-70.66,45.2-64.46,86.94c0.94,6.34,2.65,12.51,5.09,18.35c5.11,12.23-0.67,26.29-12.9,31.4
						C384.21,520.77,381.07,521.37,377.99,521.37z"/>
				</g>
				<g>
					<path class="st5" d="M359.29,702.78c-1.57,0-3.17-0.16-4.77-0.48c-20.61-4.16-39.73-13.9-55.28-28.16
						c-19.45-17.8-32.32-42.03-36.2-68.2c-9.36-63.05,34.32-121.96,97.37-131.32c5.82-0.86,11.79-1.28,17.67-1.26
						c11.84,0.05,21.88,8.73,23.63,20.44c1.97,13.11-7.07,25.33-20.17,27.3c-1.42,0.21-2.84,0.3-4.23,0.26
						c-3.3,0.01-6.61,0.26-9.85,0.74c-36.87,5.47-62.41,39.92-56.94,76.79c2.3,15.52,9.62,29.3,21.15,39.85
						c9.13,8.37,20.31,14.07,32.35,16.5c12.99,2.62,21.4,15.28,18.78,28.27C380.5,694.91,370.48,702.78,359.29,702.78z"/>
				</g>
				<g>
					<path class="st5" d="M449.55,779.04c-13.95,0-27.83-2.52-40.88-7.46c-21.39-8.11-39.75-22.21-53.07-40.78
						c-10.31-14.36-17.04-30.51-20-48.01c-2.21-13.07,6.59-25.46,19.66-27.67c13.07-2.22,25.46,6.59,27.67,19.66
						c1.73,10.23,5.66,19.66,11.67,28.03c7.8,10.88,18.55,19.14,31.08,23.89c10.71,4.06,22.4,5.31,33.81,3.61
						c1.79-0.27,3.53-0.59,5.17-0.97c0.07-0.02,0.15-0.03,0.22-0.05c22.99-5.31,41.78-22.6,49.05-45.16
						c3.2-9.92,4.04-20.21,2.5-30.61c-2.79-18.77-13.43-35.61-29.2-46.2c-11-7.39-13.93-22.3-6.55-33.3
						c7.39-11,22.3-13.93,33.3-6.55c26.96,18.1,45.16,46.9,49.92,79c2.64,17.77,1.19,35.4-4.29,52.4
						c-12.45,38.62-44.7,68.23-84.18,77.25c-0.05,0.01-0.1,0.02-0.14,0.03c-2.82,0.65-5.77,1.2-8.75,1.64
						C460.91,778.62,455.22,779.04,449.55,779.04z M470.09,752.71h0.01H470.09z"/>
				</g>
				<g>
					<path class="st5" d="M548.72,716.27c-5.06,0-10.1-0.33-15.1-1c-13.14-1.75-22.38-13.81-20.63-26.95
						c1.75-13.14,13.81-22.38,26.95-20.63c6.2,0.82,12.54,0.77,18.84-0.17c25.18-3.74,45.98-20.71,54.28-44.3
						c4.4-12.5,18.1-19.07,30.6-14.67c12.5,4.4,19.07,18.1,14.67,30.6c-14.22,40.43-49.67,69.49-92.51,75.85
						C560.14,715.85,554.42,716.27,548.72,716.27z"/>
				</g>
				<g>
					<path class="st5" d="M335.94,801.28c-2.59,0-5.22-0.42-7.8-1.31c-33.26-11.44-57.13-40.14-62.29-74.91
						c-4.93-33.19,8.4-66.7,34.78-87.47c10.41-8.2,25.5-6.4,33.7,4.01c8.2,10.41,6.4,25.5-4.01,33.7
						c-12.88,10.14-19.39,26.5-16.99,42.7c2.52,16.97,14.18,30.98,30.42,36.56c12.53,4.31,19.2,17.96,14.89,30.5
						C355.22,795.03,345.91,801.28,335.94,801.28z"/>
				</g>
				<g>
					<path class="st5" d="M405.47,873.27c-19.96,0-39.32-6.36-55.64-18.46c-20.12-14.91-33.22-36.77-36.9-61.54
						c-0.82-5.55-1.15-11.18-0.98-16.75c0.42-13.25,11.53-23.65,24.74-23.23c13.25,0.42,23.65,11.49,23.23,24.74
						c-0.09,2.71,0.08,5.47,0.48,8.19c1.79,12.09,8.19,22.75,18.01,30.03c9.82,7.28,21.89,10.3,33.98,8.5
						c12.09-1.79,22.75-8.19,30.03-18.01c7.28-9.82,10.3-21.88,8.5-33.97c-0.53-3.56-1.47-7.03-2.79-10.34
						c-0.85-1.92-1.46-3.99-1.79-6.17c-1.97-13.11,7.06-25.33,20.17-27.29l0.01,0c10.89-1.64,21.5,4.36,25.72,14.53
						c2.95,7.1,5.02,14.58,6.15,22.23c3.68,24.77-2.51,49.49-17.43,69.6c-14.92,20.12-36.77,33.22-61.54,36.9
						C414.78,872.93,410.11,873.27,405.47,873.27z"/>
				</g>
				<g>
					<path class="st5" d="M702.99,744.34c-19.96,0-39.31-6.36-55.64-18.46c-20.12-14.92-33.22-36.77-36.9-61.54
						c-2.09-14.08-1.36-27.47,2.18-39.78c3.66-12.74,16.95-20.1,29.69-16.44c12.74,3.66,20.1,16.95,16.44,29.69
						c-1.61,5.59-1.89,12.33-0.83,19.48c1.79,12.09,8.19,22.75,18.01,30.03c9.82,7.28,21.88,10.3,33.97,8.5
						c24.96-3.71,42.25-27.02,38.54-51.97c-1.89-12.74-8.79-23.76-19.43-31.04c-10.94-7.49-13.74-22.42-6.25-33.36
						s22.42-13.74,33.36-6.25c21.47,14.7,35.98,37.88,39.79,63.6c7.59,51.13-27.84,98.91-78.97,106.5
						C712.29,744,707.62,744.34,702.99,744.34z"/>
				</g>
			</g>
			<g>
				<g>
					<path class="st5" d="M1786.94,674.93c0-24.93-9.21-48.97-25.3-67.54c6.46-13.62,9.82-28.5,9.82-43.93
						c0-56.76-46.18-102.93-102.93-102.93c-30.1,0-57.86,12.85-77.1,34.68c-14.02-6.9-29.54-10.57-45.42-10.57
						c-45.84,0-84.77,30.13-98.05,71.63c-11.64-4.48-24.14-6.83-37.03-6.83c-25.72,0-50.34,9.53-69.32,26.84
						c-11.82,10.77-20.84,23.98-26.54,38.58c-4.79-0.68-9.66-1.03-14.57-1.03c-56.76,0-102.93,46.18-102.93,102.93
						c0,26.22,10.11,51.18,27.5,69.97c-14.27,18.46-22.33,41.36-22.33,65.13c0,42.11,24.88,80.32,63.39,97.33
						c3.15,1.39,6.45,2.05,9.69,2.05c9.21,0,18-5.34,21.97-14.31c5.36-12.12-0.13-26.3-12.25-31.65
						c-21.13-9.34-34.79-30.31-34.79-53.42c0-18.68,9.07-36.39,24.26-47.37c13.84-10.03,12.7-31.74-2.07-40.24
						c-16.88-9.81-27.36-28-27.36-47.5c0-30.29,24.64-54.93,54.93-54.93c7.73,0,15.2,1.57,22.2,4.66
						c14.83,6.56,31.67-3.69,33.6-19.61c2.76-28.19,26.26-49.44,54.65-49.44c14.86,0,28.74,5.82,39.16,16.41
						c4.53,4.87,10.97,7.72,17.64,7.72c13.25,0,24-10.75,24-24.01c0-3.35-0.64-6.63-0.64-10c0-30.29,24.64-54.93,54.92-54.93
						c13.28,0,26.08,4.79,36.05,13.49c11.73,10.33,30.43,6.67,37.39-7.34c9.4-18.67,28.2-30.27,49.09-30.27
						c30.29,0,54.93,24.64,54.93,54.93c0,12.23-3.93,23.8-11.38,33.47c-8.05,10.49-5.92,25.98,4.68,33.89
						c14.09,10.5,22.18,26.58,22.18,44.12c0,30.28-24.63,54.92-54.92,54.92c-2.6,0-5.35-0.28-7.99-0.4
						c-13.25,0-23.99,10.75-23.99,24c0,3.82,0.93,7.68,2.7,11.06c3.51,7.39,5.28,15.31,5.28,23.55c0,23.53-14.92,44.39-37.15,51.98
						c-14.83,4.87-21.12,23.09-12.53,36.06c6.31,9.53,9.65,20.66,9.65,32.19c0,4.56-0.52,9.08-1.55,13.45
						c-3.04,12.9,4.95,25.83,17.85,28.87c1.85,0.44,3.71,0.65,5.53,0.65c10.88,0,20.73-7.45,23.34-18.5
						c1.88-7.97,2.83-16.21,2.83-24.47c0-11.89-1.96-23.56-5.76-34.61c28.13-18.76,45.79-50.61,45.79-85.63
						c0-4.33-0.27-8.62-0.8-12.85C1752.84,764.66,1786.94,723.71,1786.94,674.93z"/>
				</g>
				<g>
					<path class="st5" d="M1363.21,951.26c-3.44,0-6.93-0.74-10.24-2.31c-11.98-5.67-17.1-19.97-11.44-31.96
						c12.57-26.58,27.24-53.05,43.62-78.68c0.09-0.14,0.18-0.29,0.27-0.43c19.21-30.02,41.13-59.5,65.14-87.62
						c0.11-0.14,0.23-0.27,0.34-0.41c24.76-28.98,51.96-56.81,80.83-82.72c0.03-0.03,0.06-0.06,0.09-0.09
						c51.5-46.21,90.48-70.39,92.12-71.4c11.29-6.95,26.07-3.44,33.02,7.85c6.95,11.29,3.44,26.07-7.85,33.02
						c-0.35,0.22-37.16,23.13-85.15,66.18c-0.03,0.03-0.06,0.06-0.09,0.08c-27.2,24.4-52.81,50.59-76.14,77.85
						c-0.11,0.14-0.23,0.28-0.35,0.42c-22.61,26.44-43.22,54.12-61.27,82.29c-0.09,0.14-0.17,0.28-0.26,0.42
						c-15.39,24.04-29.16,48.85-40.92,73.74C1380.83,946.18,1372.2,951.26,1363.21,951.26z"/>
				</g>
				<g>
					<g>
						<path class="st5" d="M1547.86,708.94c-0.19,0-0.37,0-0.56-0.01c-13.25-0.3-23.75-11.29-23.45-24.54l2-87.35
							c0.3-13.06,10.98-23.45,23.98-23.45c0.19,0,0.37,0,0.56,0.01c13.25,0.3,23.75,11.29,23.45,24.54l-2,87.35
							C1571.54,698.55,1560.86,708.94,1547.86,708.94z"/>
					</g>
					<g>
						<path class="st5" d="M1635.21,710.92c-0.19,0-0.37,0-0.56-0.01l-87.35-2c-13.25-0.3-23.75-11.29-23.45-24.54
							c0.3-13.06,10.98-23.45,23.98-23.45c0.19,0,0.37,0,0.56,0.01l87.35,2c13.25,0.3,23.75,11.29,23.45,24.54
							C1658.89,700.53,1648.21,710.92,1635.21,710.92z"/>
					</g>
				</g>
				<g>
					<g>
						<path class="st5" d="M1469.16,789.48c-0.19,0-0.37,0-0.56-0.01c-13.25-0.3-23.75-11.29-23.45-24.54l2-87.35
							c0.3-13.06,10.98-23.45,23.98-23.45c0.19,0,0.37,0,0.56,0.01c13.25,0.3,23.75,11.29,23.45,24.54l-2,87.35
							C1492.85,779.09,1482.16,789.48,1469.16,789.48z"/>
					</g>
					<g>
						<path class="st5" d="M1556.52,791.46c-0.19,0-0.37,0-0.56-0.01l-87.35-2c-13.25-0.3-23.75-11.29-23.45-24.54
							s11.34-23.76,24.54-23.45l87.35,2c13.25,0.3,23.75,11.29,23.45,24.54C1580.2,781.07,1569.52,791.46,1556.52,791.46z"/>
					</g>
				</g>
				<g>
					<g>
						<path class="st5" d="M1405.64,874.84c-0.19,0-0.37,0-0.56-0.01c-13.25-0.3-23.75-11.29-23.45-24.54l2-87.35
							c0.3-13.06,10.98-23.45,23.98-23.45c0.19,0,0.37,0,0.56,0.01c13.25,0.3,23.75,11.29,23.45,24.54l-2,87.35
							C1429.33,864.45,1418.64,874.84,1405.64,874.84z"/>
					</g>
					<g>
						<path class="st5" d="M1493,876.82c-0.19,0-0.37,0-0.56-0.01l-87.35-2c-13.25-0.3-23.75-11.29-23.45-24.54
							c0.3-13.06,10.98-23.45,23.98-23.45c0.19,0,0.37,0,0.56,0.01l87.35,2c13.25,0.3,23.75,11.29,23.45,24.54
							C1516.68,866.43,1506,876.82,1493,876.82z"/>
					</g>
				</g>
			</g>
		</g>
	</g>
</g>
</svg>
