<?xml version="1.0" encoding="utf-8"?>
<!-- Generator: Adobe Illustrator 23.0.2, SVG Export Plug-In . SVG Version: 6.00 Build 0)  -->
<svg version="1.1" id="Layer_1" xmlns="http://www.w3.org/2000/svg" xmlns:xlink="http://www.w3.org/1999/xlink" x="0px" y="0px"
	 viewBox="0 0 2048 2048" style="enable-background:new 0 0 2048 2048;" xml:space="preserve">
<style type="text/css">
	.st0{fill:#CC5B4A;}
	.st1{fill:#FF725C;}
	.st2{fill:#E6D076;}
	.st3{fill:#FFE783;}
	.st4{fill:#333333;}
</style>
<g>
	<g>
		<g id="XMLID_1_">
			<path class="st0" d="M1766.28,1725.56c2.19,22.75-15.7,42.44-38.56,42.44h-590.64h-28.92c-22.85,0-40.74-19.69-38.55-42.44
				l7.2-74.96h682.27L1766.28,1725.56z"/>
			<path class="st1" d="M1587.13,1257.5c-21.79,0-39.46,17.67-39.46,39.46c0,21.79,17.67,39.46,39.46,39.46
				c21.79,0,39.46-17.67,39.46-39.46C1626.59,1275.17,1608.92,1257.5,1587.13,1257.5z M1248.76,1257.5
				c-21.79,0-39.46,17.67-39.46,39.46c0,21.79,17.67,39.46,39.46,39.46c21.79,0,39.46-17.67,39.46-39.46
				C1288.22,1275.17,1270.55,1257.5,1248.76,1257.5z M1248.76,1154.82h338.37h124.3l47.65,495.78h-682.27l5.34-55.57l42.31-440.21
				H1248.76z"/>
			<path class="st2" d="M1076.81,1650.6l-7.2,74.96c-2.19,22.75,15.7,42.44,38.55,42.44h-759.5c-39.6,0-70.6-34.11-66.81-73.53
				l9.57-99.6l1.7,0.16h789.03L1076.81,1650.6z"/>
			<path class="st3" d="M592.3,832.7c-22.75,0-41.19,18.44-41.19,41.18c0,22.75,18.44,41.19,41.19,41.19
				c22.74,0,41.18-18.44,41.18-41.19C633.48,851.14,615.04,832.7,592.3,832.7z M1178.64,832.7c-22.75,0-41.19,18.44-41.19,41.18
				c0,22.75,18.44,41.19,41.19,41.19c22.74,0,41.18-18.44,41.18-41.19C1219.82,851.14,1201.38,832.7,1178.64,832.7z M1178.64,705.46
				h215.39l19.59,203.9c-91.43,2.28-164.86,77.13-164.86,169.12v76.34h-124.3l-42.31,440.21H293.12l-1.7-0.16l85.47-889.41H592.3
				H1178.64z"/>
		</g>
	</g>
	<g>
		<g>
			<g>
				<path class="st4" d="M1137.08,1792H348.66c-25.63,0-50.21-10.88-67.44-29.85c-17.23-18.97-25.7-44.47-23.25-69.98L353,703.16
					c1.18-12.31,11.52-21.7,23.89-21.7h1017.14c12.37,0,22.71,9.4,23.89,21.71l19.59,203.9c1.27,13.19-8.4,24.92-21.59,26.19
					c-13.18,1.26-24.92-8.4-26.18-21.6l-17.5-182.2H398.7l-92.95,967.31c-1.18,12.25,2.73,24,11,33.11
					c8.27,9.11,19.61,14.13,31.92,14.13h788.42c13.25,0,24,10.75,24,24S1150.34,1792,1137.08,1792z"/>
			</g>
			<g>
				<path class="st4" d="M1178.64,856.7c-13.25,0-24-10.75-24-24V573.17c0-71.9-28-139.49-78.84-190.33
					C1024.96,332,957.36,304,885.47,304C737.05,304,616.3,424.75,616.3,573.17V832.7c0,13.25-10.75,24-24,24s-24-10.75-24-24V573.17
					c0-84.72,32.99-164.37,92.89-224.27c59.9-59.91,139.55-92.9,224.28-92.9c84.72,0,164.36,32.99,224.27,92.9
					c59.91,59.91,92.9,139.55,92.9,224.27V832.7C1202.64,845.96,1191.89,856.7,1178.64,856.7z"/>
			</g>
			<g>
				<path class="st4" d="M592.29,939.07c-35.94,0-65.18-29.24-65.18-65.18s29.24-65.18,65.18-65.18s65.18,29.24,65.18,65.18
					S628.24,939.07,592.29,939.07z M592.29,856.7c-9.48,0-17.18,7.71-17.18,17.18s7.71,17.18,17.18,17.18s17.18-7.71,17.18-17.18
					S601.77,856.7,592.29,856.7z"/>
			</g>
			<g>
				<path class="st4" d="M1178.64,939.07c-35.94,0-65.18-29.24-65.18-65.18s29.24-65.18,65.18-65.18s65.18,29.24,65.18,65.18
					S1214.58,939.07,1178.64,939.07z M1178.64,856.7c-9.48,0-17.18,7.71-17.18,17.18s7.71,17.18,17.18,17.18s17.18-7.71,17.18-17.18
					S1188.11,856.7,1178.64,856.7z"/>
			</g>
		</g>
		<g>
			<g>
				<path class="st4" d="M1727.72,1792h-619.56c-17.64,0-34.57-7.49-46.43-20.55c-11.86-13.06-17.7-30.62-16.01-48.18l54.85-570.74
					c1.18-12.31,11.52-21.7,23.89-21.7h586.97c12.37,0,22.71,9.4,23.89,21.7l54.85,570.74c1.69,17.56-4.15,35.13-16.01,48.18
					C1762.29,1784.51,1745.37,1792,1727.72,1792z M1146.26,1178.82l-52.76,549.03c-0.54,5.65,2.12,9.51,3.76,11.32
					c1.64,1.8,5.23,4.83,10.9,4.83h619.56c5.67,0,9.27-3.02,10.9-4.83c1.64-1.8,4.3-5.67,3.76-11.32l-52.76-549.03H1146.26z"/>
			</g>
			<g>
				<path class="st4" d="M1587.13,1281.5c-13.25,0-24-10.75-24-24v-179.02c0-38.77-15.1-75.23-42.52-102.66
					c-27.42-27.42-63.89-42.52-102.67-42.52c-80.05,0-145.18,65.13-145.18,145.18v179.02c0,13.25-10.75,24-24,24s-24-10.75-24-24
					v-179.02c0-106.52,86.66-193.18,193.18-193.18c51.6,0,100.11,20.09,136.61,56.58c36.49,36.5,56.58,85.01,56.58,136.6v179.02
					C1611.13,1270.75,1600.38,1281.5,1587.13,1281.5z"/>
			</g>
			<g>
				<path class="st4" d="M1755.3,1674.6h-674.72c-13.25,0-24-10.75-24-24s10.75-24,24-24h674.72c13.25,0,24,10.75,24,24
					S1768.56,1674.6,1755.3,1674.6z"/>
			</g>
			<g>
				<path class="st4" d="M1248.76,1360.42c-34.99,0-63.46-28.47-63.46-63.46s28.47-63.46,63.46-63.46s63.46,28.47,63.46,63.46
					S1283.75,1360.42,1248.76,1360.42z M1248.76,1281.5c-8.52,0-15.46,6.94-15.46,15.46s6.94,15.46,15.46,15.46
					s15.46-6.94,15.46-15.46S1257.28,1281.5,1248.76,1281.5z"/>
			</g>
			<g>
				<path class="st4" d="M1587.13,1360.42c-34.99,0-63.46-28.47-63.46-63.46s28.47-63.46,63.46-63.46s63.46,28.47,63.46,63.46
					S1622.12,1360.42,1587.13,1360.42z M1587.13,1281.5c-8.52,0-15.46,6.94-15.46,15.46s6.94,15.46,15.46,15.46
					s15.46-6.94,15.46-15.46S1595.65,1281.5,1587.13,1281.5z"/>
			</g>
		</g>
		<g>
			<path class="st4" d="M1082.14,1619.03H293.12c-13.25,0-24-10.75-24-24s10.75-24,24-24h789.03c13.25,0,24,10.75,24,24
				S1095.4,1619.03,1082.14,1619.03z"/>
		</g>
	</g>
</g>
</svg>
