<?xml version="1.0" encoding="utf-8"?>
<!-- Generator: Adobe Illustrator 23.0.2, SVG Export Plug-In . SVG Version: 6.00 Build 0)  -->
<svg version="1.1" id="Layer_1" xmlns="http://www.w3.org/2000/svg" xmlns:xlink="http://www.w3.org/1999/xlink" x="0px" y="0px"
	 viewBox="0 0 2048 2048" style="enable-background:new 0 0 2048 2048;" xml:space="preserve">
<style type="text/css">
	.st0{fill:#5B9ECC;}
	.st1{fill:#FF725C;}
	.st2{fill:#333333;}
</style>
<g>
	<g>
		<g>
			<g>
				<g id="XMLID_1_">
					<path class="st0" d="M722.86,1514c37.34,0,67.6,30.27,67.6,67.6c0,37.34-30.26,67.61-67.6,67.61
						c-37.34,0-67.61-30.27-67.61-67.61C655.25,1544.27,685.52,1514,722.86,1514z"/>
					<path class="st0" d="M1407.31,1514c37.34,0,67.61,30.27,67.61,67.6c0,37.34-30.27,67.61-67.61,67.61
						c-37.33,0-67.6-30.27-67.6-67.61C1339.71,1544.27,1369.98,1514,1407.31,1514z"/>
					<path class="st1" d="M1600.51,1297.07H592.98c-0.17,0-0.35,0-0.52,0.01v-0.01L466.85,574.84H1768L1600.51,1297.07z"/>
				</g>
			</g>
		</g>
	</g>
	<g>
		<g>
			<g>
				<g>
					<g>
						<path class="st2" d="M592.44,1321.07c-11.45,0-21.59-8.22-23.62-19.89L416.04,422.79H280c-13.25,0-24-10.75-24-24
							s10.75-24,24-24h156.23c11.67,0,21.65,8.39,23.65,19.89l156.23,898.28c2.27,13.06-6.47,25.49-19.53,27.76
							C595.19,1320.96,593.8,1321.07,592.44,1321.07z"/>
					</g>
				</g>
			</g>
			<g>
				<path class="st2" d="M1600.51,1447.71H592.97c-48.15,0-87.32-39.17-87.32-87.32s39.17-87.32,87.32-87.32h988.47l156.35-674.23
					H466.85c-13.25,0-24-10.75-24-24s10.75-24,24-24H1768c7.32,0,14.24,3.34,18.79,9.07c4.55,5.73,6.24,13.22,4.59,20.35
					l-167.49,722.23c-2.52,10.88-12.21,18.58-23.38,18.58H592.97c-21.68,0-39.32,17.64-39.32,39.32s17.64,39.32,39.32,39.32h1007.54
					c13.25,0,24,10.75,24,24S1613.77,1447.71,1600.51,1447.71z"/>
			</g>
			<g>
				<g>
					<path class="st2" d="M722.86,1673.21c-50.51,0-91.61-41.09-91.61-91.61c0-50.51,41.09-91.61,91.61-91.61
						c50.51,0,91.61,41.09,91.61,91.61C814.46,1632.12,773.37,1673.21,722.86,1673.21z M722.86,1538
						c-24.05,0-43.61,19.56-43.61,43.61s19.56,43.61,43.61,43.61c24.04,0,43.61-19.56,43.61-43.61S746.9,1538,722.86,1538z"/>
				</g>
				<g>
					<path class="st2" d="M1407.31,1673.21c-50.51,0-91.61-41.09-91.61-91.61c0-50.51,41.09-91.61,91.61-91.61
						s91.61,41.09,91.61,91.61C1498.92,1632.12,1457.83,1673.21,1407.31,1673.21z M1407.31,1538c-24.04,0-43.61,19.56-43.61,43.61
						s19.56,43.61,43.61,43.61s43.61-19.56,43.61-43.61S1431.36,1538,1407.31,1538z"/>
				</g>
			</g>
			<g>
				<g>
					<path class="st2" d="M1725,784.28H499.1c-13.25,0-24-10.75-24-24s10.75-24,24-24H1725c13.25,0,24,10.75,24,24
						S1738.25,784.28,1725,784.28z"/>
				</g>
				<g>
					<path class="st2" d="M1684.25,959.96H529.66c-13.25,0-24-10.75-24-24s10.75-24,24-24h1154.59c13.25,0,24,10.75,24,24
						S1697.5,959.96,1684.25,959.96z"/>
				</g>
				<g>
					<path class="st2" d="M1643.51,1135.64H560.21c-13.25,0-24-10.75-24-24s10.75-24,24-24h1083.3c13.25,0,24,10.75,24,24
						S1656.76,1135.64,1643.51,1135.64z"/>
				</g>
			</g>
			<g>
				<path class="st2" d="M1117.43,1321.07c-13.25,0-24-10.75-24-24V574.84c0-13.25,10.75-24,24-24s24,10.75,24,24v722.23
					C1141.43,1310.32,1130.68,1321.07,1117.43,1321.07z"/>
			</g>
			<g>
				<g>
					<g>
						<path class="st2" d="M1354.88,1321.07c-1.23,0-2.47-0.09-3.73-0.29c-13.1-2.04-22.06-14.31-20.02-27.41l112.56-722.23
							c2.04-13.1,14.3-22.06,27.41-20.02c13.1,2.04,22.06,14.31,20.02,27.41l-112.56,722.23
							C1376.72,1312.61,1366.5,1321.07,1354.88,1321.07z"/>
					</g>
				</g>
				<g>
					<g>
						<path class="st2" d="M879.97,1321.07c-11.63,0-21.84-8.46-23.68-20.31L743.73,578.53c-2.04-13.1,6.92-25.37,20.02-27.41
							c13.1-2.04,25.37,6.92,27.41,20.02l112.56,722.23c2.04,13.1-6.92,25.37-20.02,27.41
							C882.44,1320.98,881.2,1321.07,879.97,1321.07z"/>
					</g>
				</g>
			</g>
		</g>
	</g>
</g>
</svg>
