<?xml version="1.0" encoding="iso-8859-1"?>
<!-- Generator: Adobe Illustrator 25.2.0, SVG Export Plug-In . SVG Version: 6.00 Build 0)  -->
<svg version="1.1" xmlns="http://www.w3.org/2000/svg" xmlns:xlink="http://www.w3.org/1999/xlink" x="0px" y="0px"
	 viewBox="0 0 492 492" style="enable-background:new 0 0 492 492;" xml:space="preserve">
<g id="Master_Layer_2">
</g>
<g id="Layer_1">
	<g>
		<g>
			<polygon style="fill-rule:evenodd;clip-rule:evenodd;fill:#496067;" points="269.448,343.943 223.073,343.943 218.118,385.257 
				274.403,385.257 			"/>
			<g>
				<path style="fill-rule:evenodd;clip-rule:evenodd;fill:#5A7A7F;" d="M286.869,389.22h-81.217c-2.189,0-3.964-1.774-3.964-3.964
					c0-2.189,1.775-3.964,3.964-3.964l81.217,0c2.189,0,3.964,1.775,3.964,3.964C290.833,387.446,289.058,389.22,286.869,389.22z"/>
			</g>
			<path style="fill-rule:evenodd;clip-rule:evenodd;fill:#5A7A7F;" d="M411.38,352.677H81.141c-10.604,0-19.2-8.596-19.2-19.2
				l0-210.018c0-10.604,8.596-19.2,19.2-19.2h330.24c10.604,0,19.2,8.596,19.2,19.2v210.018
				C430.58,344.081,421.984,352.677,411.38,352.677z"/>
			<rect x="90.741" y="133.058" style="fill-rule:evenodd;clip-rule:evenodd;fill:#C6E8FE;" width="311.04" height="190.818"/>
			<g>
				<g>
					<path style="fill-rule:evenodd;clip-rule:evenodd;fill:#F1F9FE;" d="M189.787,271.903c-1.015,0-2.029-0.387-2.803-1.161
						c-1.548-1.548-1.548-4.058,0-5.606l91.791-91.791c1.548-1.548,4.058-1.548,5.606,0c1.548,1.548,1.548,4.058,0,5.606
						l-91.791,91.791C191.816,271.516,190.801,271.903,189.787,271.903z"/>
				</g>
				<g>
					<path style="fill-rule:evenodd;clip-rule:evenodd;fill:#F1F9FE;" d="M226.466,281.106c-1.014,0-2.029-0.387-2.803-1.161
						c-1.548-1.548-1.548-4.058,0-5.606l64.314-64.314c1.548-1.548,4.058-1.548,5.606,0c1.548,1.548,1.548,4.058,0,5.606
						l-64.314,64.314C228.495,280.719,227.481,281.106,226.466,281.106z"/>
				</g>
			</g>
			<g>
				<path style="fill-rule:evenodd;clip-rule:evenodd;fill:#4B6069;" d="M259.543,345.04h-26.566c-2.189,0-3.964-1.775-3.964-3.964
					c0-2.189,1.775-3.964,3.964-3.964h26.566c2.189,0,3.964,1.775,3.964,3.964C263.508,343.266,261.733,345.04,259.543,345.04z"/>
			</g>
		</g>
	</g>
</g>
</svg>
