<?xml version="1.0" encoding="iso-8859-1"?>
<!-- Generator: Adobe Illustrator 19.0.1, SVG Export Plug-In . SVG Version: 6.00 Build 0)  -->
<svg version="1.1" id="Bank_x5F_icons" xmlns="http://www.w3.org/2000/svg" xmlns:xlink="http://www.w3.org/1999/xlink" x="0px"
	 y="0px" viewBox="0 0 128 128" style="enable-background:new 0 0 128 128;" xml:space="preserve">
<g id="row3">
	<g id="icon:5_2_" style="display:none;">
		<path id="Shape_44_" style="display:inline;fill-rule:evenodd;clip-rule:evenodd;fill:#07C5FF;" d="M85.043,83.575
			c0,0,8.85-6.05,8.85-17.99c0-17.77-18.83-24.35-28.96-24.17s-13.15,2.85-13.15,2.85s-10.54-5.86-12.48-5.24
			c-1.56,0-0.58,2.59,0.04,3.52c0.62,0.94,3.63,6.09,3.63,6.09s-6.31,6.51-6.78,10.78c0-0.07-7.61-0.02-7.61-0.02l-0.06,16.08
			l7.62,0.04c0,0,4.42,6.41,7.22,7.58c0,0.08-2.42,6.65-2.42,6.65s-1.16,2.02,0.93,2.8c2.1,0.78,7.58,3.08,9.91,3.78
			c2.33,0.7,2.67-0.89,2.67-0.89l2.31-4.99l15.1,0.03l2.31,5.14c0,0,0.44,2.38,3.55,1.06s6.51-2.88,9.08-4.21
			c2.56-1.32,0.87-3.78,0.87-3.78L85.043,83.575z M47.283,63.375c-2.22,0-4.02-1.79-4.02-4.01c0-2.22,1.8-4.02,4.02-4.02
			c2.21,0,4.01,1.8,4.01,4.02C51.293,61.585,49.493,63.375,47.283,63.375z"/>
		<path id="Shape_41_" style="display:inline;fill-rule:evenodd;clip-rule:evenodd;fill:#EA5F5A;" d="M72.183,37.425
			c0,1.34-0.48,2.57-1.28,3.53c-0.63,0.75-1.46,1.33-2.41,1.66c-0.57,0.2-1.18,0.31-1.81,0.31c-0.81,0-1.58-0.18-2.27-0.5
			c-0.91-0.41-1.7-1.07-2.26-1.89c-0.61-0.88-0.97-1.95-0.97-3.11c0-3.03,2.47-5.5,5.5-5.5
			C69.723,31.925,72.183,34.395,72.183,37.425z"/>
		<path id="Shape_39_" style="display:inline;fill:#2E2E2E;" d="M54.663,48.505l0.95,1.76c0.43-0.23,10.69-5.56,22.63,2.18
			l1.09-1.68C66.363,42.365,55.143,48.245,54.663,48.505z M47.283,54.345c-2.77,0-5.02,2.25-5.02,5.02c0,2.76,2.25,5.01,5.02,5.01
			c2.76,0,5.01-2.25,5.01-5.01C52.293,56.595,50.043,54.345,47.283,54.345z M47.283,62.375c-1.67,0-3.02-1.35-3.02-3.01
			c0-1.66,1.35-3.02,3.02-3.02c1.66,0,3.01,1.36,3.01,3.02C50.293,61.025,48.943,62.375,47.283,62.375z M99.873,46.555
			c-1.05-2.34-3.26-3.33-5.76-2.59c-3.46,1.02-3.26,5.27-2.6,7.62l1.93-0.55c-0.01-0.04-1.18-4.44,1.24-5.15
			c1.97-0.58,2.92,0.49,3.37,1.49c0.95,2.11,0.37,5.49-1.98,6.95c-2,1.25-2.74,1.47-3.36,1.35c-3.99-8.24-12.45-12-16.7-13.41
			c-0.99-0.33-1.99-0.62-2.99-0.86c0.74-1.15,1.16-2.52,1.16-3.98c0-4.14-3.36-7.5-7.5-7.5c-4.13,0-7.5,3.36-7.5,7.5
			c0,1.19,0.28,2.32,0.78,3.32c-0.57,0.06-1.11,0.13-1.64,0.22c-3.7,0.61-5.69,1.57-6.6,2.12c-3.43-1.89-10.31-5.43-12.54-5.05
			c-0.66,0.03-1.19,0.36-1.48,0.9c-0.72,1.34,0.37,3.51,0.81,4.17c0.47,0.7,2.4,3.98,3.22,5.39c-1.45,1.58-5.42,6.17-6.36,9.89
			c-1.1-0.03-3.08-0.02-6.8,0.01l-0.99,0.01l-0.06,18.07l8.1,0.03c1.01,1.41,4,5.45,6.52,7.06c-0.47,1.3-1.44,3.95-2.11,5.77
			c-0.17,0.33-0.65,1.42-0.26,2.51c0.19,0.52,0.65,1.23,1.76,1.64c0.7,0.26,1.78,0.69,2.99,1.17c2.4,0.96,5.38,2.15,6.97,2.63
			c1.14,0.34,2.09,0.28,2.83-0.16c0.71-0.42,0.98-1.05,1.07-1.34l2-4.34l13.82,0.02l2.01,4.47c0.1,0.37,0.43,1.28,1.4,1.8
			c0.42,0.23,0.9,0.34,1.43,0.34c0.62,0,1.31-0.16,2.06-0.48c3.25-1.37,6.66-2.96,9.14-4.24c1.26-0.64,1.71-1.54,1.87-2.17
			c0.36-1.41-0.38-2.69-0.58-3.01l-2.23-4.31c2.19-1.77,8.58-7.84,8.58-18.28c0-2.98-0.5-5.6-1.35-7.92
			c1.02-0.15,2.11-0.72,3.59-1.64C100.403,53.985,101.183,49.475,99.873,46.555z M66.683,31.925c3.04,0,5.5,2.47,5.5,5.5
			c0,1.34-0.48,2.57-1.28,3.53c-0.63,0.75-1.46,1.33-2.41,1.66c-0.57,0.2-1.18,0.31-1.81,0.31c-0.81,0-1.58-0.18-2.27-0.5
			c-0.91-0.41-1.7-1.07-2.26-1.89c-0.61-0.88-0.97-1.95-0.97-3.11C61.183,34.395,63.653,31.925,66.683,31.925z M84.483,82.745
			l-0.73,0.5l3.04,5.89l0.06,0.11c0.11,0.16,0.48,0.87,0.33,1.45c-0.08,0.35-0.36,0.64-0.84,0.89c-2.44,1.25-5.81,2.81-9.01,4.17
			c-0.77,0.33-1.39,0.41-1.76,0.22c-0.32-0.16-0.42-0.55-0.42-0.55l-2.64-5.95l-16.39-0.03l-2.58,5.57l-0.07,0.21
			c0,0-0.06,0.12-0.17,0.18c-0.23,0.14-0.68,0.13-1.23-0.04c-1.51-0.45-4.45-1.62-6.81-2.56c-1.23-0.5-2.33-0.93-3.04-1.2
			c-0.31-0.11-0.5-0.26-0.57-0.43c-0.1-0.29,0.06-0.76,0.16-0.93l0.07-0.15c2.48-6.74,2.48-6.76,2.48-7v-0.67l-0.61-0.25
			c-2.07-0.86-5.6-5.51-6.78-7.23l-0.3-0.43l-7.14-0.03l0.05-14.1c2.62-0.01,7.06-0.02,7.46,0.02l0.14-0.88
			c0.35-3.22,4.82-8.45,6.51-10.19l0.53-0.55l-0.38-0.65c-0.13-0.21-3.03-5.19-3.66-6.14c-0.39-0.58-0.71-1.52-0.72-1.97l0.12-0.04
			c1.14-0.2,6.96,2.51,11.72,5.15l0.61,0.32l0.52-0.44c0.02-0.01,1.63-1.32,6.21-2.07c0.83-0.14,1.71-0.25,2.63-0.33
			c1.37,1.43,3.29,2.31,5.41,2.31c1.86,0,3.56-0.67,4.86-1.81h0.01c1.28,0.28,2.56,0.63,3.83,1.05c5.27,1.75,17.51,7.35,17.51,21.42
			C92.893,76.825,84.563,82.695,84.483,82.745z"/>
	</g>
	<g id="icon:4_2_" style="display:none;">
		<path id="Shape_37_" style="display:inline;fill-rule:evenodd;clip-rule:evenodd;fill:#EA5F5A;" d="M97.466,75.469H66.354
			c1.028-1.775,1.817-3.699,2.342-5.735h28.77c1.584,0,2.868,1.284,2.868,2.867C100.333,74.186,99.049,75.469,97.466,75.469z
			 M97.466,66.867H69.25c0.118-0.941,0.198-1.894,0.198-2.867c0-0.973-0.08-1.926-0.198-2.867h28.216
			c1.584,0,2.868,1.283,2.868,2.867C100.333,65.584,99.049,66.867,97.466,66.867z M97.466,58.266h-28.77
			c-0.525-2.035-1.314-3.959-2.342-5.735h31.112c1.584,0,2.868,1.284,2.868,2.868C100.333,56.982,99.049,58.266,97.466,58.266z
			 M97.466,49.664H64.4c-1.865-2.325-4.17-4.28-6.794-5.735h39.86c1.584,0,2.868,1.284,2.868,2.867
			C100.333,48.38,99.049,49.664,97.466,49.664z M64.4,78.337h33.066c1.584,0,2.868,1.284,2.868,2.867
			c0,1.583-1.284,2.867-2.868,2.867h-39.86C60.231,82.617,62.534,80.662,64.4,78.337z"/>
		<path id="Shape_38_" style="display:inline;fill:#2E2E2E;" d="M46.667,83.895c-11.028,0-20-8.972-20-20s8.972-20,20-20
			s20,8.972,20,20S57.695,83.895,46.667,83.895z M46.667,45.895c-9.925,0-18,8.075-18,18s8.075,18,18,18s18-8.075,18-18
			S56.591,45.895,46.667,45.895z M97.465,85.071H53.737l3.385-1.875c2.506-1.388,4.692-3.233,6.498-5.485l0.301-0.374h33.545
			c2.133,0,3.868,1.735,3.868,3.868C101.333,83.336,99.598,85.071,97.465,85.071z M60.968,83.071h36.497
			c1.03,0,1.868-0.837,1.868-1.866c0-1.03-0.838-1.868-1.868-1.868H64.874C63.707,80.735,62.4,81.983,60.968,83.071z M97.465,76.469
			H64.62l0.869-1.501c0.987-1.705,1.74-3.55,2.238-5.483l0.193-0.75h29.545c2.133,0,3.868,1.734,3.868,3.867
			S99.598,76.469,97.465,76.469z M68.017,74.469h29.448c1.03,0,1.868-0.838,1.868-1.867s-0.838-1.867-1.868-1.867H69.458
			C69.082,72.023,68.599,73.272,68.017,74.469z M97.465,67.868h-29.35l0.142-1.125c0.13-1.035,0.19-1.906,0.19-2.742
			c0-0.837-0.061-1.708-0.19-2.742l-0.142-1.125h29.35c2.133,0,3.868,1.734,3.868,3.867S99.598,67.868,97.465,67.868z
			 M70.363,65.868h27.103c1.03,0,1.868-0.838,1.868-1.867s-0.838-1.867-1.868-1.867H70.363c0.058,0.659,0.085,1.27,0.085,1.867
			S70.42,65.208,70.363,65.868z M97.465,59.265H67.92l-0.193-0.75c-0.498-1.934-1.251-3.778-2.238-5.483l-0.869-1.501h32.846
			c2.133,0,3.868,1.735,3.868,3.868C101.333,57.531,99.598,59.265,97.465,59.265z M69.458,57.265h28.008
			c1.03,0,1.868-0.837,1.868-1.866c0-1.03-0.838-1.868-1.868-1.868H68.017C68.599,54.728,69.082,55.977,69.458,57.265z
			 M97.465,50.664H63.92L63.62,50.29c-1.806-2.251-3.992-4.097-6.498-5.485l-3.384-1.875h43.728c2.133,0,3.868,1.734,3.868,3.867
			S99.598,50.664,97.465,50.664z M64.874,48.664h32.592c1.03,0,1.868-0.838,1.868-1.867s-0.838-1.867-1.868-1.867H60.967
			C62.4,46.017,63.707,47.265,64.874,48.664z M42.107,62.513h1.464c-0.356-0.434-0.627-0.948-0.813-1.545
			c-0.186-0.596-0.278-1.173-0.278-1.73c0-0.728,0.154-1.386,0.465-1.975c0.31-0.588,0.72-1.092,1.23-1.51s1.092-0.739,1.742-0.964
			c0.65-0.224,1.316-0.337,1.997-0.337c1.781,0,3.194,0.477,4.239,1.429s1.575,2.389,1.591,4.309h-2.647
			c-0.031-0.495-0.104-0.96-0.221-1.394s-0.294-0.809-0.534-1.126s-0.558-0.565-0.952-0.744c-0.396-0.178-0.871-0.267-1.429-0.267
			c-0.712,0-1.32,0.232-1.823,0.696c-0.503,0.465-0.755,1.139-0.755,2.021c0,0.542,0.116,1.088,0.349,1.638s0.472,1.049,0.72,1.498
			h3.414v1.51h-2.856c0.247,0.464,0.371,0.983,0.371,1.556c0,0.418-0.062,0.81-0.186,1.173c-0.124,0.364-0.294,0.705-0.511,1.022
			s-0.469,0.607-0.755,0.871c-0.287,0.264-0.585,0.511-0.895,0.743l0.047,0.047c0.355-0.14,0.704-0.279,1.045-0.419
			c0.341-0.139,0.704-0.209,1.092-0.209c0.402,0,0.751,0.043,1.045,0.128s0.573,0.175,0.837,0.268
			c0.263,0.108,0.525,0.205,0.789,0.29s0.573,0.128,0.93,0.128c0.433,0,0.836-0.077,1.207-0.232c0.372-0.154,0.721-0.372,1.046-0.65
			l1.185,1.788c-0.589,0.496-1.166,0.837-1.73,1.022c-0.565,0.186-1.228,0.278-1.986,0.278c-0.371,0-0.747-0.043-1.126-0.127
			c-0.38-0.086-0.771-0.159-1.174-0.221c-0.387-0.124-0.781-0.232-1.185-0.325c-0.402-0.094-0.82-0.14-1.254-0.14
			c-0.402,0-0.821,0.069-1.254,0.209c-0.434,0.14-0.798,0.333-1.092,0.581l-1.231-1.882c0.279-0.186,0.569-0.422,0.871-0.708
			c0.302-0.287,0.573-0.597,0.813-0.93c0.239-0.333,0.437-0.681,0.592-1.045c0.154-0.364,0.232-0.724,0.232-1.08
			c0-0.402-0.043-0.782-0.128-1.139c-0.085-0.355-0.205-0.688-0.359-0.998h-2.138V62.513z"/>
	</g>
	<g id="icon:3_2_">
		<path id="Shape_27_" style="fill-rule:evenodd;clip-rule:evenodd;fill:#EA5F5A;" d="M90.443,54.399l-13.837-3.3L93.352,40.22
			L90.443,54.399z M34.648,87.78l16.746-10.879l-13.837-3.3L34.648,87.78z"/>
		<path id="Shape_35_" style="fill:#2E2E2E;" d="M85.45,44.16C80.3,36.91,71.95,32.5,63.06,32.5c-15.22,0-27.61,12.61-27.61,28.12h3
			c0-13.85,11.04-25.12,24.61-25.12c7.87,0,15.26,3.89,19.88,10.29l-8.83,5.74l17.11,4.08l3.59-17.53L85.45,44.16z M89.67,53.19
			l-10.56-2.52l4.93-3.21l2.51-1.63l5.34-3.47L89.67,53.19z M89.55,67.38c0,13.85-11.04,25.12-24.61,25.12
			c-7.87,0-15.26-3.89-19.88-10.29l8.83-5.74l-17.1-4.08l-3.6,17.53l9.36-6.08c5.15,7.25,13.5,11.66,22.39,11.66
			c15.22,0,27.61-12.61,27.61-28.12H89.55z M41.45,82.17l-5.34,3.47l2.22-10.83l10.56,2.52l-4.93,3.21L41.45,82.17z M58.841,69.188
			c-0.024,1.584,0.324,2.832,1.044,3.743c0.721,0.913,1.908,1.393,3.564,1.44V65.66c-0.984-0.264-1.962-0.582-2.935-0.954
			c-0.972-0.372-1.848-0.852-2.628-1.44c-0.78-0.588-1.41-1.325-1.89-2.214c-0.48-0.888-0.72-1.991-0.72-3.312
			c0-1.152,0.222-2.166,0.666-3.042c0.443-0.876,1.044-1.607,1.8-2.196c0.756-0.588,1.625-1.038,2.609-1.35s2.017-0.469,3.097-0.469
			v-2.808h1.548v2.808c1.08,0,2.1,0.145,3.06,0.433s1.794,0.72,2.502,1.296s1.272,1.309,1.692,2.196s0.63,1.92,0.63,3.096h-4.104
			c-0.049-1.224-0.366-2.16-0.954-2.808c-0.589-0.648-1.53-0.973-2.826-0.973v7.596c1.08,0.288,2.136,0.625,3.168,1.009
			c1.031,0.384,1.944,0.876,2.736,1.476c0.792,0.601,1.428,1.345,1.907,2.232c0.48,0.888,0.721,1.979,0.721,3.275
			c0,1.345-0.223,2.515-0.666,3.511c-0.444,0.996-1.051,1.823-1.818,2.483c-0.769,0.66-1.668,1.164-2.7,1.512
			c-1.032,0.348-2.147,0.546-3.348,0.595v2.808h-1.548v-2.808c-1.296-0.024-2.484-0.229-3.564-0.612s-2.004-0.93-2.771-1.638
			c-0.769-0.708-1.362-1.578-1.782-2.61c-0.42-1.031-0.618-2.22-0.594-3.563H58.841z M63.449,53.924
			c-1.296,0-2.299,0.271-3.006,0.811c-0.709,0.54-1.062,1.446-1.062,2.718c0,0.576,0.12,1.068,0.36,1.476
			c0.239,0.408,0.546,0.756,0.918,1.044s0.804,0.522,1.296,0.702c0.491,0.18,0.99,0.33,1.494,0.45V53.924z M64.997,74.372
			c1.296-0.096,2.358-0.474,3.186-1.134c0.828-0.66,1.242-1.71,1.242-3.15c0-0.672-0.126-1.235-0.378-1.691s-0.588-0.84-1.008-1.152
			c-0.42-0.312-0.895-0.563-1.422-0.756c-0.528-0.192-1.068-0.36-1.62-0.504V74.372z"/>
	</g>
	<g id="icon:2_2_" style="display:none;">
		<path id="Shape_34_" style="display:inline;fill-rule:evenodd;clip-rule:evenodd;fill:#07C5FF;" d="M60.538,35.302
			c0.08,0-0.024,31.946-0.024,31.946s32.024-0.013,32.024,0.131C92.539,84.331,78.763,97,61.769,97S31,83.718,31,66.765
			C31,49.812,43.853,35.302,60.538,35.302z"/>
		<path id="Shape_33_" style="display:inline;fill:#2E2E2E;" d="M61.769,98C43.955,98,30,84.28,30,66.766
			c0-17.9,13.7-32.464,30.539-32.464h0.415l0.293,0.294c0.368,0.37,0.372,0.376,0.271,31.652c2.389,0,8.701-0.001,15.01,0.012
			c4.005,0.007,8.009,0.019,11.013,0.038c5.998,0.038,5.998,0.038,5.998,1.081C93.539,84.55,79.583,98,61.769,98z M59.559,36.319
			C44.274,36.872,32,50.317,32,66.766C32,83.159,45.076,96,61.769,96c16.36,0,29.246-12.074,29.754-27.663
			c-3.968-0.073-20.029-0.095-31.008-0.089h-1.004l0.003-1.003C59.55,56.284,59.586,40.345,59.559,36.319z M87.654,63.822
			c-4.825,0-12.026-0.021-22.811-0.053l-1.004-0.003l0.007-1.005c0.09-12.063,0.171-30.425,0.026-31.567L63.846,30l1.419,0.003
			C82.752,30.243,98,45.451,98,62.77v0.415l-0.294,0.294C97.447,63.736,97.359,63.822,87.654,63.822z M65.854,61.772
			c10.982,0.031,26.223,0.059,30.129,0.021c-0.551-15.645-14.274-29.21-30.11-29.775C65.998,34.688,66,41.84,65.854,61.772z"/>
	</g>
	<g id="icon:1_2_" style="display:none;">
		<path id="Shape_32_" style="display:inline;fill:#EA5F5A;" d="M64,32c-17.67,0-32,14.33-32,32c0,17.67,14.33,32,32,32
			s32-14.33,32-32C96,46.33,81.67,32,64,32z M64,88c-13.25,0-24-10.75-24-24s10.75-24,24-24s24,10.75,24,24S77.25,88,64,88z"/>
		<circle id="Shape_31_" style="display:inline;fill:#07C5FF;" cx="64" cy="64" r="4"/>
		<path id="Shape_30_" style="display:inline;fill:#2E2E2E;" d="M68.73,62.38c-0.51-1.5-1.72-2.68-3.23-3.16V45.25h-3v13.97
			C60.47,59.86,59,61.76,59,64c0,2.76,2.24,5,5,5c2.28,0,4.21-1.53,4.81-3.62h9.81v-3H68.73z M64,67c-1.65,0-3-1.35-3-3
			c0-1.65,1.35-3,3-3s3,1.35,3,3C67,65.65,65.65,67,64,67z M64,97c-18.196,0-33-14.804-33-33s14.804-33,33-33s33,14.804,33,33
			S82.196,97,64,97z M64,33c-17.093,0-31,13.906-31,31s13.907,31,31,31s31-13.906,31-31S81.093,33,64,33z M64,89
			c-13.785,0-25-11.215-25-25s11.215-25,25-25s25,11.215,25,25S77.785,89,64,89z M64,41c-12.682,0-23,10.317-23,23s10.318,23,23,23
			s23-10.317,23-23S76.682,41,64,41z"/>
	</g>
</g>
<g id="row2">
	<g id="icon:5_1_" style="display:none;">
		<path id="Shape_29_" style="display:inline;fill-rule:evenodd;clip-rule:evenodd;fill:#07C5FF;" d="M84.678,76.793
			c0,14.695-16.185,17.574-16.185,17.574c-3.146,0.784-8.206,0-8.206,0s-16.966-2.222-16.966-17.643
			c0-12.839,14.34-28.791,14.34-28.791h11.756C69.418,47.933,84.678,63.85,84.678,76.793z"/>
		<path id="Shape_28_" style="display:inline;fill-rule:evenodd;clip-rule:evenodd;fill:#EA5F5A;" d="M57.662,47.933L53.26,37.399
			c-0.519-1.256,0.761-2.547,1.994-1.982c0.749,0.346,1.487,2.881,2.132,2.881c1.579,0,3.953-3.815,5.233-4.737
			c0.553-0.392,1.279-0.38,1.821,0.023c1.21,0.934,3.412,4.714,4.979,4.714c0.657,0,1.441-2.57,2.236-2.951
			c1.268-0.611,2.628,0.622,2.098,1.925l-4.334,10.661H57.662z"/>
		<path id="Shape_26_" style="display:inline;" d="M60.139,75.455c-0.016,1.056,0.217,1.888,0.696,2.496
			c0.48,0.608,1.272,0.928,2.376,0.96v-5.808c-0.656-0.177-1.308-0.388-1.956-0.637c-0.647-0.248-1.232-0.567-1.752-0.96
			c-0.52-0.392-0.939-0.884-1.26-1.476s-0.48-1.328-0.48-2.208c0-0.769,0.148-1.444,0.444-2.028s0.696-1.071,1.2-1.464
			c0.504-0.392,1.084-0.691,1.74-0.9c0.655-0.207,1.344-0.312,2.063-0.312v-1.872h1.032v1.872c0.72,0,1.399,0.096,2.04,0.288
			c0.64,0.191,1.195,0.479,1.668,0.864c0.472,0.384,0.848,0.872,1.128,1.464c0.279,0.592,0.42,1.28,0.42,2.063h-2.736
			c-0.032-0.815-0.244-1.439-0.636-1.872c-0.392-0.432-1.02-0.647-1.884-0.647v5.063c0.72,0.192,1.424,0.417,2.112,0.672
			c0.688,0.257,1.296,0.585,1.823,0.984c0.528,0.4,0.952,0.896,1.272,1.488c0.319,0.592,0.479,1.319,0.479,2.184
			c0,0.896-0.147,1.677-0.443,2.34c-0.297,0.664-0.7,1.217-1.212,1.656c-0.513,0.44-1.112,0.776-1.8,1.008
			c-0.688,0.232-1.433,0.364-2.232,0.396v1.872h-1.032v-1.872c-0.864-0.017-1.656-0.152-2.376-0.408s-1.336-0.62-1.848-1.092
			c-0.513-0.472-0.908-1.052-1.188-1.74c-0.28-0.688-0.412-1.479-0.396-2.376H60.139z M63.211,65.279
			c-0.864,0-1.532,0.18-2.004,0.54c-0.472,0.359-0.708,0.964-0.708,1.812c0,0.384,0.08,0.712,0.24,0.984
			c0.159,0.272,0.363,0.504,0.612,0.696c0.247,0.191,0.535,0.348,0.863,0.468s0.66,0.22,0.996,0.3V65.279z M64.243,78.911
			c0.864-0.063,1.572-0.315,2.124-0.756s0.828-1.141,0.828-2.101c0-0.447-0.084-0.823-0.252-1.128
			c-0.168-0.304-0.393-0.56-0.672-0.768c-0.28-0.208-0.597-0.376-0.948-0.504c-0.353-0.128-0.712-0.24-1.08-0.336V78.911z
			 M70.585,47.713l4.09-10.06c0.4-0.97,0.16-2.06-0.6-2.77c-0.77-0.73-1.89-0.9-2.85-0.44c-0.68,0.33-1.12,1.13-1.59,1.98
			c-0.13,0.25-0.31,0.58-0.45,0.8c-0.66-0.36-1.85-1.84-2.4-2.52c-0.65-0.81-1.22-1.51-1.75-1.92c-0.89-0.66-2.09-0.68-3-0.03
			c-0.56,0.4-1.17,1.12-1.89,1.96c-0.62,0.73-1.84,2.16-2.51,2.51c-0.14-0.22-0.3-0.54-0.43-0.77c-0.44-0.84-0.86-1.64-1.54-1.95
			c-0.92-0.42-2-0.23-2.74,0.48c-0.76,0.73-0.99,1.83-0.59,2.8l4.16,9.96c-2.43,2.82-14.17,17.01-14.17,28.98
			c0,16.11,17.65,18.61,17.81,18.63c0.14,0.02,2.39,0.37,4.84,0.37c1.27,0,2.59-0.1,3.69-0.37c0.17-0.03,17.01-3.2,17.01-18.56
			C85.675,64.713,73.175,50.523,70.585,47.713z M54.185,37.013c-0.13-0.31,0.07-0.53,0.13-0.59c0.07-0.07,0.2-0.16,0.34-0.16
			c0.04,0,0.08,0.01,0.11,0.02c0.16,0.14,0.48,0.74,0.67,1.1c0.52,0.99,1.02,1.91,1.95,1.91c1.48,0,2.9-1.67,4.28-3.29
			c0.58-0.67,1.18-1.37,1.53-1.63c0.2-0.14,0.45-0.13,0.63,0c0.33,0.26,0.88,0.93,1.4,1.58c1.33,1.65,2.7,3.34,4.19,3.34
			c0.93,0,1.42-0.88,1.98-1.91c0.21-0.38,0.56-1.02,0.69-1.13c0.32-0.15,0.54,0.01,0.62,0.08c0.1,0.09,0.24,0.28,0.12,0.56
			l-4.08,10.04h-10.42L54.185,37.013z M76.105,90.213c-3.84,2.44-7.75,3.16-7.85,3.18c-2.91,0.73-7.77-0.01-7.84-0.02
			c-0.04,0-4.09-0.55-8.11-2.91c-5.3-3.1-7.98-7.72-7.98-13.74c0-11.31,11.79-25.46,13.79-27.79h10.87
			c2.09,2.27,14.69,16.43,14.69,27.86C83.675,82.503,81.135,87.013,76.105,90.213z"/>
	</g>
	<g id="icon:4_1_" style="display:none;">
		<path id="Shape_25_" style="display:inline;fill-rule:evenodd;clip-rule:evenodd;fill:#07C5FF;" d="M93,86.5H27v-37h66V86.5z
			 M88.875,53.483h-57.75l0,28.906h57.75V53.483z M82.687,79.306c0,0.364,0.092,0.703,0.208,1.028H60
			c5.695,0,10.313-5.522,10.313-12.333c0-6.811-4.617-12.333-10.313-12.333h22.896c-0.117,0.325-0.208,0.663-0.208,1.028
			c0,1.703,1.385,3.083,3.094,3.083c0.366,0,0.705-0.091,1.031-0.207V76.43c-0.326-0.116-0.665-0.207-1.031-0.207
			C84.073,76.222,82.687,77.603,82.687,79.306z M49.688,68c0,6.812,4.617,12.333,10.312,12.333H37.105
			c0.116-0.325,0.208-0.663,0.208-1.028c0-1.703-1.385-3.083-3.094-3.083c-0.366,0-0.706,0.091-1.031,0.207V59.57
			c0.326,0.116,0.665,0.207,1.031,0.207c1.708,0,3.094-1.38,3.094-3.083c0-0.365-0.092-0.703-0.208-1.028H60
			C54.305,55.667,49.688,61.189,49.688,68z"/>
		<path id="Shape_24_" style="display:inline;fill:#2E2E2E;" d="M34,41v4h-4v4h-4v38h68v-4h4v-4h4V41H34z M92,85H28V51h64V85z
			 M96,81h-2V49H32v-2h64V81z M100,77h-2V45H36v-2h64V77z"/>
		<path id="Shape_23_" style="display:inline;fill-rule:evenodd;clip-rule:evenodd;fill:#EA5F5A;" d="M64.654,60.739
			c0.03,0.061,0.056,0.141,0.078,0.242c0.021,0.1,0.037,0.226,0.045,0.378c0.009,0.152,0.013,0.341,0.013,0.567
			c0,0.252-0.007,0.465-0.019,0.639c-0.013,0.174-0.035,0.317-0.065,0.43c-0.031,0.113-0.074,0.196-0.13,0.248
			c-0.056,0.052-0.132,0.078-0.228,0.078c-0.095,0-0.247-0.06-0.455-0.181c-0.208-0.121-0.464-0.252-0.768-0.394
			c-0.304-0.142-0.655-0.271-1.054-0.388c-0.399-0.116-0.837-0.174-1.315-0.174c-0.373,0-0.699,0.046-0.976,0.136
			c-0.278,0.091-0.51,0.216-0.697,0.376c-0.186,0.16-0.326,0.353-0.416,0.577c-0.091,0.225-0.137,0.462-0.137,0.713
			c0,0.373,0.102,0.696,0.306,0.97c0.204,0.273,0.477,0.516,0.82,0.729c0.343,0.212,0.731,0.412,1.165,0.598
			c0.434,0.187,0.876,0.384,1.328,0.592c0.451,0.208,0.894,0.445,1.328,0.709c0.434,0.265,0.82,0.581,1.159,0.95
			c0.338,0.369,0.612,0.802,0.82,1.301c0.208,0.499,0.313,1.086,0.313,1.763c0,0.885-0.165,1.661-0.495,2.329
			c-0.33,0.668-0.777,1.225-1.341,1.672c-0.564,0.447-1.224,0.783-1.979,1.009c-0.096,0.029-0.199,0.039-0.297,0.064v2.275h-2.049
			v-2.007c-0.026,0-0.049,0.005-0.075,0.005c-0.582,0-1.122-0.047-1.621-0.142c-0.499-0.094-0.94-0.208-1.322-0.342
			c-0.382-0.133-0.701-0.273-0.957-0.419c-0.256-0.146-0.441-0.275-0.553-0.387c-0.113-0.111-0.193-0.274-0.241-0.487
			s-0.072-0.52-0.072-0.92c0-0.269,0.009-0.495,0.026-0.678s0.046-0.33,0.085-0.443c0.039-0.113,0.091-0.193,0.156-0.242
			c0.065-0.048,0.141-0.072,0.228-0.072c0.122,0,0.293,0.072,0.514,0.214c0.221,0.143,0.505,0.301,0.853,0.474
			c0.347,0.173,0.761,0.331,1.243,0.474c0.482,0.143,1.039,0.214,1.673,0.214c0.417,0,0.79-0.05,1.12-0.15
			c0.33-0.1,0.609-0.241,0.839-0.424c0.23-0.183,0.406-0.409,0.527-0.678c0.122-0.27,0.183-0.57,0.183-0.9
			c0-0.382-0.105-0.709-0.313-0.982c-0.208-0.273-0.479-0.516-0.814-0.728c-0.334-0.213-0.713-0.412-1.138-0.599
			c-0.425-0.187-0.863-0.384-1.314-0.592c-0.451-0.208-0.889-0.445-1.315-0.709c-0.425-0.265-0.804-0.581-1.139-0.95
			c-0.334-0.368-0.605-0.804-0.813-1.308c-0.208-0.503-0.312-1.106-0.312-1.809c0-0.807,0.15-1.516,0.449-2.127
			c0.299-0.612,0.703-1.119,1.211-1.523c0.508-0.403,1.106-0.705,1.796-0.904c0.354-0.103,0.72-0.177,1.096-0.227v-2.155h2.049
			v2.154c0.082,0.01,0.163,0.006,0.245,0.019c0.399,0.06,0.772,0.142,1.12,0.245c0.347,0.103,0.655,0.22,0.924,0.349
			c0.269,0.129,0.447,0.237,0.534,0.323C64.565,60.604,64.623,60.678,64.654,60.739z"/>
	</g>
	<g id="icon:3_1_" style="display:none;">
		<path id="Shape_22_" style="display:inline;fill:#EA5F5A;" d="M51.625,53.735h-17.75l10-15L51.625,53.735z M83.875,38.735l-7,15
			h17.75L83.875,38.735z"/>
		<polyline id="Shape_19_" style="display:inline;fill:#07C5FF;" points="43.875,38.735 51.625,53.735 53.542,53.735 62.979,38.735 
			65.021,38.735 75.208,53.735 77.042,53.735 84.125,38.735 		"/>
		<path id="Shape_18_" style="display:inline;fill:#2E2E2E;" d="M84.665,37.735h-41.33l-10.71,16.08l31.37,36.45l31.38-36.45
			L84.665,37.735z M92.265,52.735h-13.65l5.66-11.97L92.265,52.735z M82.545,39.735l-6.14,13h-0.67l-8.82-13H82.545z M64.495,39.735
			l8.82,13h-17.96l8.18-13H64.495z M61.165,39.735l-8.18,13h-0.75l-6.72-13H61.165z M43.765,40.705l6.22,12.03h-14.25L43.765,40.705
			z M36.055,54.735h15.84l9.61,29.58L36.055,54.735z M54.005,54.735h20.6l-10.58,30.84L54.005,54.735z M66.625,84.145l10.09-29.41
			h15.23L66.625,84.145z"/>
	</g>
	<g id="icon:2_1_" style="display:none;">
		<path id="Shape_17_" style="display:inline;fill:#EA5F5A;" d="M49.808,81.25h-12v-20h12V81.25z M69.808,51.25h-12v30h12V51.25z
			 M89.808,41.25h-12v40h12V41.25z"/>
		<path id="Shape_14_" style="display:inline;fill:#2E2E2E;" d="M101.192,87.75H26.808v-3h74.384V87.75z M50.808,60.25h-14v22h14
			V60.25z M38.808,62.25h10v18h-10V62.25z M70.808,50.25h-14v32h14V50.25z M58.808,52.25h10v28h-10V52.25z M90.808,40.25h-14v42h14
			V40.25z M78.808,42.25h10v38h-10V42.25z"/>
	</g>
	<g id="icon:1_1_" style="display:none;">
		<rect id="Shape_15_" x="46.5" y="37" style="display:inline;fill:#07C5FF;" width="35" height="8"/>
		<path id="Shape_13_" style="display:inline;fill:#EA5F5A;" d="M54,62h-8v-8h8V62z M68,54h-8v8h8V54z M82,54h-8v8h8V54z M54,68h-8
			v8h8V68z M68,68h-8v8h8V68z M82,68h-8v8h8V68z M54,82h-8v8h8V82z M68,82h-8v8h8V82z M82,82h-8v8h8V82z"/>
		<path id="Shape_12_" style="display:inline;fill:#2E2E2E;" d="M87.986,101H40.014C38.352,101,37,99.648,37,97.986V30.014
			C37,28.352,38.352,27,40.014,27h47.972C89.648,27,91,28.352,91,30.014v67.972C91,99.648,89.648,101,87.986,101z M40.014,29
			C39.455,29,39,29.455,39,30.014v67.972C39,98.545,39.455,99,40.014,99h47.972C88.545,99,89,98.545,89,97.986V30.014
			C89,29.455,88.545,29,87.986,29H40.014z M82.5,46h-37V36h37V46z M47.5,44h33v-6h-33V44z M83,91H73V81h10V91z M75,89h6v-6h-6V89z
			 M69,91H59V81h10V91z M61,89h6v-6h-6V89z M55,91H45V81h10V91z M47,89h6v-6h-6V89z M83,77H73V67h10V77z M75,75h6v-6h-6V75z M69,77
			H59V67h10V77z M61,75h6v-6h-6V75z M55,77H45V67h10V77z M47,75h6v-6h-6V75z M83,63H73V53h10V63z M75,61h6v-6h-6V61z M69,63H59V53
			h10V63z M61,61h6v-6h-6V61z M55,63H45V53h10V63z M47,61h6v-6h-6V61z"/>
	</g>
</g>
<g id="row1">
	<g id="icon:5" style="display:none;">
		<path id="Shape_11_" style="display:inline;fill:#07C5FF;" d="M83.508,88L86.8,74.979C87.244,73.223,88.766,72,90.506,72h19.178
			c1.758,0,3.291,1.249,3.718,3.03L116.508,88H83.508z M80.508,88l-3.107-12.97C76.975,73.249,75.442,72,73.684,72H54.506
			c-1.74,0-3.261,1.223-3.705,2.979L47.508,88H80.508z M44.508,88l-3.107-12.97C40.975,73.249,39.442,72,37.684,72H18.506
			c-1.74,0-3.261,1.223-3.705,2.979L11.508,88H44.508z"/>
		<path id="Shape_10_" style="display:inline;fill:#EA5F5A;" d="M30.008,72L33.3,58.979C33.744,57.223,35.266,56,37.006,56h19.178
			c1.758,0,3.291,1.249,3.718,3.03L63.008,72H30.008z M99.008,72l-3.107-12.97C95.475,57.249,93.942,56,92.184,56H73.006
			c-1.74,0-3.261,1.223-3.705,2.979L66.008,72H99.008z M80.008,56l-3.107-12.97C76.475,41.249,74.942,40,73.184,40H54.006
			c-1.74,0-3.261,1.223-3.705,2.979L47.008,56H80.008z"/>
		<path id="Shape_6_" style="display:inline;fill:#2E2E2E;" d="M117.776,89H82.224l3.606-14.266C86.387,72.536,88.309,71,90.505,71
			h19.179c2.226,0,4.154,1.561,4.69,3.797L117.776,89z M84.792,87h30.448l-2.812-11.737C112.11,73.931,110.981,73,109.684,73H90.505
			c-1.279,0-2.404,0.915-2.735,2.225L84.792,87z M81.776,89H46.224l3.606-14.266C50.387,72.536,52.309,71,54.505,71h19.179
			c2.226,0,4.154,1.561,4.69,3.797L81.776,89z M48.792,87h30.448l-2.812-11.737C76.11,73.931,74.981,73,73.684,73H54.505
			c-1.279,0-2.404,0.915-2.735,2.225L48.792,87z M45.776,89H10.224l3.606-14.266C14.387,72.536,16.309,71,18.505,71h19.179
			c2.226,0,4.154,1.561,4.69,3.797L45.776,89z M12.792,87h30.448l-2.812-11.737C40.11,73.931,38.981,73,37.684,73H18.505
			c-1.279,0-2.404,0.915-2.735,2.225L12.792,87z M64.276,73H28.724l3.606-14.266C32.887,56.536,34.809,55,37.005,55h19.179
			c2.226,0,4.154,1.561,4.69,3.797L64.276,73z M31.292,71h30.448l-2.812-11.737C58.61,57.931,57.481,57,56.184,57H37.005
			c-1.279,0-2.404,0.915-2.735,2.225L31.292,71z M100.276,73H64.724l3.606-14.266C68.887,56.536,70.809,55,73.005,55h19.179
			c2.226,0,4.154,1.561,4.69,3.797L100.276,73z M67.292,71h30.448l-2.812-11.737C94.61,57.931,93.481,57,92.184,57H73.005
			c-1.279,0-2.404,0.915-2.735,2.225L67.292,71z M81.276,57H45.724l3.606-14.266C49.887,40.536,51.809,39,54.005,39h19.179
			c2.226,0,4.154,1.561,4.69,3.797L81.276,57z M48.292,55h30.448l-2.812-11.737C75.61,41.931,74.481,41,73.184,41H54.005
			c-1.279,0-2.404,0.915-2.735,2.225L48.292,55z"/>
	</g>
	<g id="icon:4" style="display:none;">
		<rect id="Shape_9_" x="35.5" y="45.866" style="display:inline;fill:#07C5FF;" width="58" height="32"/>
		<path id="Shape_5_" style="display:inline;fill:#2E2E2E;" d="M27,37.5v48h8v3c0,1.105,0.895,2,2,2h6c1.105,0,2-0.895,2-2v-3h38v3
			c0,1.105,0.895,2,2,2h6c1.105,0,2-0.895,2-2v-3h8v-48H27z M99,83.5H29v-44h70V83.5z M94,78.5H34v-34h60V78.5z M36,76.5h56v-30H36
			V76.5z M65.333,74.333h-2v-1.713c-2.352-0.208-4.497-1.143-6.211-2.578l-1.215,1.215l-1.414-1.414l1.215-1.215
			c-1.436-1.714-2.371-3.86-2.579-6.212h-1.712v-2h1.712c0.208-2.352,1.144-4.498,2.579-6.211l-1.215-1.215l1.414-1.414l1.215,1.214
			c1.714-1.435,3.859-2.37,6.211-2.578V48.5h2v1.713c2.352,0.208,4.498,1.143,6.212,2.578l1.215-1.215l1.414,1.414l-1.215,1.215
			c1.435,1.713,2.37,3.859,2.578,6.211h1.713v2h-1.713c-0.208,2.352-1.144,4.498-2.578,6.211l1.215,1.215l-1.414,1.414l-1.215-1.215
			c-1.714,1.436-3.86,2.371-6.212,2.579V74.333z M65.333,63.831v6.78c1.802-0.194,3.45-0.909,4.791-1.989L65.333,63.831z
			 M58.542,68.622c1.342,1.08,2.989,1.794,4.791,1.989v-6.779L58.542,68.622z M55.139,62.417c0.194,1.802,0.909,3.45,1.989,4.792
			l4.792-4.792H55.139z M66.747,62.417l4.791,4.791c1.081-1.341,1.795-2.989,1.989-4.791H66.747z M66.748,60.417h6.779
			c-0.194-1.802-0.908-3.449-1.989-4.791L66.748,60.417z M55.139,60.417h6.78l-4.791-4.792
			C56.047,56.967,55.333,58.615,55.139,60.417z M65.333,52.223v6.78l4.791-4.792C68.783,53.131,67.135,52.417,65.333,52.223z
			 M58.542,54.211l4.791,4.791v-6.779C61.531,52.417,59.884,53.131,58.542,54.211z"/>
	</g>
	<g id="icon:3" style="display:none;">
		<path id="Shape_8_" style="display:inline;fill:#07C5FF;" d="M97.995,54.592l-32.51-22.02c-0.9-0.6-2.07-0.6-2.97,0l-32.51,22.02
			c-2.17,1.47-1.13,4.86,1.49,4.86h65.01C99.125,59.452,100.165,56.062,97.995,54.592z M63.995,55.382c-3.86,0-7-3.58-7-8
			c0-4.42,3.14-8,7-8c3.87,0,7,3.58,7,8C70.995,51.802,67.865,55.382,63.995,55.382z"/>
		<rect id="Shape_7_" x="34" y="89.884" style="display:inline;fill:#EA5F5A;" width="60" height="6"/>
		<path id="Shape_4_" style="display:inline;fill:#2E2E2E;" d="M95,96.885H33v-8h6V60.451h-7.506c-1.642,0-3.013-1.014-3.495-2.583
			s0.085-3.178,1.444-4.099L61.95,31.748c1.245-0.843,2.854-0.844,4.101,0l32.505,22.02c1.359,0.921,1.927,2.529,1.445,4.099
			s-1.854,2.583-3.495,2.583H89v28.434h6V96.885z M35,94.885h58v-4H35V94.885z M85,88.885h2V60.451h-2V88.885z M81,88.885h2V60.451
			h-2V88.885z M69,88.885h10V60.451H69V88.885z M65,88.885h2V60.451h-2V88.885z M61,88.885h2V60.451h-2V88.885z M49,88.885h10
			V60.451H49V88.885z M45,88.885h2V60.451h-2V88.885z M41,88.885h2V60.451h-2V88.885z M64,33.118c-0.323,0-0.646,0.095-0.928,0.286
			L30.565,55.425c-0.747,0.506-0.828,1.291-0.654,1.856c0.173,0.565,0.68,1.17,1.583,1.17h65.012c0.902,0,1.409-0.604,1.583-1.17
			c0.173-0.565,0.093-1.35-0.654-1.856L64.928,33.404C64.647,33.213,64.323,33.118,64,33.118z M64,55.885
			c-4.136,0-7.5-3.813-7.5-8.5s3.364-8.5,7.5-8.5s7.5,3.813,7.5,8.5S68.136,55.885,64,55.885z M64,39.885
			c-3.584,0-6.5,3.364-6.5,7.5s2.916,7.5,6.5,7.5s6.5-3.364,6.5-7.5S67.584,39.885,64,39.885z M62.255,48.781
			c-0.009,0.527,0.107,0.943,0.348,1.247c0.24,0.305,0.636,0.465,1.188,0.48v-2.904c-0.328-0.088-0.654-0.193-0.979-0.317
			s-0.616-0.284-0.876-0.48s-0.47-0.441-0.63-0.738c-0.16-0.296-0.24-0.663-0.24-1.104c0-0.384,0.074-0.722,0.223-1.014
			c0.147-0.292,0.348-0.536,0.6-0.732s0.542-0.346,0.87-0.45c0.328-0.104,0.672-0.156,1.032-0.156v-0.936h0.516v0.936
			c0.36,0,0.7,0.049,1.02,0.145c0.32,0.096,0.599,0.24,0.834,0.432c0.236,0.192,0.425,0.437,0.564,0.732s0.21,0.64,0.21,1.032
			h-1.368c-0.016-0.408-0.122-0.721-0.317-0.937c-0.196-0.216-0.511-0.324-0.942-0.324v2.532c0.36,0.096,0.712,0.208,1.056,0.336
			s0.648,0.292,0.912,0.492c0.265,0.2,0.477,0.448,0.636,0.744c0.16,0.296,0.24,0.66,0.24,1.092c0,0.448-0.074,0.838-0.222,1.17
			c-0.148,0.332-0.351,0.608-0.606,0.828s-0.556,0.388-0.899,0.504c-0.345,0.116-0.716,0.182-1.116,0.198v0.936h-0.516v-0.936
			c-0.433-0.008-0.828-0.076-1.188-0.204s-0.668-0.31-0.924-0.546s-0.454-0.526-0.594-0.87c-0.141-0.344-0.206-0.74-0.198-1.188
			H62.255z M63.792,43.692c-0.433,0-0.767,0.091-1.002,0.271c-0.236,0.18-0.354,0.482-0.354,0.906c0,0.191,0.04,0.355,0.12,0.491
			c0.08,0.137,0.182,0.252,0.306,0.349c0.124,0.096,0.269,0.174,0.433,0.233c0.163,0.061,0.33,0.11,0.498,0.15V43.692z
			 M64.307,50.509c0.432-0.032,0.786-0.158,1.062-0.378c0.276-0.22,0.414-0.57,0.414-1.05c0-0.225-0.042-0.412-0.126-0.564
			c-0.084-0.151-0.195-0.279-0.336-0.384c-0.14-0.104-0.298-0.188-0.474-0.252s-0.356-0.12-0.54-0.168V50.509z"/>
	</g>
	<g id="icon:2" style="display:none;">
		<path id="Shape_3_" style="display:inline;fill:#2E2E2E;" d="M64,97c-18.196,0-33-14.804-33-33s14.804-33,33-33s33,14.804,33,33
			S82.196,97,64,97z M64,33c-17.093,0-31,13.907-31,31s13.907,31,31,31s31-13.907,31-31S81.093,33,64,33z"/>
		<path id="Shape_2_" style="display:inline;fill:#E65A5B;" d="M72.192,53.342c-2.24-2.208-4.529-3.312-6.864-3.312
			c-2.4,0-4.384,1.024-5.952,3.072c-1.248,1.632-2.144,3.776-2.688,6.432h13.584l-1.296,2.928H56.352
			c-0.032,0.256-0.048,0.512-0.048,0.768c0,0.256,0,0.496,0,0.72c0,0.192,0,0.368,0,0.528s0.016,0.32,0.048,0.48h11.952
			l-1.248,2.928H56.592c1.056,6.88,4.096,10.32,9.12,10.32c1.536,0,2.896-0.304,4.08-0.912c0.864-0.448,1.968-1.296,3.312-2.544
			v5.04c-2.144,1.376-4.608,2.064-7.392,2.064c-7.841,0-12.432-4.656-13.776-13.968H48.24l1.296-2.928h2.208
			c-0.032-0.16-0.048-0.32-0.048-0.48s0-0.32,0-0.48c0-0.288,0-0.559,0-0.816c0-0.255,0.016-0.496,0.048-0.72H48.24l1.248-2.928
			h2.592c0.768-3.936,2.224-7.04,4.368-9.312c2.4-2.592,5.488-3.888,9.264-3.888c2.911,0,5.808,1.008,8.688,3.024L72.192,53.342z"/>
	</g>
	<g id="icon:1" style="display:none;">
		<path id="Shape_1_" style="display:inline;fill:#2E2E2E;" d="M64,97c-18.196,0-33-14.804-33-33s14.804-33,33-33s33,14.804,33,33
			S82.196,97,64,97z M64,33c-17.093,0-31,13.907-31,31s13.907,31,31,31s31-13.907,31-31S81.093,33,64,33z"/>
		<path id="Shape" style="display:inline;fill:#E65A5B;" d="M55.656,62.278c-0.641-1.087-1.176-2.224-1.608-3.408
			c-0.432-1.183-0.648-2.544-0.648-4.08c0-1.536,0.295-2.904,0.888-4.104c0.592-1.2,1.392-2.215,2.4-3.048
			c1.008-0.832,2.167-1.471,3.48-1.92c1.312-0.448,2.704-0.672,4.176-0.672c3.552,0,6.343,1.032,8.376,3.096
			c2.032,2.064,3.016,5.16,2.952,9.288h-4.08c-0.064-2.815-0.672-4.984-1.824-6.504c-1.152-1.52-2.88-2.28-5.184-2.28
			c-0.96,0-1.856,0.16-2.688,0.48c-0.833,0.32-1.56,0.76-2.184,1.32c-0.624,0.56-1.112,1.224-1.464,1.992
			c-0.353,0.768-0.528,1.6-0.528,2.496c0,0.768,0.08,1.48,0.24,2.136c0.16,0.656,0.36,1.272,0.6,1.848
			c0.24,0.576,0.504,1.136,0.792,1.68c0.288,0.544,0.576,1.104,0.864,1.68h7.632v2.16h-6.576c0.256,0.512,0.48,1.072,0.672,1.68
			c0.192,0.608,0.288,1.248,0.288,1.92c0,1.088-0.161,2.057-0.48,2.904c-0.32,0.848-0.737,1.632-1.248,2.352
			c-0.512,0.72-1.104,1.384-1.776,1.992c-0.672,0.608-1.36,1.2-2.064,1.776l0.096,0.096c0.832-0.352,1.64-0.672,2.424-0.96
			c0.784-0.288,1.656-0.432,2.616-0.432c0.928,0,1.759,0.078,2.496,0.233c0.735,0.155,1.423,0.311,2.064,0.465
			c0.64,0.186,1.288,0.373,1.944,0.559c0.655,0.186,1.352,0.279,2.088,0.279c0.768,0,1.528-0.184,2.28-0.552
			c0.751-0.368,1.416-0.776,1.992-1.224l2.064,3.187c-0.96,0.844-2.056,1.42-3.288,1.728c-1.232,0.307-2.472,0.462-3.72,0.462
			c-0.8,0-1.584-0.096-2.352-0.288s-1.568-0.4-2.4-0.624c-0.8-0.256-1.608-0.487-2.424-0.696c-0.816-0.208-1.688-0.312-2.616-0.312
			c-0.929,0-1.776,0.152-2.544,0.456c-0.768,0.304-1.521,0.696-2.256,1.176l-2.256-3.12c0.672-0.448,1.328-0.976,1.968-1.584
			c0.64-0.607,1.208-1.279,1.704-2.016c0.496-0.735,0.888-1.519,1.176-2.352c0.288-0.832,0.432-1.712,0.432-2.64
			c0-0.736-0.128-1.504-0.384-2.304c-0.256-0.799-0.528-1.52-0.816-2.16h-4.08v-2.16H55.656z"/>
	</g>
</g>
</svg>
