<?xml version="1.0" encoding="iso-8859-1"?>
<!-- Generator: Adobe Illustrator 23.0.5, SVG Export Plug-In . SVG Version: 6.00 Build 0)  -->
<svg version="1.1" xmlns="http://www.w3.org/2000/svg" xmlns:xlink="http://www.w3.org/1999/xlink" x="0px" y="0px"
	 viewBox="0 0 492 492" style="enable-background:new 0 0 492 492;" xml:space="preserve">
<g id="Master_Layer_2">
</g>
<g id="Layer_1">
	<g>
		<g>
			<g>
				<g>
					<g>
						<g>
							<g>
								<polygon style="fill-rule:evenodd;clip-rule:evenodd;fill:#50B44B;" points="424.634,263.393 424.634,409.711 
									98.18,409.711 98.18,263.408 395.809,263.408 395.809,263.393 								"/>
							</g>
							<g>
								<polygon style="fill-rule:evenodd;clip-rule:evenodd;fill:#369E47;" points="395.809,233.116 395.809,263.393 
									98.18,263.393 98.18,263.408 98.173,263.408 98.173,379.41 67.886,379.41 67.886,233.116 								"/>
							</g>
						</g>
					</g>
				</g>
			</g>
			<g>
				<g>
					<g>
						<g>
							<path style="fill-rule:evenodd;clip-rule:evenodd;fill:#333333;" d="M98.173,385.355H67.886
								c-3.284,0-5.946-2.662-5.946-5.946V233.116c0-3.284,2.662-5.946,5.946-5.946H395.81c3.284,0,5.946,2.662,5.946,5.946v30.293
								c0,3.284-2.662,5.946-5.946,5.946H104.118v110.054C104.118,382.693,101.456,385.355,98.173,385.355L98.173,385.355z
								 M73.832,373.463h18.395V263.409c0-3.284,2.662-5.946,5.946-5.946h291.692v-18.402H73.832V373.463z"/>
						</g>
					</g>
					<g>
						<g>
							<g>
								<path style="fill-rule:evenodd;clip-rule:evenodd;fill:#333333;" d="M424.634,415.658H98.181
									c-3.284,0-5.946-2.662-5.946-5.946V263.393c0-3.284,2.662-5.946,5.946-5.946h326.453c3.284,0,5.946,2.662,5.946,5.946
									v146.319C430.58,412.996,427.918,415.658,424.634,415.658L424.634,415.658z M104.127,403.767h314.562V269.339H104.127
									V403.767z"/>
							</g>
							<g>
								<g>
									<g>
										<path style="fill-rule:evenodd;clip-rule:evenodd;fill:#333333;" d="M180.491,324.424h-48.222
											c-3.284,0-5.946-2.662-5.946-5.946c0-3.284,2.662-5.946,5.946-5.946h48.222c3.284,0,5.946,2.662,5.946,5.946
											C186.436,321.762,183.775,324.424,180.491,324.424z"/>
									</g>
									<g>
										<path style="fill-rule:evenodd;clip-rule:evenodd;fill:#333333;" d="M180.491,360.573h-48.222
											c-3.284,0-5.946-2.662-5.946-5.946c0-3.284,2.662-5.946,5.946-5.946h48.222c3.284,0,5.946,2.662,5.946,5.946
											C186.436,357.911,183.775,360.573,180.491,360.573z"/>
									</g>
								</g>
								<g>
									<g>
										<path style="fill-rule:evenodd;clip-rule:evenodd;fill:#333333;" d="M390.546,324.424h-48.222
											c-3.284,0-5.946-2.662-5.946-5.946c0-3.284,2.662-5.946,5.946-5.946h48.222c3.284,0,5.946,2.662,5.946,5.946
											C396.492,321.762,393.83,324.424,390.546,324.424z"/>
									</g>
									<g>
										<path style="fill-rule:evenodd;clip-rule:evenodd;fill:#333333;" d="M390.546,360.573h-48.222
											c-3.284,0-5.946-2.662-5.946-5.946c0-3.284,2.662-5.946,5.946-5.946h48.222c3.284,0,5.946,2.662,5.946,5.946
											C396.492,357.911,393.83,360.573,390.546,360.573z"/>
									</g>
								</g>
							</g>
						</g>
						<g>
							<g>
								<path style="fill-rule:evenodd;clip-rule:evenodd;fill:#333333;" d="M261.408,369.412c-9.772,0-18.325-5.941-20.801-14.447
									c-0.918-3.153,0.895-6.453,4.047-7.37c3.154-0.917,6.453,0.895,7.37,4.048c0.991,3.406,4.937,5.878,9.383,5.878
									c5.213,0,9.616-3.439,9.616-7.511c0-3.255-3.704-5.837-11.012-7.677c-12.782-2.968-20.112-9.978-20.112-19.236
									c0-10.698,9.648-19.402,21.507-19.402c9.691,0,18.226,5.879,20.756,14.295c0.945,3.145-0.838,6.461-3.982,7.406
									c-3.146,0.946-6.461-0.838-7.406-3.982c-1.015-3.377-4.955-5.827-9.368-5.827c-5.212,0-9.616,3.439-9.616,7.511
									c0,4.763,8.385,7.07,10.954,7.664c0.036,0.008,0.072,0.017,0.108,0.026c5.646,1.415,9.965,3.316,13.204,5.811
									c4.486,3.455,6.858,8.094,6.858,13.413C282.915,360.708,273.267,369.412,261.408,369.412z"/>
							</g>
							<g>
								<path style="fill-rule:evenodd;clip-rule:evenodd;fill:#333333;" d="M261.408,377.402c-3.284,0-5.946-2.662-5.946-5.946
									v-69.807c0-3.284,2.662-5.946,5.946-5.946s5.946,2.662,5.946,5.946v69.807C267.353,374.74,264.691,377.402,261.408,377.402z
									"/>
							</g>
						</g>
					</g>
				</g>
				<g>
					<g>
						<path style="fill-rule:evenodd;clip-rule:evenodd;fill:#333333;" d="M246.26,202.969c-3.284,0-5.946-2.662-5.946-5.946V84.359
							c0-3.284,2.662-5.946,5.946-5.946c3.284,0,5.946,2.662,5.946,5.946v112.664C252.206,200.307,249.544,202.969,246.26,202.969z"
							/>
					</g>
					<g>
						<path style="fill-rule:evenodd;clip-rule:evenodd;fill:#333333;" d="M280.594,124.046c-1.522,0-3.043-0.581-4.205-1.741
							l-30.129-30.13l-30.129,30.13c-2.322,2.322-6.087,2.322-8.409,0c-2.322-2.322-2.322-6.087,0-8.409l34.334-34.334
							c2.322-2.322,6.087-2.321,8.409,0l34.334,34.334c2.322,2.322,2.322,6.087,0,8.409
							C283.637,123.465,282.115,124.046,280.594,124.046z"/>
					</g>
				</g>
			</g>
		</g>
	</g>
</g>
</svg>
