<?xml version="1.0" encoding="iso-8859-1"?>
<!-- Generator: Adobe Illustrator 23.0.5, SVG Export Plug-In . SVG Version: 6.00 Build 0)  -->
<svg version="1.1" xmlns="http://www.w3.org/2000/svg" xmlns:xlink="http://www.w3.org/1999/xlink" x="0px" y="0px"
	 viewBox="0 0 492 492" style="enable-background:new 0 0 492 492;" xml:space="preserve">
<g id="Master_Layer_2">
</g>
<g id="Layer_1">
	<g>
		<g>
			<g>
				<g>
					<g>
						<g>
							<g>
								<path style="fill-rule:evenodd;clip-rule:evenodd;fill:#F9BBA4;" d="M322.252,285.619c0-9.167,7.467-16.597,16.676-16.597
									c4.603,0,8.773,1.858,11.79,4.861c3.02,3.003,4.885,7.152,4.885,11.736v7.995c0-9.164,7.465-16.594,16.674-16.594
									c4.606,0,8.775,1.858,11.793,4.861c3.018,3.003,4.883,7.15,4.883,11.733v68.812c0,15.417-1.883,22.781-4.43,29.99
									c-12.246,34.692-103.081,48.056-134.746,8.627l-43.44-59.192c-2.72-3.706-4.031-8.01-4.031-12.274
									c0-6.427,2.975-12.764,8.589-16.844c9.338-6.788,22.439-4.757,29.259,4.539l15.398,20.979v-47.483V256.1l0-32.451
									c0-9.167,7.465-16.596,16.674-16.596c4.606,0,8.773,1.858,11.79,4.861c3.017,3.003,4.885,7.153,4.885,11.736v1.316v52.496
									c0-7.633,5.175-14.06,12.224-15.997c1.417-0.392,2.911-0.599,4.452-0.599c4.606,0,8.773,1.858,11.79,4.861
									c3.018,3.003,4.883,7.152,4.883,11.736L322.252,285.619L322.252,285.619z"/>
							</g>
							<g>
								<path style="fill-rule:evenodd;clip-rule:evenodd;fill:#F2AF1D;" d="M332.851,182.665c0,30.424-12.286,58.32-31.724,78.799
									c-7.049,1.937-12.224,8.364-12.224,15.997l0-52.496c7.012-12.09,11.771-27.331,11.771-42.301
									c0-45.407-36.922-82.218-82.465-82.218c-45.541,0-82.463,36.811-82.463,82.218c0,45.407,36.922,82.218,82.463,82.218
									c13.007,0,26.405-3.436,37.345-8.783v34.667c-11.627,3.959-24.376,6.196-37.345,6.196
									c-63.315,0-114.641-51.173-114.641-114.299S154.893,68.366,218.208,68.366C281.525,68.366,332.851,119.538,332.851,182.665z
									"/>
							</g>
							<g>
								<path style="fill-rule:evenodd;clip-rule:evenodd;fill:#FCDA4E;" d="M218.208,144.591c-12.217,0-22.122,8.522-22.122,19.037
									c0,10.515,10.539,16.374,22.122,19.037v38.076c12.219,0,22.124-8.525,22.124-19.039c0-10.514-9.838-15.972-22.124-19.037
									V144.591L218.208,144.591z M300.673,182.665c0,14.969-4.759,30.21-11.771,42.301v-1.316c0-4.583-1.868-8.733-4.885-11.736
									c-3.018-3.003-7.185-4.861-11.79-4.861c-9.209,0-16.674,7.43-16.674,16.597v32.45c-10.941,5.346-24.339,8.783-37.345,8.783
									c-45.541,0-82.463-36.811-82.463-82.218c0-45.407,36.922-82.218,82.463-82.218
									C263.752,100.447,300.673,137.257,300.673,182.665z"/>
							</g>
							<g>
								<path style="fill-rule:evenodd;clip-rule:evenodd;fill:#FCDA4E;" d="M218.208,182.665
									c12.286,3.065,22.124,8.522,22.124,19.037c0,10.515-9.905,19.039-22.124,19.039V182.665z"/>
							</g>
							<g>
								<path style="fill-rule:evenodd;clip-rule:evenodd;fill:#FCDA4E;" d="M218.208,144.591v38.074
									c-11.582-2.663-22.122-8.522-22.122-19.037C196.086,153.113,205.991,144.591,218.208,144.591z"/>
							</g>
						</g>
						<g>
							<g>
								<path style="fill-rule:evenodd;clip-rule:evenodd;fill:#333333;" d="M218.208,270.828c-11.93,0-23.507-2.331-34.408-6.928
									c-10.528-4.44-19.982-10.795-28.099-18.888c-8.119-8.095-14.494-17.523-18.949-28.022
									c-4.614-10.875-6.953-22.423-6.953-34.325c0-11.901,2.339-23.45,6.953-34.325c4.454-10.499,10.829-19.927,18.949-28.022
									c8.117-8.093,17.572-14.448,28.099-18.888c10.902-4.597,22.478-6.928,34.408-6.928c11.93,0,23.507,2.331,34.409,6.928
									c10.528,4.44,19.982,10.794,28.1,18.888c8.119,8.095,14.494,17.523,18.949,28.022c4.614,10.875,6.953,22.424,6.953,34.325
									c0,15-4.583,31.505-12.573,45.284c-1.647,2.841-5.286,3.808-8.127,2.161c-2.841-1.648-3.808-5.286-2.161-8.127
									c6.97-12.02,10.968-26.35,10.968-39.318c0-42.057-34.327-76.272-76.52-76.272c-42.192,0-76.517,34.215-76.517,76.272
									c0,42.056,34.325,76.272,76.517,76.272c11.438,0,24.099-2.981,34.735-8.179c2.95-1.442,6.511-0.219,7.953,2.731
									c1.442,2.95,0.219,6.511-2.732,7.953C245.778,267.495,231.588,270.828,218.208,270.828z"/>
							</g>
							<g>
								<path style="fill-rule:evenodd;clip-rule:evenodd;fill:#333333;" d="M218.208,226.687c-12.779,0-23.948-7.671-27.16-18.654
									c-0.922-3.152,0.886-6.454,4.038-7.376c3.151-0.922,6.454,0.886,7.376,4.038c1.712,5.852,8.334,10.1,15.746,10.1
									c8.92,0,16.178-5.874,16.178-13.093c0-2.193-0.001-8.861-17.567-13.255c-7.246-1.672-13.174-4.239-17.62-7.627
									c-5.926-4.517-9.058-10.462-9.058-17.192c0-6.844,3.035-13.226,8.547-17.968c5.257-4.523,12.189-7.015,19.52-7.015
									c12.676,0,23.823,7.591,27.105,18.461c0.949,3.144-0.829,6.462-3.973,7.411c-3.144,0.95-6.462-0.83-7.411-3.973
									c-1.779-5.891-8.243-10.006-15.721-10.006c-8.919,0-16.176,5.873-16.176,13.091c0,1.888,0.454,4.744,4.376,7.734
									c3.059,2.331,7.599,4.236,13.132,5.509c0.036,0.008,0.071,0.016,0.106,0.025c7.684,1.917,13.522,4.46,17.847,7.775
									c5.746,4.404,8.784,10.293,8.784,17.032c0,6.844-3.035,13.226-8.547,17.969C232.473,224.195,225.54,226.687,218.208,226.687
									z"/>
							</g>
							<g>
								<path style="fill-rule:evenodd;clip-rule:evenodd;fill:#333333;" d="M218.208,237.99c-3.284,0-5.946-2.662-5.946-5.946
									v-98.758c0-3.284,2.662-5.946,5.946-5.946c3.284,0,5.946,2.662,5.946,5.946v98.758
									C224.154,235.327,221.492,237.99,218.208,237.99z"/>
							</g>
							<g>
								<path style="fill-rule:evenodd;clip-rule:evenodd;fill:#333333;" d="M218.208,302.91c-16.275,0-32.065-3.179-46.934-9.45
									c-14.36-6.055-27.255-14.723-38.328-25.763c-11.074-11.041-19.769-23.9-25.844-38.22c-6.291-14.83-9.481-30.58-9.481-46.813
									s3.19-31.983,9.481-46.813c6.075-14.32,14.77-27.179,25.844-38.22c11.073-11.04,23.968-19.707,38.328-25.763
									c14.868-6.27,30.659-9.45,46.934-9.45c16.274,0,32.066,3.179,46.935,9.45c14.36,6.055,27.255,14.723,38.328,25.763
									c11.074,11.041,19.769,23.9,25.844,38.22c6.292,14.83,9.482,30.58,9.482,46.813c0,15.609-3.035,30.883-9.022,45.396
									c-5.74,13.916-13.928,26.531-24.335,37.496c-2.261,2.382-6.025,2.48-8.406,0.219c-2.381-2.261-2.48-6.025-0.219-8.406
									c19.404-20.443,30.091-46.974,30.091-74.705c0-59.746-48.761-108.353-108.697-108.353
									c-59.935,0-108.695,48.607-108.695,108.353c0,59.746,48.76,108.353,108.695,108.353c11.883,0,24.134-2.033,35.429-5.879
									c3.108-1.059,6.486,0.604,7.545,3.712c1.058,3.109-0.603,6.486-3.712,7.545C244.956,300.657,231.379,302.91,218.208,302.91z
									"/>
							</g>
							<g>
								<path style="fill-rule:evenodd;clip-rule:evenodd;fill:#333333;" d="M255.553,344.197c-3.284,0-5.946-2.662-5.946-5.946
									V223.65c0-12.43,10.147-22.542,22.62-22.542c6.035,0,11.712,2.341,15.984,6.591c4.28,4.26,6.638,9.924,6.638,15.951v53.811
									c0,3.284-2.662,5.946-5.946,5.946c-3.284,0-5.946-2.662-5.946-5.946v-53.811c0-2.839-1.113-5.51-3.134-7.521
									c-2.028-2.018-4.726-3.13-7.596-3.13c-5.915,0-10.728,4.778-10.728,10.651v114.601
									C261.499,341.535,258.837,344.197,255.553,344.197z"/>
							</g>
							<g>
								<path style="fill-rule:evenodd;clip-rule:evenodd;fill:#333333;" d="M288.903,325.698c-3.284,0-5.946-2.662-5.946-5.946
									v-42.291c0-10.109,6.824-19.045,16.594-21.731c1.95-0.538,3.98-0.812,6.028-0.812c6.036,0,11.713,2.341,15.985,6.592
									c4.279,4.257,6.635,9.922,6.635,15.951v8.158c0,3.284-2.662,5.946-5.946,5.946c-3.284,0-5.946-2.662-5.946-5.946v-8.158
									c0-2.841-1.112-5.512-3.132-7.521c-2.028-2.018-4.726-3.13-7.596-3.13c-0.978,0-1.944,0.13-2.87,0.385
									c-4.63,1.273-7.86,5.493-7.86,10.266v42.291C294.849,323.035,292.187,325.698,288.903,325.698z"/>
							</g>
							<g>
								<path style="fill-rule:evenodd;clip-rule:evenodd;fill:#333333;" d="M322.252,325.698c-3.284,0-5.946-2.662-5.946-5.946
									v-34.133c0-12.43,10.148-22.542,22.622-22.542c6.036,0,11.712,2.341,15.985,6.591c4.279,4.255,6.637,9.92,6.637,15.951
									v7.995c0,3.284-2.662,5.946-5.946,5.946c-3.284,0-5.946-2.662-5.946-5.946v-7.995c0-2.841-1.112-5.511-3.132-7.52
									c-2.03-2.02-4.727-3.131-7.598-3.131c-5.917,0-10.73,4.778-10.73,10.65v34.133
									C328.198,323.035,325.536,325.698,322.252,325.698z"/>
							</g>
							<g>
								<path style="fill-rule:evenodd;clip-rule:evenodd;fill:#333333;" d="M388.954,368.372c-3.284,0-5.946-2.662-5.946-5.946
									v-68.812c0-2.839-1.112-5.509-3.131-7.519c-2.028-2.018-4.727-3.13-7.599-3.13c-5.915,0-10.728,4.777-10.728,10.648v27.359
									c0,3.284-2.662,5.946-5.946,5.946c-3.284,0-5.946-2.662-5.946-5.946v-27.359c0-12.429,10.147-22.54,22.62-22.54
									c6.037,0,11.715,2.341,15.987,6.592c4.279,4.258,6.635,9.922,6.635,15.948v68.812
									C394.9,365.71,392.237,368.372,388.954,368.372z"/>
							</g>
							<g>
								<path style="fill-rule:evenodd;clip-rule:evenodd;fill:#333333;" d="M249.784,406.989c-1.829,0-3.633-0.841-4.799-2.429
									l-43.44-59.192c-3.391-4.62-5.183-10.081-5.183-15.791c0-8.535,4.127-16.63,11.04-21.654
									c11.964-8.697,28.808-6.082,37.549,5.831l15.397,20.979c1.943,2.647,1.372,6.369-1.275,8.312
									c-2.647,1.943-6.369,1.372-8.312-1.275l-15.397-20.98c-4.879-6.65-14.286-8.106-20.969-3.247
									c-3.902,2.836-6.14,7.223-6.14,12.035c0,3.162,0.995,6.19,2.879,8.755l43.44,59.193c1.943,2.647,1.372,6.368-1.276,8.311
									C252.236,406.615,251.004,406.989,249.784,406.989z"/>
							</g>
							<g>
								<path style="fill-rule:evenodd;clip-rule:evenodd;fill:#333333;" d="M312.208,431.06c-9.311,0-18.441-0.99-26.837-2.958
									c-17.318-4.06-31.229-12.129-40.228-23.335c-2.056-2.56-1.647-6.303,0.913-8.359c2.56-2.056,6.303-1.647,8.359,0.913
									c16.311,20.31,50.896,24.757,77.934,20.154c23.93-4.074,42.209-14.687,46.568-27.036c2.156-6.103,4.091-12.836,4.091-28.011
									c0-3.284,2.662-5.946,5.946-5.946s5.946,2.662,5.946,5.946c0,15.38-1.825,23.636-4.769,31.971
									c-3.08,8.725-10.357,16.63-21.044,22.859c-9.553,5.568-21.566,9.697-34.742,11.94
									C327.039,430.441,319.567,431.06,312.208,431.06z"/>
							</g>
						</g>
					</g>
				</g>
			</g>
		</g>
	</g>
</g>
</svg>
