<?xml version="1.0" encoding="iso-8859-1"?>
<!-- Generator: Adobe Illustrator 23.0.5, SVG Export Plug-In . SVG Version: 6.00 Build 0)  -->
<svg version="1.1" xmlns="http://www.w3.org/2000/svg" xmlns:xlink="http://www.w3.org/1999/xlink" x="0px" y="0px"
	 viewBox="0 0 492 492" style="enable-background:new 0 0 492 492;" xml:space="preserve">
<g id="Master_Layer_2">
</g>
<g id="Layer_1">
	<g>
		<g>
			<g>
				<g>
					<g>
						<g>
							<path style="fill-rule:evenodd;clip-rule:evenodd;fill:#FEC245;" d="M398.423,369.585c3.696,3.691,5.542,8.53,5.542,13.368
								c0,4.836-1.846,9.674-5.542,13.366c-7.39,7.383-19.371,7.383-26.761,0l-40.806-40.766l-36.287-36.247l-22.473-22.45
								c-20.246,9.342-45.025,5.676-61.715-10.995c-17.344-17.327-20.624-43.382-9.845-64.011l36.96,36.923l23.241-23.219
								l-36.961-36.923c20.652-10.767,46.732-7.489,64.076,9.838c16.688,16.67,20.357,41.425,11.007,61.65l22.594,22.572
								l36.25,36.215L398.423,369.585z"/>
						</g>
						<g>
							<path style="fill-rule:evenodd;clip-rule:evenodd;fill:#EEEFF0;" d="M335.633,244.668c0,17.716-5.203,34.196-14.178,48.022
								l-22.594-22.572c9.35-20.226,5.681-44.98-11.007-61.65c-17.344-17.327-43.424-20.605-64.076-9.838l36.961,36.923
								l-23.241,23.219l-36.96-36.923c-10.779,20.629-7.499,46.684,9.845,64.011c16.69,16.671,41.469,20.337,61.715,10.995
								l22.473,22.45c-13.665,8.681-29.848,13.688-47.234,13.688c-48.768,0-88.3-39.544-88.3-88.325
								c0-48.778,39.532-88.322,88.3-88.322C296.101,156.346,335.633,195.891,335.633,244.668z"/>
						</g>
						<g>
							<path style="fill-rule:evenodd;clip-rule:evenodd;fill:#56707B;" d="M375.163,298.654l0.012,0.005
								c-4.536,10.861-10.43,21.014-17.471,30.247l-36.25-36.215c8.976-13.826,14.178-30.306,14.178-48.022
								c0-48.778-39.532-88.322-88.298-88.322c-48.768,0-88.3,39.544-88.3,88.322c0,48.781,39.532,88.325,88.3,88.325
								c17.387,0,33.569-5.007,47.234-13.688l36.287,36.247l-0.002,0.002c-6.59,4.95-13.631,9.31-21.061,13.016
								c-0.342,0.171-0.686,0.34-1.03,0.51c-0.262,0.126-0.525,0.255-0.79,0.384c-0.248,0.119-0.493,0.235-0.741,0.352
								c-10.574,5.019-21.885,8.728-33.733,10.916l-4.937,44.199l-48.813,0l-5.148-46.085
								c-15.459-3.904-29.873-10.425-42.743-19.064l-35.957,28.711l-34.518-34.481l29.57-36.96
								c-7.94-13.031-13.764-27.492-17.005-42.902l-46.063-5.133v-48.766l46.591-5.193c3.572-15.58,9.795-30.15,18.177-43.206
								l-28.292-35.365l34.515-34.48l35.387,28.252c13.519-8.671,28.664-15.04,44.874-18.548l4.821-43.166h48.812l4.824,43.166
								c16.76,3.629,32.383,10.314,46.248,19.44l32.776-26.169l34.518,34.481l-26.553,33.187
								c8.968,14.188,15.407,30.131,18.677,47.197l41.373,4.61v48.766l-42.716,4.762
								C380.207,285.107,377.937,292.014,375.163,298.654z"/>
						</g>
					</g>
				</g>
			</g>
			<g>
				<g>
					<path style="fill-rule:evenodd;clip-rule:evenodd;fill:#333333;" d="M301.36,378.378c-2.328,0-4.539-1.376-5.491-3.659
						c-1.264-3.031,0.169-6.512,3.2-7.776c10.024-4.179,19.516-9.611,28.215-16.144c2.625-1.972,6.353-1.442,8.325,1.183
						c1.972,2.626,1.442,6.353-1.183,8.325c-9.488,7.127-19.845,13.052-30.78,17.611
						C302.898,378.231,302.122,378.378,301.36,378.378z"/>
				</g>
				<g>
					<g>
						<path style="fill-rule:evenodd;clip-rule:evenodd;fill:#333333;" d="M247.334,338.938c-12.72,0-25.064-2.493-36.687-7.411
							c-11.224-4.748-21.302-11.545-29.955-20.2c-8.653-8.656-15.448-18.737-20.195-29.962c-4.916-11.626-7.409-23.972-7.409-36.695
							s2.493-25.069,7.409-36.695c4.747-11.226,11.542-21.307,20.195-29.962c8.653-8.656,18.732-15.452,29.955-20.2
							c11.623-4.917,23.966-7.411,36.687-7.411c12.721,0,25.064,2.493,36.687,7.411c11.224,4.749,21.302,11.545,29.955,20.201
							c8.653,8.656,15.448,18.737,20.195,29.962c4.916,11.626,7.409,23.971,7.409,36.695c0,18.278-5.235,36.003-15.138,51.259
							c-1.788,2.755-5.471,3.537-8.225,1.75c-2.754-1.788-3.538-5.47-1.75-8.225c8.65-13.324,13.221-28.81,13.221-44.785
							c0-45.423-36.944-82.377-82.354-82.377c-45.41,0-82.353,36.954-82.353,82.377c0,45.423,36.944,82.378,82.353,82.378
							c15.674,0,30.905-4.413,44.048-12.76c2.771-1.76,6.446-0.941,8.207,1.831c1.76,2.772,0.941,6.446-1.831,8.207
							C282.706,333.885,265.27,338.938,247.334,338.938z"/>
					</g>
					<g>
						<path style="fill-rule:evenodd;clip-rule:evenodd;fill:#333333;" d="M357.7,334.851c-1.257,0-2.525-0.397-3.601-1.218
							c-2.611-1.992-3.114-5.722-1.122-8.334c7.056-9.253,12.845-19.39,17.207-30.131c1.235-3.042,4.704-4.507,7.746-3.271
							c3.043,1.235,4.507,4.704,3.272,7.746c-4.759,11.717-11.074,22.776-18.77,32.867
							C361.262,334.044,359.491,334.851,357.7,334.851z"/>
					</g>
					<g>
						<path style="fill-rule:evenodd;clip-rule:evenodd;fill:#333333;" d="M385.042,407.79c-6.368,0-12.736-2.421-17.584-7.264
							l-96.741-96.644c-10.111,3.849-21.022,4.922-31.806,3.093c-12.453-2.111-23.772-7.958-32.732-16.909
							c-9.325-9.316-15.256-21.112-17.151-34.116c-1.857-12.746,0.299-25.49,6.237-36.855c0.877-1.677,2.498-2.837,4.368-3.123
							c1.87-0.287,3.765,0.334,5.104,1.671l32.758,32.725l14.828-14.813l-32.749-32.717c-1.34-1.339-1.962-3.236-1.675-5.107
							c0.287-1.872,1.449-3.496,3.128-4.371c11.374-5.93,24.127-8.084,36.883-6.229c13.013,1.893,24.82,7.817,34.143,17.131l0,0
							c8.961,8.952,14.815,20.261,16.928,32.704c1.83,10.772,0.758,21.671-3.093,31.773l96.736,96.639
							c4.699,4.694,7.286,10.935,7.286,17.574c0,6.639-2.587,12.88-7.286,17.574C397.778,405.368,391.41,407.79,385.042,407.79
							L385.042,407.79z M272.096,290.909c1.544,0,3.064,0.601,4.203,1.739l99.564,99.464c2.53,2.528,5.855,3.792,9.179,3.792
							c3.324,0,6.648-1.264,9.179-3.792c2.45-2.447,3.799-5.701,3.799-9.161c0-3.46-1.349-6.714-3.799-9.162l-99.564-99.463
							c-1.764-1.763-2.241-4.439-1.195-6.702c8.54-18.473,4.597-40.556-9.812-54.951l0,0c-13.164-13.15-32.194-17.542-49.413-11.998
							l30.703,30.673c1.116,1.115,1.744,2.628,1.744,4.206c0,1.578-0.627,3.091-1.744,4.207L241.7,262.979
							c-2.321,2.319-6.083,2.319-8.404,0l-30.716-30.684c-5.554,17.199-1.158,36.209,12.006,49.359
							c14.413,14.398,36.524,18.338,55.021,9.803C270.404,291.088,271.254,290.909,272.096,290.909z"/>
					</g>
					<g>
						<path style="fill-rule:evenodd;clip-rule:evenodd;fill:#333333;" d="M268.561,430.88h-48.814
							c-3.029,0-5.573-2.276-5.909-5.286l-4.698-42.054c-13.037-3.696-25.422-9.208-36.924-16.432l-32.607,26.034
							c-2.365,1.888-5.771,1.699-7.912-0.44l-34.516-34.481c-2.144-2.142-2.334-5.554-0.441-7.921l27.009-33.76
							c-6.612-11.598-11.531-23.993-14.666-36.947l-41.856-4.666c-3.01-0.335-5.287-2.88-5.287-5.91v-48.764
							c0-3.029,2.277-5.574,5.287-5.909l42.463-4.733c3.424-13.137,8.69-25.659,15.695-37.324l-25.667-32.083
							c-1.894-2.367-1.704-5.779,0.44-7.921l34.516-34.481c2.141-2.139,5.547-2.328,7.912-0.44l32.106,25.635
							c12.169-7.305,25.253-12.714,39.001-16.124l4.354-38.988c0.336-3.009,2.881-5.286,5.909-5.286l48.813,0
							c3.029,0,5.573,2.276,5.909,5.286l4.355,38.988c14.293,3.544,27.852,9.241,40.416,16.984l29.458-23.52
							c2.364-1.888,5.771-1.699,7.912,0.44l34.516,34.481c2.144,2.142,2.334,5.554,0.44,7.921l-23.946,29.931
							c7.621,12.88,13.114,26.74,16.373,41.307l37.086,4.134c3.01,0.335,5.287,2.88,5.287,5.909v48.764
							c0,3.029-2.277,5.574-5.287,5.91l-38.634,4.306c-2.799,10.286-6.756,20.25-11.788,29.673c-1.547,2.897-5.15,3.99-8.046,2.443
							c-2.896-1.547-3.99-5.149-2.444-8.046c5.217-9.767,9.172-20.168,11.756-30.915c0.586-2.434,2.634-4.242,5.122-4.519
							l37.428-4.173v-38.125l-36.085-4.022c-2.59-0.288-4.69-2.23-5.181-4.79c-3.082-16.073-9.091-31.26-17.864-45.138
							c-1.355-2.144-1.201-4.911,0.383-6.892l23.225-29.031l-26.99-26.963l-28.625,22.855c-2.012,1.606-4.828,1.735-6.979,0.32
							c-13.548-8.918-28.431-15.175-44.237-18.597c-2.495-0.54-4.368-2.613-4.651-5.151l-4.232-37.882l-38.177,0l-4.231,37.882
							c-0.283,2.538-2.155,4.611-4.651,5.151c-15.283,3.309-29.724,9.278-42.922,17.743c-2.145,1.376-4.928,1.232-6.919-0.359
							l-31.233-24.937l-26.991,26.963l24.966,31.205c1.594,1.992,1.739,4.779,0.361,6.926
							c-8.167,12.726-14.016,26.629-17.384,41.324c-0.565,2.463-2.625,4.301-5.137,4.581l-41.304,4.604v38.125l40.776,4.546
							c2.551,0.285,4.632,2.174,5.16,4.686c3.053,14.524,8.525,28.328,16.263,41.03c1.301,2.135,1.127,4.856-0.435,6.808
							l-26.244,32.803l26.99,26.962l31.806-25.395c2.027-1.618,4.87-1.736,7.024-0.29c12.536,8.415,26.291,14.549,40.883,18.234
							c2.403,0.607,4.178,2.641,4.453,5.105l4.557,40.801l38.176,0l4.347-38.916c0.291-2.604,2.252-4.711,4.829-5.187
							c12.45-2.3,24.48-6.391,35.756-12.159c2.924-1.495,6.506-0.338,8.001,2.586c1.496,2.923,0.338,6.505-2.586,8.001
							c-10.986,5.62-22.627,9.781-34.665,12.393l-4.456,39.888C274.134,428.604,271.59,430.88,268.561,430.88z"/>
					</g>
				</g>
			</g>
		</g>
	</g>
</g>
</svg>
