<?xml version="1.0" encoding="iso-8859-1"?>
<!-- Generator: Adobe Illustrator 23.0.5, SVG Export Plug-In . SVG Version: 6.00 Build 0)  -->
<svg version="1.1" xmlns="http://www.w3.org/2000/svg" xmlns:xlink="http://www.w3.org/1999/xlink" x="0px" y="0px"
	 viewBox="0 0 492 492" style="enable-background:new 0 0 492 492;" xml:space="preserve">
<g id="Master_Layer_2">
</g>
<g id="Layer_1">
	<g>
		<g>
			<g>
				<g>
					<g>
						<g>
							<g>
								<g>
									<rect x="67.887" y="100.072" style="fill-rule:evenodd;clip-rule:evenodd;fill:#75ADB6;" width="356.748" height="42.47"/>
								</g>
								<g>
									<polygon style="fill-rule:evenodd;clip-rule:evenodd;fill:#E8D7CB;" points="296.678,331.287 262.834,344.734 
										269.561,308.935 									"/>
								</g>
								<g>
									
										<rect x="99.02" y="191.216" style="fill-rule:evenodd;clip-rule:evenodd;fill:#E8D7CB;" width="123.539" height="153.156"/>
								</g>
								<g>
									
										<rect x="355.325" y="196.624" transform="matrix(0.6358 -0.7718 0.7718 0.6358 -30.4498 363.851)" style="fill-rule:evenodd;clip-rule:evenodd;fill:#DB3527;" width="30.053" height="35.138"/>
								</g>
								<g>
									
										<rect x="260.834" y="255.373" transform="matrix(0.6358 -0.7718 0.7718 0.6358 -93.4244 347.8803)" style="fill-rule:evenodd;clip-rule:evenodd;fill:#FEC245;" width="122.208" height="35.139"/>
								</g>
								<g>
									<path style="fill-rule:evenodd;clip-rule:evenodd;fill:#DDE2E4;" d="M424.634,142.542v250.866H67.886V142.542H424.634
										L424.634,142.542z M374.39,236.956l19.111-23.198l-27.118-22.349l-19.111,23.196l-77.711,94.33l-6.726,35.798
										l33.844-13.447L374.39,236.956L374.39,236.956z M222.559,344.372V191.216H99.02v153.156L222.559,344.372L222.559,344.372z"
										/>
								</g>
							</g>
						</g>
					</g>
				</g>
			</g>
			<g>
				<g>
					<g>
						<path style="fill-rule:evenodd;clip-rule:evenodd;fill:#333333;" d="M424.634,399.354H67.886
							c-3.284,0-5.946-2.662-5.946-5.946V100.071c0-3.284,2.662-5.946,5.946-5.946h356.748c3.284,0,5.946,2.662,5.946,5.946v293.338
							C430.58,396.692,427.918,399.354,424.634,399.354L424.634,399.354z M73.832,387.463h344.857V106.017H73.832V387.463z"/>
					</g>
					<g>
						<path style="fill-rule:evenodd;clip-rule:evenodd;fill:#333333;" d="M424.634,148.488H67.886
							c-3.284,0-5.946-2.662-5.946-5.946c0-3.284,2.662-5.946,5.946-5.946h356.748c3.284,0,5.946,2.662,5.946,5.946
							C430.58,145.826,427.918,148.488,424.634,148.488z"/>
					</g>
					<g>
						<path style="fill-rule:evenodd;clip-rule:evenodd;fill:#333333;" d="M107.813,127.79h-9.584c-3.284,0-5.946-2.662-5.946-5.946
							c0-3.284,2.662-5.946,5.946-5.946h9.584c3.284,0,5.946,2.662,5.946,5.946C113.759,125.128,111.096,127.79,107.813,127.79z"/>
					</g>
					<g>
						<path style="fill-rule:evenodd;clip-rule:evenodd;fill:#333333;" d="M138.44,127.79h-9.584c-3.284,0-5.946-2.662-5.946-5.946
							c0-3.284,2.662-5.946,5.946-5.946h9.584c3.284,0,5.946,2.662,5.946,5.946C144.386,125.128,141.724,127.79,138.44,127.79z"/>
					</g>
					<g>
						<path style="fill-rule:evenodd;clip-rule:evenodd;fill:#333333;" d="M169.067,127.79h-9.584c-3.284,0-5.946-2.662-5.946-5.946
							c0-3.284,2.662-5.946,5.946-5.946h9.584c3.284,0,5.946,2.662,5.946,5.946C175.013,125.128,172.351,127.79,169.067,127.79z"/>
					</g>
				</g>
				<g>
					<g>
						<g>
							<path style="fill-rule:evenodd;clip-rule:evenodd;fill:#333333;" d="M296.687,337.225c-1.374,0-2.712-0.476-3.781-1.357
								l-27.118-22.35c-2.534-2.089-2.896-5.836-0.807-8.37l77.73-94.316c1.003-1.217,2.448-1.985,4.018-2.136
								c1.568-0.151,3.135,0.327,4.352,1.33l27.118,22.349c2.534,2.089,2.895,5.836,0.807,8.37l-77.73,94.316
								c-1.003,1.217-2.448,1.986-4.018,2.137C297.067,337.216,296.877,337.225,296.687,337.225L296.687,337.225z M277.938,308.122
								l17.942,14.787l70.168-85.139l-17.942-14.787L277.938,308.122z"/>
						</g>
						<g>
							<path style="fill-rule:evenodd;clip-rule:evenodd;fill:#333333;" d="M374.402,242.897c-1.331,0-2.671-0.445-3.778-1.358
								l-27.118-22.35c-1.217-1.003-1.986-2.448-2.137-4.018c-0.151-1.57,0.327-3.135,1.33-4.352l19.115-23.194
								c2.088-2.534,5.836-2.895,8.37-0.807l27.118,22.35c1.217,1.003,1.986,2.448,2.137,4.018c0.151,1.569-0.327,3.135-1.33,4.352
								l-19.115,23.194C377.818,242.159,376.117,242.897,374.402,242.897L374.402,242.897z M355.657,213.794l17.942,14.787
								l11.552-14.017l-17.942-14.787L355.657,213.794z"/>
						</g>
						<g>
							<path style="fill-rule:evenodd;clip-rule:evenodd;fill:#333333;" d="M262.835,350.68c-1.358,0-2.699-0.465-3.782-1.357
								c-1.673-1.378-2.463-3.557-2.063-5.687l6.726-35.798c0.388-2.067,1.839-3.775,3.817-4.492
								c1.977-0.717,4.186-0.336,5.809,1.001l27.117,22.351c1.623,1.337,2.418,3.432,2.092,5.509
								c-0.326,2.077-1.724,3.828-3.679,4.604l-33.843,13.447C264.32,350.542,263.575,350.68,262.835,350.68L262.835,350.68z
								 M273.546,319.925l-2.874,15.297l14.461-5.746L273.546,319.925z"/>
						</g>
					</g>
					<g>
						<g>
							<path style="fill-rule:evenodd;clip-rule:evenodd;fill:#333333;" d="M222.558,350.318H99.021
								c-3.284,0-5.946-2.662-5.946-5.946V191.217c0-3.284,2.662-5.946,5.946-5.946h123.537c3.284,0,5.946,2.662,5.946,5.946
								v153.156C228.504,347.656,225.842,350.318,222.558,350.318L222.558,350.318z M104.967,338.427h111.646V197.163H104.967
								V338.427z"/>
						</g>
						<g>
							<g>
								<path style="fill-rule:evenodd;clip-rule:evenodd;fill:#333333;" d="M196.816,233.684h-72.052
									c-3.284,0-5.946-2.662-5.946-5.946c0-3.284,2.662-5.946,5.946-5.946h72.052c3.284,0,5.946,2.662,5.946,5.946
									C202.762,231.021,200.1,233.684,196.816,233.684z"/>
							</g>
							<g>
								<path style="fill-rule:evenodd;clip-rule:evenodd;fill:#333333;" d="M196.816,260.388h-72.052
									c-3.284,0-5.946-2.662-5.946-5.946c0-3.284,2.662-5.946,5.946-5.946h72.052c3.284,0,5.946,2.662,5.946,5.946
									C202.762,257.726,200.1,260.388,196.816,260.388z"/>
							</g>
							<g>
								<path style="fill-rule:evenodd;clip-rule:evenodd;fill:#333333;" d="M196.816,287.093h-72.052
									c-3.284,0-5.946-2.662-5.946-5.946c0-3.284,2.662-5.946,5.946-5.946h72.052c3.284,0,5.946,2.662,5.946,5.946
									C202.762,284.431,200.1,287.093,196.816,287.093z"/>
							</g>
							<g>
								<path style="fill-rule:evenodd;clip-rule:evenodd;fill:#333333;" d="M196.816,313.797h-72.052
									c-3.284,0-5.946-2.662-5.946-5.946c0-3.284,2.662-5.946,5.946-5.946h72.052c3.284,0,5.946,2.662,5.946,5.946
									C202.762,311.135,200.1,313.797,196.816,313.797z"/>
							</g>
						</g>
					</g>
				</g>
			</g>
		</g>
	</g>
</g>
</svg>
