<?xml version="1.0" encoding="iso-8859-1"?>
<!-- Generator: Adobe Illustrator 23.0.5, SVG Export Plug-In . SVG Version: 6.00 Build 0)  -->
<svg version="1.1" xmlns="http://www.w3.org/2000/svg" xmlns:xlink="http://www.w3.org/1999/xlink" x="0px" y="0px"
	 viewBox="0 0 492 492" style="enable-background:new 0 0 492 492;" xml:space="preserve">
<g id="Master_Layer_2">
</g>
<g id="Layer_1">
	<g>
		<g>
			<g>
				<g>
					<g>
						<g>
							<rect x="185.663" y="163.191" style="fill-rule:evenodd;clip-rule:evenodd;fill:#FEC245;" width="26.379" height="118.797"/>
						</g>
						<g>
							<rect x="235.707" y="192.444" style="fill-rule:evenodd;clip-rule:evenodd;fill:#D32439;" width="26.379" height="89.544"/>
						</g>
						<g>
							<rect x="285.753" y="192.444" style="fill-rule:evenodd;clip-rule:evenodd;fill:#3FB54A;" width="26.377" height="89.544"/>
						</g>
						<g>
							<rect x="95.21" y="95.109" style="fill-rule:evenodd;clip-rule:evenodd;fill:#94AFB8;" width="302.101" height="35.957"/>
						</g>
						<g>
							<path style="fill-rule:evenodd;clip-rule:evenodd;fill:#DDE2E4;" d="M312.13,281.988v-89.544h-26.377v89.544H312.13
								L312.13,281.988z M235.707,281.988h26.379v-89.544h-26.379V281.988L235.707,281.988z M212.042,281.988V163.191h-26.38
								v118.797L212.042,281.988L212.042,281.988z M397.311,131.067v174.484H95.21V131.067H397.311z"/>
						</g>
						<g>
							<path style="fill-rule:evenodd;clip-rule:evenodd;fill:#848484;" d="M424.634,70.409v259.841l-356.748,0V70.409H424.634
								L424.634,70.409z M397.311,305.551V131.067V95.109H95.21v35.957v174.484H397.311z"/>
						</g>
						<g>
							<polygon style="fill-rule:evenodd;clip-rule:evenodd;fill:#848484;" points="339.946,402.235 339.946,423.07 144.458,423.07 
								144.458,402.235 205.856,402.235 278.549,402.235 							"/>
						</g>
						<g>
							<rect x="205.856" y="360.562" style="fill-rule:evenodd;clip-rule:evenodd;fill:#848484;" width="72.692" height="41.673"/>
						</g>
						<g>
							<polygon style="fill-rule:evenodd;clip-rule:evenodd;fill:#636566;" points="424.634,330.251 424.634,360.562 
								278.549,360.562 205.856,360.562 67.886,360.562 67.886,330.251 							"/>
						</g>
					</g>
				</g>
			</g>
			<g>
				<g>
					<path style="fill-rule:evenodd;clip-rule:evenodd;fill:#333333;" d="M424.634,366.509H67.886c-3.284,0-5.946-2.662-5.946-5.946
						V70.409c0-3.284,2.662-5.946,5.946-5.946h356.748c3.284,0,5.946,2.662,5.946,5.946v290.153
						C430.58,363.846,427.918,366.509,424.634,366.509L424.634,366.509z M73.832,354.617h344.857V76.355H73.832V354.617z"/>
				</g>
				<g>
					<path style="fill-rule:evenodd;clip-rule:evenodd;fill:#333333;" d="M424.634,336.198H67.886c-3.284,0-5.946-2.662-5.946-5.946
						c0-3.284,2.662-5.946,5.946-5.946h356.748c3.284,0,5.946,2.662,5.946,5.946C430.58,333.536,427.918,336.198,424.634,336.198z"
						/>
				</g>
				<g>
					<path style="fill-rule:evenodd;clip-rule:evenodd;fill:#333333;" d="M397.311,311.498H95.21c-3.284,0-5.946-2.662-5.946-5.946
						V95.109c0-3.284,2.662-5.946,5.946-5.946h302.101c3.284,0,5.946,2.662,5.946,5.946v210.443
						C403.257,308.836,400.595,311.498,397.311,311.498L397.311,311.498z M101.156,299.606h290.21V101.055h-290.21V299.606z"/>
				</g>
				<g>
					<path style="fill-rule:evenodd;clip-rule:evenodd;fill:#333333;" d="M397.311,137.011H95.21c-3.284,0-5.946-2.662-5.946-5.946
						c0-3.284,2.662-5.946,5.946-5.946h302.101c3.284,0,5.946,2.662,5.946,5.946C403.257,134.349,400.594,137.011,397.311,137.011z"
						/>
				</g>
				<g>
					<path style="fill-rule:evenodd;clip-rule:evenodd;fill:#333333;" d="M129.021,119.489h-8.116c-3.284,0-5.946-2.662-5.946-5.946
						c0-3.284,2.662-5.946,5.946-5.946h8.116c3.284,0,5.946,2.662,5.946,5.946C134.966,116.827,132.304,119.489,129.021,119.489z"/>
				</g>
				<g>
					<path style="fill-rule:evenodd;clip-rule:evenodd;fill:#333333;" d="M154.956,119.489h-8.116c-3.284,0-5.946-2.662-5.946-5.946
						c0-3.284,2.662-5.946,5.946-5.946h8.116c3.284,0,5.946,2.662,5.946,5.946C160.902,116.827,158.24,119.489,154.956,119.489z"/>
				</g>
				<g>
					<path style="fill-rule:evenodd;clip-rule:evenodd;fill:#333333;" d="M180.892,119.489h-8.116c-3.284,0-5.946-2.662-5.946-5.946
						c0-3.284,2.662-5.946,5.946-5.946h8.116c3.284,0,5.946,2.662,5.946,5.946C186.837,116.827,184.176,119.489,180.892,119.489z"/>
				</g>
				<g>
					<path style="fill-rule:evenodd;clip-rule:evenodd;fill:#333333;" d="M278.548,408.18h-72.69c-3.284,0-5.946-2.662-5.946-5.946
						v-41.672c0-3.284,2.662-5.946,5.946-5.946h72.69c3.284,0,5.946,2.662,5.946,5.946v41.672
						C284.493,405.518,281.831,408.18,278.548,408.18L278.548,408.18z M211.803,396.289h60.799v-29.78h-60.799V396.289z"/>
				</g>
				<g>
					<path style="fill-rule:evenodd;clip-rule:evenodd;fill:#333333;" d="M339.946,429.016H144.458
						c-3.284,0-5.946-2.662-5.946-5.946v-20.836c0-3.284,2.662-5.946,5.946-5.946h195.488c3.284,0,5.946,2.662,5.946,5.946v20.836
						C345.892,426.353,343.23,429.016,339.946,429.016L339.946,429.016z M150.404,417.124h183.596v-8.944H150.404V417.124z"/>
				</g>
				<g>
					<g>
						<path style="fill-rule:evenodd;clip-rule:evenodd;fill:#333333;" d="M337.231,287.934H155.289
							c-3.284,0-5.946-2.662-5.946-5.946V154.63c0-3.284,2.662-5.946,5.946-5.946c3.284,0,5.946,2.662,5.946,5.946v121.413h175.996
							c3.284,0,5.946,2.662,5.946,5.946C343.177,285.272,340.515,287.934,337.231,287.934z"/>
					</g>
					<g>
						<g>
							<path style="fill-rule:evenodd;clip-rule:evenodd;fill:#333333;" d="M212.042,287.934h-26.379
								c-3.284,0-5.946-2.662-5.946-5.946V163.191c0-3.284,2.662-5.946,5.946-5.946h26.379c3.284,0,5.946,2.662,5.946,5.946v118.797
								C217.988,285.272,215.326,287.934,212.042,287.934L212.042,287.934z M191.609,276.043h14.487V169.137h-14.487V276.043z"/>
						</g>
						<g>
							<path style="fill-rule:evenodd;clip-rule:evenodd;fill:#333333;" d="M262.086,287.934h-26.379
								c-3.284,0-5.946-2.662-5.946-5.946v-89.544c0-3.284,2.662-5.946,5.946-5.946h26.379c3.284,0,5.946,2.662,5.946,5.946v89.544
								C268.032,285.272,265.37,287.934,262.086,287.934L262.086,287.934z M241.653,276.043h14.487v-77.652h-14.487V276.043z"/>
						</g>
						<g>
							<path style="fill-rule:evenodd;clip-rule:evenodd;fill:#333333;" d="M312.13,287.934h-26.379
								c-3.284,0-5.946-2.662-5.946-5.946v-89.544c0-3.284,2.662-5.946,5.946-5.946h26.379c3.284,0,5.946,2.662,5.946,5.946v89.544
								C318.076,285.272,315.414,287.934,312.13,287.934L312.13,287.934z M291.697,276.043h14.487v-77.652h-14.487V276.043z"/>
						</g>
					</g>
				</g>
			</g>
		</g>
	</g>
</g>
</svg>
