<svg xmlns="http://www.w3.org/2000/svg" xmlns:xlink="http://www.w3.org/1999/xlink" viewBox="0 0 48 48"><defs><style>.cls-1{fill:url(#linear-gradient);}.cls-2{fill:url(#linear-gradient-2);}.cls-3{fill:url(#linear-gradient-3);}</style><linearGradient id="linear-gradient" x1="24" y1="6.833" x2="24" y2="41.63" gradientUnits="userSpaceOnUse"><stop offset="0" stop-color="#36db39"/><stop offset="1" stop-color="#20b823"/></linearGradient><linearGradient id="linear-gradient-2" x1="24" y1="27.917" x2="24" y2="45.315" gradientUnits="userSpaceOnUse"><stop offset="0" stop-color="#20b823" stop-opacity="0"/><stop offset="1" stop-color="#198f1b"/></linearGradient><linearGradient id="linear-gradient-3" x1="24" y1="16.833" x2="24" y2="32.252" gradientUnits="userSpaceOnUse"><stop offset="0" stop-color="#eaecf7"/><stop offset="1" stop-color="#cdd3f1"/></linearGradient></defs><title>User Interface Gradient</title><g id="Add"><rect class="cls-1" x="7" y="7" width="34" height="34" rx="8" ry="8"/><path class="cls-2" d="M7,24v9a8,8,0,0,0,8,8H33a8,8,0,0,0,8-8V24Z"/><path class="cls-3" d="M31,23H25V17a1,1,0,0,0-2,0v6H17a1,1,0,0,0,0,2h6v6a1,1,0,0,0,2,0V25h6a1,1,0,0,0,0-2Z"/></g></svg>