<svg xmlns="http://www.w3.org/2000/svg" xmlns:xlink="http://www.w3.org/1999/xlink" viewBox="0 0 48 48"><defs><style>.cls-1{fill:url(#linear-gradient);}.cls-2{fill:url(#linear-gradient-2);}.cls-3{fill:url(#linear-gradient-3);}.cls-4{fill:url(#linear-gradient-4);}.cls-5{fill:url(#linear-gradient-5);}.cls-6{fill:url(#linear-gradient-6);}.cls-7{fill:url(#linear-gradient-7);}.cls-8{fill:url(#linear-gradient-8);}.cls-9{fill:url(#linear-gradient-9);}.cls-10{fill:url(#linear-gradient-10);}.cls-11{fill:url(#linear-gradient-11);}</style><linearGradient id="linear-gradient" x1="24" y1="6" x2="24" y2="11.032" gradientUnits="userSpaceOnUse"><stop offset="0" stop-color="#ff4343"/><stop offset="1" stop-color="#e40000"/></linearGradient><linearGradient id="linear-gradient-2" x1="24" y1="8.281" x2="24" y2="10.75" gradientUnits="userSpaceOnUse"><stop offset="0" stop-color="#ff4343" stop-opacity="0"/><stop offset="1" stop-color="#af0000"/></linearGradient><linearGradient id="linear-gradient-3" x1="10.219" y1="12.432" x2="15.938" y2="17.713" xlink:href="#linear-gradient"/><linearGradient id="linear-gradient-4" x1="11.244" y1="13.378" x2="14.342" y2="16.239" xlink:href="#linear-gradient-2"/><linearGradient id="linear-gradient-5" x1="37.801" y1="12.462" x2="32.145" y2="17.587" xlink:href="#linear-gradient"/><linearGradient id="linear-gradient-6" x1="36.722" y1="13.44" x2="33.828" y2="16.062" xlink:href="#linear-gradient-2"/><linearGradient id="linear-gradient-7" x1="16.647" y1="34.985" x2="11.772" y2="41.423" gradientUnits="userSpaceOnUse"><stop offset="0" stop-color="#3f4c56"/><stop offset="1" stop-color="#27333e"/></linearGradient><linearGradient id="linear-gradient-8" x1="31.172" y1="34.762" x2="36.328" y2="41.512" xlink:href="#linear-gradient-7"/><linearGradient id="linear-gradient-9" x1="13.406" y1="12.804" x2="35.719" y2="38.491" gradientUnits="userSpaceOnUse"><stop offset="0" stop-color="#eaecf7"/><stop offset="1" stop-color="#cdd3f1"/></linearGradient><linearGradient id="linear-gradient-10" x1="24.514" y1="25.52" x2="37.514" y2="38.687" gradientUnits="userSpaceOnUse"><stop offset="0" stop-color="#e2e5f4" stop-opacity="0"/><stop offset="1" stop-color="#9aa6e2"/></linearGradient><linearGradient id="linear-gradient-11" x1="26.5" y1="15.375" x2="26.5" y2="29.683" xlink:href="#linear-gradient-7"/></defs><title>User Interface Gradient</title><g id="Alarm"><path class="cls-1" d="M24,11a1,1,0,0,1-1-1V7a1,1,0,0,1,2,0v3A1,1,0,0,1,24,11Z"/><path class="cls-2" d="M23,8v2a1,1,0,0,0,2,0V8Z"/><circle class="cls-3" cx="13" cy="15" r="4"/><path class="cls-4" d="M13.183,11.018,9.06,15.6a3.992,3.992,0,1,0,4.123-4.581Z"/><circle class="cls-5" cx="35" cy="15" r="4"/><path class="cls-6" d="M34.817,11.018A3.993,3.993,0,1,0,38.94,15.6Z"/><path class="cls-7" d="M12,42a1,1,0,0,1-.789-1.614l7-9a1,1,0,0,1,1.579,1.228l-7,9A1,1,0,0,1,12,42Z"/><path class="cls-8" d="M36,42a1,1,0,0,1-.79-.386l-7-9a1,1,0,0,1,1.579-1.228l7,9A1,1,0,0,1,36,42Z"/><circle class="cls-9" cx="24" cy="25" r="15"/><path class="cls-10" d="M34.083,13.917,12.917,35.083A14.984,14.984,0,1,0,34.083,13.917Z"/><path class="cls-11" d="M29,30a1,1,0,0,1-.624-.219l-5-4A1,1,0,0,1,23,25V16a1,1,0,0,1,2,0v8.52l4.625,3.7A1,1,0,0,1,29,30Z"/></g></svg>