<svg xmlns="http://www.w3.org/2000/svg" xmlns:xlink="http://www.w3.org/1999/xlink" viewBox="0 0 48 48"><defs><style>.cls-1{fill:url(#linear-gradient);}.cls-2{fill:url(#linear-gradient-2);}</style><linearGradient id="linear-gradient" x1="13.004" y1="24" x2="43.176" y2="24" gradientTransform="matrix(-1, 0, 0, 1, 52, 0)" gradientUnits="userSpaceOnUse"><stop offset="0" stop-color="#ffca4f"/><stop offset="1" stop-color="#f7ae30"/></linearGradient><linearGradient id="linear-gradient-2" x1="29.345" y1="26.525" x2="42.753" y2="26.525" gradientUnits="userSpaceOnUse"><stop offset="0.044" stop-color="#ffca4f" stop-opacity="0"/><stop offset="1" stop-color="#f4901f"/></linearGradient></defs><title>User Interface Gradient</title><g id="Backward"><path class="cls-1" d="M8.489,19.073l11.871-7.9A1.064,1.064,0,0,1,22,12.1V16h6A12,12,0,0,1,40,28v9S35,24,28,24H22v3.9a1.064,1.064,0,0,1-1.64.927l-11.871-7.9A1.113,1.113,0,0,1,8.489,19.073Z"/><path class="cls-2" d="M29,16.05V24.1C35.471,25.236,40,37,40,37V28A12,12,0,0,0,29,16.05Z"/></g></svg>