<?xml version="1.0" encoding="UTF-8" standalone="no"?><!DOCTYPE svg PUBLIC "-//W3C//DTD SVG 1.1//EN" "http://www.w3.org/Graphics/SVG/1.1/DTD/svg11.dtd"><svg width="100%" height="100%" viewBox="0 0 134 134" version="1.1" xmlns="http://www.w3.org/2000/svg" xmlns:xlink="http://www.w3.org/1999/xlink" xml:space="preserve" xmlns:serif="http://www.serif.com/" style="fill-rule:evenodd;clip-rule:evenodd;stroke-linejoin:round;stroke-miterlimit:2;"><path d="M66.667,4.167c-34.429,-0 -62.385,28.003 -62.385,62.5c0,34.497 27.956,62.5 62.385,62.5c34.428,-0 62.384,-28.003 62.384,-62.5c0,-34.497 -27.956,-62.5 -62.384,-62.5Z" style="fill:url(#_Linear1);"/><path d="M10.032,92.892c14.132,-6.349 34.27,-10.409 56.635,-10.409c22.364,0 42.502,4.06 56.635,10.409c-1.454,3.143 -3.161,6.144 -5.096,8.981c-12.93,-5.651 -31.257,-9.094 -51.539,-9.094c-20.283,-0 -38.61,3.443 -51.539,9.094c-1.935,-2.835 -3.642,-5.837 -5.096,-8.981Z" style="fill:url(#_Linear2);"/><path d="M15.039,31.591c12.924,5.718 31.292,9.204 51.628,9.204c20.335,0 38.703,-3.486 51.628,-9.204c1.924,2.835 3.622,5.837 5.067,8.98c-14.125,6.409 -34.292,10.51 -56.695,10.51c-22.404,-0 -42.571,-4.101 -56.695,-10.51c1.445,-3.143 3.143,-6.145 5.067,-8.98Z" style="fill:url(#_Linear3);"/><path d="M66.06,4.17c-4.614,0.336 -8.532,4.491 -12.037,10.569c-6.753,11.708 -11.018,30.629 -11.018,51.928c0,21.299 4.265,40.22 11.018,51.928c3.505,6.077 7.423,10.233 12.037,10.568c-6.516,-0.062 -12.795,-1.127 -18.686,-3.047c-0.576,-0.864 -1.137,-1.77 -1.683,-2.716c-7.384,-12.804 -12.304,-33.441 -12.304,-56.733c-0,-23.293 4.92,-43.93 12.304,-56.733c0.546,-0.947 1.107,-1.853 1.683,-2.716c5.895,-1.921 12.172,-2.986 18.686,-3.048Zm1.214,-0c6.515,0.062 12.794,1.128 18.685,3.048c0.576,0.863 1.138,1.769 1.684,2.716c7.384,12.803 12.304,33.44 12.304,56.733c-0,23.292 -4.92,43.929 -12.304,56.733c-0.546,0.946 -1.108,1.852 -1.684,2.716c-5.895,1.921 -12.172,2.985 -18.685,3.047c4.613,-0.335 8.531,-4.491 12.037,-10.568c6.752,-11.708 11.017,-30.629 11.017,-51.928c0,-21.299 -4.265,-40.22 -11.017,-51.928c-3.506,-6.078 -7.424,-10.233 -12.037,-10.569Z" style="fill:url(#_Linear4);"/><defs><linearGradient id="_Linear1" x1="0" y1="0" x2="1" y2="0" gradientUnits="userSpaceOnUse" gradientTransform="matrix(1.27452e-14,208.145,-208.145,1.27452e-14,67.2735,0.188391)"><stop offset="0" style="stop-color:#35b2a0;stop-opacity:1"/><stop offset="1" style="stop-color:#0e7869;stop-opacity:1"/></linearGradient><linearGradient id="_Linear2" x1="0" y1="0" x2="1" y2="0" gradientUnits="userSpaceOnUse" gradientTransform="matrix(1.40395e-14,229.282,-229.282,1.40395e-14,57.7906,4.05093)"><stop offset="0" style="stop-color:#ebc836;stop-opacity:1"/><stop offset="1" style="stop-color:#b49100;stop-opacity:1"/></linearGradient><linearGradient id="_Linear3" x1="0" y1="0" x2="1" y2="0" gradientUnits="userSpaceOnUse" gradientTransform="matrix(1.40395e-14,229.282,-229.282,1.40395e-14,57.7906,4.05093)"><stop offset="0" style="stop-color:#ebc836;stop-opacity:1"/><stop offset="1" style="stop-color:#b49100;stop-opacity:1"/></linearGradient><linearGradient id="_Linear4" x1="0" y1="0" x2="1" y2="0" gradientUnits="userSpaceOnUse" gradientTransform="matrix(1.51899e-14,248.069,-248.069,1.51899e-14,49.7233,-27.236)"><stop offset="0" style="stop-color:#ece2b3;stop-opacity:1"/><stop offset="1" style="stop-color:#eecc2b;stop-opacity:1"/></linearGradient></defs></svg>