<svg xmlns="http://www.w3.org/2000/svg" xmlns:xlink="http://www.w3.org/1999/xlink" viewBox="0 0 48 48"><defs><style>.cls-1{fill:url(#linear-gradient);}.cls-2{fill:url(#linear-gradient-2);}.cls-3{fill:url(#linear-gradient-3);}.cls-4{fill:url(#linear-gradient-4);}.cls-5{fill:url(#linear-gradient-5);}.cls-6{fill:url(#linear-gradient-6);}.cls-7{fill:url(#linear-gradient-13);}.cls-8{fill:url(#linear-gradient-14);}.cls-9{fill:url(#linear-gradient-15);}.cls-10{fill:url(#linear-gradient-16);}</style><linearGradient id="linear-gradient" x1="24" y1="10.083" x2="24" y2="40.841" gradientUnits="userSpaceOnUse"><stop offset="0" stop-color="#eaecf7"/><stop offset="1" stop-color="#cdd3f1"/></linearGradient><linearGradient id="linear-gradient-2" x1="24" y1="10.083" x2="24" y2="16.792" gradientUnits="userSpaceOnUse"><stop offset="0" stop-color="#ff4343"/><stop offset="1" stop-color="#e40000"/></linearGradient><linearGradient id="linear-gradient-3" x1="24" y1="13.548" x2="24" y2="17.625" gradientUnits="userSpaceOnUse"><stop offset="0" stop-color="#ff4343" stop-opacity="0"/><stop offset="1" stop-color="#af0000"/></linearGradient><linearGradient id="linear-gradient-4" x1="34" y1="6.208" x2="34" y2="14.06" gradientUnits="userSpaceOnUse"><stop offset="0" stop-color="#ffca4f"/><stop offset="1" stop-color="#f7ae30"/></linearGradient><linearGradient id="linear-gradient-5" x1="24" y1="6.208" x2="24" y2="14.06" xlink:href="#linear-gradient-4"/><linearGradient id="linear-gradient-6" x1="14" y1="6.208" x2="14" y2="14.06" xlink:href="#linear-gradient-4"/><linearGradient id="linear-gradient-13" x1="24" y1="31.946" x2="24" y2="42.86" gradientUnits="userSpaceOnUse"><stop offset="0" stop-color="#e2e5f4" stop-opacity="0"/><stop offset="1" stop-color="#9aa6e2"/></linearGradient><linearGradient id="linear-gradient-14" x1="14" y1="10.104" x2="14" y2="14.03" gradientUnits="userSpaceOnUse"><stop offset="0" stop-color="#ffca4f" stop-opacity="0"/><stop offset="1" stop-color="#f4901f"/></linearGradient><linearGradient id="linear-gradient-15" x1="24" y1="10.104" x2="24" y2="14.03" xlink:href="#linear-gradient-14"/><linearGradient id="linear-gradient-16" x1="34" y1="10.104" x2="34" y2="14.03" xlink:href="#linear-gradient-14"/></defs><title>User Interface Gradient</title><g id="Calendar"><rect class="cls-1" x="7" y="10" width="34" height="31" rx="4" ry="4"/><path class="cls-2" d="M11,10H37a4,4,0,0,1,4,4v3a0,0,0,0,1,0,0H7a0,0,0,0,1,0,0V14A4,4,0,0,1,11,10Z"/><path class="cls-3" d="M7.141,13A3.966,3.966,0,0,0,7,14v3H41V14a3.966,3.966,0,0,0-.141-1Z"/><path class="cls-4" d="M34,6a1,1,0,0,0-1,1v6a1,1,0,0,0,2,0V7A1,1,0,0,0,34,6Z"/><path class="cls-5" d="M24,6a1,1,0,0,0-1,1v6a1,1,0,0,0,2,0V7A1,1,0,0,0,24,6Z"/><path class="cls-6" d="M14,6a1,1,0,0,0-1,1v6a1,1,0,0,0,2,0V7A1,1,0,0,0,14,6Z"/><path class="cls-4" d="M34,6a1,1,0,0,0-1,1v6a1,1,0,0,0,2,0V7A1,1,0,0,0,34,6Z"/><path class="cls-5" d="M24,6a1,1,0,0,0-1,1v6a1,1,0,0,0,2,0V7A1,1,0,0,0,24,6Z"/><path class="cls-6" d="M14,6a1,1,0,0,0-1,1v6a1,1,0,0,0,2,0V7A1,1,0,0,0,14,6Z"/><path class="cls-4" d="M34,6a1,1,0,0,0-1,1v6a1,1,0,0,0,2,0V7A1,1,0,0,0,34,6Z"/><path class="cls-5" d="M24,6a1,1,0,0,0-1,1v6a1,1,0,0,0,2,0V7A1,1,0,0,0,24,6Z"/><path class="cls-6" d="M14,6a1,1,0,0,0-1,1v6a1,1,0,0,0,2,0V7A1,1,0,0,0,14,6Z"/><path class="cls-7" d="M7,30v7a4,4,0,0,0,4,4H37a4,4,0,0,0,4-4V30Z"/><path class="cls-8" d="M13,10v3a1,1,0,0,0,2,0V10Z"/><path class="cls-9" d="M23,10v3a1,1,0,0,0,2,0V10Z"/><path class="cls-10" d="M33,10v3a1,1,0,0,0,2,0V10Z"/></g></svg>