<svg xmlns="http://www.w3.org/2000/svg" xmlns:xlink="http://www.w3.org/1999/xlink" viewBox="0 0 48 48"><defs><style>.cls-1{fill:url(#linear-gradient);}.cls-2{fill:url(#linear-gradient-2);}.cls-3{fill:url(#linear-gradient-3);}.cls-4{fill:url(#linear-gradient-4);}</style><linearGradient id="linear-gradient" x1="24" y1="12.063" x2="24" y2="41.063" gradientUnits="userSpaceOnUse"><stop offset="0" stop-color="#eaecf7"/><stop offset="1" stop-color="#cdd3f1"/></linearGradient><linearGradient id="linear-gradient-2" x1="24" y1="6.984" x2="24" y2="13.945" gradientUnits="userSpaceOnUse"><stop offset="0" stop-color="#e28b5a"/><stop offset="1" stop-color="#b35e3e"/></linearGradient><linearGradient id="linear-gradient-3" x1="24" y1="30.901" x2="24" y2="42.901" gradientUnits="userSpaceOnUse"><stop offset="0" stop-color="#e2e5f4" stop-opacity="0"/><stop offset="1" stop-color="#9aa6e2"/></linearGradient><linearGradient id="linear-gradient-4" x1="24" y1="11.764" x2="24" y2="14.747" gradientUnits="userSpaceOnUse"><stop offset="0" stop-color="#b35e3e" stop-opacity="0"/><stop offset="1" stop-color="#96492d"/></linearGradient></defs><title>User Interface Gradient</title><g id="Clipboard"><rect class="cls-1" x="11" y="12" width="26" height="29" rx="2" ry="2"/><path class="cls-2" d="M27,10a3,3,0,0,0-6,0H18a1,1,0,0,0-1,1v2a1,1,0,0,0,1,1H30a1,1,0,0,0,1-1V11a1,1,0,0,0-1-1Z"/><path class="cls-3" d="M11,29V39a2,2,0,0,0,2,2H35a2,2,0,0,0,2-2V29Z"/><path class="cls-4" d="M17,13a1,1,0,0,0,1,1H30a1,1,0,0,0,1-1V11H17Z"/></g></svg>