<svg xmlns="http://www.w3.org/2000/svg" xmlns:xlink="http://www.w3.org/1999/xlink" viewBox="0 0 48 48"><defs><style>.a{fill:url(#a);}.b,.c{fill:#fff;}.b{opacity:0.9;}.c{opacity:0.5;}</style><linearGradient id="a" x1="8.609" y1="8.609" x2="40.619" y2="40.619" gradientUnits="userSpaceOnUse"><stop offset="0" stop-color="#ff553f"/><stop offset="0.116" stop-color="#fb4a34"/><stop offset="0.474" stop-color="#f12c18"/><stop offset="0.781" stop-color="#eb1a06"/><stop offset="1" stop-color="#e91300"/></linearGradient></defs><rect class="a" x="4" y="4" width="40" height="40" rx="10"/><path class="b" d="M16,33a1,1,0,0,0,1,1H31a1,1,0,0,0,1-1V22H16Zm11-7a1,1,0,0,1,2,0v4a1,1,0,0,1-2,0Zm-4,0a1,1,0,0,1,2,0v4a1,1,0,0,1-2,0Zm-4,0a1,1,0,0,1,2,0v4a1,1,0,0,1-2,0Z"/><path class="c" d="M21,30a1,1,0,0,1-2,0V26a1,1,0,0,1,2,0Z"/><path class="c" d="M25,30a1,1,0,0,1-2,0V26a1,1,0,0,1,2,0Z"/><path class="c" d="M29,30a1,1,0,0,1-2,0V26a1,1,0,0,1,2,0Z"/><path class="c" d="M34,17v3H14V17a1,1,0,0,1,1-1h5V15a1,1,0,0,1,1-1h6a1,1,0,0,1,1,1v1h5A1,1,0,0,1,34,17Z"/></svg>