<svg xmlns="http://www.w3.org/2000/svg" xmlns:xlink="http://www.w3.org/1999/xlink" viewBox="0 0 48 48"><defs><style>.cls-1{fill:url(#linear-gradient);}.cls-2{fill:url(#linear-gradient-2);}.cls-3{fill:url(#linear-gradient-3);}.cls-4{fill:url(#linear-gradient-4);}.cls-5{fill:url(#linear-gradient-5);}.cls-6{fill:url(#linear-gradient-6);}.cls-7{fill:url(#linear-gradient-7);}.cls-8{fill:url(#linear-gradient-8);}.cls-9{fill:url(#linear-gradient-9);}.cls-10{fill:url(#linear-gradient-10);}.cls-11{fill:url(#linear-gradient-11);}.cls-12{fill:url(#linear-gradient-12);}.cls-13{fill:url(#linear-gradient-13);}</style><linearGradient id="linear-gradient" x1="24" y1="6" x2="24" y2="11.792" gradientUnits="userSpaceOnUse"><stop offset="0" stop-color="#3f4c56"/><stop offset="1" stop-color="#27333e"/></linearGradient><linearGradient id="linear-gradient-2" x1="29" y1="9.292" x2="29" y2="11.105" gradientUnits="userSpaceOnUse"><stop offset="0" stop-color="#3f4c56" stop-opacity="0"/><stop offset="1" stop-color="#141414"/></linearGradient><linearGradient id="linear-gradient-3" x1="19" y1="9.292" x2="19" y2="11.105" xlink:href="#linear-gradient-2"/><linearGradient id="linear-gradient-4" x1="24" y1="11.375" x2="24" y2="40.913" gradientUnits="userSpaceOnUse"><stop offset="0" stop-color="#9aa6e2"/><stop offset="1" stop-color="#7283d6"/></linearGradient><linearGradient id="linear-gradient-5" x1="24" y1="31.971" x2="24" y2="42.801" gradientUnits="userSpaceOnUse"><stop offset="0" stop-color="#7283d6" stop-opacity="0"/><stop offset="1" stop-color="#4d62cb"/></linearGradient><linearGradient id="linear-gradient-6" x1="24" y1="18.646" x2="24" y2="32.443" gradientUnits="userSpaceOnUse"><stop offset="0" stop-color="#4d62cb"/><stop offset="1" stop-color="#7283d6" stop-opacity="0"/></linearGradient><linearGradient id="linear-gradient-7" x1="18.5" y1="18.521" x2="18.5" y2="32.318" xlink:href="#linear-gradient-6"/><linearGradient id="linear-gradient-8" x1="29.5" y1="18.708" x2="29.5" y2="32.505" xlink:href="#linear-gradient-6"/><linearGradient id="linear-gradient-9" y1="11.083" x2="24" y2="14.938" xlink:href="#linear-gradient"/><linearGradient id="linear-gradient-10" x1="24" y1="21.125" x2="24" y2="32.951" gradientUnits="userSpaceOnUse"><stop offset="0" stop-color="#eaecf7"/><stop offset="1" stop-color="#cdd3f1"/></linearGradient><linearGradient id="linear-gradient-11" x1="18.5" x2="18.5" y2="32.951" xlink:href="#linear-gradient-10"/><linearGradient id="linear-gradient-12" x1="29.5" x2="29.5" y2="32.951" xlink:href="#linear-gradient-10"/><linearGradient id="linear-gradient-13" x1="24" y1="12.5" x2="24" y2="15.391" xlink:href="#linear-gradient-2"/></defs><title>User Interface Gradient</title><g id="Delete"><path class="cls-1" d="M29,13a1,1,0,0,1-1-1V9a1,1,0,0,0-1-1H21a1,1,0,0,0-1,1v3a1,1,0,0,1-2,0V9a3,3,0,0,1,3-3h6a3,3,0,0,1,3,3v3A1,1,0,0,1,29,13Z"/><path class="cls-2" d="M28,12a1,1,0,0,0,2,0V9H28Z"/><path class="cls-3" d="M18,12a1,1,0,0,0,2,0V9H18Z"/><path class="cls-4" d="M30.258,41H17.742a4,4,0,0,1-3.991-3.734L12,11H36L34.249,37.266A4,4,0,0,1,30.258,41Z"/><path class="cls-5" d="M13.267,30l.484,7.266A4,4,0,0,0,17.742,41H30.258a4,4,0,0,0,3.991-3.734L34.733,30Z"/><path class="cls-6" d="M24,34a2,2,0,0,1-2-2V22a2,2,0,0,1,4,0V32A2,2,0,0,1,24,34Z"/><path class="cls-7" d="M19,34a1.994,1.994,0,0,1-1.989-1.8l-1-10A2,2,0,0,1,17.8,20.01L18,20a2,2,0,0,1,1.994,1.8l1,10A2,2,0,0,1,19,34Z"/><path class="cls-8" d="M29,34a2,2,0,0,1-1.991-2.2l1-10A2,2,0,0,1,30,20l.19.009a2,2,0,0,1,1.8,2.189l-1,10A1.994,1.994,0,0,1,29,34Z"/><rect class="cls-9" x="10" y="11" width="28" height="4" rx="1" ry="1"/><path class="cls-10" d="M24,33a1,1,0,0,1-1-1V22a1,1,0,0,1,2,0V32A1,1,0,0,1,24,33Z"/><path class="cls-11" d="M19,33A1,1,0,0,1,18,32.1l-1-10A1,1,0,0,1,19,21.9l1,10A1,1,0,0,1,19,33Z"/><path class="cls-12" d="M29,33a1,1,0,0,1-1-1.1l1-10a1,1,0,1,1,1.99.2l-1,10A1,1,0,0,1,29,33Z"/><path class="cls-13" d="M10,14a1,1,0,0,0,1,1H37a1,1,0,0,0,1-1V12H10Z"/></g></svg>