<?xml version="1.0" encoding="UTF-8" standalone="no"?><!DOCTYPE svg PUBLIC "-//W3C//DTD SVG 1.1//EN" "http://www.w3.org/Graphics/SVG/1.1/DTD/svg11.dtd"><svg width="100%" height="100%" viewBox="0 0 267 267" version="1.1" xmlns="http://www.w3.org/2000/svg" xmlns:xlink="http://www.w3.org/1999/xlink" xml:space="preserve" xmlns:serif="http://www.serif.com/" style="fill-rule:evenodd;clip-rule:evenodd;stroke-linejoin:round;stroke-miterlimit:2;"><path d="M216.517,222.759c10.429,0 18.884,-8.454 18.884,-18.884c0,-0 0,-89.263 0,-89.263c0,-4.129 -2.384,-7.702 -5.851,-9.415c-0.71,-0.351 -1.16,-1.075 -1.16,-1.868c0,0 0,-15.376 0,-15.376c0,-2.784 -1.106,-5.454 -3.075,-7.423c-1.968,-1.968 -4.638,-3.074 -7.422,-3.074c-1.151,-0 -2.084,-0.933 -2.084,-2.084c0,-1.15 0.933,-2.083 2.084,-2.083c-0,0 19.526,0 19.526,0c3.889,0 7.619,1.545 10.369,4.295c2.75,2.75 4.295,6.48 4.295,10.369c0,25.684 0,84.379 0,115.922c0,12.731 -10.32,23.051 -23.051,23.051l-12.515,0c-1.151,0 -2.084,-0.933 -2.084,-2.083c0,-1.151 0.933,-2.084 2.084,-2.084Z" style="fill:#c35e0c;"/><path d="M186.289,73.289c-1.151,0 -2.084,0.933 -2.084,2.083l0,26.659c0,1.151 0.933,2.084 2.084,2.084l38.615,-0c1.668,-0 3.245,0.388 4.645,1.081c0.646,0.32 1.411,0.283 2.023,-0.097c0.612,-0.38 0.985,-1.049 0.985,-1.77l-0,-15.376c-0,-3.889 -1.545,-7.619 -4.295,-10.369c-2.75,-2.75 -6.48,-4.295 -10.369,-4.295c-0,0 -31.604,0 -31.604,0Z" style="fill:#f8e6b5;"/><path d="M184.205,94.32l0,7.711c0,1.151 0.933,2.084 2.084,2.084l38.615,-0c1.292,-0 2.53,0.233 3.673,0.66c-1.808,-6.047 -7.414,-10.455 -14.05,-10.455l-30.322,0Z" style="fill:#f3d88f;"/><path d="M196.99,222.759c10.43,0 18.884,-8.454 18.885,-18.884c-0,-0 -0,-89.263 -0,-89.263c-0,-5.797 -4.7,-10.497 -10.498,-10.497c0,-0 -90.839,-0 -90.839,-0c-10.326,-0 -19.928,-5.303 -25.428,-14.043l-3.033,-4.821c-3.052,-4.852 -8.383,-7.795 -14.114,-7.795c-1.151,-0 -2.084,-0.933 -2.084,-2.084c0,-1.15 0.933,-2.083 2.084,-2.083c-0,0 19.526,0 19.526,0c7.164,0 13.826,3.679 17.641,9.743c0,-0 3.034,4.82 3.034,4.821c4.736,7.527 13.007,12.095 21.901,12.095l90.839,0c8.099,0 14.664,6.565 14.664,14.664c-0,21.051 -0,63.624 -0,89.263c-0,12.731 -10.32,23.051 -23.051,23.051l-24.258,0c-0.002,0 -0.006,-0.001 -0.01,-0.003c-1.295,-0.062 -1.355,-1.071 -1.061,-2.08c-0.294,-1.009 -0.234,-2.018 1.061,-2.08l4.741,-0.004Z" style="fill:#f57f1f;"/><path d="M194.796,73.289l-8.507,0c-1.151,0 -2.084,0.933 -2.084,2.083l0,26.659c0,1.151 0.933,2.084 2.084,2.084l6.424,-0c1.151,-0 2.083,-0.933 2.083,-2.084l0,-28.742Z" style="fill:#f3d88f;"/><path d="M46.253,75.372c0,1.151 0.933,2.084 2.084,2.084l23.626,-0c5.731,-0 11.062,2.943 14.114,7.795l3.033,4.821c5.5,8.74 15.102,14.043 25.428,14.043c0,-0 71.751,-0 71.751,-0c1.15,-0 2.083,-0.933 2.083,-2.084l-0,-40.023c-0,-12.298 -9.97,-22.267 -22.268,-22.267c-26.141,-0 -71.442,-0 -97.583,-0c-12.298,-0 -22.268,9.969 -22.268,22.267c0,0 0,13.364 0,13.364Z" style="fill:#fef9ec;"/><path d="M46.253,67.661l0,7.711c0,1.151 0.933,2.084 2.084,2.084l23.626,-0c5.731,-0 11.062,2.943 14.114,7.795l3.033,4.821c5.5,8.74 15.102,14.043 25.428,14.043c0,-0 71.751,-0 71.751,-0c1.15,-0 2.083,-0.933 2.083,-2.084l-0,-7.711l-64.684,0c-8.894,0 -17.165,-4.567 -21.902,-12.095c0,-0 -3.033,-4.821 -3.033,-4.821c-3.815,-6.063 -10.477,-9.743 -17.641,-9.743l-34.859,0Z" style="fill:#fbe1be;"/><path d="M74.721,62.778l85.183,0c1.15,0 2.083,-0.933 2.083,-2.083c0,-1.15 -0.933,-2.083 -2.083,-2.083l-85.183,-0c-1.15,-0 -2.083,0.933 -2.083,2.083c-0,1.15 0.933,2.083 2.083,2.083Z" style="fill:#685c3d;"/><path d="M126.421,85.843l33.483,-0c1.15,-0 2.083,-0.934 2.083,-2.084c0,-1.149 -0.933,-2.083 -2.083,-2.083l-33.483,0c-1.15,0 -2.084,0.934 -2.084,2.083c0,1.15 0.934,2.084 2.084,2.084Z" style="fill:#685c3d;"/><path d="M220.041,114.612c0,-8.099 -6.565,-14.664 -14.664,-14.664l-90.839,0c-8.894,0 -17.164,-4.568 -21.901,-12.095c0,-0.001 -3.033,-4.821 -3.033,-4.821c-3.816,-6.064 -10.477,-9.743 -17.641,-9.743c-11.574,0 -30.309,0 -42.715,0c-3.889,0 -7.619,1.545 -10.369,4.295c-2.75,2.75 -4.295,6.48 -4.295,10.369c-0,25.684 -0,84.379 -0,115.922c-0,12.731 10.32,23.051 23.051,23.051c38.651,0 120.705,0 159.355,0c12.731,0 23.051,-10.32 23.051,-23.051l0,-89.263Z" style="fill:#fbc02a;"/><path d="M204.052,186.332c-23.122,-0 -150.357,-0 -173.479,-0c-1.509,-0 -2.956,0.599 -4.023,1.666c-1.067,1.067 -1.666,2.514 -1.666,4.022l0,11.855c0,7.042 5.709,12.751 12.751,12.751c38.651,-0 120.705,-0 159.355,-0c7.042,-0 12.751,-5.709 12.751,-12.751l-0,-11.855c-0,-1.508 -0.599,-2.955 -1.666,-4.022c-1.067,-1.067 -2.514,-1.666 -4.023,-1.666Z" style="fill:#f57f1f;"/></svg>