<?xml version="1.0" encoding="UTF-8" standalone="no"?><!DOCTYPE svg PUBLIC "-//W3C//DTD SVG 1.1//EN" "http://www.w3.org/Graphics/SVG/1.1/DTD/svg11.dtd"><svg width="100%" height="100%" viewBox="0 0 267 267" version="1.1" xmlns="http://www.w3.org/2000/svg" xmlns:xlink="http://www.w3.org/1999/xlink" xml:space="preserve" xmlns:serif="http://www.serif.com/" style="fill-rule:evenodd;clip-rule:evenodd;stroke-linejoin:round;stroke-miterlimit:2;"><path d="M109.035,14.586c-0.14,-0.001 -0.163,4.166 -0.027,4.167c27.339,0.21 53.859,14.477 68.502,39.84c14.394,24.93 13.765,54.439 0.934,78.016c-2.728,4.913 -1.427,11.105 3.063,14.514c6.719,5.16 16.2,12.359 16.2,12.359c12.11,9.194 18.813,23.84 17.857,39.015c-0.956,15.175 -9.444,28.864 -22.612,36.466c-1.656,0.956 -3.315,1.914 -4.972,2.871c-3.828,2.21 -7.903,3.82 -12.092,4.826c-0.936,0.225 -1.597,1.062 -1.597,2.026c0,0.963 0.66,1.8 1.597,2.025c12.214,2.936 25.249,1.151 36.369,-5.269c1.657,-0.956 3.316,-1.914 4.972,-2.871c14.376,-8.3 23.644,-23.245 24.687,-39.812c1.044,-16.568 -6.275,-32.558 -19.496,-42.596c0,0 -9.212,-6.994 -15.909,-12.143c-0.003,-0.002 -0.006,-0.005 -0.01,-0.008c-2.991,-2.271 -3.866,-6.392 -2.056,-9.683c0.003,-0.005 0.006,-0.011 0.009,-0.016c13.35,-24.76 13.945,-55.672 -1.142,-81.804c-14.837,-25.698 -41.245,-41.836 -68.891,-41.836c-8.48,-0 -22.518,-0.072 -25.386,-0.087Z" style="fill:#4e70a4;"/><path d="M113.385,187.261l2.715,21.472c2.083,16.469 12.272,30.802 27.141,38.182c14.87,7.38 32.446,6.827 46.822,-1.473c1.657,-0.956 3.316,-1.914 4.973,-2.871c14.376,-8.3 23.643,-23.245 24.687,-39.812c1.043,-16.568 -6.276,-32.558 -19.497,-42.596c0,0 -10.462,-7.943 -17.211,-13.11c-0.002,-0.002 -0.004,-0.003 -0.006,-0.005c-2.284,-1.734 -2.924,-4.895 -1.495,-7.381c0.003,-0.005 0.006,-0.011 0.009,-0.016c14.06,-24.978 14.956,-56.538 -0.404,-83.142c-23.139,-40.077 -74.463,-53.83 -114.541,-30.691c-40.077,23.139 -53.83,74.463 -30.691,114.541c15.361,26.604 43.141,41.609 71.803,41.889c0.006,0 0.011,0 0.017,0c2.884,0.006 5.315,2.152 5.678,5.013Z" style="fill:#5881c1;"/><path d="M155.782,160.494c0,-0 -5.365,3.819 -8.274,5.499c-2.903,1.676 -5.87,3.144 -8.877,4.426c-4.111,1.707 -6.272,6.31 -4.938,10.606c0.473,1.54 0.823,3.15 1.033,4.808l2.558,20.221c1.185,9.375 6.985,17.534 15.45,21.735c8.464,4.202 18.47,3.887 26.653,-0.838c0,-0 4.973,-2.871 4.973,-2.871c8.183,-4.725 13.459,-13.232 14.053,-22.664c0.594,-9.431 -3.572,-18.533 -11.098,-24.247c0.712,0.541 1.839,1.397 -0.274,-0.208c-1.602,-1.217 -9.916,-7.535 -15.908,-12.137c-0.006,-0.005 -0.012,-0.009 -0.018,-0.014c-1.321,-1.003 -2.533,-2.102 -3.621,-3.29c-0.004,-0.004 -0.007,-0.008 -0.011,-0.012c-3.054,-3.308 -8.124,-3.746 -11.701,-1.014Z" style="fill:#fff;"/><path d="M75.25,40.839c-31.787,18.353 -42.694,59.06 -24.342,90.847c18.353,31.788 59.06,42.695 90.847,24.343c31.788,-18.353 42.695,-59.06 24.343,-90.847c-18.353,-31.788 -59.06,-42.695 -90.847,-24.343l-0.001,0Zm5.385,50.162c4.103,-0 7.433,3.33 7.433,7.433c0,4.102 -3.33,7.433 -7.433,7.433c-4.102,0 -7.433,-3.331 -7.433,-7.433c-0,-4.103 3.331,-7.433 7.433,-7.433Zm27.868,-0c4.103,-0 7.433,3.33 7.433,7.433c0,4.102 -3.33,7.433 -7.433,7.433c-4.103,0 -7.433,-3.331 -7.433,-7.433c-0,-4.103 3.33,-7.433 7.433,-7.433Zm27.868,-0c4.102,-0 7.433,3.33 7.433,7.433c0,4.102 -3.331,7.433 -7.433,7.433c-4.103,0 -7.433,-3.331 -7.433,-7.433c-0,-4.103 3.33,-7.433 7.433,-7.433Z" style="fill:#fff;"/><path d="M146.581,43.9c1.086,1.557 2.113,3.171 3.079,4.843c18.352,31.788 7.445,72.495 -24.343,90.847c-23.062,13.315 -50.818,11.229 -71.33,-3.061c19.531,28.011 57.653,36.887 87.768,19.5c31.788,-18.353 42.695,-59.06 24.343,-90.847c-5.038,-8.726 -11.76,-15.878 -19.517,-21.282Z" style="fill:#e9e9e9;"/></svg>