<svg xmlns="http://www.w3.org/2000/svg" xmlns:xlink="http://www.w3.org/1999/xlink" viewBox="0 0 48 48"><defs><style>.cls-1{fill:#9aa6e2;}.cls-2{fill:url(#linear-gradient);}.cls-3{fill:url(#linear-gradient-2);}</style><linearGradient id="linear-gradient" x1="24" y1="7.625" x2="24" y2="40.921" gradientUnits="userSpaceOnUse"><stop offset="0" stop-color="#eaecf7"/><stop offset="1" stop-color="#cdd3f1"/></linearGradient><linearGradient id="linear-gradient-2" x1="24" y1="29.692" x2="24" y2="44.382" gradientUnits="userSpaceOnUse"><stop offset="0" stop-color="#e2e5f4" stop-opacity="0"/><stop offset="1" stop-color="#9aa6e2"/></linearGradient></defs><title>User Interface Gradient</title><g id="File"><path class="cls-1" d="M30,7H13a2,2,0,0,0-2,2V39a2,2,0,0,0,2,2H35a2,2,0,0,0,2-2V14Z"/><path class="cls-2" d="M30,7H13a2,2,0,0,0-2,2V39a2,2,0,0,0,2,2H35a2,2,0,0,0,2-2V14H32a2,2,0,0,1-2-2Z"/><path class="cls-3" d="M11,26V39a2,2,0,0,0,2,2H35a2,2,0,0,0,2-2V26Z"/></g></svg>