<svg xmlns="http://www.w3.org/2000/svg" xmlns:xlink="http://www.w3.org/1999/xlink" viewBox="0 0 48 48"><defs><style>.a{fill:url(#a);}.b,.c{fill:#fff;}.b{opacity:0.5;}.c{opacity:0.9;}</style><linearGradient id="a" x1="8.609" y1="8.609" x2="40.619" y2="40.619" gradientUnits="userSpaceOnUse"><stop offset="0" stop-color="#2ad19d"/><stop offset="0.142" stop-color="#2ac9ab"/><stop offset="0.489" stop-color="#29b9c9"/><stop offset="0.788" stop-color="#29afdb"/><stop offset="1" stop-color="#29abe2"/></linearGradient></defs><rect class="a" x="4" y="4" width="40" height="40" rx="10"/><path class="b" d="M26,26.9H22a1,1,0,0,0-1,1v5h6v-5A1,1,0,0,0,26,26.9Z"/><path class="c" d="M31.559,20l-7-4.725a1,1,0,0,0-1.118,0l-7,4.725a1,1,0,0,0-.441.829V31.9a1,1,0,0,0,1,1h4v-5a1,1,0,0,1,1-1h4a1,1,0,0,1,1,1v5h4a1,1,0,0,0,1-1V20.828A1,1,0,0,0,31.559,20Z"/></svg>