<svg xmlns="http://www.w3.org/2000/svg" xmlns:xlink="http://www.w3.org/1999/xlink" viewBox="0 0 48 48"><defs><style>.cls-1{fill:url(#linear-gradient);}.cls-2{fill:url(#linear-gradient-2);}.cls-3{fill:url(#linear-gradient-3);}.cls-4{fill:url(#linear-gradient-4);}.cls-5{fill:url(#linear-gradient-5);}</style><linearGradient id="linear-gradient" x1="24" y1="6.758" x2="24" y2="41.112" gradientUnits="userSpaceOnUse"><stop offset="0" stop-color="#9aa6e2"/><stop offset="1" stop-color="#7283d6"/></linearGradient><linearGradient id="linear-gradient-2" x1="24" y1="29.817" x2="24" y2="41.129" gradientTransform="translate(-11.5 59.5) rotate(-90)" gradientUnits="userSpaceOnUse"><stop offset="0" stop-color="#4d62cb"/><stop offset="1" stop-color="#7283d6" stop-opacity="0"/></linearGradient><linearGradient id="linear-gradient-3" x1="24" y1="35.375" x2="24" y2="42.398" gradientUnits="userSpaceOnUse"><stop offset="0" stop-color="#7283d6" stop-opacity="0"/><stop offset="1" stop-color="#4d62cb"/></linearGradient><linearGradient id="linear-gradient-4" x1="24" y1="30.833" x2="24" y2="41.117" gradientUnits="userSpaceOnUse"><stop offset="0" stop-color="#eaecf7"/><stop offset="1" stop-color="#cdd3f1"/></linearGradient><linearGradient id="linear-gradient-5" x1="24" y1="36.76" x2="24" y2="41.902" gradientUnits="userSpaceOnUse"><stop offset="0" stop-color="#e2e5f4" stop-opacity="0"/><stop offset="1" stop-color="#9aa6e2"/></linearGradient></defs><title>User Interface Gradient</title><g id="Home"><path class="cls-1" d="M40.547,18.741,25.372,7.22a2.27,2.27,0,0,0-2.745,0L7.453,18.741a1.123,1.123,0,0,0,.679,2.018H11V39a2,2,0,0,0,2,2H35a2,2,0,0,0,2-2V20.759h2.868A1.123,1.123,0,0,0,40.547,18.741Z"/><path class="cls-2" d="M20.5,29.5h9a0,0,0,0,1,0,0v12a0,0,0,0,1,0,0h-9a2,2,0,0,1-2-2v-8A2,2,0,0,1,20.5,29.5Z" transform="translate(59.5 11.5) rotate(90)"/><path class="cls-3" d="M11,34v5a2,2,0,0,0,2,2H35a2,2,0,0,0,2-2V34Z"/><path class="cls-4" d="M20,31h8a1,1,0,0,1,1,1v9a0,0,0,0,1,0,0H19a0,0,0,0,1,0,0V32A1,1,0,0,1,20,31Z"/><rect class="cls-5" x="19" y="36" width="10" height="5"/></g></svg>