<svg xmlns="http://www.w3.org/2000/svg" xmlns:xlink="http://www.w3.org/1999/xlink" viewBox="0 0 48 48"><defs><style>.cls-1{fill:url(#linear-gradient);}.cls-2{fill:url(#linear-gradient-2);}</style><linearGradient id="linear-gradient" x1="13.727" y1="8.684" x2="37.477" y2="32.934" gradientUnits="userSpaceOnUse"><stop offset="0" stop-color="#ff4343"/><stop offset="1" stop-color="#e40000"/></linearGradient><linearGradient id="linear-gradient-2" x1="26.723" y1="22.253" x2="37.935" y2="32.44" gradientUnits="userSpaceOnUse"><stop offset="0" stop-color="#ff4343" stop-opacity="0"/><stop offset="1" stop-color="#af0000"/></linearGradient></defs><title>User Interface Gradient</title><g id="LOve"><path class="cls-1" d="M24.169,12.137,24,12.313l-.169-.176A9.651,9.651,0,0,0,10.32,11.43a10.429,10.429,0,0,0-.472,14.792L20.765,37.6a4.444,4.444,0,0,0,6.47,0l10.918-11.38A10.43,10.43,0,0,0,37.68,11.43,9.651,9.651,0,0,0,24.169,12.137Z"/><path class="cls-2" d="M37.072,10.928,15.688,32.312,20.765,37.6a4.444,4.444,0,0,0,6.47,0l10.918-11.38A10.429,10.429,0,0,0,37.68,11.43C37.484,11.25,37.278,11.088,37.072,10.928Z"/></g></svg>