<svg xmlns="http://www.w3.org/2000/svg" xmlns:xlink="http://www.w3.org/1999/xlink" viewBox="0 0 48 48"><defs><style>.cls-1{fill:url(#linear-gradient);}.cls-2{fill:url(#linear-gradient-2);}</style><linearGradient id="linear-gradient" x1="24" y1="8.125" x2="24" y2="42.495" gradientUnits="userSpaceOnUse"><stop offset="0" stop-color="#9aa6e2"/><stop offset="1" stop-color="#7283d6"/></linearGradient><linearGradient id="linear-gradient-2" x1="24" y1="27.396" x2="24" y2="45.917" gradientUnits="userSpaceOnUse"><stop offset="0" stop-color="#7283d6" stop-opacity="0"/><stop offset="1" stop-color="#4d62cb"/></linearGradient></defs><title>User Interface Gradient</title><g id="Refresh"><path class="cls-1" d="M41.588,21.155a2,2,0,0,0-3.908.852A14,14,0,1,1,24,11a13.891,13.891,0,0,1,8.085,2.588h-1.5a2,2,0,0,0,0,4h6.588a2,2,0,0,0,2-2V9a2,2,0,0,0-4,0v1.886A18,18,0,1,0,42,25,18.113,18.113,0,0,0,41.588,21.155Z"/><path class="cls-2" d="M24,39A14.016,14.016,0,0,1,10,25H6a18,18,0,0,0,36,0H38A14.016,14.016,0,0,1,24,39Z"/></g></svg>