<svg xmlns="http://www.w3.org/2000/svg" xmlns:xlink="http://www.w3.org/1999/xlink" viewBox="0 0 48 48"><defs><style>.cls-1{fill:url(#linear-gradient);}.cls-2{fill:url(#linear-gradient-2);}</style><linearGradient id="linear-gradient" x1="9.774" y1="9.323" x2="41.399" y2="42.198" gradientUnits="userSpaceOnUse"><stop offset="0" stop-color="#9aa6e2"/><stop offset="1" stop-color="#7283d6"/></linearGradient><linearGradient id="linear-gradient-2" x1="25.625" y1="25.69" x2="43.615" y2="44.39" gradientUnits="userSpaceOnUse"><stop offset="0" stop-color="#7283d6" stop-opacity="0"/><stop offset="1" stop-color="#4d62cb"/></linearGradient></defs><title>User Interface Gradient</title><g id="Search"><path class="cls-1" d="M41.414,38.586l-8.2-8.2a15.232,15.232,0,1,0-2.828,2.828l8.2,8.2a2,2,0,0,0,2.828-2.828ZM10,21.176A11.177,11.177,0,1,1,21.176,32.353,11.189,11.189,0,0,1,10,21.176Z"/><path class="cls-2" d="M33.213,30.384a15.065,15.065,0,0,0,1.13-16.726l-2.967,2.967A11.158,11.158,0,0,1,16.625,31.375l-2.967,2.967a15.065,15.065,0,0,0,16.726-1.13l8.2,8.2a2,2,0,0,0,2.828-2.828Z"/></g></svg>