<svg xmlns="http://www.w3.org/2000/svg" xmlns:xlink="http://www.w3.org/1999/xlink" viewBox="0 0 48 48"><defs><style>.cls-1{fill:url(#linear-gradient);}.cls-2{fill:url(#linear-gradient-2);}.cls-3{fill:url(#linear-gradient-3);}</style><linearGradient id="linear-gradient" x1="12.278" y1="11.396" x2="35.528" y2="36.396" gradientUnits="userSpaceOnUse"><stop offset="0" stop-color="#3f4c56"/><stop offset="1" stop-color="#27333e"/></linearGradient><linearGradient id="linear-gradient-2" x1="26.594" y1="26.692" x2="39.638" y2="40.446" gradientUnits="userSpaceOnUse"><stop offset="0" stop-color="#3f4c56" stop-opacity="0"/><stop offset="1" stop-color="#141414"/></linearGradient><linearGradient id="linear-gradient-3" x1="18.325" y1="17.935" x2="29.242" y2="29.602" gradientUnits="userSpaceOnUse"><stop offset="0" stop-color="#141414"/><stop offset="1" stop-color="#3f4c56" stop-opacity="0"/></linearGradient></defs><title>User Interface Gradient</title><g id="Setting-2" data-name="Setting"><path class="cls-1" d="M40.243,20.811l-2.8-.7a13.91,13.91,0,0,0-1.183-2.87L37.74,14.77a1,1,0,0,0-.15-1.222L34.452,10.41a1,1,0,0,0-1.222-.15l-2.471,1.482a13.91,13.91,0,0,0-2.87-1.183l-.7-2.8A1,1,0,0,0,26.219,7H21.781a1,1,0,0,0-.97.757l-.7,2.8a13.91,13.91,0,0,0-2.87,1.183L14.77,10.26a1,1,0,0,0-1.222.15L10.41,13.548a1,1,0,0,0-.15,1.222l1.482,2.471a13.91,13.91,0,0,0-1.183,2.87l-2.8.7a1,1,0,0,0-.757.97v4.438a1,1,0,0,0,.757.97l2.8.7a13.91,13.91,0,0,0,1.183,2.87L10.26,33.23a1,1,0,0,0,.15,1.222l3.138,3.138a1,1,0,0,0,1.222.15l2.471-1.482a13.91,13.91,0,0,0,2.87,1.183l.7,2.8a1,1,0,0,0,.97.758h4.438a1,1,0,0,0,.97-.758l.7-2.8a13.91,13.91,0,0,0,2.87-1.183L33.23,37.74a1,1,0,0,0,1.222-.15l3.138-3.138a1,1,0,0,0,.15-1.222l-1.482-2.471a13.91,13.91,0,0,0,1.183-2.87l2.8-.7a1,1,0,0,0,.757-.97V21.781A1,1,0,0,0,40.243,20.811ZM24,30a6,6,0,1,1,6-6A6,6,0,0,1,24,30Z"/><path class="cls-2" d="M40.243,20.811l-2.8-.7a13.91,13.91,0,0,0-1.183-2.87L37.74,14.77a1,1,0,0,0-.15-1.222l-1.569-1.569-7.778,7.778a6,6,0,1,1-8.485,8.485l-7.778,7.778,1.569,1.569a1,1,0,0,0,1.222.15l2.471-1.482a13.91,13.91,0,0,0,2.87,1.183l.7,2.8a1,1,0,0,0,.97.758h4.438a1,1,0,0,0,.97-.758l.7-2.8a13.91,13.91,0,0,0,2.87-1.183L33.23,37.74a1,1,0,0,0,1.222-.15l3.138-3.138a1,1,0,0,0,.15-1.222l-1.482-2.471a13.91,13.91,0,0,0,1.183-2.87l2.8-.7a1,1,0,0,0,.757-.97V21.781A1,1,0,0,0,40.243,20.811Z"/><path class="cls-3" d="M24,17a7,7,0,1,0,7,7A7,7,0,0,0,24,17Zm0,13a6,6,0,1,1,6-6A6,6,0,0,1,24,30Z"/></g></svg>