<svg xmlns="http://www.w3.org/2000/svg" xmlns:xlink="http://www.w3.org/1999/xlink" viewBox="0 0 48 48"><defs><style>.cls-1{fill:url(#linear-gradient);}.cls-2{fill:url(#linear-gradient-2);}.cls-3{fill:url(#linear-gradient-3);}.cls-4{fill:url(#linear-gradient-4);}.cls-5{fill:url(#linear-gradient-5);}.cls-6{fill:url(#linear-gradient-6);}.cls-7{fill:url(#linear-gradient-7);}.cls-8{fill:url(#linear-gradient-8);}</style><linearGradient id="linear-gradient" x1="24" y1="17.167" x2="24" y2="41.257" gradientUnits="userSpaceOnUse"><stop offset="0" stop-color="#eaecf7"/><stop offset="1" stop-color="#cdd3f1"/></linearGradient><linearGradient id="linear-gradient-2" x1="18.189" y1="22.591" x2="30.229" y2="35.87" gradientUnits="userSpaceOnUse"><stop offset="0" stop-color="#9aa6e2"/><stop offset="1" stop-color="#e2e5f4" stop-opacity="0"/></linearGradient><linearGradient id="linear-gradient-3" x1="24" y1="30" x2="24" y2="42.792" gradientUnits="userSpaceOnUse"><stop offset="0" stop-color="#e2e5f4" stop-opacity="0"/><stop offset="1" stop-color="#9aa6e2"/></linearGradient><linearGradient id="linear-gradient-4" x1="19.798" y1="24.365" x2="28.298" y2="33.74" gradientUnits="userSpaceOnUse"><stop offset="0" stop-color="#3f4c56"/><stop offset="1" stop-color="#27333e"/></linearGradient><linearGradient id="linear-gradient-5" x1="24.236" y1="29.285" x2="28.674" y2="34.472" gradientUnits="userSpaceOnUse"><stop offset="0" stop-color="#3f4c56" stop-opacity="0"/><stop offset="1" stop-color="#141414"/></linearGradient><linearGradient id="linear-gradient-6" x1="24.021" y1="6.125" x2="23.979" y2="11.792" xlink:href="#linear-gradient-4"/><linearGradient id="linear-gradient-7" x1="14.617" y1="8.171" x2="17.367" y2="13.796" xlink:href="#linear-gradient-4"/><linearGradient id="linear-gradient-8" x1="33.408" y1="8.266" x2="30.575" y2="13.766" xlink:href="#linear-gradient-4"/></defs><title>User Interface Gradient</title><g id="Show_Password" data-name="Show Password"><path class="cls-1" d="M41,29S37,41,24,41,7,29,7,29s4-12,17-12S41,29,41,29Z"/><circle class="cls-2" cx="24" cy="29" r="7"/><path class="cls-3" d="M24,41c13,0,17-12,17-12H7S11,41,24,41Z"/><circle class="cls-4" cx="24" cy="29" r="6"/><path class="cls-5" d="M19.124,32.488a5.994,5.994,0,1,0,9.65-7.111Z"/><path class="cls-6" d="M24,12a1,1,0,0,1-1-1V7a1,1,0,0,1,2,0v4A1,1,0,0,1,24,12Z"/><path class="cls-7" d="M17,14a1,1,0,0,1-.9-.553l-2-4a1,1,0,0,1,1.789-.895l2,4A1,1,0,0,1,17,14Z"/><path class="cls-8" d="M31,14a1,1,0,0,1-.894-1.447l2-4a1,1,0,0,1,1.789.895l-2,4A1,1,0,0,1,31,14Z"/></g></svg>