<svg xmlns="http://www.w3.org/2000/svg" xmlns:xlink="http://www.w3.org/1999/xlink" viewBox="0 0 48 48"><defs><style>.cls-1{fill:url(#linear-gradient);}.cls-2{fill:url(#linear-gradient-2);}</style><linearGradient id="linear-gradient" x1="7.959" y1="9.362" x2="38.709" y2="42.362" gradientUnits="userSpaceOnUse"><stop offset="0" stop-color="#ffca4f"/><stop offset="1" stop-color="#f7ae30"/></linearGradient><linearGradient id="linear-gradient-2" x1="23.217" y1="26.368" x2="39.925" y2="41.451" gradientUnits="userSpaceOnUse"><stop offset="0" stop-color="#ffca4f" stop-opacity="0"/><stop offset="1" stop-color="#f4901f"/></linearGradient></defs><title>User Interface Gradient</title><g id="Star"><path class="cls-1" d="M25.721,8.094l3.542,7.591a2.715,2.715,0,0,0,2.049,1.534l8.078,1.242a1.891,1.891,0,0,1,1.075,3.185l-6.012,6.2a2.7,2.7,0,0,0-.729,2.314l1.4,8.643a1.9,1.9,0,0,1-2.8,1.954l-7-3.895a2.724,2.724,0,0,0-2.647,0l-7,3.895a1.9,1.9,0,0,1-2.8-1.954l1.4-8.643a2.7,2.7,0,0,0-.729-2.314l-6.012-6.2a1.891,1.891,0,0,1,1.075-3.185l8.078-1.242a2.715,2.715,0,0,0,2.049-1.534l3.542-7.591A1.9,1.9,0,0,1,25.721,8.094Z"/><path class="cls-2" d="M39.389,18.461l-8.078-1.242A2.682,2.682,0,0,1,30.9,17.1L13.586,34.414,12.875,38.8a1.9,1.9,0,0,0,2.8,1.954l7-3.895a2.724,2.724,0,0,1,2.647,0l7,3.895a1.9,1.9,0,0,0,2.8-1.954l-1.4-8.643a2.7,2.7,0,0,1,.729-2.314l6.012-6.2A1.891,1.891,0,0,0,39.389,18.461Z"/></g></svg>