<svg xmlns="http://www.w3.org/2000/svg" xmlns:xlink="http://www.w3.org/1999/xlink" viewBox="0 0 48 48"><defs><style>.cls-1{fill:url(#linear-gradient);}.cls-2{fill:url(#linear-gradient-2);}.cls-3{fill:url(#linear-gradient-3);}.cls-4{fill:url(#linear-gradient-4);}.cls-5{fill:url(#linear-gradient-5);}</style><linearGradient id="linear-gradient" x1="24" y1="8" x2="24" y2="41.335" gradientUnits="userSpaceOnUse"><stop offset="0" stop-color="#eaecf7"/><stop offset="1" stop-color="#cdd3f1"/></linearGradient><linearGradient id="linear-gradient-2" x1="24" y1="30.599" x2="24" y2="44.325" gradientUnits="userSpaceOnUse"><stop offset="0" stop-color="#e2e5f4" stop-opacity="0"/><stop offset="1" stop-color="#9aa6e2"/></linearGradient><linearGradient id="linear-gradient-3" x1="24" y1="15.5" x2="24" y2="33.188" gradientUnits="userSpaceOnUse"><stop offset="0" stop-color="#36db39"/><stop offset="1" stop-color="#20b823"/></linearGradient><linearGradient id="linear-gradient-4" x1="17" x2="17" y2="33.188" xlink:href="#linear-gradient-3"/><linearGradient id="linear-gradient-5" x1="31" x2="31" y2="33.188" xlink:href="#linear-gradient-3"/></defs><title>User Interface Gradient</title><g id="Statistic"><rect class="cls-1" x="7" y="7" width="34" height="34" rx="4" ry="4"/><path class="cls-2" d="M7,27V37a4,4,0,0,0,4,4H37a4,4,0,0,0,4-4V27Z"/><path class="cls-3" d="M24,21a1,1,0,0,0-1,1V32a1,1,0,0,0,2,0V22A1,1,0,0,0,24,21Z"/><path class="cls-4" d="M17,26a1,1,0,0,0-1,1v5a1,1,0,0,0,2,0V27A1,1,0,0,0,17,26Z"/><path class="cls-5" d="M31,15a1,1,0,0,0-1,1V32a1,1,0,0,0,2,0V16A1,1,0,0,0,31,15Z"/></g></svg>