<svg xmlns="http://www.w3.org/2000/svg" xmlns:xlink="http://www.w3.org/1999/xlink" viewBox="0 0 48 48"><defs><style>.cls-1{fill:url(#linear-gradient);}.cls-2{fill:url(#linear-gradient-2);}.cls-3{fill:url(#linear-gradient-3);}.cls-4{fill:url(#linear-gradient-4);}.cls-5{fill:url(#linear-gradient-5);}</style><linearGradient id="linear-gradient" x1="24" y1="19.25" x2="24" y2="40.62" gradientUnits="userSpaceOnUse"><stop offset="0" stop-color="#9aa6e2"/><stop offset="1" stop-color="#7283d6"/></linearGradient><linearGradient id="linear-gradient-2" x1="24" y1="7.25" x2="24" y2="31.375" gradientUnits="userSpaceOnUse"><stop offset="0" stop-color="#eaecf7"/><stop offset="1" stop-color="#cdd3f1"/></linearGradient><linearGradient id="linear-gradient-3" x1="13.5" y1="22.583" x2="13.5" y2="34.945" gradientUnits="userSpaceOnUse"><stop offset="0" stop-color="#e2e5f4" stop-opacity="0"/><stop offset="1" stop-color="#9aa6e2"/></linearGradient><linearGradient id="linear-gradient-4" x1="34.5" y1="22.583" x2="34.5" y2="34.945" xlink:href="#linear-gradient-3"/><linearGradient id="linear-gradient-5" x1="24" y1="32.526" x2="24" y2="41.282" gradientUnits="userSpaceOnUse"><stop offset="0" stop-color="#7283d6" stop-opacity="0"/><stop offset="1" stop-color="#4d62cb"/></linearGradient></defs><title>User Interface Gradient</title><g id="Cloud_Upload" data-name="Cloud Upload"><path class="cls-1" d="M29,26.438a1,1,0,0,0,.768-1.641l-4.232-5.078a2.065,2.065,0,0,0-3.073,0L18.231,24.8a1,1,0,1,0,1.537,1.281L23,22.2V40a1,1,0,0,0,2,0V22.2l3.231,3.878A1,1,0,0,0,29,26.438Z"/><path class="cls-2" d="M36.7,15.476a10.994,10.994,0,0,0-20.535-2.4A9,9,0,1,0,15,31h6V27.674a3,3,0,0,1-4.306-4.156l4.232-5.079a4.063,4.063,0,0,1,6.145,0l4.233,5.08A3,3,0,0,1,27,27.675V31h7a8,8,0,0,0,2.7-15.524Z"/><path class="cls-3" d="M17.084,27.746a3.005,3.005,0,0,1-.39-4.229L17.959,22H6a9.01,9.01,0,0,0,9,9h6V27.674a3,3,0,0,1-3.916.072Z"/><path class="cls-4" d="M30.041,22,31.3,23.517A3,3,0,0,1,27,27.675V31h7a8.009,8.009,0,0,0,8-8,7.9,7.9,0,0,0-.079-1Z"/><path class="cls-5" d="M23,32v8a1,1,0,0,0,2,0V32Z"/></g></svg>