<svg xmlns="http://www.w3.org/2000/svg" xmlns:xlink="http://www.w3.org/1999/xlink" viewBox="0 0 48 48"><defs><style>.cls-1{fill:url(#linear-gradient);}.cls-2{fill:url(#linear-gradient-2);}.cls-3{fill:url(#linear-gradient-3);}</style><linearGradient id="linear-gradient" x1="24" y1="-2.625" x2="24" y2="15.754" gradientTransform="matrix(1, 0, 0, -1, 0, 22)" gradientUnits="userSpaceOnUse"><stop offset="0" stop-color="#7283d6"/><stop offset="1" stop-color="#9aa6e2"/></linearGradient><linearGradient id="linear-gradient-2" y1="-19.625" x2="24" y2="8.641" xlink:href="#linear-gradient"/><linearGradient id="linear-gradient-3" x1="24" y1="29.168" x2="24" y2="41.855" gradientUnits="userSpaceOnUse"><stop offset="0" stop-color="#7283d6" stop-opacity="0"/><stop offset="1" stop-color="#4d62cb"/></linearGradient></defs><title>User Interface Gradient</title><g id="Upload"><path class="cls-1" d="M40,24a2,2,0,0,1-2-2V14a4,4,0,0,0-4-4H14a4,4,0,0,0-4,4v8a2,2,0,0,1-4,0V14a8.009,8.009,0,0,1,8-8H34a8.009,8.009,0,0,1,8,8v8A2,2,0,0,1,40,24Z"/><path class="cls-2" d="M20.99,14.4a4,4,0,0,1,6.02,0l5.5,6.28a2,2,0,1,1-3.01,2.634L26,19.323V40a2,2,0,0,1-4,0V19.323l-3.5,3.994a2,2,0,1,1-3.01-2.634Z"/><path class="cls-3" d="M22,29V40a2,2,0,0,0,4,0V29Z"/></g></svg>