<svg xmlns="http://www.w3.org/2000/svg" xmlns:xlink="http://www.w3.org/1999/xlink" viewBox="0 0 48 48"><defs><style>.cls-1{fill:url(#linear-gradient);}.cls-2{fill:url(#linear-gradient-2);}.cls-3{fill:url(#linear-gradient-3);}.cls-4{fill:url(#linear-gradient-4);}</style><linearGradient id="linear-gradient" x1="19.09" y1="8.476" x2="29.09" y2="19.726" gradientUnits="userSpaceOnUse"><stop offset="0" stop-color="#9aa6e2"/><stop offset="1" stop-color="#7283d6"/></linearGradient><linearGradient id="linear-gradient-2" x1="24" y1="25.167" x2="24" y2="40.855" xlink:href="#linear-gradient"/><linearGradient id="linear-gradient-3" x1="24" y1="34.906" x2="24" y2="43" gradientUnits="userSpaceOnUse"><stop offset="0" stop-color="#7283d6" stop-opacity="0"/><stop offset="1" stop-color="#4d62cb"/></linearGradient><linearGradient id="linear-gradient-4" x1="24.29" y1="14.329" x2="30.594" y2="21.421" xlink:href="#linear-gradient-3"/></defs><title>User Interface Gradient</title><g id="User"><circle class="cls-1" cx="24" cy="14" r="7"/><path class="cls-2" d="M19,25H29A10,10,0,0,1,39,35v4a2,2,0,0,1-2,2H11a2,2,0,0,1-2-2V35A10,10,0,0,1,19,25Z"/><path class="cls-3" d="M9.05,34c-.033.329-.05.662-.05,1v4a2,2,0,0,0,2,2H37a2,2,0,0,0,2-2V35c0-.338-.018-.671-.05-1Z"/><path class="cls-4" d="M28.736,8.856,18.27,18.014A7,7,0,1,0,28.736,8.856Z"/></g></svg>