<svg xmlns="http://www.w3.org/2000/svg" xmlns:xlink="http://www.w3.org/1999/xlink" viewBox="0 0 48 48"><defs><style>.cls-1{fill:url(#linear-gradient);}.cls-2{fill:url(#linear-gradient-3);}</style><linearGradient id="linear-gradient" x1="7.753" y1="7.499" x2="40.128" y2="40.499" gradientUnits="userSpaceOnUse"><stop offset="0" stop-color="#9aa6e2"/><stop offset="1" stop-color="#7283d6"/></linearGradient><linearGradient id="linear-gradient-3" x1="25.84" y1="25.655" x2="43.778" y2="41.78" gradientUnits="userSpaceOnUse"><stop offset="0" stop-color="#7283d6" stop-opacity="0"/><stop offset="1" stop-color="#4d62cb"/></linearGradient></defs><title>User Interface Gradient</title><g id="Zoom_In-2" data-name="Zoom In"><path class="cls-1" d="M41.343,38.515l-8.606-8.606a14.912,14.912,0,1,0-2.828,2.828l8.606,8.606a2,2,0,0,0,2.828-2.828ZM20.928,32.071A11.143,11.143,0,1,1,32.072,20.929,11.155,11.155,0,0,1,20.928,32.071Z"/><path class="cls-1" d="M25.928,18.929h-3v-3a2,2,0,1,0-4,0v3h-3a2,2,0,1,0,0,4h3v3a2,2,0,0,0,4,0v-3h3a2,2,0,0,0,0-4Z"/><path class="cls-2" d="M32.736,29.909a14.769,14.769,0,0,0,1.3-15.95l-2.79,2.79a11.128,11.128,0,0,1-14.5,14.5l-2.791,2.791a14.768,14.768,0,0,0,15.95-1.3l8.606,8.606a2,2,0,0,0,2.828-2.828Z"/></g></svg>